<?xml version="1.0" standalone="no"?>
<!DOCTYPE svg PUBLIC "-//W3C//DTD SVG 1.1//EN" "http://www.w3.org/Graphics/SVG/1.1/DTD/svg11.dtd">
<svg xmlns="http://www.w3.org/2000/svg">
<defs >
<font id="JosefinSlab" horiz-adv-x="508" ><font-face
    font-family="Josefin Slab Thin Thin"
    units-per-em="1000"
    panose-1="2 0 0 0 0 0 0 0 0 0"
    ascent="750"
    descent="-250"
    alphabetic="0" />
<glyph unicode=" " horiz-adv-x="300" />
<glyph unicode="!" horiz-adv-x="201" d="M120 56Q120 65 114 70T100 76Q93 76 87 71T81 56Q81 48 87 42T100 36Q108 36 114 42T120 56ZM107 166V750H93V166H107Z" />
<glyph unicode="&quot;" horiz-adv-x="293" d="M210 472Q211 535 212 596T214 720H196V472H210ZM77 472Q78 535 79 596T81 720H63V472H77Z" />
<glyph unicode="#" horiz-adv-x="571" d="M182 407H352L332 239H162L182 407ZM134 0L160 225H330L304 0H318L344 225H480L481 239H346L366 407H503L504 421H368L395 643H381L354 421H184L211 643H197L170 421H53L52 407H168L148 239H30L29 225H146L120 0H134Z" />
<glyph unicode="$" horiz-adv-x="567" d="M245 -68V-8Q288 -7 325 7T391 47Q419 72 435 107T450 186Q449 238 431 271T383 325Q354 345 318 357T245 380V690Q290 688 321 678T372 653V546H386V660Q356 686 317 694T245 704V764H232V704Q187 703 155 686T102 642Q82
615 73 583T66 517Q68 479 82 455T120 414Q143 397 172 387T232 367V6Q172 7 130 26T60 74V164H46V64Q55 55 70 43T109 20Q132 9 162 1T232 -8V-68H245ZM245 363Q280 353 314 342T376 312Q403 292 419 261T436 182Q436 143 420 111T378 57Q351 34 317 21T245 6V363ZM80
530Q80 560 89 588T118 640Q137 662 165 675T232 690V383Q202 392 175 402T126 430Q105 446 93 470T80 530Z" />
<glyph unicode="%" horiz-adv-x="726" d="M454 46Q441 58 434 75T426 112Q426 131 433 148T454 179Q467 192 484 199T522 207Q542 207 559 200T590 179Q603 166 610 149T618 112Q618 92 611 75T590 46Q577 33 560 26T522 18Q502 18 485 25T454 46ZM599 36Q614
50 623 70T632 113Q632 135 623 155T599 190Q584 204 564 212T522 221Q499 221 479 213T444 190Q429 175 421 155T412 113Q412 90 420 70T444 36Q459 21 479 13T522 4Q544 4 564 12T599 36ZM150 322Q137 334 130 351T122 388Q122 407 129 424T150 455Q163 468 180
475T218 483Q238 483 255 476T286 455Q299 442 306 425T314 388Q314 368 307 351T286 322Q273 309 256 302T218 294Q198 294 181 301T150 322ZM295 312Q310 326 319 346T328 389Q328 411 319 431T295 466Q280 480 260 488T218 497Q195 497 175 489T140 466Q125
451 117 431T108 389Q108 366 116 346T140 312Q155 297 175 289T218 280Q240 280 260 288T295 312ZM224 0Q299 126 373 250T522 500H506Q431 374 357 250T208 0H224Z" />
<glyph unicode="&amp;" horiz-adv-x="700" d="M300 -7Q349 -7 390 14T457 72L514 -19L525 -11L466 84Q479 106 485 129T494 176Q496 200 496 224T495 274V361H601V375H481V187Q481 162 475 140T457 98L208 504Q191 531 184 560T182 618Q186 645 203 670T251 715Q276
731 301 734T352 733Q377 728 401 717T448 693L454 706Q435 718 411 729T358 745Q330 750 301 747T243 726Q210 706 192 679T169 621Q164 590 171 558T197 496L269 379Q234 373 204 356T153 314Q131 288 119 256T106 187Q106 146 121 111T163 50Q189 23 224 8T300
-7ZM300 7Q262 7 230 21T173 60Q148 84 134 116T120 187Q120 221 132 252T165 307Q186 331 215 346T277 366L449 85Q425 50 386 29T300 7Z" />
<glyph unicode="&apos;" horiz-adv-x="147" d="M81 472Q82 535 83 596T85 720H67V472H81Z" />
<glyph unicode="(" horiz-adv-x="394" d="M315 -140Q286 -107 259 -62T209 38Q187 93 174 157T161 292Q161 363 174 427T209 546Q231 601 258 646T315 724Q314 730 314 735T312 747Q280 714 251 667T198 561Q175 503 161 435T147 292Q147 217 161 149T198 23Q221
-35 250 -82T312 -163Q313 -157 313 -152T315 -140Z" />
<glyph unicode=")" horiz-adv-x="400" d="M228 23Q251 81 265 149T279 292Q279 367 265 435T228 561Q205 619 175 666T114 747Q113 741 113 736T111 724Q140 691 167 646T217 546Q239 491 252 427T265 292Q265 221 252 157T217 38Q195 -17 168 -62T111 -140Q112
-146 112 -151T114 -163Q145 -130 175 -83T228 23Z" />
<glyph unicode="*" horiz-adv-x="335" d="M172 434Q173 466 173 498T174 562Q211 540 229 529T285 496L294 511L182 575Q211 592 238 608T295 641L288 653Q259 637 231 621T174 589Q175 622 175 654T176 720H158V589Q130 606 102 621T46 654L39 642Q76 620 94
609T150 576Q113 555 95 545T39 513L48 498Q76 514 103 529T158 561V434H172Z" />
<glyph unicode="+" horiz-adv-x="543" d="M273 51V225H446V239H273V411H259V239H86V225H259V51H273Z" />
<glyph unicode="," horiz-adv-x="200" d="M41 -120Q63 -68 84 -17T127 86H104Q84 34 66 -17T27 -120H41Z" />
<glyph unicode="-" horiz-adv-x="300" d="M237 184V198H53V184H237Z" />
<glyph unicode="." horiz-adv-x="163" d="M106 20Q106 28 100 34T86 40Q78 40 72 34T66 20Q66 12 72 6T86 0Q94 0 100 6T106 20Z" />
<glyph unicode="/" horiz-adv-x="322" d="M31 -19Q101 171 170 358T309 736H295Q225 546 156 359T17 -19H31Z" />
<glyph unicode="0" horiz-adv-x="616" d="M492 89Q529 134 551 194T573 324Q573 372 560 430T515 539Q484 589 433 623T308 658Q233 658 181 625T97 541Q65 490 51 433T36 327Q36 257 56 197T113 91Q149 46 197 20T301 -7Q356 -7 405 18T492 89ZM128 95Q93 137
72 196T51 328Q51 401 71 459T126 560Q160 601 206 622T307 644Q361 644 407 621T487 557Q521 515 540 456T559 323Q559 251 537 192T479 92Q443 51 397 29T303 7Q255 7 209 30T128 95Z" />
<glyph unicode="1" horiz-adv-x="249" d="M241 0V14H161V650H34V636H147V14H67V0H241Z" />
<glyph unicode="2" horiz-adv-x="495" d="M449 0V127H435V14H89Q141 68 196 123T298 235Q344 291 373 348T403 464Q403 506 391 541T355 603Q331 629 299 643T228 658Q185 658 152 644T96 604Q73 578 62 544T50 469Q50 428 62 400T95 347L104 355Q84 377 74 405T64
469Q64 495 71 525T97 583Q115 609 146 626T228 644Q253 644 281 635T333 604Q357 582 373 545T389 452Q389 405 361 352T286 241Q239 183 178 123T53 0H449Z" />
<glyph unicode="3" horiz-adv-x="515" d="M386 52Q414 79 430 116T446 195Q446 240 428 278T380 344Q349 371 309 385T223 398L422 650H103V568H117V636H390L178 361Q192 372 207 378T239 384Q278 384 313 369T375 329Q401 303 416 269T432 195Q432 157 417 123T375
62Q349 36 314 21T239 6Q197 6 162 24T103 71L93 58Q121 28 159 10T242 -8Q284 -8 321 8T386 52Z" />
<glyph unicode="4" horiz-adv-x="505" d="M486 0V14H403V183H500V197H403V658L37 183H389V14H312V0H486ZM389 617V197H67L389 617Z" />
<glyph unicode="5" horiz-adv-x="543" d="M400 52Q427 79 443 116T460 195Q460 237 444 273T400 337Q372 364 335 379T255 395Q229 395 205 389T157 372V636H416V568H430V650H143V341Q160 358 189 369T253 381Q293 381 328 367T389 327Q415 301 430 268T446 195Q446
157 431 123T389 62Q363 36 328 21T253 6Q215 6 183 19T126 58L115 48Q143 22 178 7T255 -8Q297 -8 334 8T400 52Z" />
<glyph unicode="6" horiz-adv-x="520" d="M119 61Q93 86 78 120T63 193Q63 232 78 266T119 326Q144 351 179 366T253 381Q292 381 327 366T388 326Q414 300 429 266T444 193Q444 154 429 120T388 61Q362 35 327 21T253 6Q214 6 179 20T119 61ZM399 51Q426 78 442
114T458 193Q458 235 442 271T399 336Q371 363 334 379T254 395Q203 395 161 373T91 314Q103 342 126 376T187 451Q223 490 274 533T392 620Q390 623 387 626T382 633Q326 592 267 546T160 445Q112 391 81 329T50 193Q50 151 66 115T110 51Q137 24 174 8T254 -8Q296
-8 333 8T399 51Z" />
<glyph unicode="7" horiz-adv-x="469" d="M123 0L415 650H14V568H28V636H392L105 0H123Z" />
<glyph unicode="8" horiz-adv-x="510" d="M160 429Q142 444 132 465T122 511Q122 538 132 562T160 604Q178 622 202 633T254 644Q281 644 304 633T346 604Q363 586 372 562T382 511Q382 486 373 465T346 429Q328 413 305 405T254 396Q226 396 202 404T160 429ZM121
62Q96 88 82 122T67 195Q67 234 81 267T121 327Q146 352 180 366T253 381Q293 381 328 367T389 327Q415 301 430 268T446 195Q446 157 431 123T389 62Q363 36 328 21T253 5Q214 5 180 20T121 62ZM400 52Q427 79 443 116T460 195Q460 231 448 262T415 320Q394 345
366 363T304 389Q345 403 370 436T396 514Q396 544 385 570T354 616Q334 635 308 646T252 658Q222 658 196 647T151 617Q131 598 120 573T108 518Q108 472 135 438T204 389Q171 381 144 363T96 319Q76 293 65 262T53 195Q53 153 69 116T113 52Q140 24 176 8T255
-8Q297 -8 334 8T400 52Z" />
<glyph unicode="9" horiz-adv-x="525" d="M125 299Q99 324 84 358T69 432Q69 471 84 505T125 565Q151 590 186 604T260 619Q299 619 334 605T395 565Q420 539 435 505T450 432Q450 393 435 359T395 299Q369 273 334 259T260 244Q221 244 186 258T125 299ZM353
180Q401 234 432 296T463 432Q463 474 447 510T404 574Q376 601 339 617T259 633Q217 633 180 617T115 574Q87 547 71 511T55 432Q55 390 71 354T115 290Q142 262 179 246T259 230Q310 230 352 252T422 311Q410 283 387 249T327 175Q290 135 239 92T121 5Q123 2
126 -1T131 -8Q187 33 246 79T353 180Z" />
<glyph unicode=":" horiz-adv-x="175" d="M105 270Q105 278 99 284T85 290Q77 290 71 284T65 270Q65 262 71 256T85 250Q93 250 99 256T105 270ZM105 20Q105 28 99 34T85 40Q77 40 71 34T65 20Q65 12 71 6T85 0Q93 0 99 6T105 20Z" />
<glyph unicode=";" horiz-adv-x="201" d="M128 270Q128 278 122 284T108 290Q100 290 94 284T88 270Q88 262 94 256T108 250Q116 250 122 256T128 270ZM26 -120Q48 -68 69 -17T112 86H89Q69 34 51 -17T12 -120H26Z" />
<glyph unicode="&lt;" horiz-adv-x="680" d="M553 1Q450 61 347 119T141 238Q244 298 347 356T553 475V491Q443 428 334 365T115 238Q225 175 334 112T553 -15V1Z" />
<glyph unicode="=" horiz-adv-x="708" d="M606 150V164H100V150H606ZM606 344V358H100V344H606Z" />
<glyph unicode="&gt;" horiz-adv-x="650" d="M553 238Q443 301 334 364T115 491V475Q218 415 321 357T527 238Q424 178 321 120T115 1V-15Q225 48 334 111T553 238Z" />
<glyph unicode="?" horiz-adv-x="452" d="M222 164V242Q222 275 229 294T248 325Q261 337 277 346T314 370Q359 402 385 442T412 537Q412 577 397 612T356 674Q329 701 293 716T216 732Q184 732 155 722T101 695Q77 677 59 653T31 599Q34 598 37 598T44 596Q53
623 69 645T109 684Q132 700 159 709T216 718Q254 718 287 705T346 666Q370 642 384 609T398 537Q398 500 384 468T339 408Q315 387 292 373T250 344Q231 329 220 311T208 261V164H222ZM235 45Q235 54 229 59T215 65Q208 65 202 60T196 45Q196 37 202 31T215 25Q223
25 229 31T235 45Z" />
<glyph unicode="@" horiz-adv-x="990" d="M363 61Q338 85 324 117T310 188Q310 225 324 258T363 316Q387 341 419 355T490 369Q527 369 560 355T618 316Q643 291 657 258T671 188Q671 150 657 118T618 61Q593 36 560 22T490 8Q452 8 420 22T363 61ZM717 -134Q715
-131 713 -129T708 -123Q661 -155 606 -174T489 -193Q410 -193 341 -163T220 -82Q168 -30 138 39T108 188Q108 267 138 337T220 459Q271 511 340 541T489 571Q568 571 637 541T759 459Q811 407 841 337T871 188Q870 138 861 103T834 47Q820 30 801 22T756 13H685V375H675Q673
346 672 318T671 260Q663 279 652 296T625 328Q599 354 565 368T490 383Q449 383 414 368T352 326Q326 300 311 264T296 188Q296 147 311 112T352 50Q379 24 414 9T490 -6Q521 -6 549 3T602 28Q625 45 643 67T672 117L671 54V0H749Q774 0 797 7T840 34Q859 55 871
92T885 188Q885 270 854 342T769 469Q715 523 643 554T489 585Q407 585 335 554T210 469Q156 415 125 343T94 189Q94 107 125 35T210 -91Q263 -145 335 -176T489 -207Q555 -207 611 -188T717 -134Z" />
<glyph unicode="A" horiz-adv-x="828" d="M209 0V14H125Q157 89 189 164T253 316H575Q607 240 639 165T703 14H619V0H793V14H718Q642 194 566 372T414 732Q338 551 262 373T109 14H35V0H209ZM405 675Q408 685 410 691T414 700L423 675L569 330H259Q296 417 333
502T405 675Z" />
<glyph unicode="B" horiz-adv-x="516" d="M269 0Q310 0 348 11T416 46Q445 68 463 101T481 180Q481 216 469 245T435 296Q413 318 385 332T327 352Q392 369 423 416T454 525Q454 571 440 604T398 659Q371 680 334 690T251 700H35V686H106V14H35V0H269ZM120 344H249Q291
344 330 334T400 304Q430 284 448 252T467 177Q467 136 451 106T408 55Q381 34 345 24T268 14H120V344ZM120 686H263Q302 686 334 677T391 649Q414 630 427 600T440 528Q440 452 394 405T267 358H120V686Z" />
<glyph unicode="C" horiz-adv-x="610" d="M574 42L565 54Q526 31 482 19T389 6Q319 6 257 33T149 107Q103 153 76 215T49 348Q49 419 76 482T150 592Q196 639 258 666T392 694Q437 694 480 683T561 649V546H575V658Q534 682 489 695T392 708Q318 708 253 680T140
603Q91 554 63 489T35 349Q35 275 63 210T140 97Q188 48 253 20T392 -8Q443 -8 488 5T574 42Z" />
<glyph unicode="D" horiz-adv-x="632" d="M211 0Q317 0 390 32T510 116Q556 167 576 229T597 350Q597 430 569 495T493 606Q445 651 381 675T245 700H35V686H108V14H35V0H211ZM122 686H251Q318 686 378 663T485 596Q531 552 557 490T584 350Q584 293 565 234T502
126Q458 77 389 46T220 14H122V686Z" />
<glyph unicode="E" horiz-adv-x="571" d="M536 0V154H522V14H131V346H483V360H131V686H508V546H522V700H35V686H117V14H35V0H536Z" />
<glyph unicode="F" horiz-adv-x="557" d="M209 0V14H131V346H483V360H131V686H508V546H522V700H35V686H117V14H35V0H209Z" />
<glyph unicode="G" horiz-adv-x="609" d="M574 40V298H388V284H560V49Q522 27 479 16T389 4Q319 4 257 31T149 105Q103 151 76 213T49 346Q49 417 76 480T150 590Q196 637 258 664T392 692Q440 692 484 680T567 644L575 656Q534 680 489 693T392 706Q318 706 253
678T140 601Q91 552 63 487T35 347Q35 273 63 208T140 95Q188 46 253 18T392 -10Q443 -10 488 3T574 40Z" />
<glyph unicode="H" horiz-adv-x="716" d="M209 0V14H126V346H590V14H507V0H681V14H604V686H681V700H507V686H590V360H126V686H209V700H35V686H112V14H35V0H209Z" />
<glyph unicode="I" horiz-adv-x="244" d="M209 0V14H126V686H209V700H35V686H112V14H35V0H209Z" />
<glyph unicode="J" horiz-adv-x="255" d="M166 -80Q191 -51 205 -9T220 90V700H35V686H206V93Q206 42 193 2T157 -66Q134 -95 103 -110T35 -128V-142Q73 -141 106 -125T166 -80Z" />
<glyph unicode="K" horiz-adv-x="686" d="M209 0V14H126V316L229 414Q308 314 386 214T543 14H477V0H651V14H563Q482 117 402 219T240 424L515 686H603V700H429V686H493L143 351L125 331Q125 339 125 345T126 360V686H209V700H35V686H112V14H35V0H209Z" />
<glyph unicode="L" horiz-adv-x="566" d="M531 0V154H517V14H126V686H209V700H35V686H112V14H35V0H531Z" />
<glyph unicode="M" horiz-adv-x="961" d="M209 0V14H126V645Q126 656 126 667T125 690Q131 681 134 677T143 665L478 228L806 656Q814 667 818 673T831 690Q831 675 831 668T830 645V14H752V0H926V14H844V686H921V700H821Q735 589 650 477T478 253Q412 338 319
460T135 700H35V686H112V14H35V0H209Z" />
<glyph unicode="N" horiz-adv-x="840" d="M723 686H805V700H631V686H709V34L712 2L693 28L138 700H35V686H112V14H35V0H209V14H126V664L124 690L142 670L723 -32V686Z" />
<glyph unicode="O" horiz-adv-x="786" d="M646 97Q694 145 722 210T751 349Q751 423 723 488T646 603Q597 651 532 679T392 708Q318 708 253 680T140 603Q91 554 63 489T35 349Q35 275 63 210T140 97Q188 48 253 20T392 -8Q466 -8 531 20T646 97ZM149 107Q103
153 76 215T49 348Q49 419 76 482T150 592Q196 639 258 666T392 694Q463 694 525 667T635 592Q682 545 709 483T737 349Q737 278 710 216T635 107Q587 60 524 33T389 6Q319 6 257 33T149 107Z" />
<glyph unicode="P" horiz-adv-x="481" d="M209 0V14H120V341H232Q335 341 390 390T446 522Q446 570 426 604T375 659Q345 680 310 690T246 700H35V686H106V14H35V0H209ZM120 686H236Q278 686 313 673T376 637Q402 614 417 585T432 522Q432 495 423 466T392 412Q369
387 331 371T235 355H120V686Z" />
<glyph unicode="Q" horiz-adv-x="808" d="M149 107Q103 153 76 215T49 348Q49 419 76 482T150 592Q196 639 258 666T392 694Q463 694 525 667T635 592Q682 545 709 483T737 349Q737 278 710 216T635 107Q587 60 524 33T389 6Q319 6 257 33T149 107ZM466 0H773V14H516Q567
33 610 66T685 143Q716 186 733 238T751 349Q751 423 723 488T646 603Q597 651 532 679T392 708Q318 708 253 680T140 603Q91 554 63 489T35 349Q35 275 63 210T140 97Q188 48 253 20T392 -8Q410 -8 428 -6T466 0Z" />
<glyph unicode="R" horiz-adv-x="569" d="M209 0V14H120V341H232Q244 341 256 342T279 344L442 0H534V14H450L294 346Q368 360 407 406T446 522Q446 570 426 604T375 659Q345 680 310 690T246 700H35V686H106V14H35V0H209ZM120 686H236Q278 686 313 673T376 637Q402
614 417 585T432 522Q432 495 423 466T392 412Q369 387 331 371T235 355H120V686Z" />
<glyph unicode="S" horiz-adv-x="478" d="M389 45Q418 70 434 106T450 186Q449 251 421 287T352 344Q310 364 263 375T175 403Q134 419 107 447T80 530Q80 561 89 589T119 641Q138 663 167 676T236 690Q284 690 318 679T372 653V546H386V660Q370 673 351 682T313
696Q293 700 274 702T238 704Q191 704 158 688T104 644Q83 617 74 584T66 517Q68 476 85 450T130 408Q156 391 189 381T256 361Q290 351 322 340T380 309Q405 289 420 259T436 182Q436 142 419 110T375 54Q347 31 311 19T236 6Q174 6 132 25T60 74V164H46V64Q55
55 71 43T112 20Q135 8 166 0T238 -8Q282 -8 321 5T389 45Z" />
<glyph unicode="T" horiz-adv-x="623" d="M399 0V14H318V686H574V546H588V700H35V546H49V686H304V14H225V0H399Z" />
<glyph unicode="U" horiz-adv-x="674" d="M497 52Q527 81 544 125T562 226V686H639V700H465V686H548V229Q548 175 532 134T488 64Q460 35 421 21T337 6Q291 6 252 20T185 64Q157 92 142 133T126 229V686H209V700H35V686H112V226Q112 169 129 125T176 52Q206 22
247 7T337 -8Q385 -8 426 7T497 52Z" />
<glyph unicode="V" horiz-adv-x="844" d="M726 686H809V700H635V686H711Q641 519 571 355T431 25L422 0L413 25Q343 191 273 355T133 686H209V700H35V686H117Q193 505 269 327T422 -32Q498 148 574 326T726 686Z" />
<glyph unicode="W" horiz-adv-x="1220" d="M491 132Q520 200 549 269T608 407L617 385L794 -32Q870 148 946 326T1098 686H1185V700H1011V686H1083Q1013 519 943 355T803 25L794 0L785 25Q713 190 644 354T505 686H585V700H411V686H490Q518 620 545 555T600 425Q570
354 539 283T479 141Q464 106 450 71T422 0L413 25Q341 190 272 354T133 686H209V700H35V686H117Q193 505 269 327T422 -32Q440 9 457 50T491 132Z" />
<glyph unicode="X" horiz-adv-x="710" d="M209 0V14H139Q190 95 242 174T345 335L353 348Q365 332 375 314T397 279L571 14H501V0H675V14H588Q532 100 477 184T365 356Q418 439 470 520T576 686H675V700H501V686H560L365 381L357 368L349 381Q299 457 250 533T150
686H209V700H35V686H134L345 360L124 14H35V0H209Z" />
<glyph unicode="Y" horiz-adv-x="718" d="M447 0V14H366V262Q429 368 492 473T619 686H683V700H509V686H602L371 298L360 272H359L347 298Q290 396 232 492T114 686H209V700H35V686H97Q161 580 224 474T352 262V14H273V0H447Z" />
<glyph unicode="Z" horiz-adv-x="629" d="M594 0V174H580V14H55L565 686V700H68V735H52V686H545L35 14V0H594Z" />
<glyph unicode="[" horiz-adv-x="338" d="M246 -149V-135H99V732H246V746H83V-149H246Z" />
<glyph unicode="\" horiz-adv-x="320" d="M309 -19Q239 171 170 358T31 736H17Q87 546 156 359T295 -19H309Z" />
<glyph unicode="]" horiz-adv-x="342" d="M251 -149V746H88V732H235V-135H88V-149H251Z" />
<glyph unicode="^" horiz-adv-x="470" d="M128 479Q154 517 180 556T232 633Q258 595 284 556T336 479H352Q322 524 292 569T232 660Q202 615 172 570T112 479H128Z" />
<glyph unicode="_" horiz-adv-x="600" d="M500 0V14H100V0H500Z" />
<glyph unicode="`" horiz-adv-x="200" d="M92 479Q69 512 47 545T2 612H-14Q9 579 31 546T76 479H92Z" />
<glyph unicode="a" horiz-adv-x="532" d="M497 0V14H424V375H414Q412 346 411 318T410 260Q388 314 340 348T229 383Q188 383 153 368T92 326Q65 300 50 264T35 188Q35 147 50 112T92 51Q118 24 153 9T229 -6Q260 -6 288 3T341 29Q364 45 382 67T411 117Q411 101
411 86T410 54V0H497ZM229 369Q266 369 299 355T357 316Q382 291 396 258T410 188Q410 150 396 118T357 61Q332 36 299 22T229 8Q191 8 159 22T102 61Q77 85 63 117T49 188Q49 225 63 258T102 316Q126 341 158 355T229 369Z" />
<glyph unicode="b" horiz-adv-x="532" d="M35 0H122V54Q122 70 122 85T121 117Q131 90 149 68T192 29Q215 12 243 3T303 -6Q343 -6 378 9T441 51Q467 77 482 112T497 188Q497 228 482 264T441 326Q414 352 379 367T303 383Q272 383 244 374T192 349Q168 332 150
310T122 260Q122 280 122 290T122 321V750H35V736H108V14H35V0ZM303 369Q340 369 373 355T431 316Q455 291 469 258T483 188Q483 150 469 118T431 61Q406 36 373 22T303 8Q265 8 233 22T175 61Q150 85 136 117T122 188Q122 225 136 258T175 316Q200 341 232 355T303
369Z" />
<glyph unicode="c" horiz-adv-x="387" d="M352 37L342 47Q319 29 290 19T229 8Q191 8 159 22T102 61Q77 85 63 117T49 188Q49 225 63 258T102 316Q126 341 158 355T229 369Q260 369 287 359T338 332V253H352V340Q327 360 296 371T229 383Q188 383 153 368T92 326Q65
300 50 264T35 188Q35 147 50 112T92 51Q118 24 153 9T229 -6Q264 -6 295 5T352 37Z" />
<glyph unicode="d" horiz-adv-x="532" d="M497 0V14H424V750H337V736H410V379Q410 339 410 320T410 260Q399 287 382 309T341 349Q317 365 289 374T229 383Q188 383 153 368T92 326Q65 300 50 264T35 188Q35 147 50 112T92 51Q118 24 153 9T229 -6Q260 -6 288
3T341 29Q364 45 382 67T411 117Q411 101 411 86T410 54V0H497ZM229 369Q266 369 299 355T357 316Q382 291 396 258T410 188Q410 150 396 118T357 61Q332 36 299 22T229 8Q191 8 159 22T102 61Q77 85 63 117T49 188Q49 225 63 258T102 316Q126 341 158 355T229
369Z" />
<glyph unicode="e" horiz-adv-x="435" d="M229 369Q279 369 319 341T380 266Q299 233 218 201T56 135Q43 178 51 220T85 295Q109 328 146 348T229 369ZM362 46L353 57Q329 34 297 21T229 8Q171 8 126 39T61 122Q146 157 229 190T398 259Q388 286 372 308T336 346Q314
364 287 373T229 383Q188 383 153 368T92 326Q65 300 50 264T35 188Q35 147 50 112T92 50Q118 24 153 9T229 -6Q268 -6 302 8T362 46Z" />
<glyph unicode="f" horiz-adv-x="281" d="M209 0V14H110V361H240V375H110V522Q110 571 124 610T162 678Q185 706 216 721T281 736V750Q243 748 210 733T151 688Q125 659 111 616T96 518V375H35V361H96V14H35V0H209Z" />
<glyph unicode="g" horiz-adv-x="533" d="M90 -193Q116 -224 152 -237T239 -250Q277 -249 310 -233T370 -188Q395 -159 409 -117T424 -18V361H498V375H414Q412 346 411 318T410 260Q388 314 340 348T229 383Q188 383 153 368T92 326Q65 300 50 264T35 188Q35 147
50 112T92 51Q118 24 153 9T229 -6Q260 -6 288 3T341 29Q364 45 382 67T411 117Q411 101 411 86T410 54V-22Q410 -71 396 -110T359 -178Q336 -206 305 -221T239 -236Q198 -236 161 -223T101 -183L90 -193ZM229 369Q266 369 299 355T357 316Q382 291 396 258T410
188Q410 150 396 118T357 61Q332 36 299 22T229 8Q191 8 159 22T102 61Q77 85 63 117T49 188Q49 225 63 258T102 316Q126 341 158 355T229 369Z" />
<glyph unicode="h" horiz-adv-x="522" d="M209 0V14H128V220Q128 252 141 279T179 327Q202 346 232 357T297 368Q341 366 365 340T392 277V14H313V0H487V14H406V270Q404 320 374 351T290 382Q233 382 189 353T125 277L128 322V750H41V736H114V14H35V0H209Z" />
<glyph unicode="i" horiz-adv-x="244" d="M209 0V14H131V375H35V361H117V14H35V0H209ZM144 500Q144 508 138 514T124 520Q116 520 110 514T104 500Q104 492 110 486T124 480Q132 480 138 486T144 500Z" />
<glyph unicode="j" horiz-adv-x="166" d="M131 -7V375H35V361H117V-11Q117 -62 102 -102T62 -171L74 -180Q100 -151 115 -108T131 -7ZM144 500Q144 508 138 514T124 520Q116 520 110 514T104 500Q104 492 110 486T124 480Q132 480 138 486T144 500Z" />
<glyph unicode="k" horiz-adv-x="487" d="M35 0H209V14H121V155L195 225Q233 171 272 119T351 14H278V0H452V14H369Q328 69 288 124T207 235Q245 271 273 298T338 361H417V375H243V361H319L121 176V750H34V736H107V14H35V0Z" />
<glyph unicode="l" horiz-adv-x="244" d="M209 0V14H121V750H34V736H107V14H35V0H209Z" />
<glyph unicode="m" horiz-adv-x="800" d="M209 0V14H128V220Q128 252 141 279T179 327Q202 346 232 357T297 368Q341 366 365 340T392 277V14H313V0H487V14H406V226Q407 257 421 283T459 328Q482 347 512 357T575 368Q619 366 643 340T670 277V14H591V0H765V14H684V270Q682
320 652 351T568 382Q513 382 470 355T405 282Q400 327 370 354T290 382Q233 382 189 353T125 277Q125 290 125 299T124 322L122 375H39V361H114V14H35V0H209Z" />
<glyph unicode="n" horiz-adv-x="522" d="M209 0V14H128V220Q128 252 141 279T179 327Q202 346 232 357T297 368Q341 366 365 340T392 277V14H313V0H487V14H406V270Q404 320 374 351T290 382Q233 382 189 353T125 277Q125 290 125 299T124 322L122 375H39V361H114V14H35V0H209Z"
/>
<glyph unicode="o" horiz-adv-x="461" d="M369 51Q395 77 410 112T426 188Q426 228 411 264T369 327Q342 353 306 368T230 384Q189 384 154 369T93 327Q66 300 51 264T36 188Q36 147 51 112T93 51Q119 24 154 9T230 -6Q270 -6 306 9T369 51ZM103 61Q78 85 64 117T50
188Q50 225 64 258T103 316Q127 341 159 355T230 369Q267 369 300 355T358 316Q383 291 397 258T411 188Q411 150 397 118T358 61Q333 36 300 22T230 8Q192 8 160 22T103 61Z" />
<glyph unicode="p" horiz-adv-x="532" d="M42 -250H216V-236H123V61Q123 75 123 88T122 115Q132 88 150 66T192 27Q215 10 243 1T303 -8Q343 -8 378 7T441 49Q467 75 482 110T497 187Q497 227 482 262T441 325Q414 351 379 366T303 381Q240 381 191 347T121 257Q121
286 120 316T118 375H35V361H108V-236H42V-250ZM303 367Q340 367 373 353T431 315Q455 290 469 257T483 187Q483 149 469 117T431 59Q406 34 373 20T303 6Q265 6 233 20T175 59Q150 84 136 116T122 187Q122 224 136 257T175 315Q200 339 232 353T303 367Z" />
<glyph unicode="q" horiz-adv-x="532" d="M495 -250V-236H424V361H497V375H414Q414 346 413 316T411 257Q390 312 341 346T229 381Q188 381 153 366T92 325Q65 298 50 263T35 187Q35 146 50 111T92 49Q118 23 153 8T229 -8Q260 -8 288 1T341 27Q364 43 381 65T410
115Q410 101 410 88T409 61V-236H321V-250H495ZM229 367Q266 367 299 353T357 315Q382 290 396 257T410 187Q410 149 396 117T357 59Q332 34 299 20T229 6Q191 6 159 20T102 59Q77 84 63 116T49 187Q49 224 63 257T102 315Q126 339 158 353T229 367Z" />
<glyph unicode="r" horiz-adv-x="326" d="M209 0V14H128V220Q128 251 141 278T176 324Q199 344 228 355T291 368V382Q263 381 239 374T193 354Q170 341 153 322T125 277Q125 290 125 299T124 322L122 375H39V361H114V14H35V0H209Z" />
<glyph unicode="s" horiz-adv-x="315" d="M256 28Q270 43 277 62T284 101Q284 134 269 152T232 182Q209 193 183 199T134 216Q112 225 97 240T83 285Q83 307 91 322T113 348Q126 357 143 361T173 365Q196 365 216 360T255 343V284H269V349Q261 356 251 361T228
371Q211 376 201 377T176 379Q157 379 136 373T100 353Q86 340 78 322T69 280Q69 249 84 232T121 206Q143 196 169 189T218 172Q240 163 255 146T270 98Q270 75 261 58T238 30Q223 18 206 12T168 6Q143 6 118 10T69 32V91H55V26Q80 5 108 -1T165 -8Q195 -8 218
2T256 28Z" />
<glyph unicode="t" horiz-adv-x="300" d="M225 0V14H138V361H265V375H138V619H124V375H35V361H124V0H225Z" />
<glyph unicode="u" horiz-adv-x="518" d="M395 98L397 53L400 0H483V14H406V375H313V361H392V155Q392 123 378 96T341 49Q318 29 288 18T223 7Q179 9 155 35T128 98V375H35V361H114V105Q116 55 146 24T230 -7Q286 -7 330 21T395 98Z" />
<glyph unicode="v" horiz-adv-x="590" d="M489 361H555V375H416V361H474Q429 270 384 180T298 8Q253 96 210 184T122 361H196V375H35V361H107Q155 264 202 169T298 -23Q346 74 393 169T489 361Z" />
<glyph unicode="w" horiz-adv-x="860" d="M434 251L570 -23Q618 74 665 169T761 361H825V375H686V361H746Q701 272 658 185T570 8Q525 96 482 184T394 361H466V375H305V361H379L426 266Q394 201 362 137T298 8Q253 96 210 184T122 361H196V375H35V361H107Q155
264 202 169T298 -23L434 251Z" />
<glyph unicode="x" horiz-adv-x="488" d="M209 0V14H125Q154 54 182 94T240 175Q269 135 298 96T358 14H279V0H453V14H374Q342 58 311 100T248 186L374 361H453V375H279V361H357L240 198L121 361H209V375H35V361H103Q135 316 167 274T231 187Q199 143 169 100T107
14H35V0H209Z" />
<glyph unicode="y" horiz-adv-x="590" d="M266 -250V-236H192Q267 -86 340 62T489 361H555V375H416V361H471Q427 273 384 185T298 14Q254 101 211 187T125 361H196V375H35V361H107Q152 269 197 178T289 -4Q260 -61 231 -119T173 -236H92V-250H266Z" />
<glyph unicode="z" horiz-adv-x="429" d="M394 0V65H380V14H53Q137 102 215 187T377 361V375H61V410H47V361H359Q275 273 197 188T35 14V0H394Z" />
<glyph unicode="{" horiz-adv-x="272" d="M232 -148V-134H175Q162 -134 153 -130T138 -117Q129 -104 126 -81T123 -22V128Q123 174 118 203T103 252Q94 271 82 281T57 299Q70 306 82 316T103 344Q112 363 117 393T123 470V620Q123 658 127 682T141 719Q147 726
155 729T175 732H232V746H195Q179 746 164 745T136 732Q124 722 117 698T109 628V446Q109 426 106 403T94 359Q85 339 70 326T30 311V287Q54 286 69 273T94 239Q103 219 106 196T109 152V6Q109 -53 113 -84T129 -130Q140 -144 157 -146T195 -148H232Z" />
<glyph unicode="|" horiz-adv-x="219" d="M113 -232V700H99V-232H113Z" />
<glyph unicode="}" horiz-adv-x="320" d="M125 -148Q141 -148 156 -147T184 -136Q196 -125 203 -101T211 -30V116Q211 133 211 161T219 216Q226 244 242 264T290 287V311Q269 312 255 322T232 347Q214 377 213 417T211 482V628Q211 674 204 698T184 732Q172 743
157 744T125 746H88V732H145Q159 732 168 727T184 712Q191 699 194 677T197 620V470Q197 423 202 393T217 344Q226 326 238 316T263 299Q254 294 243 285T221 260Q211 245 204 222T197 165V-22Q197 -56 194 -79T183 -115Q177 -125 168 -129T145 -134H88V-148H125Z"
/>
<glyph unicode="~" horiz-adv-x="489" d="M388 474Q399 482 407 495T416 526L403 528Q401 511 394 501T376 484Q366 478 356 476T337 473Q323 473 311 479T283 503Q267 520 251 530T214 541Q200 541 186 538T161 526Q149 518 141 505T132 474L145 472Q147 489
154 499T172 516Q182 522 192 524T211 527Q225 527 237 521T265 497Q281 480 297 470T334 459Q348 459 362 462T388 474Z" />
<glyph unicode="&#xa0;" horiz-adv-x="300" />
<glyph unicode="&#xa1;" horiz-adv-x="200" d="M120 484Q120 475 114 470T100 464Q93 464 87 469T81 484Q81 492 87 498T100 504Q108 504 114 498T120 484ZM107 374V-210H93V374H107Z" />
<glyph unicode="&#xa2;" horiz-adv-x="385" d="M229 -68V-6Q264 -6 295 5T353 37L343 47Q320 29 291 19T229 8V369Q260 369 288 359T339 332V252H353V340Q328 360 296 371T229 383V438H215V382Q177 379 145 363T88 321Q64 295 50 261T36 188Q36 149 50 115T88
56Q112 30 144 14T215 -5V-68H229ZM50 188Q50 224 62 255T98 311Q120 335 150 350T215 368V8Q180 11 150 26T98 65Q75 89 63 120T50 188Z" />
<glyph unicode="&#xa3;" horiz-adv-x="574" d="M486 0V123H472V14H113Q127 28 131 54T136 109V311H265V325H136V504Q136 527 143 548T167 585Q183 601 211 610T281 620Q311 620 332 616T371 603Q388 594 401 579T427 539L437 545Q417 585 383 609T281 634Q209
634 166 602T122 500V325H57V311H122V164Q122 121 121 92T114 46Q109 29 99 22T70 14H26V0H486Z" />
<glyph unicode="&#xa4;" horiz-adv-x="500" d="M129 361Q129 386 138 407T164 445Q180 461 201 470T247 480Q271 480 292 471T330 445Q346 429 355 408T365 361Q365 336 356 315T330 277Q314 261 293 252T247 242Q223 242 202 251T164 277Q148 293 139 314T129
361ZM160 260Q177 245 199 237T247 228Q273 228 294 236T334 261L375 220L385 230L344 271Q360 289 369 312T379 361Q379 386 371 408T347 447L385 485L375 495L337 457Q320 474 297 484T247 494Q221 494 198 485T157 458L119 496L109 486L147 448Q132 430 124
408T115 361Q115 335 124 312T150 270L109 229L119 219L160 260Z" />
<glyph unicode="&#xa5;" horiz-adv-x="638" d="M251 0H425V14H344V100H503V114H344V263H503V277H353L597 686H661V700H487V686H580L349 298L338 272H337L325 298L92 686H187V700H13V686H75L321 277H170V263H330V114H170V100H330V14H251V0Z" />
<glyph unicode="&#xa6;" horiz-adv-x="215" d="M116 -233V117H102V-233H116ZM116 350V700H102V350H116Z" />
<glyph unicode="&#xa7;" horiz-adv-x="500" d="M173 311Q166 324 163 337T159 363Q159 380 165 397T183 428Q194 442 211 450T250 459Q269 459 287 452T321 433Q336 420 345 401T355 358Q355 340 348 323T329 292Q316 278 299 270T261 262Q234 262 211 274T173
311ZM269 18Q280 27 287 39T295 68Q295 82 288 103T264 154L200 264Q214 256 229 252T259 247Q283 247 303 256T338 282Q352 298 360 318T368 359Q368 374 365 388T353 415L266 566Q249 595 241 616T232 652Q232 665 239 674T258 691Q269 698 281 704T305 718Q303
721 302 724T298 730Q285 723 271 716T245 700Q233 691 226 680T218 653Q218 641 226 619T249 569Q262 542 279 513T313 456Q299 464 284 468T252 472Q228 472 208 463T174 438Q160 422 153 402T145 362Q145 346 149 332T161 304L248 154Q265 125 273 104T282 68Q282
55 275 46T256 29Q245 22 233 16T209 2Q211 -1 212 -4T216 -10Q229 -4 243 2T269 18Z" />
<glyph unicode="&#xa8;" horiz-adv-x="370" d="M287 500Q287 508 281 514T267 520Q259 520 253 514T247 500Q247 492 253 486T267 480Q275 480 281 486T287 500ZM122 500Q122 508 116 514T102 520Q94 520 88 514T82 500Q82 492 88 486T102 480Q110 480 116 486T122 500Z" />
<glyph unicode="&#xa9;" horiz-adv-x="793" d="M230 201Q197 233 178 276T159 371Q159 423 178 467T230 545Q263 577 306 595T399 613Q449 613 493 595T570 545Q603 512 622 468T641 371Q641 320 622 277T570 201Q537 168 493 150T399 132Q350 132 307 150T230
201ZM582 190Q616 224 635 270T655 372Q655 427 636 474T582 555Q547 589 501 608T400 627Q346 627 300 608T219 555Q184 521 165 474T145 372Q145 317 164 271T219 190Q253 156 299 137T400 118Q454 118 500 137T582 190ZM501 236L497 241Q480 231 460 226T418
220Q386 220 358 232T309 265Q288 286 276 314T264 374Q264 406 276 434T310 485Q331 506 359 518T419 531Q440 531 459 526T495 511V464H502V515Q483 526 462 531T419 537Q386 537 357 525T305 490Q283 468 270 438T256 374Q256 341 269 311T304 259Q326 237 356
225T419 213Q442 213 462 219T501 236Z" />
<glyph unicode="&#xaa;" horiz-adv-x="585" d="M417 306V316H364V576H357Q355 556 355 535T354 494Q338 532 303 557T223 582Q194 582 169 571T124 541Q105 522 94 496T83 442Q83 412 94 387T124 343Q143 323 168 313T223 302Q246 302 266 308T304 327Q321 338
334 354T354 390Q354 379 354 368T354 345V306H417ZM223 572Q250 572 273 562T316 534Q334 516 344 492T354 442Q354 414 344 391T316 350Q297 332 274 322T223 312Q196 312 173 322T132 350Q114 367 104 390T93 442Q93 468 103 492T132 534Q149 552 172 562T223
572Z" />
<glyph unicode="&#xab;" horiz-adv-x="601" d="M288 239L459 77V93Q424 130 388 166T317 239Q352 275 388 311T459 383V400Q416 359 374 320T288 239ZM117 239L288 77V93Q253 130 217 166T146 239Q181 275 217 311T288 383V400Q245 359 203 320T117 239Z" />
<glyph unicode="&#xac;" horiz-adv-x="559" d="M460 148V241H100V227H446V148H460Z" />
<glyph unicode="&#xad;" horiz-adv-x="300" d="M237 184V198H53V184H237Z" />
<glyph unicode="&#xae;" horiz-adv-x="801" d="M230 201Q197 233 178 276T159 371Q159 423 178 467T230 545Q263 577 306 595T399 613Q449 613 493 595T570 545Q603 512 622 468T641 371Q641 320 622 277T570 201Q537 168 493 150T399 132Q350 132 307 150T230
201ZM582 190Q616 224 635 270T655 372Q655 427 636 474T582 555Q547 589 501 608T400 627Q346 627 300 608T219 555Q184 521 165 474T145 372Q145 317 164 271T219 190Q253 156 299 137T400 118Q454 118 500 137T582 190ZM393 210V217H351V371H403Q409 371 415
371T426 373L503 210H546V217H506L433 374Q468 381 486 402T504 457Q504 479 495 495T471 522Q456 532 440 536T410 541H311V534H344V217H311V210H393ZM351 534H405Q445 534 471 511T498 457Q498 444 494 430T479 405Q468 393 450 386T405 378H351V534Z" />
<glyph unicode="&#xaf;" horiz-adv-x="399" d="M315 492V506H85V492H315Z" />
<glyph unicode="&#xb0;" horiz-adv-x="282" d="M75 560Q75 573 80 584T93 604Q102 612 113 617T138 622Q151 622 162 617T182 604Q190 596 195 585T200 560Q200 547 196 536T182 516Q174 508 163 503T138 498Q126 498 116 502T96 513Q87 522 81 534T75 560ZM214
559Q214 577 207 592T188 617Q179 626 166 631T138 636Q123 636 110 632T87 618Q75 608 68 593T61 559Q61 542 67 528T85 504Q95 494 108 489T138 484Q153 484 166 489T190 503Q201 513 207 527T214 559Z" />
<glyph unicode="&#xb1;" horiz-adv-x="524" d="M273 211V385H446V399H273V571H259V399H86V385H259V211H273ZM446 136V150H86V136H446Z" />
<glyph unicode="&#xb2;" horiz-adv-x="398" d="M298 375V438H292V382H120Q146 409 173 436T224 491Q246 519 261 547T276 604Q276 625 270 642T252 673Q240 686 224 693T189 700Q168 700 151 693T123 673Q112 660 107 643T101 607Q101 586 107 572T123 546L128
550Q118 561 113 575T108 607Q108 619 111 634T124 663Q133 676 148 684T189 693Q201 693 215 689T241 673Q253 662 261 644T269 598Q269 575 255 549T217 494Q194 465 164 436T102 375H298Z" />
<glyph unicode="&#xb3;" horiz-adv-x="419" d="M240 406Q254 419 262 437T270 476Q270 498 261 517T237 550Q222 563 202 570T160 576L258 700H101V660H108V693H242L138 558Q145 563 152 566T168 569Q187 569 204 562T235 542Q248 529 255 512T263 476Q263 457
256 440T235 411Q222 398 205 391T168 383Q147 383 130 392T101 415L96 409Q110 394 128 385T169 376Q190 376 208 384T240 406Z" />
<glyph unicode="&#xb4;" horiz-adv-x="218" d="M116 479Q139 512 161 545T206 612H190Q167 579 145 546T100 479H116Z" />
<glyph unicode="&#xb5;" horiz-adv-x="545" d="M131 -201V49Q145 23 171 8T233 -7Q289 -7 333 21T398 98L400 53L403 0H486V14H409V375H316V361H395V155Q395 123 381 96T344 49Q321 29 291 18T226 7Q182 9 158 35T131 98V375H38V361H117V-201H131Z" />
<glyph unicode="&#xb6;" horiz-adv-x="525" d="M215 0V736H364V0H486V14H378V736H486V750H201Q167 750 137 737T85 702Q63 680 51 650T38 586Q38 552 50 522T85 470Q107 448 137 436T201 423V0H215Z" />
<glyph unicode="&#xb7;" horiz-adv-x="163" d="M106 280Q106 288 100 294T86 300Q78 300 72 294T66 280Q66 272 72 266T86 260Q94 260 100 266T106 280Z" />
<glyph unicode="&#xb8;" horiz-adv-x="452" d="M290 -127Q290 -113 281 -95T248 -61Q235 -53 221 -43T207 -6V0H193V-16Q193 -36 206 -47T235 -68Q250 -79 263 -94T276 -137Q276 -168 257 -188T206 -209Q181 -209 164 -196T140 -161Q136 -162 133 -163T125 -165Q135
-194 157 -208T206 -223Q239 -223 264 -201T290 -127Z" />
<glyph unicode="&#xb9;" horiz-adv-x="249" d="M172 375V381H133V700H70V693H125V381H86V375H172Z" />
<glyph unicode="&#xba;" horiz-adv-x="469" d="M331 343Q350 362 361 387T372 442Q372 470 361 496T331 542Q312 561 286 572T231 583Q201 583 176 572T132 542Q113 522 102 496T91 442Q91 412 102 387T132 343Q151 323 176 313T231 302Q260 302 286 312T331 343ZM139
350Q121 367 111 390T101 442Q101 468 111 492T139 534Q157 552 180 562T231 572Q258 572 281 562T323 534Q341 516 351 492T361 442Q361 414 351 391T323 350Q305 332 282 322T231 312Q203 312 180 322T139 350Z" />
<glyph unicode="&#xbb;" horiz-adv-x="601" d="M288 239L117 77V93Q152 130 188 166T259 239Q224 275 188 311T117 383V400Q160 359 202 320T288 239ZM459 239L288 77V93Q323 130 359 166T430 239Q395 275 359 311T288 383V400Q331 359 373 320T459 239Z" />
<glyph unicode="&#xbc;" horiz-adv-x="968" d="M309 -19Q379 171 448 358T587 735H573Q503 545 434 358T295 -19H309ZM835 0V10H773V136H845V147H773V490L501 136H763V10H706V0H835ZM763 459V147H524L763 459ZM285 234V244H228V695H138V685H218V244H161V234H285Z" />
<glyph unicode="&#xbd;" horiz-adv-x="1069" d="M268 234V244H211V695H121V685H201V244H145V234H268ZM870 0V90H860V10H616Q653 48 692 87T764 166Q796 206 817 246T838 328Q838 358 829 383T804 426Q787 444 765 454T714 465Q684 465 660 455T621 426Q605 408
597 384T588 331Q588 302 596 282T620 245L627 251Q613 266 606 286T598 331Q598 350 603 371T621 412Q634 430 656 442T714 455Q732 455 751 449T788 427Q805 411 816 385T828 319Q828 286 808 249T755 170Q722 129 679 87T590 0H870ZM309 -19Q379 171 448 358T587
735H573Q503 545 434 358T295 -19H309Z" />
<glyph unicode="&#xbe;" horiz-adv-x="1276" d="M380 246Q401 267 413 295T426 357Q426 391 412 421T375 472Q351 492 320 503T254 513L407 708H161V645H172V697H382L219 485Q230 493 242 497T266 502Q296 502 323 491T371 460Q391 440 403 414T415 357Q415 327
403 301T371 254Q351 234 324 223T266 211Q234 211 207 224T161 261L154 251Q175 228 204 214T268 200Q301 200 329 212T380 246ZM474 -19Q544 171 613 358T752 736H738Q668 546 599 359T460 -19H474ZM1034 0V10H972V136H1045V147H972V490L700 136H962V10H904V0H1034ZM962
459V147H722L962 459Z" />
<glyph unicode="&#xbf;" horiz-adv-x="410" d="M227 375V297Q227 264 220 245T201 214Q188 202 172 193T135 169Q90 137 64 97T37 2Q37 -38 52 -73T93 -135Q120 -162 156 -177T233 -193Q265 -193 294 -183T348 -156Q372 -138 390 -114T418 -60Q415 -59 412 -59T405
-57Q396 -84 380 -106T340 -145Q317 -161 290 -170T233 -179Q195 -179 162 -166T103 -127Q79 -103 65 -70T51 2Q51 39 65 71T110 131Q134 152 157 166T199 195Q218 210 229 228T241 278V375H227ZM214 494Q214 485 220 480T234 474Q241 474 247 479T253 494Q253
502 247 508T234 514Q226 514 220 508T214 494Z" />
<glyph unicode="&#xc0;" horiz-adv-x="828" d="M209 0V14H125Q157 89 189 164T253 316H575Q607 240 639 165T703 14H619V0H793V14H718Q642 194 566 372T414 732Q338 551 262 373T109 14H35V0H209ZM405 675Q408 685 410 691T414 700L423 675L569 330H259Q296 417
333 502T405 675ZM419 750Q396 783 374 816T329 883H313Q336 850 358 817T403 750H419Z" />
<glyph unicode="&#xc1;" horiz-adv-x="828" d="M424 750Q447 783 469 816T514 883H498Q475 850 453 817T408 750H424ZM209 0V14H125Q157 89 189 164T253 316H575Q607 240 639 165T703 14H619V0H793V14H718Q642 194 566 372T414 732Q338 551 262 373T109 14H35V0H209ZM405
675Q408 685 410 691T414 700L423 675L569 330H259Q296 417 333 502T405 675Z" />
<glyph unicode="&#xc2;" horiz-adv-x="828" d="M310 750Q336 788 362 827T414 904Q440 866 466 827T518 750H534Q504 795 474 840T414 931Q384 886 354 841T294 750H310ZM209 0V14H125Q157 89 189 164T253 316H575Q607 240 639 165T703 14H619V0H793V14H718Q642
194 566 372T414 732Q338 551 262 373T109 14H35V0H209ZM405 675Q408 685 410 691T414 700L423 675L569 330H259Q296 417 333 502T405 675Z" />
<glyph unicode="&#xc3;" horiz-adv-x="828" d="M528 767Q539 775 547 788T556 819L543 821Q541 804 534 794T516 777Q506 771 496 769T477 766Q463 766 451 772T423 796Q407 813 391 823T354 834Q340 834 326 831T301 819Q289 811 281 798T272 767L285 765Q287
782 294 792T312 809Q322 815 332 817T351 820Q365 820 377 814T405 790Q421 773 437 763T474 752Q488 752 502 755T528 767ZM209 0V14H125Q157 89 189 164T253 316H575Q607 240 639 165T703 14H619V0H793V14H718Q642 194 566 372T414 732Q338 551 262 373T109
14H35V0H209ZM405 675Q408 685 410 691T414 700L423 675L569 330H259Q296 417 333 502T405 675Z" />
<glyph unicode="&#xc4;" horiz-adv-x="828" d="M517 790Q517 798 511 804T497 810Q489 810 483 804T477 790Q477 782 483 776T497 770Q505 770 511 776T517 790ZM352 790Q352 798 346 804T332 810Q324 810 318 804T312 790Q312 782 318 776T332 770Q340 770 346
776T352 790ZM209 0V14H125Q157 89 189 164T253 316H575Q607 240 639 165T703 14H619V0H793V14H718Q642 194 566 372T414 732Q338 551 262 373T109 14H35V0H209ZM405 675Q408 685 410 691T414 700L423 675L569 330H259Q296 417 333 502T405 675Z" />
<glyph unicode="&#xc5;" horiz-adv-x="828" d="M209 0V14H125Q157 89 189 164T253 316H575Q607 240 639 165T703 14H619V0H793V14H718Q642 194 566 372T414 732Q338 551 262 373T109 14H35V0H209ZM405 675Q408 685 410 691T414 700L423 675L569 330H259Q296 417
333 502T405 675ZM366 834Q366 853 380 868T415 883Q437 883 450 868T464 834Q464 814 450 800T415 785Q392 785 379 800T366 834ZM478 834Q478 849 473 861T457 882Q449 889 438 893T415 897Q400 897 388 892T367 876Q360 868 356 857T352 834Q352 819 357 807T373
786Q381 779 392 775T415 771Q427 771 438 775T457 786Q467 795 472 807T478 834Z" />
<glyph unicode="&#xc6;" horiz-adv-x="775" d="M209 0V14H127Q159 89 191 164T255 316H402V0H740V154H726V14H416V346H687V360H416V686H712V546H726V700H402Q329 527 257 357T112 14H35V0H209ZM402 666V330H261Q296 415 333 497T402 666Z" />
<glyph unicode="&#xc7;" horiz-adv-x="610" d="M475 -127Q475 -113 466 -95T433 -61Q422 -54 411 -46T394 -21Q393 -19 393 -16T392 -8Q443 -8 488 5T574 42L565 54Q526 31 482 19T389 6Q319 6 257 33T149 107Q103 153 76 215T49 348Q49 419 76 482T150 592Q196
639 258 666T392 694Q437 694 480 683T561 649V484H575V658Q534 682 489 695T392 708Q318 708 253 680T140 603Q91 554 63 489T35 349Q35 277 61 213T135 101Q181 53 243 25T378 -7V-16Q378 -36 391 -47T420 -68Q435 -79 448 -94T461 -137Q461 -168 442 -188T391
-209Q366 -209 349 -196T325 -161L310 -165Q320 -194 342 -208T391 -223Q424 -223 449 -201T475 -127Z" />
<glyph unicode="&#xc8;" horiz-adv-x="571" d="M536 0V154H522V14H131V346H483V360H131V686H508V546H522V700H35V686H117V14H35V0H536ZM305 750Q282 783 260 816T215 883H199Q222 850 244 817T289 750H305Z" />
<glyph unicode="&#xc9;" horiz-adv-x="571" d="M536 0V154H522V14H131V346H483V360H131V686H508V546H522V700H35V686H117V14H35V0H536ZM293 750Q316 783 338 816T383 883H367Q344 850 322 817T277 750H293Z" />
<glyph unicode="&#xca;" horiz-adv-x="571" d="M536 0V154H522V14H131V346H483V360H131V686H508V546H522V700H35V686H117V14H35V0H536ZM196 750Q222 788 248 827T300 904Q326 866 352 827T404 750H420Q390 795 360 840T300 931Q270 886 240 841T180 750H196Z" />
<glyph unicode="&#xcb;" horiz-adv-x="571" d="M536 0V154H522V14H131V346H483V360H131V686H508V546H522V700H35V686H117V14H35V0H536ZM399 790Q399 798 393 804T379 810Q371 810 365 804T359 790Q359 782 365 776T379 770Q387 770 393 776T399 790ZM234 790Q234
798 228 804T214 810Q206 810 200 804T194 790Q194 782 200 776T214 770Q222 770 228 776T234 790Z" />
<glyph unicode="&#xcc;" horiz-adv-x="244" d="M209 0V14H126V686H209V700H35V686H112V14H35V0H209ZM121 750Q98 783 76 816T31 883H15Q38 850 60 817T105 750H121Z" />
<glyph unicode="&#xcd;" horiz-adv-x="244" d="M209 0V14H126V686H209V700H35V686H112V14H35V0H209ZM135 750Q158 783 180 816T225 883H209Q186 850 164 817T119 750H135Z" />
<glyph unicode="&#xce;" horiz-adv-x="244" d="M209 0V14H126V686H209V700H35V686H112V14H35V0H209ZM17 750Q43 788 69 827T121 904Q147 866 173 827T225 750H241Q211 795 181 840T121 931Q91 886 61 841T1 750H17Z" />
<glyph unicode="&#xcf;" horiz-adv-x="244" d="M209 0V14H126V686H209V700H35V686H112V14H35V0H209ZM224 790Q224 798 218 804T204 810Q196 810 190 804T184 790Q184 782 190 776T204 770Q212 770 218 776T224 790ZM59 790Q59 798 53 804T39 810Q31 810 25 804T19
790Q19 782 25 776T39 770Q47 770 53 776T59 790Z" />
<glyph unicode="&#xd0;" horiz-adv-x="632" d="M211 0Q317 0 390 32T510 116Q556 167 576 229T597 350Q597 430 569 495T493 606Q445 651 381 675T245 700H35V686H108V360H44V346H108V14H35V0H211ZM122 346H346V360H122V686H251Q318 686 378 663T485 596Q531 552
557 490T584 350Q584 293 565 234T502 126Q458 77 389 46T220 15H122V346Z" />
<glyph unicode="&#xd1;" horiz-adv-x="802" d="M723 686H805V700H631V686H709V34L712 2L693 28L138 700H35V686H112V14H35V0H209V14H126V664L124 690L142 670L723 -32V686ZM526 767Q537 775 545 788T554 819L541 821Q539 804 532 794T514 777Q504 771 494 769T475
766Q461 766 449 772T421 796Q405 813 389 823T352 834Q338 834 324 831T299 819Q287 811 279 798T270 767L283 765Q285 782 292 792T310 809Q320 815 330 817T349 820Q363 820 375 814T403 790Q419 773 435 763T472 752Q486 752 500 755T526 767Z" />
<glyph unicode="&#xd2;" horiz-adv-x="786" d="M646 97Q694 145 722 210T751 349Q751 423 723 488T646 603Q597 651 532 679T392 708Q318 708 253 680T140 603Q91 554 63 489T35 349Q35 275 63 210T140 97Q188 48 253 20T392 -8Q466 -8 531 20T646 97ZM149 107Q103
153 76 215T49 348Q49 419 76 482T150 592Q196 639 258 666T392 694Q463 694 525 667T635 592Q682 545 709 483T737 349Q737 278 710 216T635 107Q587 60 524 33T389 6Q319 6 257 33T149 107ZM390 750Q367 783 345 816T300 883H284Q307 850 329 817T374 750H390Z"
/>
<glyph unicode="&#xd3;" horiz-adv-x="786" d="M646 97Q694 145 722 210T751 349Q751 423 723 488T646 603Q597 651 532 679T392 708Q318 708 253 680T140 603Q91 554 63 489T35 349Q35 275 63 210T140 97Q188 48 253 20T392 -8Q466 -8 531 20T646 97ZM149 107Q103
153 76 215T49 348Q49 419 76 482T150 592Q196 639 258 666T392 694Q463 694 525 667T635 592Q682 545 709 483T737 349Q737 278 710 216T635 107Q587 60 524 33T389 6Q319 6 257 33T149 107ZM426 750Q449 783 471 816T516 883H500Q477 850 455 817T410 750H426Z"
/>
<glyph unicode="&#xd4;" horiz-adv-x="786" d="M646 97Q694 145 722 210T751 349Q751 423 723 488T646 603Q597 651 532 679T392 708Q318 708 253 680T140 603Q91 554 63 489T35 349Q35 275 63 210T140 97Q188 48 253 20T392 -8Q466 -8 531 20T646 97ZM149 107Q103
153 76 215T49 348Q49 419 76 482T150 592Q196 639 258 666T392 694Q463 694 525 667T635 592Q682 545 709 483T737 349Q737 278 710 216T635 107Q587 60 524 33T389 6Q319 6 257 33T149 107ZM293 750Q319 788 345 827T397 904Q423 866 449 827T501 750H517Q487
795 457 840T397 931Q367 886 337 841T277 750H293Z" />
<glyph unicode="&#xd5;" horiz-adv-x="786" d="M646 97Q694 145 722 210T751 349Q751 423 723 488T646 603Q597 651 532 679T392 708Q318 708 253 680T140 603Q91 554 63 489T35 349Q35 275 63 210T140 97Q188 48 253 20T392 -8Q466 -8 531 20T646 97ZM149 107Q103
153 76 215T49 348Q49 419 76 482T150 592Q196 639 258 666T392 694Q463 694 525 667T635 592Q682 545 709 483T737 349Q737 278 710 216T635 107Q587 60 524 33T389 6Q319 6 257 33T149 107ZM513 767Q524 775 532 788T541 819L528 821Q526 804 519 794T501 777Q491
771 481 769T462 766Q448 766 436 772T408 796Q392 813 376 823T339 834Q325 834 311 831T286 819Q274 811 266 798T257 767L270 765Q272 782 279 792T297 809Q307 815 317 817T336 820Q350 820 362 814T390 790Q406 773 422 763T459 752Q473 752 487 755T513 767Z"
/>
<glyph unicode="&#xd6;" horiz-adv-x="786" d="M646 97Q694 145 722 210T751 349Q751 423 723 488T646 603Q597 651 532 679T392 708Q318 708 253 680T140 603Q91 554 63 489T35 349Q35 275 63 210T140 97Q188 48 253 20T392 -8Q466 -8 531 20T646 97ZM149 107Q103
153 76 215T49 348Q49 419 76 482T150 592Q196 639 258 666T392 694Q463 694 525 667T635 592Q682 545 709 483T737 349Q737 278 710 216T635 107Q587 60 524 33T389 6Q319 6 257 33T149 107ZM499 790Q499 798 493 804T479 810Q471 810 465 804T459 790Q459 782
465 776T479 770Q487 770 493 776T499 790ZM334 790Q334 798 328 804T314 810Q306 810 300 804T294 790Q294 782 300 776T314 770Q322 770 328 776T334 790Z" />
<glyph unicode="&#xd7;" horiz-adv-x="500" d="M262 123L385 0L395 10L272 133L395 255L385 265L262 143L141 264L131 254L252 133L130 10L140 0L262 123Z" />
<glyph unicode="&#xd8;" horiz-adv-x="786" d="M49 348Q49 419 76 482T150 592Q196 639 258 666T392 694Q451 694 504 675T601 622Q490 489 381 359T160 95Q109 142 79 207T49 348ZM169 87Q316 263 389 351T610 615Q668 567 702 498T737 349Q737 278 710 216T635
107Q587 60 524 33T389 6Q326 6 270 27T169 87ZM161 77Q208 37 267 15T392 -8Q466 -8 531 20T646 97Q694 145 722 210T751 349Q751 433 716 504T620 626Q636 645 651 663T682 700Q680 702 678 704T673 708Q657 689 642 671T611 633Q565 668 510 688T392 708Q318
708 253 680T140 603Q91 554 63 489T35 349Q35 270 66 202T152 85Q134 64 117 43T81 0Q83 -2 85 -4T90 -8Q108 13 125 34T161 77Z" />
<glyph unicode="&#xd9;" horiz-adv-x="674" d="M497 52Q527 81 544 125T562 226V686H639V700H465V686H548V229Q548 175 532 134T488 64Q460 35 421 21T337 6Q291 6 252 20T185 64Q157 92 142 133T126 229V686H209V700H35V686H112V226Q112 169 129 125T176 52Q206
22 247 7T337 -8Q385 -8 426 7T497 52ZM344 750Q321 783 299 816T254 883H238Q261 850 283 817T328 750H344Z" />
<glyph unicode="&#xda;" horiz-adv-x="674" d="M497 52Q527 81 544 125T562 226V686H639V700H465V686H548V229Q548 175 532 134T488 64Q460 35 421 21T337 6Q291 6 252 20T185 64Q157 92 142 133T126 229V686H209V700H35V686H112V226Q112 169 129 125T176 52Q206
22 247 7T337 -8Q385 -8 426 7T497 52ZM355 750Q378 783 400 816T445 883H429Q406 850 384 817T339 750H355Z" />
<glyph unicode="&#xdb;" horiz-adv-x="674" d="M497 52Q527 81 544 125T562 226V686H639V700H465V686H548V229Q548 175 532 134T488 64Q460 35 421 21T337 6Q291 6 252 20T185 64Q157 92 142 133T126 229V686H209V700H35V686H112V226Q112 169 129 125T176 52Q206
22 247 7T337 -8Q385 -8 426 7T497 52ZM236 750Q262 788 288 827T340 904Q366 866 392 827T444 750H460Q430 795 400 840T340 931Q310 886 280 841T220 750H236Z" />
<glyph unicode="&#xdc;" horiz-adv-x="674" d="M497 52Q527 81 544 125T562 226V686H639V700H465V686H548V229Q548 175 532 134T488 64Q460 35 421 21T337 6Q291 6 252 20T185 64Q157 92 142 133T126 229V686H209V700H35V686H112V226Q112 169 129 125T176 52Q206
22 247 7T337 -8Q385 -8 426 7T497 52ZM438 791Q438 799 432 805T418 811Q410 811 404 805T398 791Q398 783 404 777T418 771Q426 771 432 777T438 791ZM273 791Q273 799 267 805T253 811Q245 811 239 805T233 791Q233 783 239 777T253 771Q261 771 267 777T273
791Z" />
<glyph unicode="&#xdd;" horiz-adv-x="718" d="M447 0V14H366V262Q429 368 492 473T619 686H683V700H509V686H602L371 298L360 272H359L347 298Q290 396 232 492T114 686H209V700H35V686H97Q161 580 224 474T352 262V14H273V0H447ZM388 750Q411 783 433 816T478
883H462Q439 850 417 817T372 750H388Z" />
<glyph unicode="&#xde;" horiz-adv-x="481" d="M209 0V14H120V176H232Q335 176 390 225T446 357Q446 405 426 439T375 494Q345 515 310 525T246 535H120V686H209V700H35V686H106V14H35V0H209ZM120 521H236Q278 521 313 508T376 472Q402 449 417 420T432 357Q432
330 423 301T392 247Q369 222 331 206T235 190H120V521Z" />
<glyph unicode="&#xdf;" horiz-adv-x="542" d="M447 52Q474 79 490 116T507 195Q507 231 495 262T462 320Q441 345 413 363T351 389Q392 403 417 436T443 514Q443 543 432 569T402 615Q383 634 358 645T303 658Q265 656 232 641T173 596Q147 567 133 524T118 426V384H53V370H118V14H35V0H132V430Q132
479 146 518T184 586Q207 614 238 629T303 644Q330 644 353 633T394 604Q410 585 419 561T429 511Q429 460 392 428T303 396V381Q342 381 376 366T437 326Q463 300 478 267T493 195Q493 157 478 123T436 62Q410 36 375 21T300 5Q273 5 249 12T202 33L196 22Q219
8 246 0T302 -8Q344 -8 381 8T447 52Z" />
<glyph unicode="&#xe0;" horiz-adv-x="532" d="M497 0V14H424V375H414Q412 346 411 318T410 260Q388 314 340 348T229 383Q188 383 153 368T92 326Q65 300 50 264T35 188Q35 147 50 112T92 51Q118 24 153 9T229 -6Q260 -6 288 3T341 29Q364 45 382 67T411 117Q411
101 411 86T410 54V0H497ZM229 369Q266 369 299 355T357 316Q382 291 396 258T410 188Q410 150 396 118T357 61Q332 36 299 22T229 8Q191 8 159 22T102 61Q77 85 63 117T49 188Q49 225 63 258T102 316Q126 341 158 355T229 369ZM249 479Q226 512 204 545T159 612H143Q166
579 188 546T233 479H249Z" />
<glyph unicode="&#xe1;" horiz-adv-x="532" d="M497 0V14H424V375H414Q412 346 411 318T410 260Q388 314 340 348T229 383Q188 383 153 368T92 326Q65 300 50 264T35 188Q35 147 50 112T92 51Q118 24 153 9T229 -6Q260 -6 288 3T341 29Q364 45 382 67T411 117Q411
101 411 86T410 54V0H497ZM229 369Q266 369 299 355T357 316Q382 291 396 258T410 188Q410 150 396 118T357 61Q332 36 299 22T229 8Q191 8 159 22T102 61Q77 85 63 117T49 188Q49 225 63 258T102 316Q126 341 158 355T229 369ZM248 479Q271 512 293 545T338 612H322Q299
579 277 546T232 479H248Z" />
<glyph unicode="&#xe2;" horiz-adv-x="532" d="M497 0V14H424V375H414Q412 346 411 318T410 260Q388 314 340 348T229 383Q188 383 153 368T92 326Q65 300 50 264T35 188Q35 147 50 112T92 51Q118 24 153 9T229 -6Q260 -6 288 3T341 29Q364 45 382 67T411 117Q411
101 411 86T410 54V0H497ZM229 369Q266 369 299 355T357 316Q382 291 396 258T410 188Q410 150 396 118T357 61Q332 36 299 22T229 8Q191 8 159 22T102 61Q77 85 63 117T49 188Q49 225 63 258T102 316Q126 341 158 355T229 369ZM157 479Q183 517 209 556T261 633Q287
595 313 556T365 479H381Q351 524 321 569T261 660Q231 615 201 570T141 479H157Z" />
<glyph unicode="&#xe3;" horiz-adv-x="532" d="M497 0V14H424V375H414Q412 346 411 318T410 260Q388 314 340 348T229 383Q188 383 153 368T92 326Q65 300 50 264T35 188Q35 147 50 112T92 51Q118 24 153 9T229 -6Q260 -6 288 3T341 29Q364 45 382 67T411 117Q411
101 411 86T410 54V0H497ZM229 369Q266 369 299 355T357 316Q382 291 396 258T410 188Q410 150 396 118T357 61Q332 36 299 22T229 8Q191 8 159 22T102 61Q77 85 63 117T49 188Q49 225 63 258T102 316Q126 341 158 355T229 369ZM604 474Q615 482 623 495T632 526L619
528Q617 511 610 501T592 484Q582 478 572 476T553 473Q539 473 527 479T499 503Q483 520 467 530T430 541Q416 541 402 538T377 526Q365 518 357 505T348 474L361 472Q363 489 370 499T388 516Q398 522 408 524T427 527Q441 527 453 521T481 497Q497 480 513 470T550
459Q564 459 578 462T604 474Z" />
<glyph unicode="&#xe4;" horiz-adv-x="532" d="M497 0V14H424V375H414Q412 346 411 318T410 260Q388 314 340 348T229 383Q188 383 153 368T92 326Q65 300 50 264T35 188Q35 147 50 112T92 51Q118 24 153 9T229 -6Q260 -6 288 3T341 29Q364 45 382 67T411 117Q411
101 411 86T410 54V0H497ZM229 369Q266 369 299 355T357 316Q382 291 396 258T410 188Q410 150 396 118T357 61Q332 36 299 22T229 8Q191 8 159 22T102 61Q77 85 63 117T49 188Q49 225 63 258T102 316Q126 341 158 355T229 369ZM344 500Q344 508 338 514T324 520Q316
520 310 514T304 500Q304 492 310 486T324 480Q332 480 338 486T344 500ZM179 500Q179 508 173 514T159 520Q151 520 145 514T139 500Q139 492 145 486T159 480Q167 480 173 486T179 500Z" />
<glyph unicode="&#xe5;" horiz-adv-x="532" d="M497 0V14H424V375H414Q412 346 411 318T410 260Q388 314 340 348T229 383Q188 383 153 368T92 326Q65 300 50 264T35 188Q35 147 50 112T92 51Q118 24 153 9T229 -6Q260 -6 288 3T341 29Q364 45 382 67T411 117Q411
101 411 86T410 54V0H497ZM229 369Q266 369 299 355T357 316Q382 291 396 258T410 188Q410 150 396 118T357 61Q332 36 299 22T229 8Q191 8 159 22T102 61Q77 85 63 117T49 188Q49 225 63 258T102 316Q126 341 158 355T229 369ZM196 540Q196 559 210 574T245 589Q267
589 280 574T294 540Q294 520 280 506T245 491Q222 491 209 506T196 540ZM308 540Q308 555 303 567T287 588Q279 595 268 599T245 603Q230 603 218 598T197 582Q190 574 186 563T182 540Q182 525 187 513T203 492Q211 485 222 481T245 477Q257 477 268 481T287
492Q297 501 302 513T308 540Z" />
<glyph unicode="&#xe6;" horiz-adv-x="580" d="M346 241Q346 283 338 310T310 354Q326 361 342 364T376 367Q426 367 466 339T527 264Q482 246 437 228T346 191V241ZM49 97Q49 131 72 148T128 172Q159 178 190 178T238 177H332V105Q332 75 320 56T289 25Q269 13
244 9T194 4Q171 4 146 7T99 21Q77 31 63 49T49 97ZM292 10Q310 1 331 -3T376 -8Q415 -8 449 6T509 44L500 55Q476 32 444 19T376 6Q358 6 340 9T305 20Q328 38 337 63T346 128V176Q396 196 445 216T545 257Q536 283 520 305T484 343Q462 361 435 371T376 381Q354
381 334 377T296 364Q279 372 253 376T191 381Q175 381 157 378T122 370Q105 365 91 359T67 344Q70 341 73 338T80 332Q88 338 101 344T129 356Q144 361 160 364T190 367Q236 367 264 360T307 336Q322 321 327 298T332 243V191H186Q157 191 130 187T82 170Q61 159
48 141T35 96Q35 65 46 45T78 12Q99 0 128 -5T192 -10Q224 -10 249 -5T292 10Z" />
<glyph unicode="&#xe7;" horiz-adv-x="387" d="M322 -127Q322 -113 313 -95T280 -61Q268 -53 254 -41T239 -6Q269 -6 301 7T352 37L342 47Q319 29 290 19T229 8Q191 8 159 22T102 61Q77 85 63 117T49 188Q49 225 63 258T102 316Q126 341 158 355T229 369Q260 369
287 359T338 332V252H352V340Q327 360 296 371T229 383Q188 383 153 368T92 326Q65 300 50 264T35 188Q35 148 50 113T91 52Q116 25 150 10T225 -6V-12Q225 -32 238 -45T267 -68Q282 -79 295 -94T308 -137Q308 -168 289 -188T238 -209Q214 -209 196 -196T172 -161L157
-165Q167 -195 189 -209T238 -223Q271 -223 296 -201T322 -127Z" />
<glyph unicode="&#xe8;" horiz-adv-x="435" d="M229 369Q279 369 319 341T380 266Q299 233 218 201T56 135Q43 178 51 220T85 295Q109 328 146 348T229 369ZM362 46L353 57Q329 34 297 21T229 8Q171 8 126 39T61 122Q146 157 229 190T398 259Q388 286 372 308T336
346Q314 364 287 373T229 383Q188 383 153 368T92 326Q65 300 50 264T35 188Q35 147 50 112T92 50Q118 24 153 9T229 -6Q268 -6 302 8T362 46ZM232 479Q209 512 187 545T142 612H126Q149 579 171 546T216 479H232Z" />
<glyph unicode="&#xe9;" horiz-adv-x="435" d="M229 369Q279 369 319 341T380 266Q299 233 218 201T56 135Q43 178 51 220T85 295Q109 328 146 348T229 369ZM362 46L353 57Q329 34 297 21T229 8Q171 8 126 39T61 122Q146 157 229 190T398 259Q388 286 372 308T336
346Q314 364 287 373T229 383Q188 383 153 368T92 326Q65 300 50 264T35 188Q35 147 50 112T92 50Q118 24 153 9T229 -6Q268 -6 302 8T362 46ZM249 479Q272 512 294 545T339 612H323Q300 579 278 546T233 479H249Z" />
<glyph unicode="&#xea;" horiz-adv-x="435" d="M229 369Q279 369 319 341T380 266Q299 233 218 201T56 135Q43 178 51 220T85 295Q109 328 146 348T229 369ZM362 46L353 57Q329 34 297 21T229 8Q171 8 126 39T61 122Q146 157 229 190T398 259Q388 286 372 308T336
346Q314 364 287 373T229 383Q188 383 153 368T92 326Q65 300 50 264T35 188Q35 147 50 112T92 50Q118 24 153 9T229 -6Q268 -6 302 8T362 46ZM382 479Q408 517 434 556T486 633Q512 595 538 556T590 479H606Q576 524 546 569T486 660Q456 615 426 570T366 479H382Z"
/>
<glyph unicode="&#xeb;" horiz-adv-x="435" d="M229 369Q279 369 319 341T380 266Q299 233 218 201T56 135Q43 178 51 220T85 295Q109 328 146 348T229 369ZM362 46L353 57Q329 34 297 21T229 8Q171 8 126 39T61 122Q146 157 229 190T398 259Q388 286 372 308T336
346Q314 364 287 373T229 383Q188 383 153 368T92 326Q65 300 50 264T35 188Q35 147 50 112T92 50Q118 24 153 9T229 -6Q268 -6 302 8T362 46ZM337 500Q337 508 331 514T317 520Q309 520 303 514T297 500Q297 492 303 486T317 480Q325 480 331 486T337 500ZM172
500Q172 508 166 514T152 520Q144 520 138 514T132 500Q132 492 138 486T152 480Q160 480 166 486T172 500Z" />
<glyph unicode="&#xec;" horiz-adv-x="244" d="M209 0V14H131V375H35V361H117V14H35V0H209ZM130 479Q107 512 85 545T40 612H24Q47 579 69 546T114 479H130Z" />
<glyph unicode="&#xed;" horiz-adv-x="244" d="M209 0V14H131V375H35V361H117V14H35V0H209ZM134 479Q157 512 179 545T224 612H208Q185 579 163 546T118 479H134Z" />
<glyph unicode="&#xee;" horiz-adv-x="244" d="M209 0V14H131V375H35V361H117V14H35V0H209ZM278 479Q304 517 330 556T382 633Q408 595 434 556T486 479H502Q472 524 442 569T382 660Q352 615 322 570T262 479H278Z" />
<glyph unicode="&#xef;" horiz-adv-x="244" d="M209 0V14H131V375H35V361H117V14H35V0H209ZM484 500Q484 508 478 514T464 520Q456 520 450 514T444 500Q444 492 450 486T464 480Q472 480 478 486T484 500ZM319 500Q319 508 313 514T299 520Q291 520 285 514T279
500Q279 492 285 486T299 480Q307 480 313 486T319 500Z" />
<glyph unicode="&#xf0;" horiz-adv-x="459" d="M102 61Q77 85 63 117T49 188Q49 225 63 258T102 316Q126 341 158 355T229 369Q266 369 299 355T357 316Q382 291 396 258T410 188Q410 150 396 118T357 61Q332 36 299 22T229 8Q191 8 159 22T102 61ZM367 51Q393
77 408 112T424 188Q424 242 408 299T363 414Q335 471 298 526T220 629Q238 649 255 668T291 707Q289 709 287 710T283 714Q266 694 248 676T213 637Q189 664 165 686T117 726L111 717Q137 697 160 675T205 629Q186 609 167 588T129 547L137 539L212 620Q254 572
284 526T337 438Q359 396 372 360T392 295Q366 335 323 359T229 383Q188 383 153 368T92 326Q65 300 50 264T35 188Q35 147 50 112T92 51Q118 24 153 9T229 -6Q269 -6 305 9T367 51Z" />
<glyph unicode="&#xf1;" horiz-adv-x="522" d="M209 0V14H128V220Q128 252 141 279T179 327Q202 346 232 357T297 368Q341 366 365 340T392 277V14H313V0H487V14H406V270Q404 320 374 351T290 382Q233 382 189 353T125 277Q125 290 125 299T124 322L122 375H39V361H114V14H35V0H209ZM643
720Q654 728 662 741T671 772L658 774Q656 757 649 747T631 730Q621 724 611 722T592 719Q578 719 566 725T538 749Q522 766 506 776T469 787Q455 787 441 784T416 772Q404 764 396 751T387 720L400 718Q402 735 409 745T427 762Q437 768 447 770T466 773Q480 773
492 767T520 743Q536 726 552 716T589 705Q603 705 617 708T643 720Z" />
<glyph unicode="&#xf2;" horiz-adv-x="461" d="M369 51Q395 77 410 112T426 188Q426 228 411 264T369 327Q342 353 306 368T230 384Q189 384 154 369T93 327Q66 300 51 264T36 188Q36 147 51 112T93 51Q119 24 154 9T230 -6Q270 -6 306 9T369 51ZM103 61Q78 85
64 117T50 188Q50 225 64 258T103 316Q127 341 159 355T230 369Q267 369 300 355T358 316Q383 291 397 258T411 188Q411 150 397 118T358 61Q333 36 300 22T230 8Q192 8 160 22T103 61ZM239 479Q216 512 194 545T149 612H133Q156 579 178 546T223 479H239Z" />
<glyph unicode="&#xf3;" horiz-adv-x="461" d="M369 51Q395 77 410 112T426 188Q426 228 411 264T369 327Q342 353 306 368T230 384Q189 384 154 369T93 327Q66 300 51 264T36 188Q36 147 51 112T93 51Q119 24 154 9T230 -6Q270 -6 306 9T369 51ZM103 61Q78 85
64 117T50 188Q50 225 64 258T103 316Q127 341 159 355T230 369Q267 369 300 355T358 316Q383 291 397 258T411 188Q411 150 397 118T358 61Q333 36 300 22T230 8Q192 8 160 22T103 61ZM247 479Q270 512 292 545T337 612H321Q298 579 276 546T231 479H247Z" />
<glyph unicode="&#xf4;" horiz-adv-x="461" d="M369 51Q395 77 410 112T426 188Q426 228 411 264T369 327Q342 353 306 368T230 384Q189 384 154 369T93 327Q66 300 51 264T36 188Q36 147 51 112T93 51Q119 24 154 9T230 -6Q270 -6 306 9T369 51ZM103 61Q78 85
64 117T50 188Q50 225 64 258T103 316Q127 341 159 355T230 369Q267 369 300 355T358 316Q383 291 397 258T411 188Q411 150 397 118T358 61Q333 36 300 22T230 8Q192 8 160 22T103 61ZM131 479Q157 517 183 556T235 633Q261 595 287 556T339 479H355Q325 524 295
569T235 660Q205 615 175 570T115 479H131Z" />
<glyph unicode="&#xf5;" horiz-adv-x="461" d="M369 51Q395 77 410 112T426 188Q426 228 411 264T369 327Q342 353 306 368T230 384Q189 384 154 369T93 327Q66 300 51 264T36 188Q36 147 51 112T93 51Q119 24 154 9T230 -6Q270 -6 306 9T369 51ZM103 61Q78 85
64 117T50 188Q50 225 64 258T103 316Q127 341 159 355T230 369Q267 369 300 355T358 316Q383 291 397 258T411 188Q411 150 397 118T358 61Q333 36 300 22T230 8Q192 8 160 22T103 61ZM611 474Q622 482 630 495T639 526L626 528Q624 511 617 501T599 484Q589 478
579 476T560 473Q546 473 534 479T506 503Q490 520 474 530T437 541Q423 541 409 538T384 526Q372 518 364 505T355 474L368 472Q370 489 377 499T395 516Q405 522 415 524T434 527Q448 527 460 521T488 497Q504 480 520 470T557 459Q571 459 585 462T611 474Z"
/>
<glyph unicode="&#xf6;" horiz-adv-x="461" d="M369 51Q395 77 410 112T426 188Q426 228 411 264T369 327Q342 353 306 368T230 384Q189 384 154 369T93 327Q66 300 51 264T36 188Q36 147 51 112T93 51Q119 24 154 9T230 -6Q270 -6 306 9T369 51ZM103 61Q78 85
64 117T50 188Q50 225 64 258T103 316Q127 341 159 355T230 369Q267 369 300 355T358 316Q383 291 397 258T411 188Q411 150 397 118T358 61Q333 36 300 22T230 8Q192 8 160 22T103 61ZM337 500Q337 508 331 514T317 520Q309 520 303 514T297 500Q297 492 303 486T317
480Q325 480 331 486T337 500ZM172 500Q172 508 166 514T152 520Q144 520 138 514T132 500Q132 492 138 486T152 480Q160 480 166 486T172 500Z" />
<glyph unicode="&#xf7;" horiz-adv-x="501" d="M428 210V224H68V210H428ZM271 341Q271 349 265 355T251 361Q243 361 237 355T231 341Q231 333 237 327T251 321Q259 321 265 327T271 341ZM271 91Q271 99 265 105T251 111Q243 111 237 105T231 91Q231 83 237 77T251
71Q259 71 265 77T271 91Z" />
<glyph unicode="&#xf8;" horiz-adv-x="458" d="M49 188Q49 225 63 258T102 316Q126 341 158 355T229 369Q258 369 285 360T334 335Q276 266 219 197T103 58Q78 83 64 116T49 188ZM112 50Q170 119 228 188T344 327Q374 302 392 266T410 188Q410 150 396 118T357
61Q332 36 299 22T229 8Q196 8 167 18T112 50ZM103 39Q129 18 161 6T229 -6Q269 -6 305 9T367 51Q393 77 408 112T424 188Q424 233 405 272T353 338Q361 347 368 356T384 375Q382 377 380 379T375 383Q367 374 360 365T344 346Q320 363 291 373T229 383Q188 383
153 368T92 326Q65 300 50 264T35 188Q35 146 50 110T94 47Q84 35 75 24T55 0Q57 -2 59 -4T64 -8Q74 4 83 15T103 39Z" />
<glyph unicode="&#xf9;" horiz-adv-x="518" d="M395 98L397 53L400 0H483V14H406V375H313V361H392V155Q392 123 378 96T341 49Q318 29 288 18T223 7Q179 9 155 35T128 98V375H35V361H114V105Q116 55 146 24T230 -7Q286 -7 330 21T395 98ZM258 479Q235 512 213
545T168 612H152Q175 579 197 546T242 479H258Z" />
<glyph unicode="&#xfa;" horiz-adv-x="518" d="M395 98L397 53L400 0H483V14H406V375H313V361H392V155Q392 123 378 96T341 49Q318 29 288 18T223 7Q179 9 155 35T128 98V375H35V361H114V105Q116 55 146 24T230 -7Q286 -7 330 21T395 98ZM247 479Q270 512 292
545T337 612H321Q298 579 276 546T231 479H247Z" />
<glyph unicode="&#xfb;" horiz-adv-x="518" d="M395 98L397 53L400 0H483V14H406V375H313V361H392V155Q392 123 378 96T341 49Q318 29 288 18T223 7Q179 9 155 35T128 98V375H35V361H114V105Q116 55 146 24T230 -7Q286 -7 330 21T395 98ZM162 479Q188 517 214
556T266 633Q292 595 318 556T370 479H386Q356 524 326 569T266 660Q236 615 206 570T146 479H162Z" />
<glyph unicode="&#xfc;" horiz-adv-x="518" d="M395 98L397 53L400 0H483V14H406V375H313V361H392V155Q392 123 378 96T341 49Q318 29 288 18T223 7Q179 9 155 35T128 98V375H35V361H114V105Q116 55 146 24T230 -7Q286 -7 330 21T395 98ZM362 500Q362 508 356
514T342 520Q334 520 328 514T322 500Q322 492 328 486T342 480Q350 480 356 486T362 500ZM197 500Q197 508 191 514T177 520Q169 520 163 514T157 500Q157 492 163 486T177 480Q185 480 191 486T197 500Z" />
<glyph unicode="&#xfd;" horiz-adv-x="590" d="M266 -250V-236H192Q267 -86 340 62T489 361H555V375H416V361H471Q427 273 384 185T298 14Q254 101 211 187T125 361H196V375H35V361H107Q152 269 197 178T289 -4Q260 -61 231 -119T173 -236H92V-250H266ZM314 479Q337
512 359 545T404 612H388Q365 579 343 546T298 479H314Z" />
<glyph unicode="&#xfe;" horiz-adv-x="498" d="M190 -250V-236H108V61Q108 75 108 88T107 115Q117 88 135 66T177 27Q200 10 228 1T288 -8Q328 -8 363 7T426 49Q452 75 467 110T482 187Q482 227 467 262T426 325Q399 351 364 366T288 381Q225 381 176 347T106
257Q106 273 106 289T107 321V736H190V750H16V736H93V-236H16V-250H190ZM288 367Q325 367 358 353T416 315Q440 290 454 257T468 187Q468 149 454 117T416 59Q391 34 358 20T288 6Q250 6 218 20T160 59Q135 84 121 116T107 187Q107 224 121 257T160 315Q185 339
217 353T288 367Z" />
<glyph unicode="&#xff;" horiz-adv-x="590" d="M266 -250V-236H192Q267 -86 340 62T489 361H555V375H416V361H471Q427 273 384 185T298 14Q254 101 211 187T125 361H196V375H35V361H107Q152 269 197 178T289 -4Q260 -61 231 -119T173 -236H92V-250H266ZM402 500Q402
508 396 514T382 520Q374 520 368 514T362 500Q362 492 368 486T382 480Q390 480 396 486T402 500ZM237 500Q237 508 231 514T217 520Q209 520 203 514T197 500Q197 492 203 486T217 480Q225 480 231 486T237 500Z" />
<glyph unicode="&#x2013;" horiz-adv-x="509" d="M401 179V193H100V179H401Z" />
<glyph unicode="&#x2014;" horiz-adv-x="700" d="M601 179V193H99V179H601Z" />
<glyph unicode="&#x2018;" horiz-adv-x="164" d="M92 590Q71 610 62 639T59 704Q54 706 50 707T40 711Q32 671 44 635T86 572L92 590Z" />
<glyph unicode="&#x2019;" horiz-adv-x="164" d="M111 711Q106 709 102 708T92 704Q99 669 90 640T59 590L65 572Q94 598 106 634T111 711Z" />
<glyph unicode="&#x201a;" horiz-adv-x="146" d="M72 92Q67 90 63 89T53 85Q60 50 51 21T20 -29L26 -47Q55 -21 67 15T72 92Z" />
<glyph unicode="&#x201c;" horiz-adv-x="249" d="M187 590Q166 610 157 639T154 704Q149 706 145 707T135 711Q127 671 139 635T181 572L187 590ZM83 590Q62 610 53 639T50 704Q45 706 41 707T31 711Q23 671 35 635T77 572L83 590Z" />
<glyph unicode="&#x201d;" horiz-adv-x="248" d="M96 711Q91 709 87 708T77 704Q84 669 75 640T44 590L50 572Q79 598 91 634T96 711ZM200 711Q195 709 191 708T181 704Q188 669 179 640T148 590L154 572Q183 598 195 634T200 711Z" />
<glyph unicode="&#x201e;" horiz-adv-x="234" d="M72 92Q67 90 63 89T53 85Q60 50 51 21T20 -29L26 -47Q55 -21 67 15T72 92ZM176 92Q171 90 167 89T157 85Q164 50 155 21T124 -29L130 -47Q159 -21 171 15T176 92Z" />
<glyph unicode="&#x2022;" horiz-adv-x="479" d="M239 235Q252 235 264 239T284 252Q294 261 299 273T305 300Q305 315 300 327T285 349Q276 357 264 361T239 366Q225 366 213 361T191 346Q183 337 179 325T174 300Q174 285 180 273T196 251Q205 243 216 239T239 235Z" />
<glyph unicode="&#x2039;" horiz-adv-x="392" d="M117 239L288 77V93Q253 130 217 166T146 239Q181 275 217 311T288 383V400Q245 359 203 320T117 239Z" />
<glyph unicode="&#x203a;" horiz-adv-x="392" d="M288 239L117 77V93Q152 130 188 166T259 239Q224 275 188 311T117 383V400Q160 359 202 320T288 239Z" />
</font>
</defs>
</svg>
