<?xml version="1.0" standalone="no"?>
<!DOCTYPE svg PUBLIC "-//W3C//DTD SVG 1.1//EN" "http://www.w3.org/Graphics/SVG/1.1/DTD/svg11.dtd">
<svg xmlns="http://www.w3.org/2000/svg">
<defs >
<font id="JosefinSlab" horiz-adv-x="508" ><font-face
    font-family="Josefin Slab Thin Light"
    units-per-em="1000"
    panose-1="2 0 0 0 0 0 0 0 0 0"
    ascent="750"
    descent="-250"
    alphabetic="0" />
<glyph unicode=" " horiz-adv-x="300" />
<glyph unicode="!" horiz-adv-x="201" d="M126 55Q126 67 118 74T100 82Q90 82 82 75T74 55Q74 44 82 37T100 29Q110 29 118 36T126 55ZM114 166V750H86V166H114Z" />
<glyph unicode="&quot;" horiz-adv-x="302" d="M223 472Q224 535 225 596T227 720H196V472H223ZM90 472Q91 535 92 596T94 720H63V472H90Z" />
<glyph unicode="#" horiz-adv-x="571" d="M190 400H346L328 245H172L190 400ZM143 0L168 217H324L299 0H327L352 217H481L484 245H356L374 400H504L507 427H378L404 643H376L350 427H194L220 643H192L166 427H54L51 400H162L144 245H31L28 217H140L115 0H143Z" />
<glyph unicode="$" horiz-adv-x="567" d="M252 -68V-8Q294 -6 330 8T394 48Q421 73 437 108T452 186Q451 239 433 272T387 327Q359 348 323 360T252 384V676Q292 674 320 665T367 643V546H394V657Q362 684 323 693T252 704V764H225V703Q181 701 149 684T98 640Q78
613 70 581T63 517Q64 478 78 453T115 410Q138 393 166 382T225 362V20Q171 22 133 39T68 83V173H41V70Q51 59 67 46T106 22Q129 11 158 3T225 -7V-68H252ZM252 353Q284 344 315 333T370 304Q394 285 409 256T424 183Q424 146 409 116T368 65Q345 45 315 33T252
20V353ZM91 527Q91 555 99 581T126 629Q143 649 167 661T225 675V392Q199 400 175 409T133 434Q114 449 103 471T91 527Z" />
<glyph unicode="%" horiz-adv-x="726" d="M459 59Q449 71 444 86T439 118Q440 135 447 149T468 174Q480 185 495 190T528 194Q545 193 560 186T585 165Q595 153 600 137T604 104Q603 88 596 74T576 50Q564 39 549 34T517 29Q499 30 484 38T459 59ZM602 33Q617
48 626 68T636 113Q636 135 627 156T602 192Q586 207 566 215T522 224Q498 224 478 216T442 192Q426 177 417 156T408 113Q408 89 417 69T442 33Q457 18 477 9T522 0Q545 0 565 9T602 33ZM155 336Q145 347 140 362T136 395Q137 411 144 425T164 451Q176 461 192
466T225 470Q242 469 256 462T281 442Q291 429 296 413T300 380Q299 364 292 350T272 326Q260 316 245 311T212 306Q195 307 180 315T155 336ZM298 309Q313 324 322 344T332 389Q332 412 323 432T298 468Q282 483 262 492T218 501Q194 501 174 492T138 468Q122
453 113 433T104 389Q104 365 113 345T138 309Q153 294 173 285T218 276Q241 276 261 285T298 309ZM232 0Q307 126 381 250T530 500H499Q424 374 350 250T201 0H232Z" />
<glyph unicode="&amp;" horiz-adv-x="700" d="M301 -7Q350 -7 390 14T458 70L513 -19L535 -4L473 96Q484 116 489 137T496 179Q498 200 498 220T497 262V347H601V375H469V212Q469 191 464 171T450 134L221 506Q206 531 199 558T196 610Q199 634 214 657T255 699Q277
715 300 719T348 720Q373 716 397 705T443 682L454 706Q434 719 408 730T351 746Q321 750 292 744T236 720Q205 700 189 673T168 616Q164 586 172 556T197 496L268 379Q233 373 204 356T153 314Q131 288 119 256T106 187Q106 146 121 111T163 50Q189 23 224 8T301
-7ZM301 20Q266 20 236 33T183 69Q160 91 147 121T134 187Q134 220 145 248T176 299Q196 322 224 336T285 353L442 96Q420 62 383 41T301 20Z" />
<glyph unicode="&apos;" horiz-adv-x="150" d="M89 472Q90 535 91 596T93 720H62V472H89Z" />
<glyph unicode="(" horiz-adv-x="400" d="M323 -140Q294 -107 267 -62T217 38Q195 93 182 157T169 292Q169 363 182 427T217 546Q239 601 266 646T323 724Q318 730 314 735T306 747Q274 714 245 667T192 561Q169 503 155 435T141 292Q141 217 155 149T192 23Q215
-35 244 -82T306 -163Q310 -157 314 -152T323 -140Z" />
<glyph unicode=")" horiz-adv-x="400" d="M235 22Q258 80 272 148T286 291Q286 366 272 434T235 560Q212 618 182 665T121 746Q116 740 112 735T103 723Q132 690 159 645T209 545Q231 490 244 426T257 291Q257 220 244 156T209 37Q187 -18 160 -63T103 -141Q108
-147 112 -152T121 -164Q152 -131 182 -84T235 22Z" />
<glyph unicode="*" horiz-adv-x="335" d="M179 434Q180 463 180 492T181 550Q214 531 231 520T282 490L298 517L196 575Q222 590 247 605T299 635L285 659Q259 644 234 630T182 600Q182 631 182 660T183 720H152V600Q126 616 101 630T50 660L36 636Q69 617 87
606T137 576Q104 558 87 548T36 519L52 492Q77 507 102 521T152 549V434H179Z" />
<glyph unicode="+" horiz-adv-x="543" d="M280 51V218H446V245H280V411H252V245H86V218H252V51H280Z" />
<glyph unicode="," horiz-adv-x="200" d="M48 -120Q70 -68 91 -17T134 86H99Q79 34 61 -17T22 -120H48Z" />
<glyph unicode="-" horiz-adv-x="300" d="M237 176V204H53V176H237Z" />
<glyph unicode="." horiz-adv-x="163" d="M112 26Q112 38 104 45T86 53Q75 53 67 46T59 26Q59 15 67 8T86 0Q96 0 104 7T112 26Z" />
<glyph unicode="/" horiz-adv-x="334" d="M45 -19Q115 171 184 358T323 736H295Q225 546 156 359T17 -19H45Z" />
<glyph unicode="0" horiz-adv-x="616" d="M491 88Q528 132 550 192T573 324Q573 377 558 436T511 545Q479 593 429 625T308 658Q237 658 186 627T101 547Q68 497 52 439T36 327Q36 256 57 195T114 90Q150 45 198 19T301 -7Q356 -7 405 18T491 88ZM137 106Q104
146 85 202T65 328Q65 393 83 448T134 545Q165 586 209 608T307 630Q360 630 404 607T479 543Q511 501 528 445T545 323Q545 255 525 199T470 103Q436 63 393 42T303 20Q257 20 214 42T137 106Z" />
<glyph unicode="1" horiz-adv-x="257" d="M246 0V27H166V650H34V622H138V27H58V0H246Z" />
<glyph unicode="2" horiz-adv-x="500" d="M459 0V137H431V28H122Q172 80 223 133T318 240Q360 294 387 349T414 461Q414 503 401 539T365 602Q340 628 307 643T233 658Q188 658 154 643T96 603Q73 576 61 541T49 466Q49 423 62 392T99 337L117 354Q97 376 87 404T77
466Q77 490 83 518T108 573Q126 597 156 613T233 630Q257 630 283 622T333 592Q356 571 371 536T386 449Q386 402 358 349T284 240Q237 182 177 122T53 0H459Z" />
<glyph unicode="3" horiz-adv-x="515" d="M383 53Q412 80 428 117T444 198Q444 241 428 278T383 342Q354 369 317 384T236 401L424 650H103V558H130V622H370L173 354Q187 364 203 370T235 376Q272 376 305 362T363 324Q387 299 401 267T416 198Q416 162 402 130T363
73Q338 48 305 34T235 20Q195 20 162 36T106 81L86 59Q115 29 153 11T237 -8Q280 -8 317 8T383 53Z" />
<glyph unicode="4" horiz-adv-x="510" d="M486 0V27H403V183H500V211H403V658L37 183H375V27H298V0H486ZM375 576V211H95L375 576Z" />
<glyph unicode="5" horiz-adv-x="543" d="M401 53Q429 80 445 117T462 198Q462 240 446 277T401 342Q373 369 335 385T255 401Q232 401 212 396T171 382V622H403V558H430V650H143V331Q160 350 189 361T253 373Q291 373 323 360T381 322Q405 298 419 267T434 198Q434
162 420 130T381 73Q356 48 324 34T253 20Q217 20 187 32T134 68L113 49Q141 22 177 7T255 -8Q297 -8 335 8T401 53Z" />
<glyph unicode="6" horiz-adv-x="520" d="M130 72Q105 95 91 127T77 196Q77 233 91 265T130 322Q153 345 186 359T256 373Q292 373 325 359T382 322Q407 297 421 265T435 196Q435 159 421 127T382 72Q358 47 325 34T256 20Q219 20 186 33T130 72ZM403 52Q431 79
447 116T463 196Q463 239 447 276T403 341Q375 369 337 385T256 401Q215 401 180 384T122 336Q135 362 157 393T215 460Q248 495 294 533T400 610Q396 616 391 622T381 634Q325 593 266 547T159 446Q111 392 81 330T50 194Q50 152 66 115T111 51Q139 24 176 8T256
-8Q299 -8 337 8T403 52Z" />
<glyph unicode="7" horiz-adv-x="469" d="M125 0L417 650H14V558H41V622H373L92 0H125Z" />
<glyph unicode="8" horiz-adv-x="510" d="M164 443Q150 458 143 478T138 520Q140 543 151 563T179 599Q197 613 218 620T265 626Q289 624 308 612T343 582Q356 565 362 543T366 497Q365 475 355 458T328 428Q310 415 289 410T244 405Q220 407 199 417T164 443ZM129
73Q105 97 92 129T78 198Q78 235 92 266T129 322Q153 346 185 359T254 373Q291 373 324 360T381 322Q406 297 420 266T434 198Q434 162 420 130T381 73Q356 48 324 34T253 19Q216 19 184 33T129 73ZM401 53Q429 80 445 117T462 198Q462 234 450 265T418 324Q398
347 373 364T317 389Q354 405 376 437T399 511Q399 541 388 568T356 615Q336 635 310 646T252 658Q222 658 196 647T149 616Q129 596 117 570T105 514Q105 471 129 438T191 389Q161 381 136 363T92 322Q72 296 61 265T50 198Q50 155 66 118T110 53Q138 24 175 8T255
-8Q297 -8 335 8T401 53Z" />
<glyph unicode="9" horiz-adv-x="525" d="M130 304Q105 328 91 360T77 429Q77 466 91 498T130 555Q154 578 187 592T257 606Q294 606 326 592T384 555Q407 530 421 498T435 429Q435 393 421 361T384 304Q359 280 327 266T257 252Q220 252 187 266T130 304ZM352
179Q401 233 432 295T463 429Q463 472 447 509T403 574Q375 601 337 617T256 634Q214 634 176 618T110 574Q82 546 66 509T49 429Q49 387 65 350T110 285Q138 257 176 241T256 225Q298 225 332 242T391 290Q379 266 358 236T307 173Q271 136 223 97T112 15Q117
10 122 4T131 -8Q187 32 245 78T352 179Z" />
<glyph unicode=":" horiz-adv-x="175" d="M111 276Q111 288 103 295T85 303Q75 303 67 296T59 276Q59 265 67 258T85 250Q95 250 103 257T111 276ZM111 26Q111 38 103 45T85 53Q75 53 67 46T59 26Q59 15 67 8T85 0Q95 0 103 7T111 26Z" />
<glyph unicode=";" horiz-adv-x="201" d="M136 276Q136 288 128 295T110 303Q99 303 91 296T83 276Q83 265 91 258T110 250Q120 250 128 257T136 276ZM34 -120Q56 -68 77 -17T120 86H84Q64 34 46 -17T7 -120H34Z" />
<glyph unicode="&lt;" horiz-adv-x="680" d="M553 21Q459 76 365 129T176 238Q270 293 364 346T553 455V491Q443 428 334 365T115 238Q225 175 334 112T553 -15V21Z" />
<glyph unicode="=" horiz-adv-x="708" d="M606 142V170H100V142H606ZM606 336V364H100V336H606Z" />
<glyph unicode="&gt;" horiz-adv-x="650" d="M553 238Q443 301 334 364T115 491V455Q210 400 304 347T493 238Q398 183 304 130T115 21V-15Q225 48 334 111T553 238Z" />
<glyph unicode="?" horiz-adv-x="452" d="M227 164V242Q227 274 234 293T254 324Q267 336 283 346T319 369Q364 401 390 442T417 537Q417 577 402 612T361 674Q334 701 298 716T221 732Q185 732 155 721T100 691Q76 672 59 648T33 595Q39 593 45 591T58 587Q67
613 81 634T117 670Q138 686 164 695T221 704Q256 704 287 692T341 657Q363 635 376 604T389 537Q389 500 374 468T327 408Q304 388 281 374T240 345Q221 330 210 311T199 261V164H227ZM239 46Q239 58 231 65T213 73Q203 73 195 66T187 46Q187 35 195 28T213 20Q223
20 231 27T239 46Z" />
<glyph unicode="@" horiz-adv-x="990" d="M364 87Q344 111 335 141T329 205Q332 238 347 265T388 313Q411 333 441 343T504 351Q538 347 566 332T615 290Q635 264 643 233T648 169Q645 137 630 110T591 63Q567 43 537 33T474 26Q440 29 412 45T364 87ZM723 -136Q719
-131 715 -126T706 -115Q659 -147 605 -165T489 -184Q412 -184 344 -155T226 -76Q175 -25 146 43T116 188Q116 265 145 333T226 453Q276 504 344 533T489 562Q566 562 634 533T753 453Q803 402 832 334T862 188Q861 142 852 110T825 59Q811 43 792 35T748 27H685V375H663Q661
349 660 324T659 274Q652 290 641 305T614 334Q590 357 558 370T489 383Q448 383 413 368T350 326Q324 299 309 264T294 188Q294 147 309 112T350 50Q377 24 412 9T489 -7Q520 -7 547 2T597 25Q619 40 635 59T660 101L659 47V0H743Q768 0 793 7T839 36Q860 57 874
93T890 188Q890 271 859 344T773 473Q718 527 645 558T489 590Q406 590 333 559T206 473Q151 418 120 345T88 189Q88 106 119 33T206 -95Q260 -149 333 -180T489 -212Q558 -212 615 -192T723 -136Z" />
<glyph unicode="A" horiz-adv-x="820" d="M219 0V27H140Q171 100 199 167T259 308H561Q590 237 620 167T679 27H601V0H785V27H708Q634 204 560 379T410 732Q335 554 260 379T111 27H35V0H219ZM401 643Q403 651 405 657T410 669L419 643L549 335H271Q303 412 336
488T401 643Z" />
<glyph unicode="B" horiz-adv-x="521" d="M271 0Q313 0 351 11T420 46Q450 68 468 101T486 180Q486 216 474 245T441 296Q419 318 392 332T334 352Q398 369 429 416T460 525Q460 571 445 604T403 659Q375 680 337 690T253 700H35V673H101V27H35V0H271ZM129 338H251Q291
338 328 329T395 300Q423 281 440 251T458 180Q458 142 443 114T402 66Q377 46 342 37T269 27H129V338ZM129 673H264Q301 673 331 665T385 639Q407 621 419 593T432 525Q432 453 388 409T268 365H129V673Z" />
<glyph unicode="C" horiz-adv-x="610" d="M574 42L558 65Q520 43 478 31T390 19Q322 19 263 45T159 116Q115 161 89 220T63 348Q63 416 89 476T160 583Q204 628 264 654T392 681Q433 681 472 671T548 640V546H575V658Q534 682 489 695T392 708Q318 708 253 680T140
603Q91 554 63 489T35 349Q35 275 63 210T140 97Q188 48 253 20T392 -8Q443 -8 488 5T574 42Z" />
<glyph unicode="D" horiz-adv-x="632" d="M211 0Q317 0 390 32T510 116Q556 167 576 229T597 350Q597 430 569 495T493 606Q445 651 381 675T245 700H35V673H103V27H35V0H211ZM131 673H248Q313 673 371 651T475 586Q519 544 544 484T570 350Q570 292 550 235T488
132Q445 85 380 56T223 27H131V673Z" />
<glyph unicode="E" horiz-adv-x="571" d="M536 0V154H509V27H140V339H483V366H140V673H495V546H522V700H35V673H112V27H35V0H536Z" />
<glyph unicode="F" horiz-adv-x="557" d="M223 0V27H140V339H483V366H140V673H495V546H522V700H35V673H112V27H35V0H223Z" />
<glyph unicode="G" horiz-adv-x="609" d="M574 40V298H388V271H546V57Q511 37 472 27T390 17Q322 17 263 43T159 114Q115 159 89 218T63 346Q63 414 89 474T160 581Q204 626 264 652T392 679Q438 679 480 667T559 633L575 656Q534 680 489 693T392 706Q318 706
253 678T140 601Q91 552 63 487T35 347Q35 273 63 208T140 95Q188 46 253 18T392 -10Q443 -10 488 3T574 40Z" />
<glyph unicode="H" horiz-adv-x="727" d="M223 0V27H140V339H587V27H505V0H692V27H615V673H692V700H505V673H587V366H140V673H223V700H35V673H112V27H35V0H223Z" />
<glyph unicode="I" horiz-adv-x="258" d="M223 0V27H140V673H223V700H35V673H112V27H35V0H223Z" />
<glyph unicode="J" horiz-adv-x="266" d="M174 -80Q201 -51 216 -9T231 90V700H35V673H203V93Q203 45 191 7T155 -57Q133 -84 102 -98T35 -115V-142Q76 -141 111 -125T174 -80Z" />
<glyph unicode="K" horiz-adv-x="686" d="M223 0V27H140V314L235 404Q309 309 383 215T530 27H467V0H651V27H566Q488 127 411 225T255 422L517 673H604V700H421V673H479L157 364L139 344Q139 352 139 358T140 373V673H219V700H35V673H112V27H35V0H223Z" />
<glyph unicode="L" horiz-adv-x="567" d="M532 0V154H505V27H136V673H219V700H35V673H108V27H35V0H532Z" />
<glyph unicode="M" horiz-adv-x="964" d="M223 0V27H142V609Q142 620 142 630T141 652Q146 643 149 639T159 626L480 207L793 615Q801 626 806 633T819 652Q819 638 819 631T818 609V27H741V0H929V27H846V673H925V700H823Q737 589 652 477T480 254Q410 344 319
464T137 700H35V673H114V27H35V0H223Z" />
<glyph unicode="N" horiz-adv-x="843" d="M725 673H808V700H620V673H697V64L700 32L681 58L141 700H35V673H114V27H35V0H223V27H142V632L140 659L158 638L725 -32V673Z" />
<glyph unicode="O" horiz-adv-x="786" d="M646 97Q694 145 722 210T751 349Q751 423 723 488T646 603Q597 651 532 679T392 708Q318 708 253 680T140 603Q91 554 63 489T35 349Q35 275 63 210T140 97Q188 48 253 20T392 -8Q466 -8 531 20T646 97ZM159 116Q115
161 89 220T63 348Q63 417 89 477T160 583Q204 628 264 654T392 681Q460 681 520 655T625 583Q670 537 696 477T723 349Q723 281 697 221T625 116Q579 71 519 45T390 19Q322 19 263 45T159 116Z" />
<glyph unicode="P" horiz-adv-x="488" d="M223 0V27H129V335H240Q343 335 398 385T453 520Q453 568 432 602T380 658Q348 680 312 690T246 700H35V673H101V27H35V0H223ZM129 673H239Q279 673 313 661T372 627Q397 605 411 578T425 520Q425 494 417 467T387 416Q365
393 329 378T238 363H129V673Z" />
<glyph unicode="Q" horiz-adv-x="808" d="M159 116Q115 161 89 220T63 348Q63 416 89 476T160 583Q204 628 264 654T392 681Q460 681 520 655T625 583Q670 537 696 477T723 349Q723 281 697 221T625 116Q579 71 519 45T390 19Q322 19 263 45T159 116ZM466 0H773V27H538Q584
46 622 77T689 149Q718 191 734 242T751 349Q751 423 723 488T646 603Q597 651 532 679T392 708Q318 708 253 680T140 603Q91 554 63 489T35 349Q35 275 63 210T140 97Q188 48 253 20T392 -8Q410 -8 428 -6T466 0Z" />
<glyph unicode="R" horiz-adv-x="570" d="M223 0V27H129V335H227Q239 335 250 336T273 338L432 0H535V27H449L302 341Q376 355 414 402T453 520Q453 568 432 602T380 658Q348 680 312 690T246 700H35V673H101V27H35V0H223ZM129 673H239Q279 673 313 661T372 627Q397
605 411 578T425 520Q425 494 417 467T387 416Q365 393 329 378T238 363H129V673Z" />
<glyph unicode="S" horiz-adv-x="478" d="M391 45Q420 70 436 106T452 186Q451 253 424 290T355 348Q312 368 264 380T177 409Q139 425 115 451T91 527Q91 556 99 582T127 631Q145 651 173 664T238 677Q282 677 314 667T367 643V546H394V657Q376 671 356 680T316
696Q295 700 276 702T239 704Q191 704 157 688T101 644Q80 617 71 584T63 517Q64 472 83 444T131 400Q159 382 194 372T263 351Q295 341 324 329T377 298Q398 279 411 252T424 183Q424 145 408 115T367 63Q341 42 308 31T237 19Q179 19 138 37T68 83V173H41V70Q51
59 69 46T112 21Q136 8 168 0T241 -8Q284 -8 323 5T391 45Z" />
<glyph unicode="T" horiz-adv-x="623" d="M405 0V27H325V673H561V546H588V700H35V546H62V673H297V27H217V0H405Z" />
<glyph unicode="U" horiz-adv-x="685" d="M507 52Q537 81 555 125T573 226V673H650V700H462V673H545V229Q545 178 530 139T488 74Q461 47 424 33T343 19Q298 19 261 33T197 74Q170 100 155 139T140 229V673H223V700H35V673H112V226Q112 169 129 125T178 52Q208
22 250 7T342 -8Q392 -8 434 7T507 52Z" />
<glyph unicode="V" horiz-adv-x="837" d="M716 673H802V700H614V673H687Q622 517 557 365T426 57L417 31L408 57Q343 212 278 365T148 673H223V700H35V673H118Q193 495 268 320T417 -32Q492 145 566 320T716 673Z" />
<glyph unicode="W" horiz-adv-x="1211" d="M492 144Q520 210 548 277T603 410L613 385L790 -32Q864 145 938 320T1088 673H1176V700H989V673H1059Q994 517 929 365T799 57L790 31L781 57Q714 211 649 364T520 673H597V700H409V673H491Q516 614 540 557T589 441Q561
376 533 311T477 180Q461 143 446 105T417 31L408 57Q341 211 277 364T148 673H223V700H35V673H118Q193 495 268 320T417 -32Q436 12 454 56T492 144Z" />
<glyph unicode="X" horiz-adv-x="707" d="M223 0V27H154Q201 101 248 173T342 319L351 335Q361 321 370 306T389 275L551 27H484V0H672V27H586Q532 110 479 191T372 355Q423 435 473 513T575 673H672V700H484V673H542L364 395L355 379L346 395Q300 464 256 533T165
673H223V700H35V673H131L334 359L121 27H35V0H223Z" />
<glyph unicode="Y" horiz-adv-x="732" d="M462 0V27H382V263Q443 366 504 468T626 673H697V700H510V673H592L378 314L367 287H366L354 314Q301 405 247 493T139 673H223V700H35V673H105Q166 570 227 468T350 264V27H274V0H462Z" />
<glyph unicode="Z" horiz-adv-x="629" d="M594 0V188H567V27H72L565 673V700H81V735H52V673H528L35 27V0H594Z" />
<glyph unicode="[" horiz-adv-x="338" d="M252 -149V-121H113V718H252V746H83V-149H252Z" />
<glyph unicode="\" horiz-adv-x="333" d="M322 -19Q252 171 183 358T44 736H14Q84 546 153 359T292 -19H322Z" />
<glyph unicode="]" horiz-adv-x="342" d="M251 -149V746H82V718H221V-121H82V-149H251Z" />
<glyph unicode="^" horiz-adv-x="470" d="M137 479Q161 513 184 547T232 616Q256 582 279 548T327 479H352Q322 524 292 569T232 660Q202 615 172 570T112 479H137Z" />
<glyph unicode="_" horiz-adv-x="600" d="M500 0V28H100V0H500Z" />
<glyph unicode="`" horiz-adv-x="200" d="M98 479Q75 512 53 545T8 612H-22Q3 579 26 546T74 479H98Z" />
<glyph unicode="a" horiz-adv-x="535" d="M500 0V27H426V375H404Q403 349 402 324T400 274Q381 320 336 351T230 383Q189 383 154 368T92 326Q65 300 50 264T35 188Q35 147 50 112T92 51Q118 24 153 9T230 -7Q261 -7 288 1T338 26Q360 40 376 59T401 101Q401 87
401 74T400 47V0H500ZM230 356Q265 356 295 343T349 307Q372 284 385 254T398 188Q398 152 385 122T349 69Q326 47 296 34T230 21Q196 21 166 33T114 68Q90 90 77 121T63 188Q63 222 76 252T111 306Q134 329 164 342T230 356Z" />
<glyph unicode="b" horiz-adv-x="535" d="M35 0H135V47Q135 61 135 74T134 101Q142 79 158 60T198 26Q219 10 246 2T305 -7Q345 -7 381 8T444 51Q470 77 485 112T500 188Q500 228 485 264T444 326Q417 352 381 367T305 383Q275 383 248 375T198 351Q176 336 160
317T136 275Q136 293 136 302T137 329V750H37V723H109V27H35V0ZM305 356Q339 356 369 343T423 308Q445 285 458 254T472 188Q472 153 459 123T424 70Q401 47 370 34T305 21Q269 21 239 34T186 69Q163 91 150 121T137 188Q137 222 149 252T185 306Q208 329 238 342T305
356Z" />
<glyph unicode="c" horiz-adv-x="389" d="M354 36L336 57Q314 40 287 31T230 21Q195 21 165 34T112 70Q89 92 76 122T63 188Q63 223 76 254T113 308Q135 330 165 343T230 356Q258 356 282 348T328 324V247H354V340Q329 360 298 371T230 383Q189 383 154 368T92
326Q65 300 50 264T35 188Q35 147 50 112T92 51Q118 24 153 9T230 -7Q265 -7 296 4T354 36Z" />
<glyph unicode="d" horiz-adv-x="535" d="M500 0V27H426V750H327V723H398V379Q398 345 398 327T399 276Q390 298 375 317T337 351Q315 366 288 374T230 383Q189 383 154 368T92 326Q65 300 50 264T35 188Q35 147 50 112T92 51Q118 24 153 9T230 -7Q261 -7 288
1T338 26Q360 40 376 59T401 101Q401 87 401 74T400 47V0H500ZM230 356Q265 356 295 343T348 308Q372 285 385 254T398 188Q398 152 385 122T349 69Q326 46 296 34T230 21Q195 21 165 33T113 69Q90 91 77 121T63 188Q63 223 76 253T112 307Q134 330 164 343T230
356Z" />
<glyph unicode="e" horiz-adv-x="438" d="M230 356Q274 356 310 331T365 266Q291 236 217 207T69 147Q58 186 66 223T97 289Q120 319 154 337T230 356ZM362 46L344 67Q322 45 293 33T230 21Q178 21 137 48T77 121Q159 154 239 186T401 251Q391 280 375 303T338
344Q316 363 288 373T230 383Q189 383 154 368T92 326Q65 300 50 264T35 188Q35 147 50 112T92 50Q118 24 153 9T230 -7Q269 -7 302 7T362 46Z" />
<glyph unicode="f" horiz-adv-x="292" d="M219 0V27H124V347H251V375H124V520Q124 567 137 604T175 668Q197 694 227 708T292 723V750Q252 748 216 733T154 688Q126 659 111 616T96 518V375H35V347H96V27H35V0H219Z" />
<glyph unicode="g" horiz-adv-x="536" d="M88 -192Q114 -221 152 -235T239 -250Q277 -249 311 -234T372 -189Q397 -161 411 -120T426 -27V348H501V375H404Q402 349 401 324T400 274Q380 321 335 352T230 383Q189 383 154 368T92 326Q65 300 50 264T35 188Q35 147
50 112T92 51Q118 24 153 9T230 -6Q261 -6 288 2T337 25Q358 39 374 58T400 100Q399 86 399 73T398 45V-27Q398 -71 386 -107T351 -168Q330 -194 301 -207T238 -221Q200 -221 165 -208T107 -171L88 -192ZM230 356Q265 356 295 343T348 308Q372 285 385 254T398
188Q398 153 386 123T350 70Q327 47 296 34T230 21Q195 21 165 34T113 69Q89 92 76 122T63 188Q63 222 75 252T111 306Q133 329 163 342T230 356Z" />
<glyph unicode="h" horiz-adv-x="534" d="M219 0V27H141V212Q141 243 154 269T190 315Q212 333 241 344T303 355Q345 353 368 328T394 268V27H315V0H499V27H422V270Q420 320 389 351T303 382Q246 382 203 354T138 277L141 322V750H40V723H113V27H35V0H219Z" />
<glyph unicode="i" horiz-adv-x="254" d="M219 0V27H143V375H35V348H115V27H35V0H219ZM155 504Q155 515 147 523T129 531Q118 531 110 523T102 504Q102 493 110 486T129 478Q139 478 147 485T155 504Z" />
<glyph unicode="j" horiz-adv-x="175" d="M140 -6V375H35V348H112V-8Q112 -57 98 -95T58 -160L79 -180Q107 -151 123 -107T140 -6ZM153 504Q153 515 145 523T127 531Q117 531 109 523T101 504Q101 493 109 486T127 478Q137 478 145 485T153 504Z" />
<glyph unicode="k" horiz-adv-x="495" d="M35 0H219V27H136V147L205 212Q238 165 272 119T341 27H281V0H460V27H375Q337 78 300 128T226 231Q261 263 288 289T348 348H423V375H244V348H312L136 183V750H36V723H108V27H35V0Z" />
<glyph unicode="l" horiz-adv-x="254" d="M219 0V27H136V750H36V723H108V27H35V0H219Z" />
<glyph unicode="m" horiz-adv-x="814" d="M219 0V27H141V212Q141 243 154 269T190 315Q212 333 241 344T303 355Q345 353 368 328T394 268V27H315V0H499V27H422V217Q422 247 436 272T472 316Q494 334 522 344T583 355Q626 353 649 328T674 268V27H595V0H779V27H702V270Q700
320 669 351T583 382Q528 382 485 355T421 282Q416 327 385 354T303 382Q246 382 203 354T138 277Q138 293 138 304T136 331L135 375H40V348H113V27H35V0H219Z" />
<glyph unicode="n" horiz-adv-x="534" d="M219 0V27H141V212Q141 243 154 269T190 315Q212 333 241 344T303 355Q345 353 368 328T394 268V27H315V0H499V27H422V270Q420 320 389 351T303 382Q247 382 203 354T138 277Q138 293 138 304T136 331L135 375H40V348H113V27H35V0H219Z"
/>
<glyph unicode="o" horiz-adv-x="463" d="M371 51Q397 77 412 112T428 188Q428 228 413 264T371 327Q344 353 308 368T231 384Q190 384 155 369T93 327Q66 300 51 264T36 188Q36 147 51 112T93 51Q119 24 154 9T231 -7Q271 -7 307 8T371 51ZM113 70Q90 92 77 122T64
188Q64 222 77 252T113 306Q135 330 165 343T231 356Q265 356 295 343T349 306Q372 283 385 253T398 188Q398 153 385 123T349 70Q326 47 296 34T231 21Q195 21 165 34T113 70Z" />
<glyph unicode="p" horiz-adv-x="535" d="M43 -250H226V-223H138V52Q138 64 138 75T136 98Q145 76 160 57T198 24Q220 9 247 1T305 -8Q345 -8 381 7T444 49Q470 75 485 110T500 187Q500 227 485 262T444 325Q417 351 381 366T305 382Q244 382 199 350T134 271Q134
297 133 323T131 375H35V348H109V-223H43V-250ZM305 354Q339 354 369 342T423 307Q445 284 458 253T472 187Q472 151 459 121T423 67Q400 45 370 32T305 19Q270 19 240 32T187 68Q163 91 150 121T137 187Q137 222 149 252T185 306Q208 328 238 341T305 354Z" />
<glyph unicode="q" horiz-adv-x="536" d="M496 -250V-223H426V348H501V375H404Q404 349 403 323T401 271Q382 319 337 350T230 382Q189 382 154 367T92 325Q65 298 50 263T35 187Q35 146 50 111T92 49Q118 23 153 8T230 -8Q261 -8 288 0T337 24Q359 38 374 57T399
98Q399 86 399 75T398 51V-223H312V-250H496ZM230 354Q265 354 295 341T349 306Q372 284 385 253T398 187Q398 152 386 122T349 68Q327 45 296 32T230 19Q195 19 166 32T114 67Q90 90 77 120T63 187Q63 222 76 252T112 306Q134 328 164 341T230 354Z" />
<glyph unicode="r" horiz-adv-x="335" d="M219 0V27H141V212Q141 243 154 269T190 315Q212 333 239 343T299 355L300 382Q275 382 252 375T207 354Q184 341 167 322T138 277Q138 293 138 300T137 322L135 375H40V348H113V27H35V0H219Z" />
<glyph unicode="s" horiz-adv-x="318" d="M260 30Q274 46 280 65T287 103Q287 135 273 154T238 185Q216 196 192 203T145 220Q124 228 110 242T95 282Q95 301 102 314T121 337Q132 345 147 348T175 352Q195 352 212 348T246 334V278H272V348Q264 356 253 362T229
372Q212 377 201 378T176 380Q158 380 137 374T100 354Q85 341 76 323T67 278Q67 247 81 229T117 202Q138 191 163 184T210 168Q231 160 245 145T259 100Q259 80 251 65T231 41Q218 30 203 25T169 20Q146 20 123 23T80 42V97H53V27Q77 6 107 -1T166 -8Q198 -8 221
2T260 30Z" />
<glyph unicode="t" horiz-adv-x="307" d="M236 0V27H151V347H272V375H151V619H123V375H35V347H123V0H236Z" />
<glyph unicode="u" horiz-adv-x="529" d="M395 98L396 53L398 0H494V25H420V375H315V348H392V163Q392 132 379 106T343 61Q321 42 292 31T230 20Q188 22 165 47T139 107V375H35V348H111V105Q113 55 144 24T230 -7Q286 -7 330 21T395 98Z" />
<glyph unicode="v" horiz-adv-x="589" d="M484 348H554V375H397V348H455Q414 266 374 186T297 31Q258 110 219 189T139 348H208V375H35V348H109Q157 254 203 163T297 -23Q344 71 390 162T484 348Z" />
<glyph unicode="w" horiz-adv-x="854" d="M432 249L568 -23Q614 71 660 162T752 348H819V375H665V348H724Q683 268 645 190T568 31Q529 110 490 189T411 348H480V375H307V348H379L417 271Q387 211 358 153T297 31Q259 107 219 187T139 348H205V375H35V348H110Q157
254 203 163T296 -23L432 249Z" />
<glyph unicode="x" horiz-adv-x="496" d="M214 0V27H143Q168 62 193 96T243 166Q268 132 293 98T345 27H277V0H461V27H379Q350 67 322 105T264 183L383 348H461V375H282V348H349L248 206L144 348H219V375H35V348H109Q138 307 167 269T225 190Q195 149 167 109T108
27H35V0H214Z" />
<glyph unicode="y" horiz-adv-x="595" d="M276 -250V-223H207Q279 -79 349 62T491 348H560V375H403V348H460Q419 267 379 186T300 26Q262 107 222 187T141 348H208V375H35V348H109Q153 259 196 172T285 -3Q257 -57 230 -112T175 -223H92V-250H276Z" />
<glyph unicode="z" horiz-adv-x="430" d="M395 0V80H369V28H73Q152 110 224 187T377 347V375H73V410H47V348H339Q259 265 187 188T35 28V0H395Z" />
<glyph unicode="{" horiz-adv-x="282" d="M244 -148V-121H189Q176 -121 167 -117T152 -103Q143 -91 140 -68T137 -10V135Q137 178 132 206T117 253Q108 271 96 281T72 299Q84 306 96 316T117 343Q126 362 131 390T137 462V608Q137 645 141 668T154 704Q160 712
169 715T189 718H244V746H201Q184 746 167 745T138 732Q125 722 117 698T109 628V451Q109 431 106 408T94 364Q85 344 70 331T30 316V281Q54 280 69 267T94 233Q103 213 106 190T109 146V-2Q109 -58 114 -88T132 -131Q144 -145 162 -146T201 -148H244Z" />
<glyph unicode="|" horiz-adv-x="230" d="M126 -232V700H97V-232H126Z" />
<glyph unicode="}" horiz-adv-x="320" d="M119 -148Q136 -148 153 -147T182 -136Q195 -125 203 -101T211 -30V117Q211 135 212 162T221 214Q228 241 244 260T290 281V316Q268 317 254 328T231 355Q215 383 213 420T211 480V628Q211 674 203 698T182 732Q169 743
153 744T119 746H76V718H131Q145 718 154 714T170 699Q177 686 180 664T183 608V462Q183 419 188 391T203 343Q212 326 224 316T248 299Q239 294 228 285T206 259Q196 244 190 221T183 165V-10Q183 -44 180 -66T169 -102Q163 -112 154 -116T131 -121H76V-148H119Z"
/>
<glyph unicode="~" horiz-adv-x="489" d="M392 474Q403 482 411 496T421 528L401 530Q399 514 392 504T375 488Q366 482 356 480T338 477Q324 477 312 483T284 506Q268 523 251 533T214 543Q199 543 185 539T159 526Q147 518 139 504T130 472L149 470Q151 485
157 495T173 511Q183 518 193 520T213 523Q227 523 238 517T266 494Q282 477 299 467T337 457Q351 457 365 461T392 474Z" />
<glyph unicode="&#xa0;" horiz-adv-x="300" />
<glyph unicode="&#xa1;" horiz-adv-x="200" d="M126 485Q126 473 118 466T100 458Q90 458 82 465T74 485Q74 496 82 503T100 511Q110 511 118 504T126 485ZM114 374V-210H86V374H114Z" />
<glyph unicode="&#xa2;" horiz-adv-x="385" d="M236 -68V-6Q270 -5 299 6T355 36L337 57Q316 41 290 32T236 21V355Q262 355 285 347T329 324V247H355V340Q331 359 301 370T236 383V438H208V381Q171 377 140 361T86 318Q63 292 50 259T36 188Q36 150 49 117T86
59Q109 33 140 17T208 -4V-68H236ZM64 188Q64 220 75 248T106 298Q125 320 151 334T208 352V24Q178 27 153 40T108 74Q87 96 76 125T64 188Z" />
<glyph unicode="&#xa3;" horiz-adv-x="574" d="M498 0V134H470V28H128Q143 42 147 66T151 120V303H277V331H151V499Q151 522 158 541T183 576Q199 590 225 598T292 606Q322 606 343 602T381 588Q397 579 408 565T432 530L452 543Q432 583 396 608T291 634Q212
634 168 602T123 500V331H58V303H123V167Q123 127 121 100T114 57Q109 41 99 35T71 28H27V0H498Z" />
<glyph unicode="&#xa4;" horiz-adv-x="500" d="M138 361Q138 384 146 404T170 439Q185 454 205 462T247 471Q269 471 289 463T324 440Q339 425 348 405T357 361Q357 338 349 318T325 283Q310 268 290 259T247 250Q225 250 205 259T170 282Q155 297 147 317T138
361ZM162 252Q179 238 201 231T247 223Q272 223 293 230T332 253L370 215L390 235L353 273Q368 291 376 313T385 361Q385 385 378 406T355 446L390 481L370 500L335 465Q318 481 295 490T247 499Q222 499 200 490T159 466L124 501L104 481L139 446Q125 428 117
407T109 361Q109 336 117 314T142 272L104 234L124 214L162 252Z" />
<glyph unicode="&#xa5;" horiz-adv-x="638" d="M242 0H430V27H350V106H501V134H350V263H501V291H367L594 673H666V700H478V673H560L347 314L335 287H334L323 314L107 673H191V700H3V673H73L303 291H168V263H319V134H168V106H319V27H242V0Z" />
<glyph unicode="&#xa6;" horiz-adv-x="215" d="M124 -233V117H95V-233H124ZM124 350V700H95V350H124Z" />
<glyph unicode="&#xa7;" horiz-adv-x="500" d="M177 321Q172 334 170 346T169 371Q171 387 178 401T198 427Q209 438 225 444T260 449Q277 447 293 439T321 418Q333 405 339 388T344 349Q342 333 335 318T315 293Q302 282 286 276T252 272Q229 273 209 285T177
321ZM276 13Q289 23 297 36T305 66Q305 81 298 103T273 155L215 254Q228 248 242 245T269 242Q292 243 311 253T344 278Q358 295 366 316T374 359Q374 375 371 389T358 418L271 569Q255 596 248 615T239 649Q239 661 246 670T265 687Q277 694 288 700T311 713Q307
719 304 725T297 736Q283 729 268 721T239 703Q225 694 217 682T209 653Q209 641 216 620T237 572Q250 546 266 519T298 465Q285 471 272 474T242 476Q220 475 201 465T169 441Q155 424 147 403T139 361Q139 343 144 327T159 295L242 153Q259 124 267 104T275 69Q275
57 268 48T250 32Q238 25 227 19T204 6Q208 0 211 -6T218 -18Q232 -11 247 -4T276 13Z" />
<glyph unicode="&#xa8;" horiz-adv-x="370" d="M293 504Q293 515 285 523T267 531Q257 531 249 523T241 504Q241 493 249 486T267 478Q277 478 285 485T293 504ZM128 504Q128 515 120 523T102 531Q91 531 83 523T75 504Q75 493 83 486T102 478Q112 478 120 485T128 504Z" />
<glyph unicode="&#xa9;" horiz-adv-x="793" d="M232 203Q200 235 182 278T163 371Q163 423 181 466T232 543Q265 574 308 592T399 610Q449 610 492 592T568 543Q600 510 618 467T637 371Q637 321 619 278T568 203Q535 171 492 153T399 135Q351 135 308 153T232
203ZM583 189Q617 223 637 270T657 372Q657 427 637 474T583 556Q548 590 501 609T400 628Q346 628 299 609T218 556Q183 522 163 475T143 372Q143 317 163 270T218 189Q252 155 299 136T400 117Q454 117 501 136T583 189ZM501 236L494 246Q477 236 458 231T418
226Q387 226 360 237T313 269Q293 289 282 316T270 374Q270 405 282 432T314 481Q334 501 361 513T419 525Q438 525 455 521T489 507V464H502V515Q483 526 462 531T419 537Q386 537 357 525T305 490Q283 468 270 438T256 374Q256 341 269 311T304 259Q326 237 356
225T419 213Q442 213 462 219T501 236Z" />
<glyph unicode="&#xaa;" horiz-adv-x="585" d="M419 306V326H366V576H350Q348 558 348 540T347 504Q333 536 300 559T224 582Q195 582 169 571T124 541Q105 522 94 496T83 442Q83 412 94 387T124 343Q143 323 169 313T224 302Q247 302 266 308T302 325Q318 335
329 349T347 379Q347 369 347 360T347 340V306H419ZM224 562Q249 562 271 553T310 528Q327 511 336 489T346 442Q346 416 337 394T310 356Q293 340 271 331T224 321Q199 321 177 330T139 356Q123 372 113 394T103 442Q103 466 112 488T138 527Q154 543 176 552T224
562Z" />
<glyph unicode="&#xab;" horiz-adv-x="601" d="M288 239L459 77V109Q428 142 396 174T333 239Q364 271 396 303T459 367V400Q416 359 374 320T288 239ZM117 239L288 77V109Q257 142 225 174T162 239Q193 271 225 303T288 367V400Q245 359 203 320T117 239Z" />
<glyph unicode="&#xac;" horiz-adv-x="559" d="M460 148V242H100V219H432V148H460Z" />
<glyph unicode="&#xad;" horiz-adv-x="300" d="M237 176V204H53V176H237Z" />
<glyph unicode="&#xae;" horiz-adv-x="801" d="M232 203Q200 235 182 278T163 371Q163 423 181 466T232 543Q265 574 308 592T399 610Q449 610 492 592T568 543Q600 510 618 467T637 371Q637 321 619 278T568 203Q535 171 492 153T399 135Q351 135 308 153T232
203ZM583 189Q617 223 637 270T657 372Q657 427 637 474T583 556Q548 590 501 609T400 628Q346 628 299 609T218 556Q183 522 163 475T143 372Q143 317 163 270T218 189Q252 155 299 136T400 117Q454 117 501 136T583 189ZM397 210V223H353V368H398Q405 368 410
368T421 370L496 210H545V223H504L435 371Q470 378 488 400T506 456Q506 478 496 494T471 522Q456 532 439 536T408 541H309V528H339V223H309V210H397ZM353 528H404Q442 528 467 507T493 456Q493 444 489 431T475 407Q464 396 447 389T404 381H353V528Z" />
<glyph unicode="&#xaf;" horiz-adv-x="399" d="M315 489V511H85V489H315Z" />
<glyph unicode="&#xb0;" horiz-adv-x="282" d="M78 560Q78 572 82 582T95 602Q104 610 115 614T138 619Q150 619 161 615T180 602Q188 594 192 583T197 560Q197 547 193 537T180 517Q172 510 161 506T138 501Q127 501 117 504T98 515Q89 524 84 535T78 560ZM219
559Q219 578 212 593T192 620Q182 630 168 635T138 641Q122 641 108 636T83 621Q70 610 63 594T56 559Q56 541 63 527T81 501Q92 490 106 485T138 479Q154 479 168 484T194 500Q205 511 212 526T219 559Z" />
<glyph unicode="&#xb1;" horiz-adv-x="524" d="M280 211V378H446V405H280V571H252V405H86V378H252V211H280ZM446 129V156H86V129H446Z" />
<glyph unicode="&#xb2;" horiz-adv-x="398" d="M303 375V443H290V389H137Q162 415 187 441T234 494Q254 521 268 548T282 603Q282 624 275 641T257 672Q245 685 229 692T192 700Q170 700 153 693T124 672Q112 659 107 642T101 606Q101 585 107 569T126 541L134
550Q125 560 120 574T115 606Q115 617 118 631T130 658Q138 670 153 678T192 686Q203 686 216 682T241 667Q253 657 260 640T268 597Q268 574 254 548T216 493Q194 465 164 436T102 375H303Z" />
<glyph unicode="&#xb3;" horiz-adv-x="419" d="M238 406Q253 420 261 438T269 477Q269 499 261 517T238 549Q224 562 206 569T166 577L259 700H101V655H114V686H232L135 555Q142 559 149 562T166 565Q184 565 200 558T229 540Q241 527 248 511T255 477Q255 460
248 444T229 416Q216 404 200 397T166 390Q146 390 130 398T102 420L92 409Q106 394 125 385T166 376Q188 376 206 384T238 406Z" />
<glyph unicode="&#xb4;" horiz-adv-x="229" d="M125 479Q149 512 172 545T220 612H190Q167 579 145 546T100 479H125Z" />
<glyph unicode="&#xb5;" horiz-adv-x="545" d="M138 -201V38Q151 17 174 5T229 -7Q284 -7 328 21T393 98L394 53L397 0H492V25H418V375H314V348H390V163Q390 132 377 106T341 61Q319 42 290 31T229 20Q186 22 163 47T138 107V375H34V348H110V-201H138Z" />
<glyph unicode="&#xb6;" horiz-adv-x="529" d="M229 0V725H364V0H492V25H392V725H492V750H201Q167 750 137 737T85 702Q63 680 51 650T38 586Q38 552 50 522T85 470Q107 448 137 436T201 423V0H229Z" />
<glyph unicode="&#xb7;" horiz-adv-x="164" d="M112 280Q112 292 104 299T86 307Q75 307 67 300T59 280Q59 269 67 262T86 254Q96 254 104 261T112 280Z" />
<glyph unicode="&#xb8;" horiz-adv-x="452" d="M295 -130Q295 -114 286 -95T254 -61Q241 -53 227 -43T213 -6V0H191V-20Q191 -39 203 -50T232 -70Q246 -81 258 -95T271 -136Q271 -166 253 -185T205 -205Q181 -205 165 -192T142 -159Q137 -161 132 -163T121 -167Q132
-198 155 -213T207 -228Q243 -228 269 -205T295 -130Z" />
<glyph unicode="&#xb9;" horiz-adv-x="254" d="M170 380V392H132V700H68V687H118V392H79V380H170Z" />
<glyph unicode="&#xba;" horiz-adv-x="469" d="M332 343Q351 362 362 387T373 442Q373 470 362 496T332 542Q313 561 287 572T232 583Q202 583 177 572T132 542Q113 522 102 496T91 442Q91 412 102 387T132 343Q151 323 176 313T232 302Q261 302 287 312T332 343ZM146
357Q130 372 121 394T111 442Q111 466 120 488T146 527Q163 544 184 553T231 562Q256 562 278 553T317 527Q333 510 342 488T352 442Q352 416 343 394T317 356Q300 340 278 331T231 321Q206 321 185 330T146 357Z" />
<glyph unicode="&#xbb;" horiz-adv-x="601" d="M288 239L117 77V109Q148 142 180 174T243 239Q212 271 180 303T117 367V400Q160 359 202 320T288 239ZM459 239L288 77V109Q319 142 351 174T414 239Q383 271 351 303T288 367V400Q331 359 373 320T459 239Z" />
<glyph unicode="&#xbc;" horiz-adv-x="968" d="M315 -19Q385 171 454 358T593 735H565Q495 545 426 358T287 -19H315ZM835 0V20H773V136H845V157H773V490L501 136H752V20H696V0H835ZM752 428V157H545L752 428ZM285 234V253H228V695H135V675H208V253H151V234H285Z" />
<glyph unicode="&#xbd;" horiz-adv-x="1069" d="M271 234V253H215V695H121V675H195V253H139V234H271ZM868 0V97H849V20H631Q666 56 702 93T769 170Q799 208 818 247T837 326Q837 356 828 381T802 425Q785 444 762 454T709 465Q678 465 653 455T612 426Q596 407
587 383T578 329Q578 301 588 278T615 239L627 251Q613 265 606 285T599 329Q599 347 603 367T620 405Q633 422 654 434T709 446Q726 446 744 440T779 419Q796 403 806 379T817 317Q817 284 798 247T745 169Q712 129 670 87T581 0H868ZM315 -19Q385 171 454 358T593
735H565Q495 545 426 358T287 -19H315Z" />
<glyph unicode="&#xbe;" horiz-adv-x="1276" d="M380 246Q402 268 414 297T427 359Q427 392 414 421T380 470Q358 490 329 502T267 515L411 708H163V637H185V686H369L218 479Q229 487 241 491T265 496Q294 496 319 485T364 456Q383 437 394 412T405 359Q405 331
394 306T364 262Q345 243 320 232T265 221Q235 221 210 234T166 269L151 252Q172 228 202 214T267 200Q300 200 329 212T380 246ZM485 -19Q555 171 624 358T763 736H735Q665 546 596 359T457 -19H485ZM1034 0V20H972V136H1045V157H972V490L700 136H951V20H894V0H1034ZM951
428V157H743L951 428Z" />
<glyph unicode="&#xbf;" horiz-adv-x="419" d="M226 375V297Q226 265 219 246T199 215Q186 203 170 193T134 170Q89 138 63 97T36 2Q36 -38 51 -73T92 -135Q119 -162 155 -177T232 -193Q268 -193 298 -182T353 -152Q377 -133 394 -109T420 -56Q414 -54 408 -52T395
-48Q386 -74 372 -95T336 -131Q315 -147 289 -156T232 -165Q197 -165 166 -153T112 -118Q90 -96 77 -65T64 2Q64 39 79 71T126 131Q149 151 172 165T213 194Q232 209 243 228T254 278V375H226ZM214 493Q214 481 222 474T240 466Q250 466 258 473T266 493Q266 504
258 511T240 519Q230 519 222 512T214 493Z" />
<glyph unicode="&#xc0;" horiz-adv-x="820" d="M219 0V27H140Q171 100 199 167T259 308H561Q590 237 620 167T679 27H601V0H785V27H708Q634 204 560 379T410 732Q335 554 260 379T111 27H35V0H219ZM401 643Q403 651 405 657T410 669L419 643L549 335H271Q303 412
336 488T401 643ZM419 750Q396 783 374 816T329 883H299Q324 850 347 817T395 750H419Z" />
<glyph unicode="&#xc1;" horiz-adv-x="820" d="M424 750Q448 783 471 816T519 883H489Q466 850 444 817T399 750H424ZM219 0V27H140Q171 100 199 167T259 308H561Q590 237 620 167T679 27H601V0H785V27H708Q634 204 560 379T410 732Q335 554 260 379T111 27H35V0H219ZM401
643Q403 651 405 657T410 669L419 643L549 335H271Q303 412 336 488T401 643Z" />
<glyph unicode="&#xc2;" horiz-adv-x="820" d="M315 750Q339 784 362 818T410 887Q434 853 457 819T505 750H530Q500 795 470 840T410 931Q380 886 350 841T290 750H315ZM219 0V27H140Q171 100 199 167T259 308H561Q590 237 620 167T679 27H601V0H785V27H708Q634
204 560 379T410 732Q335 554 260 379T111 27H35V0H219ZM401 643Q403 651 405 657T410 669L419 643L549 335H271Q303 412 336 488T401 643Z" />
<glyph unicode="&#xc3;" horiz-adv-x="820" d="M527 769Q538 777 546 791T556 823L536 825Q534 809 527 799T510 783Q501 777 491 775T473 772Q459 772 447 778T419 801Q403 818 386 828T349 838Q334 838 320 834T294 821Q282 813 274 799T265 767L284 765Q286
780 292 790T308 806Q318 813 328 815T348 818Q362 818 373 812T401 789Q417 772 434 762T472 752Q486 752 500 756T527 769ZM219 0V27H140Q171 100 199 167T259 308H561Q590 237 620 167T679 27H601V0H785V27H708Q634 204 560 379T410 732Q335 554 260 379T111
27H35V0H219ZM401 643Q403 651 405 657T410 669L419 643L549 335H271Q303 412 336 488T401 643Z" />
<glyph unicode="&#xc4;" horiz-adv-x="820" d="M519 794Q519 805 511 813T493 821Q483 821 475 813T467 794Q467 783 475 776T493 768Q503 768 511 775T519 794ZM354 794Q354 805 346 813T328 821Q317 821 309 813T301 794Q301 783 309 776T328 768Q338 768 346
775T354 794ZM219 0V27H140Q171 100 199 167T259 308H561Q590 237 620 167T679 27H601V0H785V27H708Q634 204 560 379T410 732Q335 554 260 379T111 27H35V0H219ZM401 643Q403 651 405 657T410 669L419 643L549 335H271Q303 412 336 488T401 643Z" />
<glyph unicode="&#xc5;" horiz-adv-x="820" d="M219 0V27H140Q171 100 199 167T259 308H561Q590 237 620 167T679 27H601V0H785V27H708Q634 204 560 379T410 732Q335 554 260 379T111 27H35V0H219ZM401 643Q403 651 405 657T410 669L419 643L549 335H271Q303 412
336 488T401 643ZM365 835Q365 853 378 867T411 881Q431 881 444 867T457 835Q457 816 444 803T411 789Q390 789 378 803T365 835ZM479 835Q479 851 473 863T457 886Q448 894 436 898T411 903Q395 903 383 897T360 881Q352 872 348 860T343 835Q343 819 349 807T365
784Q374 776 386 772T411 767Q424 767 436 771T457 784Q467 794 473 806T479 835Z" />
<glyph unicode="&#xc6;" horiz-adv-x="775" d="M219 0V27H141Q171 97 200 166T259 305H400V0H740V154H713V27H428V339H687V366H428V673H699V546H726V700H397Q326 530 255 363T113 27H35V0H219ZM400 642V333H271Q303 411 337 487T400 642Z" />
<glyph unicode="&#xc7;" horiz-adv-x="602" d="M477 -130Q477 -114 468 -95T436 -61Q425 -54 414 -47T397 -21Q396 -19 396 -16T395 -8Q445 -8 489 5T574 42L558 65Q520 43 478 31T390 19Q322 19 263 45T159 116Q115 161 89 220T63 348Q63 416 89 476T160 583Q204
628 264 654T392 681Q433 681 472 671T548 640V474H575V658Q534 682 489 695T392 708Q318 708 253 680T140 603Q91 554 63 489T35 349Q35 278 61 214T134 103Q179 55 240 26T373 -7V-20Q373 -39 386 -50T414 -70Q428 -81 440 -95T453 -136Q453 -166 435 -185T388
-205Q364 -205 347 -192T325 -159L303 -167Q314 -198 337 -213T389 -228Q426 -228 451 -204T477 -130Z" />
<glyph unicode="&#xc8;" horiz-adv-x="571" d="M536 0V154H509V27H140V339H483V366H140V673H495V546H522V700H35V673H112V27H35V0H536ZM308 750Q285 783 263 816T218 883H188Q213 850 236 817T284 750H308Z" />
<glyph unicode="&#xc9;" horiz-adv-x="571" d="M536 0V154H509V27H140V339H483V366H140V673H495V546H522V700H35V673H112V27H35V0H536ZM299 750Q323 783 346 816T394 883H364Q341 850 319 817T274 750H299Z" />
<glyph unicode="&#xca;" horiz-adv-x="571" d="M536 0V154H509V27H140V339H483V366H140V673H495V546H522V700H35V673H112V27H35V0H536ZM205 750Q229 784 252 818T300 887Q324 853 347 819T395 750H420Q390 795 360 840T300 931Q270 886 240 841T180 750H205Z" />
<glyph unicode="&#xcb;" horiz-adv-x="571" d="M536 0V154H509V27H140V339H483V366H140V673H495V546H522V700H35V673H112V27H35V0H536ZM404 794Q404 805 396 813T378 821Q368 821 360 813T352 794Q352 783 360 776T378 768Q388 768 396 775T404 794ZM239 794Q239
805 231 813T213 821Q202 821 194 813T186 794Q186 783 194 776T213 768Q223 768 231 775T239 794Z" />
<glyph unicode="&#xcc;" horiz-adv-x="258" d="M223 0V27H140V673H223V700H35V673H112V27H35V0H223ZM131 750Q108 783 86 816T41 883H11Q36 850 59 817T107 750H131Z" />
<glyph unicode="&#xcd;" horiz-adv-x="258" d="M223 0V27H140V673H223V700H35V673H112V27H35V0H223ZM147 750Q171 783 194 816T242 883H212Q189 850 167 817T122 750H147Z" />
<glyph unicode="&#xce;" horiz-adv-x="258" d="M223 0V27H140V673H223V700H35V673H112V27H35V0H223ZM34 750Q58 784 81 818T129 887Q153 853 176 819T224 750H249Q219 795 189 840T129 931Q99 886 69 841T9 750H34Z" />
<glyph unicode="&#xcf;" horiz-adv-x="258" d="M223 0V27H140V673H223V700H35V673H112V27H35V0H223ZM238 794Q238 805 230 813T212 821Q202 821 194 813T186 794Q186 783 194 776T212 768Q222 768 230 775T238 794ZM73 794Q73 805 65 813T47 821Q36 821 28 813T20
794Q20 783 28 776T47 768Q57 768 65 775T73 794Z" />
<glyph unicode="&#xd0;" horiz-adv-x="632" d="M211 0Q317 0 390 32T510 116Q556 167 576 229T597 350Q597 430 569 495T493 606Q445 651 381 675T245 700H35V673H103V366H44V338H103V27H35V0H211ZM131 338H346V366H131V673H248Q313 673 371 651T475 586Q519 544
544 484T570 350Q570 292 550 235T488 131Q445 85 380 57T223 28H131V338Z" />
<glyph unicode="&#xd1;" horiz-adv-x="805" d="M725 673H808V700H620V673H697V64L700 32L681 58L141 700H35V673H114V27H35V0H223V27H142V632L140 659L158 638L725 -32V673ZM526 767Q537 775 545 789T555 821L535 823Q533 807 526 797T509 781Q500 775 490 773T472
770Q458 770 446 776T418 799Q402 816 385 826T348 836Q333 836 319 832T293 819Q281 811 273 797T264 765L283 763Q285 778 291 788T307 804Q317 811 327 813T347 816Q361 816 372 810T400 787Q416 770 433 760T471 750Q485 750 499 754T526 767Z" />
<glyph unicode="&#xd2;" horiz-adv-x="786" d="M646 97Q694 145 722 210T751 349Q751 423 723 488T646 603Q597 651 532 679T392 708Q318 708 253 680T140 603Q91 554 63 489T35 349Q35 275 63 210T140 97Q188 48 253 20T392 -8Q466 -8 531 20T646 97ZM159 116Q115
161 89 220T63 348Q63 417 89 477T160 583Q204 628 264 654T392 681Q460 681 520 655T625 583Q670 537 696 477T723 349Q723 281 697 221T625 116Q579 71 519 45T390 19Q322 19 263 45T159 116ZM398 750Q375 783 353 816T308 883H278Q303 850 326 817T374 750H398Z"
/>
<glyph unicode="&#xd3;" horiz-adv-x="786" d="M646 97Q694 145 722 210T751 349Q751 423 723 488T646 603Q597 651 532 679T392 708Q318 708 253 680T140 603Q91 554 63 489T35 349Q35 275 63 210T140 97Q188 48 253 20T392 -8Q466 -8 531 20T646 97ZM159 116Q115
161 89 220T63 348Q63 417 89 477T160 583Q204 628 264 654T392 681Q460 681 520 655T625 583Q670 537 696 477T723 349Q723 281 697 221T625 116Q579 71 519 45T390 19Q322 19 263 45T159 116ZM426 750Q450 783 473 816T521 883H491Q468 850 446 817T401 750H426Z"
/>
<glyph unicode="&#xd4;" horiz-adv-x="786" d="M646 97Q694 145 722 210T751 349Q751 423 723 488T646 603Q597 651 532 679T392 708Q318 708 253 680T140 603Q91 554 63 489T35 349Q35 275 63 210T140 97Q188 48 253 20T392 -8Q466 -8 531 20T646 97ZM159 116Q115
161 89 220T63 348Q63 417 89 477T160 583Q204 628 264 654T392 681Q460 681 520 655T625 583Q670 537 696 477T723 349Q723 281 697 221T625 116Q579 71 519 45T390 19Q322 19 263 45T159 116ZM302 750Q326 784 349 818T397 887Q421 853 444 819T492 750H517Q487
795 457 840T397 931Q367 886 337 841T277 750H302Z" />
<glyph unicode="&#xd5;" horiz-adv-x="786" d="M646 97Q694 145 722 210T751 349Q751 423 723 488T646 603Q597 651 532 679T392 708Q318 708 253 680T140 603Q91 554 63 489T35 349Q35 275 63 210T140 97Q188 48 253 20T392 -8Q466 -8 531 20T646 97ZM159 116Q115
161 89 220T63 348Q63 417 89 477T160 583Q204 628 264 654T392 681Q460 681 520 655T625 583Q670 537 696 477T723 349Q723 281 697 221T625 116Q579 71 519 45T390 19Q322 19 263 45T159 116ZM515 774Q526 782 534 796T544 828L524 830Q522 814 515 804T498 788Q489
782 479 780T461 777Q447 777 435 783T407 806Q391 823 374 833T337 843Q322 843 308 839T282 826Q270 818 262 804T253 772L272 770Q274 785 280 795T296 811Q306 818 316 820T336 823Q350 823 361 817T389 794Q405 777 422 767T460 757Q474 757 488 761T515 774Z"
/>
<glyph unicode="&#xd6;" horiz-adv-x="786" d="M646 97Q694 145 722 210T751 349Q751 423 723 488T646 603Q597 651 532 679T392 708Q318 708 253 680T140 603Q91 554 63 489T35 349Q35 275 63 210T140 97Q188 48 253 20T392 -8Q466 -8 531 20T646 97ZM159 116Q115
161 89 220T63 348Q63 417 89 477T160 583Q204 628 264 654T392 681Q460 681 520 655T625 583Q670 537 696 477T723 349Q723 281 697 221T625 116Q579 71 519 45T390 19Q322 19 263 45T159 116ZM506 794Q506 805 498 813T480 821Q470 821 462 813T454 794Q454 783
462 776T480 768Q490 768 498 775T506 794ZM341 794Q341 805 333 813T315 821Q304 821 296 813T288 794Q288 783 296 776T315 768Q325 768 333 775T341 794Z" />
<glyph unicode="&#xd7;" horiz-adv-x="500" d="M263 118L381 0L401 20L283 138L400 255L381 275L263 158L146 274L127 254L243 138L126 20L146 0L263 118Z" />
<glyph unicode="&#xd8;" horiz-adv-x="786" d="M63 348Q63 416 89 476T160 583Q204 628 264 654T392 681Q448 681 497 663T589 614Q482 487 377 362T165 109Q118 154 91 215T63 348ZM184 93Q320 254 396 345T608 598Q661 552 692 488T723 349Q723 281 697 221T625
116Q579 71 519 45T390 19Q331 19 279 38T184 93ZM167 72Q213 34 270 13T392 -8Q466 -8 531 20T646 97Q694 145 722 210T751 349Q751 430 718 500T627 620Q643 639 658 657T689 694Q685 698 680 702T670 710Q654 691 639 673T608 635Q562 669 508 688T392 708Q318
708 253 680T140 603Q91 554 63 489T35 349Q35 271 65 204T148 89Q131 68 114 48T79 7Q84 3 89 -1T98 -10Q116 10 133 31T167 72Z" />
<glyph unicode="&#xd9;" horiz-adv-x="685" d="M507 52Q537 81 555 125T573 226V673H650V700H462V673H545V229Q545 178 530 139T488 74Q461 47 424 33T343 19Q298 19 261 33T197 74Q170 100 155 139T140 229V673H223V700H35V673H112V226Q112 169 129 125T178 52Q208
22 250 7T342 -8Q392 -8 434 7T507 52ZM352 750Q329 783 307 816T262 883H232Q257 850 280 817T328 750H352Z" />
<glyph unicode="&#xda;" horiz-adv-x="685" d="M507 52Q537 81 555 125T573 226V673H650V700H462V673H545V229Q545 178 530 139T488 74Q461 47 424 33T343 19Q298 19 261 33T197 74Q170 100 155 139T140 229V673H223V700H35V673H112V226Q112 169 129 125T178 52Q208
22 250 7T342 -8Q392 -8 434 7T507 52ZM364 750Q388 783 411 816T459 883H429Q406 850 384 817T339 750H364Z" />
<glyph unicode="&#xdb;" horiz-adv-x="685" d="M507 52Q537 81 555 125T573 226V673H650V700H462V673H545V229Q545 178 530 139T488 74Q461 47 424 33T343 19Q298 19 261 33T197 74Q170 100 155 139T140 229V673H223V700H35V673H112V226Q112 169 129 125T178 52Q208
22 250 7T342 -8Q392 -8 434 7T507 52ZM250 750Q274 784 297 818T345 887Q369 853 392 819T440 750H465Q435 795 405 840T345 931Q315 886 285 841T225 750H250Z" />
<glyph unicode="&#xdc;" horiz-adv-x="685" d="M507 52Q537 81 555 125T573 226V673H650V700H462V673H545V229Q545 178 530 139T488 74Q461 47 424 33T343 19Q298 19 261 33T197 74Q170 100 155 139T140 229V673H223V700H35V673H112V226Q112 169 129 125T178 52Q208
22 250 7T342 -8Q392 -8 434 7T507 52ZM450 795Q450 806 442 814T424 822Q414 822 406 814T398 795Q398 784 406 777T424 769Q434 769 442 776T450 795ZM285 795Q285 806 277 814T259 822Q248 822 240 814T232 795Q232 784 240 777T259 769Q269 769 277 776T285
795Z" />
<glyph unicode="&#xdd;" horiz-adv-x="732" d="M462 0V27H382V263Q443 366 504 468T626 673H697V700H510V673H592L378 314L367 287H366L354 314Q301 405 247 493T139 673H223V700H35V673H105Q166 570 227 468T350 264V27H274V0H462ZM397 750Q421 783 444 816T492
883H462Q439 850 417 817T372 750H397Z" />
<glyph unicode="&#xde;" horiz-adv-x="494" d="M223 0V27H134V170H245Q348 170 403 220T459 355Q459 403 438 437T385 493Q354 515 318 525T251 535H134V673H219V700H35V673H106V27H35V0H223ZM134 508H244Q284 508 318 496T377 462Q402 441 416 413T431 354Q431
329 422 302T392 251Q371 228 335 213T243 198H134V508Z" />
<glyph unicode="&#xdf;" horiz-adv-x="545" d="M449 52Q477 80 493 117T510 198Q510 233 499 264T466 322Q447 346 421 363T365 389Q402 404 424 436T447 511Q447 540 436 567T405 614Q386 634 360 645T303 658Q265 656 231 641T170 596Q144 566 129 523T113 425V390H49V363H113V27H35V0H141V428Q141
474 154 511T190 576Q212 602 241 616T303 630Q328 630 349 621T386 594Q401 577 410 555T419 508Q419 460 385 431T303 401V373Q340 373 372 359T429 321Q454 297 468 266T482 198Q482 162 468 130T429 72Q404 48 372 34T301 19Q277 19 255 25T212 43L201 19Q223
6 249 -1T303 -8Q345 -8 383 8T449 52Z" />
<glyph unicode="&#xe0;" horiz-adv-x="535" d="M500 0V27H426V375H404Q403 349 402 324T400 274Q381 320 336 351T230 383Q189 383 154 368T92 326Q65 300 50 264T35 188Q35 147 50 112T92 51Q118 24 153 9T230 -7Q261 -7 288 1T338 26Q360 40 376 59T401 101Q401
87 401 74T400 47V0H500ZM230 356Q265 356 295 343T349 307Q372 284 385 254T398 188Q398 152 385 122T349 69Q326 47 296 34T230 21Q196 21 166 33T114 68Q90 90 77 121T63 188Q63 222 76 252T111 306Q134 329 164 342T230 356ZM255 479Q232 512 210 545T165 612H135Q160
579 183 546T231 479H255Z" />
<glyph unicode="&#xe1;" horiz-adv-x="535" d="M500 0V27H426V375H404Q403 349 402 324T400 274Q381 320 336 351T230 383Q189 383 154 368T92 326Q65 300 50 264T35 188Q35 147 50 112T92 51Q118 24 153 9T230 -7Q261 -7 288 1T338 26Q360 40 376 59T401 101Q401
87 401 74T400 47V0H500ZM230 356Q265 356 295 343T349 307Q372 284 385 254T398 188Q398 152 385 122T349 69Q326 47 296 34T230 21Q196 21 166 33T114 68Q90 90 77 121T63 188Q63 222 76 252T111 306Q134 329 164 342T230 356ZM257 479Q281 512 304 545T352 612H322Q299
579 277 546T232 479H257Z" />
<glyph unicode="&#xe2;" horiz-adv-x="535" d="M500 0V27H426V375H404Q403 349 402 324T400 274Q381 320 336 351T230 383Q189 383 154 368T92 326Q65 300 50 264T35 188Q35 147 50 112T92 51Q118 24 153 9T230 -7Q261 -7 288 1T338 26Q360 40 376 59T401 101Q401
87 401 74T400 47V0H500ZM230 356Q265 356 295 343T349 307Q372 284 385 254T398 188Q398 152 385 122T349 69Q326 47 296 34T230 21Q196 21 166 33T114 68Q90 90 77 121T63 188Q63 222 76 252T111 306Q134 329 164 342T230 356ZM166 479Q190 513 213 547T261 616Q285
582 308 548T356 479H381Q351 524 321 569T261 660Q231 615 201 570T141 479H166Z" />
<glyph unicode="&#xe3;" horiz-adv-x="535" d="M500 0V27H426V375H404Q403 349 402 324T400 274Q381 320 336 351T230 383Q189 383 154 368T92 326Q65 300 50 264T35 188Q35 147 50 112T92 51Q118 24 153 9T230 -7Q261 -7 288 1T338 26Q360 40 376 59T401 101Q401
87 401 74T400 47V0H500ZM230 356Q265 356 295 343T349 307Q372 284 385 254T398 188Q398 152 385 122T349 69Q326 47 296 34T230 21Q196 21 166 33T114 68Q90 90 77 121T63 188Q63 222 76 252T111 306Q134 329 164 342T230 356ZM608 474Q619 482 627 496T637 528L617
530Q615 514 608 504T591 488Q582 482 572 480T554 477Q540 477 528 483T500 506Q484 523 467 533T430 543Q415 543 401 539T375 526Q363 518 355 504T346 472L365 470Q367 485 373 495T389 511Q399 518 409 520T429 523Q443 523 454 517T482 494Q498 477 515 467T553
457Q567 457 581 461T608 474Z" />
<glyph unicode="&#xe4;" horiz-adv-x="535" d="M500 0V27H426V375H404Q403 349 402 324T400 274Q381 320 336 351T230 383Q189 383 154 368T92 326Q65 300 50 264T35 188Q35 147 50 112T92 51Q118 24 153 9T230 -7Q261 -7 288 1T338 26Q360 40 376 59T401 101Q401
87 401 74T400 47V0H500ZM230 356Q265 356 295 343T349 307Q372 284 385 254T398 188Q398 152 385 122T349 69Q326 47 296 34T230 21Q196 21 166 33T114 68Q90 90 77 121T63 188Q63 222 76 252T111 306Q134 329 164 342T230 356ZM350 504Q350 515 342 523T324 531Q314
531 306 523T298 504Q298 493 306 486T324 478Q334 478 342 485T350 504ZM185 504Q185 515 177 523T159 531Q148 531 140 523T132 504Q132 493 140 486T159 478Q169 478 177 485T185 504Z" />
<glyph unicode="&#xe5;" horiz-adv-x="535" d="M500 0V27H426V375H404Q403 349 402 324T400 274Q381 320 336 351T230 383Q189 383 154 368T92 326Q65 300 50 264T35 188Q35 147 50 112T92 51Q118 24 153 9T230 -7Q261 -7 288 1T338 26Q360 40 376 59T401 101Q401
87 401 74T400 47V0H500ZM230 356Q265 356 295 343T349 307Q372 284 385 254T398 188Q398 152 385 122T349 69Q326 47 296 34T230 21Q196 21 166 33T114 68Q90 90 77 121T63 188Q63 222 76 252T111 306Q134 329 164 342T230 356ZM199 540Q199 558 212 572T245 586Q265
586 278 572T291 540Q291 521 278 508T245 494Q224 494 212 508T199 540ZM313 540Q313 556 307 568T291 591Q282 599 270 603T245 608Q229 608 217 602T194 586Q186 577 182 565T177 540Q177 524 183 512T199 489Q208 481 220 477T245 472Q258 472 270 476T291
489Q301 499 307 511T313 540Z" />
<glyph unicode="&#xe6;" horiz-adv-x="587" d="M347 241Q347 278 341 302T318 341Q333 348 349 351T381 354Q425 354 461 329T516 264Q474 247 432 230T347 197V241ZM63 99Q63 128 83 142T133 163Q160 169 188 169T233 168H319V106Q319 79 308 62T279 35Q261 25
239 22T194 18Q173 18 151 21T109 32Q89 41 76 57T63 99ZM294 11Q313 1 335 -3T381 -8Q420 -8 453 6T513 44L496 65Q473 43 444 31T381 19Q364 19 347 22T314 33Q332 49 339 72T347 128V167Q399 187 449 208T552 249Q543 277 527 300T490 342Q468 360 440 370T381
381Q359 381 338 377T299 363Q282 372 255 376T192 381Q176 381 157 378T121 369Q103 364 88 357T64 341Q68 335 73 330T83 320Q91 326 103 332T131 343Q146 348 161 351T191 354Q233 354 258 347T297 326Q310 313 314 292T319 243V197H185Q156 197 129 192T82
175Q61 164 48 146T35 99Q35 67 46 46T78 13Q99 0 128 -5T193 -10Q225 -10 250 -5T294 11Z" />
<glyph unicode="&#xe7;" horiz-adv-x="389" d="M321 -130Q321 -114 312 -95T279 -61Q267 -53 253 -41T238 -7Q269 -7 301 6T354 36L336 57Q314 40 287 31T230 21Q195 21 166 33T113 69Q90 91 77 121T63 188Q63 223 76 253T112 307Q135 330 165 343T230 356Q258
356 282 348T328 324V247H354V340Q329 360 298 371T230 383Q189 383 154 368T92 326Q65 300 50 264T35 188Q35 149 49 115T88 55Q112 28 145 13T217 -5V-16Q217 -36 229 -48T257 -70Q272 -81 284 -95T297 -136Q297 -166 279 -185T231 -205Q208 -205 191 -193T168
-159L147 -167Q157 -199 180 -213T232 -228Q269 -228 295 -204T321 -130Z" />
<glyph unicode="&#xe8;" horiz-adv-x="438" d="M230 356Q274 356 310 331T365 266Q291 236 217 207T69 147Q58 186 66 223T97 289Q120 319 154 337T230 356ZM362 46L344 67Q322 45 293 33T230 21Q178 21 137 48T77 121Q159 154 239 186T401 251Q391 280 375 303T338
344Q316 363 288 373T230 383Q189 383 154 368T92 326Q65 300 50 264T35 188Q35 147 50 112T92 50Q118 24 153 9T230 -7Q269 -7 302 7T362 46ZM236 479Q213 512 191 545T146 612H116Q141 579 164 546T212 479H236Z" />
<glyph unicode="&#xe9;" horiz-adv-x="438" d="M230 356Q274 356 310 331T365 266Q291 236 217 207T69 147Q58 186 66 223T97 289Q120 319 154 337T230 356ZM362 46L344 67Q322 45 293 33T230 21Q178 21 137 48T77 121Q159 154 239 186T401 251Q391 280 375 303T338
344Q316 363 288 373T230 383Q189 383 154 368T92 326Q65 300 50 264T35 188Q35 147 50 112T92 50Q118 24 153 9T230 -7Q269 -7 302 7T362 46ZM255 479Q279 512 302 545T350 612H320Q297 579 275 546T230 479H255Z" />
<glyph unicode="&#xea;" horiz-adv-x="438" d="M230 356Q274 356 310 331T365 266Q291 236 217 207T69 147Q58 186 66 223T97 289Q120 319 154 337T230 356ZM362 46L344 67Q322 45 293 33T230 21Q178 21 137 48T77 121Q159 154 239 186T401 251Q391 280 375 303T338
344Q316 363 288 373T230 383Q189 383 154 368T92 326Q65 300 50 264T35 188Q35 147 50 112T92 50Q118 24 153 9T230 -7Q269 -7 302 7T362 46ZM391 479Q415 513 438 547T486 616Q510 582 533 548T581 479H606Q576 524 546 569T486 660Q456 615 426 570T366 479H391Z"
/>
<glyph unicode="&#xeb;" horiz-adv-x="438" d="M230 356Q274 356 310 331T365 266Q291 236 217 207T69 147Q58 186 66 223T97 289Q120 319 154 337T230 356ZM362 46L344 67Q322 45 293 33T230 21Q178 21 137 48T77 121Q159 154 239 186T401 251Q391 280 375 303T338
344Q316 363 288 373T230 383Q189 383 154 368T92 326Q65 300 50 264T35 188Q35 147 50 112T92 50Q118 24 153 9T230 -7Q269 -7 302 7T362 46ZM342 504Q342 515 334 523T316 531Q306 531 298 523T290 504Q290 493 298 486T316 478Q326 478 334 485T342 504ZM177
504Q177 515 169 523T151 531Q140 531 132 523T124 504Q124 493 132 486T151 478Q161 478 169 485T177 504Z" />
<glyph unicode="&#xec;" horiz-adv-x="254" d="M219 0V27H143V375H35V348H115V27H35V0H219ZM139 479Q116 512 94 545T49 612H19Q44 579 67 546T115 479H139Z" />
<glyph unicode="&#xed;" horiz-adv-x="254" d="M219 0V27H143V375H35V348H115V27H35V0H219ZM143 479Q167 512 190 545T238 612H208Q185 579 163 546T118 479H143Z" />
<glyph unicode="&#xee;" horiz-adv-x="254" d="M219 0V27H143V375H35V348H115V27H35V0H219ZM291 479Q315 513 338 547T386 616Q410 582 433 548T481 479H506Q476 524 446 569T386 660Q356 615 326 570T266 479H291Z" />
<glyph unicode="&#xef;" horiz-adv-x="254" d="M219 0V27H143V375H35V348H115V27H35V0H219ZM495 504Q495 515 487 523T469 531Q459 531 451 523T443 504Q443 493 451 486T469 478Q479 478 487 485T495 504ZM330 504Q330 515 322 523T304 531Q293 531 285 523T277
504Q277 493 285 486T304 478Q314 478 322 485T330 504Z" />
<glyph unicode="&#xf0;" horiz-adv-x="461" d="M113 70Q89 92 76 122T63 188Q63 223 75 253T111 307Q134 330 164 343T230 356Q264 356 295 344T349 308Q372 285 385 255T398 189Q398 154 386 124T350 71Q327 48 297 35T231 22Q195 21 165 34T113 70ZM370 52Q396
78 411 113T426 190Q426 243 411 299T368 412Q341 468 306 522T232 622Q249 641 265 659T299 696Q295 700 291 704T281 712Q265 694 249 677T216 641Q192 667 169 688T121 728L104 710Q130 690 153 668T198 621Q180 602 162 583T126 544L144 527L213 601Q249 560
275 520T321 442Q341 405 353 372T372 312Q348 345 311 364T229 384Q188 383 153 368T92 326Q65 300 50 264T35 187Q35 146 50 111T93 50Q120 24 155 9T232 -6Q272 -6 308 9T370 52Z" />
<glyph unicode="&#xf1;" horiz-adv-x="534" d="M219 0V27H141V212Q141 243 154 269T190 315Q212 333 241 344T303 355Q345 353 368 328T394 268V27H315V0H499V27H422V270Q420 320 389 351T303 382Q247 382 203 354T138 277Q138 293 138 304T136 331L135 375H40V348H113V27H35V0H219ZM392
721Q403 729 411 743T421 775L401 777Q399 761 392 751T375 735Q366 729 356 727T338 724Q324 724 312 730T284 753Q268 770 251 780T214 790Q199 790 185 786T159 773Q147 765 139 751T130 719L149 717Q151 732 157 742T173 758Q183 765 193 767T213 770Q227 770
238 764T266 741Q282 724 299 714T337 704Q351 704 365 708T392 721Z" />
<glyph unicode="&#xf2;" horiz-adv-x="463" d="M371 51Q397 77 412 112T428 188Q428 228 413 264T371 327Q344 353 308 368T231 384Q190 384 155 369T93 327Q66 300 51 264T36 188Q36 147 51 112T93 51Q119 24 154 9T231 -7Q271 -7 307 8T371 51ZM113 70Q90 92
77 122T64 188Q64 222 77 252T113 306Q135 330 165 343T231 356Q265 356 295 343T349 306Q372 283 385 253T398 188Q398 153 385 123T349 70Q326 47 296 34T231 21Q195 21 165 34T113 70ZM241 479Q218 512 196 545T151 612H121Q146 579 169 546T217 479H241Z" />
<glyph unicode="&#xf3;" horiz-adv-x="463" d="M371 51Q397 77 412 112T428 188Q428 228 413 264T371 327Q344 353 308 368T231 384Q190 384 155 369T93 327Q66 300 51 264T36 188Q36 147 51 112T93 51Q119 24 154 9T231 -7Q271 -7 307 8T371 51ZM113 70Q90 92
77 122T64 188Q64 222 77 252T113 306Q135 330 165 343T231 356Q265 356 295 343T349 306Q372 283 385 253T398 188Q398 153 385 123T349 70Q326 47 296 34T231 21Q195 21 165 34T113 70ZM256 479Q280 512 303 545T351 612H321Q298 579 276 546T231 479H256Z" />
<glyph unicode="&#xf4;" horiz-adv-x="463" d="M371 51Q397 77 412 112T428 188Q428 228 413 264T371 327Q344 353 308 368T231 384Q190 384 155 369T93 327Q66 300 51 264T36 188Q36 147 51 112T93 51Q119 24 154 9T231 -7Q271 -7 307 8T371 51ZM113 70Q90 92
77 122T64 188Q64 222 77 252T113 306Q135 330 165 343T231 356Q265 356 295 343T349 306Q372 283 385 253T398 188Q398 153 385 123T349 70Q326 47 296 34T231 21Q195 21 165 34T113 70ZM140 479Q164 513 187 547T235 616Q259 582 282 548T330 479H355Q325 524
295 569T235 660Q205 615 175 570T115 479H140Z" />
<glyph unicode="&#xf5;" horiz-adv-x="463" d="M371 51Q397 77 412 112T428 188Q428 228 413 264T371 327Q344 353 308 368T231 384Q190 384 155 369T93 327Q66 300 51 264T36 188Q36 147 51 112T93 51Q119 24 154 9T231 -7Q271 -7 307 8T371 51ZM113 70Q90 92
77 122T64 188Q64 222 77 252T113 306Q135 330 165 343T231 356Q265 356 295 343T349 306Q372 283 385 253T398 188Q398 153 385 123T349 70Q326 47 296 34T231 21Q195 21 165 34T113 70ZM614 474Q625 482 633 496T643 528L623 530Q621 514 614 504T597 488Q588
482 578 480T560 477Q546 477 534 483T506 506Q490 523 473 533T436 543Q421 543 407 539T381 526Q369 518 361 504T352 472L371 470Q373 485 379 495T395 511Q405 518 415 520T435 523Q449 523 460 517T488 494Q504 477 521 467T559 457Q573 457 587 461T614 474Z"
/>
<glyph unicode="&#xf6;" horiz-adv-x="463" d="M371 51Q397 77 412 112T428 188Q428 228 413 264T371 327Q344 353 308 368T231 384Q190 384 155 369T93 327Q66 300 51 264T36 188Q36 147 51 112T93 51Q119 24 154 9T231 -7Q271 -7 307 8T371 51ZM113 70Q90 92
77 122T64 188Q64 222 77 252T113 306Q135 330 165 343T231 356Q265 356 295 343T349 306Q372 283 385 253T398 188Q398 153 385 123T349 70Q326 47 296 34T231 21Q195 21 165 34T113 70ZM343 504Q343 515 335 523T317 531Q307 531 299 523T291 504Q291 493 299
486T317 478Q327 478 335 485T343 504ZM178 504Q178 515 170 523T152 531Q141 531 133 523T125 504Q125 493 133 486T152 478Q162 478 170 485T178 504Z" />
<glyph unicode="&#xf7;" horiz-adv-x="501" d="M428 209V237H68V209H428ZM277 347Q277 359 269 366T251 374Q241 374 233 367T225 347Q225 336 233 329T251 321Q261 321 269 328T277 347ZM277 97Q277 109 269 116T251 124Q241 124 233 117T225 97Q225 86 233 79T251
71Q261 71 269 78T277 97Z" />
<glyph unicode="&#xf8;" horiz-adv-x="461" d="M63 188Q63 223 76 253T112 307Q134 330 164 343T230 356Q256 356 279 348T323 327Q270 263 217 199T109 72Q88 94 76 124T63 188ZM126 57Q182 124 233 185T341 313Q367 290 382 258T398 188Q398 152 385 121T347
68Q324 46 294 34T230 21Q201 21 175 30T126 57ZM108 36Q133 16 164 5T230 -7Q271 -7 307 8T369 51Q395 77 410 112T426 188Q426 232 408 270T359 335Q367 344 375 353T391 372Q387 376 383 379T374 387Q366 377 358 368T342 348Q319 365 290 374T230 383Q189 383
154 368T92 326Q65 300 50 264T35 188Q35 147 50 112T91 50Q81 38 72 27T52 2Q55 -1 59 -4T68 -12Q78 0 87 12T108 36Z" />
<glyph unicode="&#xf9;" horiz-adv-x="529" d="M395 98L396 53L398 0H494V25H420V375H315V348H392V163Q392 132 379 106T343 61Q321 42 292 31T230 20Q188 22 165 47T139 107V375H35V348H111V105Q113 55 144 24T230 -7Q286 -7 330 21T395 98ZM266 479Q243 512
221 545T176 612H146Q171 579 194 546T242 479H266Z" />
<glyph unicode="&#xfa;" horiz-adv-x="529" d="M395 98L396 53L398 0H494V25H420V375H315V348H392V163Q392 132 379 106T343 61Q321 42 292 31T230 20Q188 22 165 47T139 107V375H35V348H111V105Q113 55 144 24T230 -7Q286 -7 330 21T395 98ZM256 479Q280 512
303 545T351 612H321Q298 579 276 546T231 479H256Z" />
<glyph unicode="&#xfb;" horiz-adv-x="529" d="M395 98L396 53L398 0H494V25H420V375H315V348H392V163Q392 132 379 106T343 61Q321 42 292 31T230 20Q188 22 165 47T139 107V375H35V348H111V105Q113 55 144 24T230 -7Q286 -7 330 21T395 98ZM171 479Q195 513
218 547T266 616Q290 582 313 548T361 479H386Q356 524 326 569T266 660Q236 615 206 570T146 479H171Z" />
<glyph unicode="&#xfc;" horiz-adv-x="529" d="M395 98L396 53L398 0H494V25H420V375H315V348H392V163Q392 132 379 106T343 61Q321 42 292 31T230 20Q188 22 165 47T139 107V375H35V348H111V105Q113 55 144 24T230 -7Q286 -7 330 21T395 98ZM369 504Q369 515
361 523T343 531Q333 531 325 523T317 504Q317 493 325 486T343 478Q353 478 361 485T369 504ZM204 504Q204 515 196 523T178 531Q167 531 159 523T151 504Q151 493 159 486T178 478Q188 478 196 485T204 504Z" />
<glyph unicode="&#xfd;" horiz-adv-x="595" d="M276 -250V-223H207Q279 -79 349 62T491 348H560V375H403V348H460Q419 267 379 186T300 26Q262 107 222 187T141 348H208V375H35V348H109Q153 259 196 172T285 -3Q257 -57 230 -112T175 -223H92V-250H276ZM323 479Q347
512 370 545T418 612H388Q365 579 343 546T298 479H323Z" />
<glyph unicode="&#xfe;" horiz-adv-x="500" d="M204 -250V-223H122V46Q122 61 122 73T120 98Q129 76 145 57T183 23Q205 8 232 0T289 -8Q329 -8 365 7T428 49Q454 75 469 110T484 187Q484 227 469 262T428 325Q401 351 365 366T289 381Q230 381 185 351T120 273Q120
287 120 302T121 332V723H200V750H16V723H93V-223H16V-250H204ZM289 354Q323 354 353 342T406 308Q429 285 442 254T456 187Q456 151 443 121T407 67Q384 45 354 32T289 19Q254 19 224 32T171 67Q148 90 135 120T121 187Q121 222 134 252T169 305Q192 328 222 341T289
354Z" />
<glyph unicode="&#xff;" horiz-adv-x="595" d="M276 -250V-223H207Q279 -79 349 62T491 348H560V375H403V348H460Q419 267 379 186T300 26Q262 107 222 187T141 348H208V375H35V348H109Q153 259 196 172T285 -3Q257 -57 230 -112T175 -223H92V-250H276ZM411 504Q411
515 403 523T385 531Q375 531 367 523T359 504Q359 493 367 486T385 478Q395 478 403 485T411 504ZM246 504Q246 515 238 523T220 531Q209 531 201 523T193 504Q193 493 201 486T220 478Q230 478 238 485T246 504Z" />
<glyph unicode="&#x2013;" horiz-adv-x="509" d="M401 178V206H100V178H401Z" />
<glyph unicode="&#x2014;" horiz-adv-x="700" d="M601 178V206H99V178H601Z" />
<glyph unicode="&#x2018;" horiz-adv-x="164" d="M97 590Q76 610 67 639T64 704Q57 706 51 707T38 711Q30 671 42 634T84 571L97 590Z" />
<glyph unicode="&#x2019;" horiz-adv-x="164" d="M113 711Q106 709 100 708T87 704Q94 669 85 640T54 590L67 571Q96 597 108 634T113 711Z" />
<glyph unicode="&#x201a;" horiz-adv-x="146" d="M78 92Q72 90 66 89T53 85Q60 50 51 21T20 -29L33 -48Q62 -22 74 15T78 92Z" />
<glyph unicode="&#x201c;" horiz-adv-x="249" d="M194 590Q173 610 164 639T161 704Q154 706 148 707T135 711Q127 671 139 634T181 571L194 590ZM90 590Q69 610 60 639T57 704Q50 706 44 707T31 711Q23 671 35 634T77 571L90 590Z" />
<glyph unicode="&#x201d;" horiz-adv-x="248" d="M96 711Q89 709 83 708T70 704Q77 669 68 640T37 590L50 571Q79 597 91 634T96 711ZM200 711Q193 709 187 708T174 704Q181 669 172 640T141 590L154 571Q183 597 195 634T200 711Z" />
<glyph unicode="&#x201e;" horiz-adv-x="256" d="M78 92Q72 90 66 89T53 85Q60 50 51 21T20 -29L33 -48Q62 -22 74 15T78 92ZM182 92Q176 90 170 89T157 85Q164 50 155 21T124 -29L137 -48Q166 -22 178 15T182 92Z" />
<glyph unicode="&#x2022;" horiz-adv-x="479" d="M239 223Q255 223 269 228T293 243Q305 254 311 268T318 300Q318 317 312 332T294 358Q283 367 269 373T239 379Q223 379 208 373T183 355Q173 344 168 330T162 300Q162 283 168 268T187 243Q197 233 210 228T239 223Z" />
<glyph unicode="&#x2039;" horiz-adv-x="392" d="M117 239L288 77V109Q257 142 225 174T162 239Q193 271 225 303T288 367V400Q245 359 203 320T117 239Z" />
<glyph unicode="&#x203a;" horiz-adv-x="392" d="M288 239L117 77V109Q148 142 180 174T243 239Q212 271 180 303T117 367V400Q160 359 202 320T288 239Z" />
</font>
</defs>
</svg>
