<?xml version="1.0" encoding="utf-8"?>
<!-- Generator: Adobe Illustrator 26.5.0, SVG Export Plug-In . SVG Version: 6.00 Build 0)  -->
<svg version="1.1" id="Layer_1" xmlns="http://www.w3.org/2000/svg" xmlns:xlink="http://www.w3.org/1999/xlink" x="0px" y="0px"
	 viewBox="0 0 1080 1080" style="enable-background:new 0 0 1080 1080;" xml:space="preserve">
<style type="text/css">
	.st0{fill:#DD9619;}
</style>
<g id="Gold_Burst_-_EXTENDS_BEYOND_BOUNDING_BOX">
	<polygon class="st0" points="603.15,540.83 1451.03,540 603.15,539.17 1450.72,516.15 603.11,537.52 1449.79,492.32 603.02,535.87 
		1448.23,468.52 602.89,534.22 1446.04,444.77 602.71,532.58 1443.24,421.09 602.5,530.94 1439.82,397.48 602.24,529.3 
		1435.78,373.98 601.94,527.68 1431.13,350.59 601.59,526.06 1425.86,327.32 601.21,524.45 1419.99,304.21 600.78,522.86 
		1413.52,281.25 600.32,521.27 1406.45,258.47 599.8,519.7 1398.78,235.89 599.25,518.14 1390.52,213.51 598.66,516.6 
		1381.69,191.36 598.03,515.07 1372.27,169.45 597.35,513.56 1362.29,147.79 596.64,512.07 1351.74,126.4 595.89,510.6 
		1340.63,105.29 595.1,509.14 1328.98,84.48 594.27,507.71 1316.78,63.99 593.41,506.3 1304.06,43.82 592.51,504.92 1290.81,23.98 
		591.58,503.55 1277.04,4.51 590.6,502.21 1262.77,-14.6 589.6,500.9 1248.01,-33.33 588.55,499.62 1232.76,-51.67 587.48,498.36 
		1217.03,-69.6 586.37,497.13 1200.84,-87.12 585.24,495.93 1184.2,-104.2 584.07,494.77 1167.11,-120.84 582.87,493.62 
		1149.6,-137.03 581.64,492.52 1131.67,-152.76 580.38,491.44 1113.33,-168.01 579.1,490.4 1094.6,-182.77 577.79,489.4 
		1075.49,-197.04 576.45,488.43 1056.01,-210.81 575.09,487.49 1036.18,-224.06 573.7,486.59 1016.01,-236.78 572.29,485.72 
		995.52,-248.98 570.86,484.9 974.71,-260.63 569.41,484.11 953.6,-271.74 567.93,483.36 932.21,-282.29 566.44,482.65 
		910.55,-292.27 564.93,481.98 888.64,-301.69 563.4,481.34 866.49,-310.52 561.86,480.75 844.11,-318.78 560.3,480.2 
		821.53,-326.45 558.73,479.69 798.75,-333.52 557.14,479.22 775.79,-339.99 555.54,478.79 752.68,-345.86 553.94,478.4 
		729.41,-351.13 552.32,478.06 706.02,-355.78 550.7,477.76 682.52,-359.82 549.06,477.5 658.91,-363.24 547.42,477.28 
		635.23,-366.04 545.78,477.11 611.48,-368.23 544.13,476.98 587.68,-369.79 542.48,476.9 563.85,-370.72 540.83,476.85 
		540,-371.03 539.17,476.85 516.15,-370.72 537.52,476.89 492.32,-369.79 535.87,476.98 468.52,-368.23 534.22,477.11 
		444.77,-366.04 532.58,477.29 421.09,-363.24 530.94,477.5 397.48,-359.82 529.31,477.76 373.98,-355.78 527.68,478.06 
		350.59,-351.13 526.06,478.4 327.32,-345.86 524.45,478.79 304.21,-339.99 522.86,479.22 281.25,-333.52 521.27,479.68 
		258.47,-326.45 519.7,480.2 235.89,-318.78 518.14,480.75 213.51,-310.52 516.6,481.34 191.36,-301.69 515.07,481.97 
		169.45,-292.27 513.56,482.65 147.79,-282.29 512.07,483.36 126.4,-271.74 510.59,484.11 105.29,-260.63 509.14,484.9 
		84.48,-248.98 507.71,485.73 63.99,-236.78 506.3,486.59 43.82,-224.06 504.91,487.49 23.98,-210.81 503.55,488.42 4.51,-197.04 
		502.22,489.4 -14.6,-182.77 500.9,490.4 -33.33,-168.01 499.62,491.45 -51.67,-152.76 498.36,492.52 -69.6,-137.03 497.13,493.62 
		-87.12,-120.84 495.93,494.76 -104.2,-104.2 494.76,495.93 -120.84,-87.11 493.62,497.13 -137.03,-69.6 492.52,498.36 
		-152.76,-51.67 491.44,499.62 -168.01,-33.33 490.41,500.9 -182.77,-14.6 489.4,502.21 -197.04,4.51 488.43,503.55 -210.81,23.99 
		487.49,504.91 -224.06,43.82 486.59,506.3 -236.78,63.99 485.72,507.71 -248.98,84.48 484.9,509.14 -260.63,105.29 484.11,510.59 
		-271.74,126.4 483.36,512.07 -282.29,147.79 482.65,513.56 -292.27,169.45 481.98,515.07 -301.69,191.36 481.34,516.6 
		-310.52,213.51 480.75,518.14 -318.78,235.89 480.2,519.7 -326.45,258.47 479.69,521.27 -333.52,281.25 479.22,522.86 
		-339.99,304.21 478.79,524.45 -345.86,327.32 478.4,526.06 -351.13,350.59 478.06,527.68 -355.78,373.98 477.76,529.3 
		-359.82,397.48 477.5,530.94 -363.24,421.09 477.28,532.58 -366.04,444.77 477.11,534.22 -368.23,468.52 476.98,535.87 
		-369.79,492.32 476.9,537.52 -370.72,516.15 476.85,539.17 -371.03,540 476.85,540.83 -370.72,563.85 476.89,542.48 
		-369.79,587.68 476.98,544.13 -368.23,611.48 477.11,545.78 -366.04,635.23 477.29,547.42 -363.24,658.91 477.5,549.06 
		-359.82,682.52 477.76,550.69 -355.78,706.02 478.06,552.32 -351.13,729.41 478.41,553.94 -345.86,752.68 478.79,555.55 
		-339.99,775.79 479.22,557.14 -333.52,798.75 479.68,558.73 -326.45,821.53 480.2,560.3 -318.78,844.11 480.75,561.86 
		-310.52,866.49 481.34,563.4 -301.69,888.64 481.97,564.93 -292.27,910.55 482.65,566.44 -282.29,932.21 483.36,567.93 
		-271.74,953.6 484.11,569.41 -260.63,974.71 484.9,570.86 -248.98,995.52 485.73,572.29 -236.78,1016.01 486.59,573.7 
		-224.06,1036.18 487.49,575.09 -210.81,1056.02 488.42,576.45 -197.04,1075.49 489.4,577.78 -182.77,1094.6 490.4,579.1 
		-168.01,1113.33 491.45,580.38 -152.76,1131.67 492.52,581.64 -137.03,1149.6 493.63,582.87 -120.84,1167.12 494.76,584.07 
		-104.2,1184.2 495.93,585.24 -87.11,1200.84 497.13,586.38 -69.6,1217.03 498.36,587.48 -51.67,1232.76 499.62,588.56 
		-33.33,1248.01 500.9,589.59 -14.6,1262.77 502.21,590.6 4.51,1277.04 503.55,591.57 23.99,1290.81 504.91,592.51 43.82,1304.06 
		506.3,593.41 63.99,1316.79 507.71,594.28 84.48,1328.98 509.14,595.1 105.29,1340.63 510.59,595.89 126.4,1351.74 512.07,596.64 
		147.79,1362.29 513.56,597.35 169.45,1372.27 515.07,598.02 191.36,1381.69 516.6,598.66 213.51,1390.52 518.14,599.25 
		235.89,1398.78 519.7,599.8 258.47,1406.45 521.27,600.31 281.25,1413.52 522.86,600.78 304.21,1419.99 524.46,601.21 
		327.32,1425.86 526.06,601.6 350.59,1431.13 527.68,601.94 373.98,1435.78 529.3,602.24 397.48,1439.82 530.94,602.5 
		421.09,1443.24 532.58,602.72 444.77,1446.04 534.22,602.89 468.52,1448.23 535.87,603.02 492.32,1449.79 537.52,603.11 
		516.15,1450.72 539.17,603.15 540,1451.03 540.83,603.15 563.85,1450.72 542.48,603.11 587.68,1449.79 544.13,603.02 
		611.48,1448.23 545.78,602.89 635.23,1446.04 547.42,602.71 658.91,1443.24 549.06,602.5 682.52,1439.82 550.69,602.24 
		706.02,1435.78 552.32,601.94 729.41,1431.13 553.94,601.6 752.68,1425.86 555.55,601.21 775.79,1419.99 557.14,600.78 
		798.75,1413.52 558.73,600.32 821.53,1406.45 560.3,599.8 844.11,1398.78 561.86,599.25 866.49,1390.52 563.4,598.66 
		888.64,1381.69 564.93,598.03 910.55,1372.27 566.44,597.35 932.21,1362.29 567.93,596.64 953.6,1351.74 569.41,595.89 
		974.71,1340.63 570.86,595.1 995.52,1328.98 572.29,594.27 1016.01,1316.78 573.7,593.41 1036.18,1304.06 575.09,592.51 
		1056.02,1290.81 576.45,591.58 1075.49,1277.04 577.79,590.6 1094.6,1262.77 579.1,589.6 1113.33,1248.01 580.38,588.55 
		1131.67,1232.76 581.64,587.48 1149.6,1217.03 582.87,586.37 1167.12,1200.84 584.07,585.24 1184.2,1184.2 585.24,584.07 
		1200.84,1167.11 586.38,582.87 1217.03,1149.6 587.48,581.64 1232.76,1131.67 588.56,580.39 1248.01,1113.33 589.59,579.1 
		1262.77,1094.6 590.6,577.79 1277.04,1075.49 591.57,576.45 1290.81,1056.02 592.51,575.09 1304.06,1036.18 593.41,573.7 
		1316.78,1016.01 594.28,572.29 1328.98,995.52 595.1,570.86 1340.63,974.71 595.89,569.41 1351.74,953.6 596.64,567.93 
		1362.29,932.21 597.35,566.44 1372.27,910.55 598.02,564.93 1381.69,888.64 598.66,563.4 1390.52,866.49 599.25,561.86 
		1398.78,844.11 599.81,560.3 1406.45,821.53 600.31,558.73 1413.52,798.75 600.78,557.14 1419.99,775.79 601.21,555.54 
		1425.86,752.68 601.6,553.94 1431.13,729.41 601.94,552.32 1435.78,706.02 602.24,550.7 1439.82,682.52 602.5,549.06 
		1443.24,658.91 602.72,547.42 1446.04,635.23 602.89,545.78 1448.23,611.48 603.02,544.13 1449.79,587.68 603.1,542.48 
		1450.72,563.85 	"/>
</g>
</svg>
