<?xml version="1.0" encoding="utf-8"?>
<!-- Generator: Adobe Illustrator 26.5.0, SVG Export Plug-In . SVG Version: 6.00 Build 0)  -->
<svg version="1.1" id="Layer_1" xmlns="http://www.w3.org/2000/svg" xmlns:xlink="http://www.w3.org/1999/xlink" x="0px" y="0px"
	 viewBox="0 0 1080 1080" style="enable-background:new 0 0 1080 1080;" xml:space="preserve">
<style type="text/css">
	.starburstblue0{fill:#4073D9;stroke:url(#SVGID_1_);stroke-miterlimit:10;}
	.starburstblue1{fill:none;}
</style>
<g id="blue_starburst">
	
		<radialGradient id="SVGID_1_" cx="540" cy="540" r="517.531" gradientTransform="matrix(1 0 0 -1 0 1080)" gradientUnits="userSpaceOnUse">
		<stop  offset="0.2" style="stop-color:#4073D9"/>
		<stop  offset="1" style="stop-color:#B3C8F1"/>
	</radialGradient>
	<polygon class="starburstblue0" points="540,22.47 540.97,503.05 567.09,23.18 542.9,503.15 594.1,25.3 544.83,503.35 620.96,28.84 
		546.74,503.65 647.6,33.78 548.63,504.05 673.95,40.1 550.5,504.56 699.93,47.8 552.34,505.15 725.47,56.84 554.15,505.85 
		750.5,67.21 555.91,506.63 774.95,78.88 557.64,507.51 798.77,91.8 559.31,508.48 821.87,105.96 560.94,509.53 844.2,121.31 
		562.5,510.67 865.69,137.8 564.01,511.89 886.3,155.4 565.45,513.19 905.95,174.05 566.81,514.55 924.6,193.7 568.11,515.99 
		942.2,214.31 569.33,517.5 958.69,235.8 570.47,519.06 974.04,258.13 571.52,520.69 988.2,281.23 572.49,522.36 1001.12,305.05 
		573.37,524.09 1012.79,329.5 574.15,525.85 1023.16,354.53 574.85,527.66 1032.2,380.07 575.44,529.5 1039.9,406.05 575.95,531.37 
		1046.22,432.4 576.35,533.26 1051.16,459.04 576.65,535.17 1054.7,485.9 576.85,537.1 1056.82,512.91 576.95,539.03 1057.53,540 
		576.95,540.97 1056.82,567.09 576.85,542.9 1054.7,594.1 576.65,544.83 1051.16,620.96 576.35,546.74 1046.22,647.6 575.95,548.63 
		1039.9,673.95 575.44,550.5 1032.2,699.93 574.85,552.34 1023.16,725.47 574.15,554.15 1012.79,750.5 573.37,555.91 
		1001.12,774.95 572.49,557.64 988.2,798.77 571.52,559.31 974.04,821.87 570.47,560.94 958.69,844.2 569.33,562.5 942.2,865.69 
		568.11,564.01 924.6,886.3 566.81,565.45 905.95,905.95 565.45,566.81 886.3,924.6 564.01,568.11 865.69,942.2 562.5,569.33 
		844.2,958.69 560.94,570.47 821.87,974.04 559.31,571.52 798.77,988.2 557.64,572.49 774.95,1001.12 555.91,573.37 750.5,1012.79 
		554.15,574.15 725.47,1023.16 552.34,574.85 699.93,1032.2 550.5,575.44 673.95,1039.9 548.63,575.95 647.6,1046.22 546.74,576.35 
		620.96,1051.16 544.83,576.65 594.1,1054.7 542.9,576.85 567.09,1056.82 540.97,576.95 540,1057.53 539.03,576.95 512.91,1056.82 
		537.1,576.85 485.9,1054.7 535.17,576.65 459.04,1051.16 533.26,576.35 432.4,1046.22 531.37,575.95 406.05,1039.9 529.5,575.44 
		380.07,1032.2 527.66,574.85 354.53,1023.16 525.85,574.15 329.5,1012.79 524.09,573.37 305.05,1001.12 522.36,572.49 
		281.23,988.2 520.69,571.52 258.13,974.04 519.06,570.47 235.8,958.69 517.5,569.33 214.31,942.2 515.99,568.11 193.7,924.6 
		514.55,566.81 174.05,905.95 513.19,565.45 155.4,886.3 511.89,564.01 137.8,865.69 510.67,562.5 121.31,844.2 509.53,560.94 
		105.96,821.87 508.48,559.31 91.8,798.77 507.51,557.64 78.88,774.95 506.63,555.91 67.21,750.5 505.85,554.15 56.84,725.47 
		505.15,552.34 47.8,699.93 504.56,550.5 40.1,673.95 504.05,548.63 33.78,647.6 503.65,546.74 28.84,620.96 503.35,544.83 
		25.3,594.1 503.15,542.9 23.18,567.09 503.05,540.97 22.47,540 503.05,539.03 23.18,512.91 503.15,537.1 25.3,485.9 503.35,535.17 
		28.84,459.04 503.65,533.26 33.78,432.4 504.05,531.37 40.1,406.05 504.56,529.5 47.8,380.07 505.15,527.66 56.84,354.53 
		505.85,525.85 67.21,329.5 506.63,524.09 78.88,305.05 507.51,522.36 91.8,281.23 508.48,520.69 105.96,258.13 509.53,519.06 
		121.31,235.8 510.67,517.5 137.8,214.31 511.89,515.99 155.4,193.7 513.19,514.55 174.05,174.05 514.55,513.19 193.7,155.4 
		515.99,511.89 214.31,137.8 517.5,510.67 235.8,121.31 519.06,509.53 258.13,105.96 520.69,508.48 281.23,91.8 522.36,507.51 
		305.05,78.88 524.09,506.63 329.5,67.21 525.85,505.85 354.53,56.84 527.66,505.15 380.07,47.8 529.5,504.56 406.05,40.1 
		531.37,504.05 432.4,33.78 533.26,503.65 459.04,28.84 535.17,503.35 485.9,25.3 537.1,503.15 512.91,23.18 539.03,503.05 	"/>
</g>
<g id="psuedo_page">
	<rect id="page_bounding_box__x28_for_SVG_x29_" class="starburstblue1" width="1080" height="1080"/>
</g>
</svg>
