<?xml version="1.0" encoding="utf-8"?>
<!-- Generator: Adobe Illustrator 26.5.0, SVG Export Plug-In . SVG Version: 6.00 Build 0)  -->
<svg version="1.1" id="Layer_1" xmlns="http://www.w3.org/2000/svg" xmlns:xlink="http://www.w3.org/1999/xlink" x="0px" y="0px"
	 viewBox="0 0 1080 1080" style="enable-background:new 0 0 1080 1080;" xml:space="preserve">
<style type="text/css">
	.st0{fill:#FFFFFF;}
	.st1{fill:none;}
</style>
<g id="RIGHT_Ornamental_Scroll">
	<path id="RIGHT_white_back-fill" class="st0" d="M848.86,642.84c0,0,2.03-0.37,3.33-1.11s2.96-3.88,3.14-5.18
		c0.18-1.29,1.66-6.29-2.03-12.57c-3.7-6.29-10.72-11.65-18.31-10.54c-7.58,1.11-15.72,3.33-20.71,9.25
		c-4.99,5.92-9.62,17.94-8.51,22.19s-0.55,2.96-0.55,2.96s-1.66,2.59-2.4,5.36c-0.74,2.77-0.92,25.15-2.96,34.21
		c-2.03,9.06-6.1,13.68-8.32,14.42c-2.22,0.74-6.29,1.66-6.84-0.37s-0.74-4.81,0-5.73c0,0-0.12,1.39,0.18,1.76
		c0.31,0.37,1.11,0.86,1.57,0.8s1.69-0.96,1.57-1.88s-0.25-4.59-3.51-5.24s-7.03-1.33-8.35,1.02c-1.33,2.34-4.59,6.9-3.45,10.02
		c1.14,3.11,5.02,10.14,7.8,11.13c2.77,0.99,11.31,3.45,16.09,0.09s10.45-12.27,10.45-12.27s0.86,4.04,4.01,5.39
		s7.46,2.13,7.46,2.13s1.57-9.15,1.48-11.28s-1.76-7.15-6.13-14.89s-5.79-12.17-6.04-14.55s-0.76-6.41-0.39-7.23
		s1.24-2.51,1.24-2.51l5.9,8.04l6.03,8.83l12.74,9.25c0,0,13.62,10.46,16.45,16.5s4.07,11.46,4.07,16.77s-0.79,9.25-3.21,11.83
		c-2.42,2.58-3.94,2.68-4.35,2.77s-2.37-0.28-2.37-0.28l0.74,1.39c0,0,3.94,4.44,5.45,4.75s8.81-0.74,8.81-0.74l-0.06,2.87
		c0,0-1.11,5.15-7.21,11.59s-12.94,10.26-22.9,8.26c-9.95-2-14.24-6.78-15.81-10.69s-0.34-13.01,1.2-14.67
		c1.54-1.66,3.17-3.05,5.09-2.84c1.91,0.22,5.33,1.79,5.49,2.56c0.15,0.77,0.49,2.84,0.49,2.84l-0.86,1.42c0,0-0.37,1.39-0.09,2.06
		c0.28,0.68,1.82,4.28,4.1,4.38c2.28,0.09,5.09-0.22,5.86-1.2c0.77-0.99,3.48-4.93,2.93-6.87s-2.4-8.88-4.9-11.06
		c-2.5-2.19-10.17-7.49-16.09-3.61c-5.92,3.88-10.29,7.95-12.27,13.62s-2.37,9.34-1.05,13.81c1.33,4.47,1.14,5.73,4.75,9.83
		c3.61,4.1,5.42,5.7,5.42,5.7s-8.44-2.87-10.94-0.83s-5.7,4.53-6.5,6.93s-3.02,7.64-1.26,9.99c1.76,2.34,3.76,3.36,3.76,3.36
		l3.24,0.25l1.26-0.62c0,0-1.08-1.97-1.26-3.11s-0.99-6.38,1.2-8.54s13.13-4.47,14.58-4.59c1.45-0.12,6.23,3.64,13.5,3.27
		s18.12-3.45,21.54-6.6c3.42-3.14,6.9-6.01,10.17-11.86c3.27-5.86,6.75-17.97,6.69-20.22s-2.19-18.95-8.41-28.45
		c-6.23-9.49-8.01-12.94-8.01-12.94l11.65,7.7c0,0,9.55,9.06,11.9,12.76s3.51,7.33,2.9,10.35c-0.62,3.02-1.73,3.7-1.73,3.7
		s-1.11-0.49-2.22-0.18s-2.59,0.68-2.28,3.51s3.08,8.07,6.35,7.95c3.27-0.12,7.03,0.18,9.43-5.61c2.4-5.79,3.27-9.06,1.36-12.7
		c-1.91-3.64-5.24-7.95-5.24-7.95l-8.01-8.07l-3.21-3.82c0,0-7.03-6.1-9.43-7.83c-2.4-1.73-7.03-4.56-7.03-4.56l-6.84-3.57
		c0,0,3.27,0.18,6.1-0.12c2.84-0.31,4.87-0.49,4.87-0.49l1.54,0.86c0,0,11.71,2.28,17.81,2.28s27.74-2.77,33.1-2.4
		s19.42,0,23.67,3.33s4.62,3.51,5.18,5.73c0.55,2.22,0.74,4.25-0.14,4.85s-1.8,0.83-2.13,0.79c-0.32-0.05-1.02-0.37-1.02-0.37
		s-1.25-0.37-2.36,0.46s-2.17,1.94-2.03,3.56c0.14,1.62,0.4,5.75,5.66,7.26c3.72,1.06,15.23,0.42,17.68-5.41
		c2.45-5.82,5.78-12.8,2.77-17.75c-3-4.95-5.92-10.82-5.92-10.82s3.19,2.36,4.39,2.4s6.06-1.53,6.66-2.13s1.99-3.47,1.99-3.47
		s2.45,0.97,4.21,0.97s4.9-0.51,5.69-2.59s2.73-7.58,2.73-7.58l-1.06-8.88c0,0,0-2.22-6.33-2.22s-9.38,0.05-9.38,0.05
		s1.48-1.48,2.77-2.17c1.29-0.69,11.09-6.15,17.01-7.54c5.92-1.39,16.83-4.99,26.81-1.76c9.99,3.24,26.35,13.73,33.33,22.42
		s8,10.63,11.83,20.02c3.84,9.38,5.45,17.01,5.55,23.67c0.09,6.66-1.8,11.79-2.87,15.16s-4.81,10.45-5.59,11.74
		s-2.63,3.37-2.63,3.37s-7.63,5.92-12.94,7.35c-5.32,1.43-16.55,2.36-20.02,0.28s-7.44-5.04-7.72-7.81c-0.28-2.77-0.14-3.1,0.79-3.7
		s2.63-0.79,2.63-0.79l2.68,0.46c0,0-0.28-4.35-5.18-4.16c-4.9,0.18-6.43,0.37-8.41,1.85s-3.98,4.99-3.65,6.33
		c0.32,1.34-2.5,1.76-2.5,1.76s-4.9,0.6-6.01,1.8s-3.98,5.87-3.98,5.87l-3.84-2.68c0,0-11.37-15.44-6.98-29.26
		s8.37-15.49,10.77-16.23s11.42-1.11,14.33,1.25c2.91,2.36,2.68,1.2,3.42,4.16c0.74,2.96-0.92,5.41-1.71,6.61
		c-0.79,1.2-2.82,1.85-2.82,1.85l-0.92,0.37l-0.74,0.83l-0.14-1.34c0,0-0.83,1.39-1.02,2.17c-0.18,0.79-0.32,2.59-0.23,3.05
		c0.09,0.46,0.97,2.36,2.96,3.79c1.42,1.02,4.16,1.62,4.95,1.76c0.79,0.14,8.18-0.37,9.48-0.79c1.29-0.42,4.39-1.71,5.82-2.77
		s4.99-4.99,5.59-6.84s3.98-14.1-4.11-22.51s-16.78-13.22-29.45-8.27s-13.82,7.07-17.47,10.68c-3.65,3.61-8.83,13.04-9.29,16.36
		c-0.46,3.33-1.39,11.37-0.14,16.6c1.25,5.22,5.96,16.36,13.59,23.3c7.63,6.93,21.63,19.46,38.04,17.52
		c16.41-1.94,43.87-15.62,50.85-33.84s11.05-35.13,2.59-52.38s-14.89-29.59-33.33-41c-18.44-11.42-31.3-9.62-31.3-9.62l3.79-2.03
		c0,0,3.56,0.28,5.55-1.25s6.84-6.1,4.44-12.11s-5.36-6.84-6.38-6.98c-1.02-0.14-10.31,1.11-12.71,0.74s-4.21-1.06-4.48-2.31
		c-0.28-1.25,0.37-6.29-1.66-7.67c-2.03-1.39-4.81-3.42-8.04-1.99s-7.67,4.81-10.4,10.4c-2.73,5.59-6.43,12.99-13.13,19.92
		s-26.72,24.22-26.72,24.22s-0.05-8.74-0.51-10.35c-0.46-1.62-1.99-2.63-1.99-2.63s-3.05,4.39-4.48,5.87s-16.92,16.46-29.03,21.26
		c-12.11,4.81-19.42,6.47-19.42,6.47l-0.51-0.65l6.15-2.59c0,0,6.93-3.56,9.94-5.27c3-1.71,6.98-4.53,10.86-7.9
		s11.7-9.06,17.61-21.73c5.92-12.67,2.36-28.75-7.12-33.05s-24.22-4.72-29.68,3.37c-5.45,8.09-2.73,16.55-1.76,18.58
		s3.1,4.76,4.67,5.5s2.27,1.62,4.81,1.43c2.54-0.18,5.45-0.46,5.45-0.46s-3.24,10.68-8.69,15.12s-20.48,16.83-36.01,14.93
		s-16.97-7.3-17.84-9.48c-0.88-2.17-0.83-4.44,0.92-5.96c1.76-1.53,3.74-3.05,5.27-3s3.74,0.79,4.21,1.16
		c0.46,0.37,0.74,0.28,0.92,1.16C848.86,641.87,848.86,642.84,848.86,642.84z"/>
	<g id="XMLID_1_">
		<path id="XMLID_49_" d="M804.53,647.78c-3.93,6.39-5.11,19.75-5.7,33.29c-0.64,7.43-2.58,14.25-6.54,18.12
			c-4.28,4.72-9.21,1.18-7.84-3.14l-0.14,0.61c-0.57,1.46-1.35,4.56,1.56,6.33c0.77,0.38,1.58,0.56,2.42,0.6
			c0.07,0.05,0.15,0.07,0.22,0.12c-0.06-0.04-0.11-0.08-0.16-0.12c2.21,0.09,4.53-0.89,6.41-2.46c5.33-4.32,7.58-12.06,8.28-19.53
			c0.12-2.38,0.2-4.66,0.27-6.87c0.18,1.68,0.4,3.34,0.62,4.94l-0.23-0.45l0.24,0.51c0.09,0.69,0.19,1.37,0.28,2.03
			c-0.22,9.45-6.72,24.49-15.64,21.98c0.92,0.56,1.94,0.92,3.1,0.78c4.14-0.8,10.93-8.08,13.13-17.19c0.03,1.16,0.22,2.49,0.55,3.91
			c-1.57,5.05-4.35,12.33-10.9,16.02c-7.06,4.01-15.94-6.49-13.05-12.07c-0.41,0.61-0.73,1.3-0.83,2.12
			c-1.16,3.1,6.71,17.39,16.64,9.87c2.74-2.01,4.63-4.48,5.97-6.93c0.19,0.07,0.41,0.05,0.64-0.04c-2.18,4.27-6.64,8.76-11.83,11.59
			c-7.94,3.11-12.13-7.34-12.55-12.89c0.02,0.44,0,0.88,0.06,1.32c-0.4,1.61,1.52,8.86,5.9,11.96c-6.16-3.63-9.57-12.47-6.14-17.45
			c-0.44,0.53-0.83,1.1-1.09,1.78c-1.54,2.3-0.56,9.51,3.66,14.26c-0.61-0.38-1.21-0.8-1.82-1.28c-1.03-0.71-1.89-1.54-2.61-2.41
			c-1.52-3.01-2.35-6.69-2.06-10c0.82-2.31,2.62-4.09,5.3-4.55c0.5-0.14,1.02-0.16,1.54-0.14c-0.81,0.48-1.59,0.99-2.25,1.6
			l2.29-1.6c2.42,0.1,4.83,1.69,5,3.51c-0.21,3.12-3.17,1.75-1.06-0.83c-0.36,0.56-2.5,1.92-1,3.29c1.81,1.41,3.33-0.57,3.79-2.38
			c0.11-4.1-4.35-6.99-8.77-6.51c-10.68,0.45-12.66,17.63-2.94,23.24c8.17,7.73,21.24,4.6,25.75-2.25c1.72-2.14,2.73-4.35,3.34-6.51
			c0.5,1.26,1.29,2.52,2.54,3.71c4.34,3.21,8.56,3.09,11.11,2.56c0.43,0.32,0.9,0.57,1.47,0.64c-0.33-0.24-0.59-0.51-0.82-0.8
			c0.1-0.03,0.23-0.05,0.33-0.08l-0.18-0.09c-0.14-0.12-0.31-0.24-0.46-0.35c-1.21-2.15-0.25-5.3,1.01-9.41
			c1.7-5.64-1.46-12.2-4.68-17.33c-6.87-9.07-9.31-17.55-8.19-23.55c1.29,2.47,2.78,4.73,4.45,6.8c1.64,3.91,5.12,7.59,9.2,10.98
			c6.35,5.89,15.64,13.13,23.97,22.26c10.4,11.55,6.46,35.32-2.23,32.59l0.66,0.29c1.29,0.38,2.54,0.29,3.7-0.17
			c0.05,0.03,0.1,0.05,0.15,0.07c-0.31,0.07-0.63,0.12-0.95,0.17c0.34-0.03,0.68-0.07,1.02-0.13c2.11,1.1,4.86,1.48,6.85-0.13
			c3.97-3.03,8.23-15.2,4.64-26.06c0.39,0.79,0.78,1.58,1.16,2.39c4.42,9.78,0.84,28.83-10.29,26.24c-0.37-0.08-0.73-0.2-1.08-0.34
			c1.46,0.62,2.99,1,4.61,0.75c5.11-0.35,9.94-9.54,9.62-19.23c0.57,1.92,1.05,3.91,1.41,5.98c-0.62,3.15-2,6.5-3.92,9.19
			c-0.03-0.05-0.04-0.11-0.07-0.16l-0.11,0.18c-1.64,2.18-3.71,4.77-7.43,4.86c-1.78-0.01-3.39-0.42-4.86-0.95
			c-0.15-0.09-0.31-0.13-0.46-0.22l-2.11-1.03l1.98,1.06c-1.53-0.6-2.89-1.35-4.01-1.94c-0.06,2.39,3.37,7.33,9.58,7.34
			c1.9-0.07,3.4-0.66,4.57-1.51c-3.53,9.42-15.2,25.84-33.18,19.41c-9.9-2.85-13.74-13.36-10.38-20.34
			c1.74-8.15,11.01-4.02,9.96-0.22c-0.33,0.37-0.57,0.78-0.73,1.24c-0.26,0.25-0.55,0.49-0.92,0.72l0.7-0.5
			c0.07-0.02,0.12-0.08,0.19-0.1c-1.14,3.67,3.12,9.27,8.99,6.78c6.87-3.1,5.24-13.07,1.08-18.8c-3.93-7.11-15.39-9.26-22.74-3.5
			c-7.25,5.31-11.94,14.57-10.94,24.59c0.7,5.39,2.8,9.91,5.75,13.57c-0.1-0.01-0.18-0.05-0.27-0.06
			c-5.13-0.56-9.47,3.94-11.64,8.56c-2.19,4.67-3.05,10.69,0.76,14.58c3.28,2.52,6.07,1.49,8.02,0.47c0.04,0.01,0.09,0.04,0.12,0.05
			c-0.01-0.03-0.02-0.07-0.03-0.1c0.69-0.37,1.27-0.72,1.71-0.91l-0.4,0.04c-0.48,0.16-0.96,0.25-1.44,0.3
			c-0.84-3.56-2.48-8.91,3.17-11.48c4.02-1.87,8.2-2.48,11.55-2.78c7.61,3.34,16.23,3.8,22.67,1.26c0.74-0.21,1.43-0.47,2.13-0.73
			c10.82-1.33,25.1-14.98,27.47-34.15c1.85-17.81-6.18-31.64-13.34-39.81c-0.7-1.12-1.42-2.19-2.15-3.21
			c4.03,3.12,9.7,8.36,15.45,14.66c7.27,7.37,10.67,15.87,5.18,19.19c2.27-0.26,6.34-3.6,5.34-8.78c-0.83-4.69-3.77-9.17-7.35-13.22
			c-4.72-5.18-9.89-9.1-14.33-11.35c-0.24-0.19-0.48-0.4-0.72-0.61l0.07,0.04l-0.11-0.07c-0.96-0.82-1.98-1.71-2.97-2.51
			c0.36,0.19,0.68,0.37,1,0.54c0.14,0.08,0.31,0.17,0.44,0.25l0.87,0.5l0.04,0.03h-0.01l0.01,0.01l-0.07-0.05l-1.33-0.96
			c-0.76-0.48-2.01-1.57-3.41-2.81c1.14,0.48,2.27,1.04,3.36,1.66c2.41,1.6,4.78,3.25,6.94,4.89c5.23,4.23,11.85,10.52,16.93,17.4
			c8.78,9.46-2.02,19.41-5.27,17.66c2.32,2.52,8.11-1.24,9.13-5.39c3.01-5.01-0.68-10.42-3.8-14.59c1.28,0.42,2.74,1.39,4.12,2.77
			c4.98,10.16-2.25,21.46-6.24,20.83c3.68,1.74,8.6-4.89,9.31-9.66c0.51-2.6,0.3-5.27-0.43-7.83c0.49,0.8,0.92,1.66,1.29,2.55
			c1.66,6.76-1.28,13.42-4.3,15.35c0.51-0.12,1-0.29,1.45-0.51c-6.64,6.25-16.43-6.1-8.76-7.98l-0.47,0.13
			c-4.04-1.09-6,6.48-1.76,10.26c3.59,5.25,13.04,3.43,16.42-2.49c5.23-8.84,1.39-16.6-3.38-20.64c-1.39-2.51-3.33-4.72-5.78-6.29
			c-0.51-0.61-1.05-1.21-1.61-1.77c-8.16-8.98-18.37-16.37-27.35-20.43c0.54,0.01,1.09,0.03,1.62,0.01c2.78-0.16,5.4-0.53,7.91-1.02
			c8.75,4.84,27.17,4.4,45.79,2.01c10.11-0.24,19.65-0.34,27.06,1.9c6.19,0.95,10.11,9.26,5.95,10.31c-1.84-0.27-4.72-1.09-6.88,1.9
			c-1.57,3.52,0.9,7.24,3.83,9.41c6.52,4.83,17.5,2.11,22.82-5.49c4.95-9.63,2.49-18.55-2.13-24.39c0.99,0.11,2,0.16,3.08,0.05
			c3.12-0.81,5.16-2.5,6.48-4.6c0.26-0.45,0.38-0.84,0.43-1.21c3.72,1.98,9.37,2.31,12.49-3.92c1.36-2.58,2-5.59,1.41-8.28
			c0.62-2.04,0.89-4.57-0.65-7.6c-3.28-4.55-9.42-4.63-14.5-3.77c6.98-3.32,15.47-6.85,25.56-8.11c14.73-2.58,31.95,5.45,45.3,17.8
			c13.17,13.55,20.86,30.62,21.42,45.7c0.71,12.48-3.93,22.3-8.36,29.39c0.69-1.15,1.32-2.28,1.82-3.35l1.4-2.76l-2.62,4.83
			c-0.44,0.72-1.12,1.68-1.92,2.74c-5.22,2.85-14.33,7.57-25.06,7.66c-11.3,0.41-19.91-13.02-9.93-11.45
			c0.9,0.98,1.15,2.21,0.26,3.61c6.76-4.46-8.9-16.15-17.16-4.75c-1.26,1.84-1.57,3.8-1.37,5.65c-3.12-0.89-7.83,0.02-10.18,4.01
			c-0.92,0.96-1.51,2.3-1.74,3.71c-7.35-6.17-12.75-22.07-5.26-37.04c3.7-8.84,14.51-10.91,20.42-6.64
			c3.16,1.89,3.82,5.27,1.83,7.62c-0.77,1.94-5.84,3.21-4.47,5.01h-0.02c0.03,0.03,0.06,0.05,0.09,0.08
			c0.16,0.19,0.37,0.38,0.68,0.58l0,0c2.3,1.66,6.88,2.74,9.13-1.48c2.19-3.87,2.53-8.9,1-13.47c-4.06-11.07-17.02-6.98-22.23-4.5
			l-3.22,1.05l5.74-1.79c3.35-2.27,17.96-3.88,18.97,8.14c0.56,4.7-0.58,9.94-3.36,11.84c-2.63,1.48-5.05-0.13-6.33-0.4l-0.06-0.11
			c-1.15-1.55,4.25-1.63,5.96-4.53c3.04-2.82,1.37-8.7-2.49-10.97c-6.98-5.7-21.08-2.97-25.38,7.59
			c-9.05,17.59-0.17,35.78,8.91,40.27c0,1.07,0.18,2.11,0.6,3c-0.86-0.51-1.68-1.09-2.44-1.77c-3.86-3.58-12.14-14.99-12.93-27.15
			c-1.39-12.69,6.08-22.11,8.17-23.39c-7.24,3.09-11.55,15.62-9.19,26.77c2.78,11.05,9.47,21.32,16.45,25.71
			c0,0,0.04,0.02,0.05,0.04c0.35,0.67,0.8,1.26,1.42,1.67c1.4,1.1,2.75,1.5,3.93,1.63c2.45,2.27,7.37,3.07,11.97,3.07
			c6.89,2.19,19.18,1.08,28.05,0.01c-0.35,0.13-0.7,0.26-1.06,0.38c-14.47,4.31-28.35-0.41-31.09-0.44
			c4.82,2.04,11.98,3.74,19.67,3.66c-10.53,1.64-18.69-0.93-22.2-3.24c7.79,5.84,19.56,6,31.17,2.28c0.62-0.14,1.25-0.31,1.88-0.48
			c-0.6,0.29-1.21,0.58-1.8,0.84c-19.77,8.52-34.59-2.25-37.81-5.49c23.79,29.29,90.34-11.94,80.41-62.9
			c3.37,14.63,2.01,30.23-7.06,43.93c-14.77,24.89-50.27,39.05-72.83,22.01c-10.94-7.91-20.84-18.3-23.89-30.53
			c-2.88-12.35,1.5-25.28,9.74-33.7c8.12-8.3,20.11-12.63,30.58-10.51c10.42,2.33,17.66,11.94,18.54,21.39
			c0.06,0.42,0.08,0.84,0.11,1.25l-0.28,1.34c-0.52,2.73-3.14,9.66-8.96,12.38c4.52-4.43,4.58-11.28,3.62-15.29l-0.48-2.34
			l0.71,4.17c0.41,3.06-0.91,11.46-7.62,14.47c-0.34,0.19-0.67,0.29-1,0.45c-4.28,0.72-8.2,0.18-10.13,0.36
			c-1.14-0.53-1.94-1.18-2.16-1.71c0.48,2.29,2.46,3.58,4.95,3.99c0.28,0.11,0.57,0.19,0.88,0.27c-3.22-0.39-6.29-1.67-7.9-3.61
			c4.56,9.22,33.65,3.94,29.97-15.86c-0.64-10.09-8.18-20.8-19.7-23.65c-11.47-2.56-24.29,1.83-33.33,10.73
			c-9,8.9-14.08,22.87-11.05,36.61c3.36,13.74,13.64,24.54,25.09,32.99c8.47,6.35,18.44,8.74,28.52,8.18l-0.36,0.19l0.67-0.21
			c19.59-1.2,39.58-13.68,49.94-31.18c34.34-59.89-38.06-130.27-85.94-104.04c-1.97,0.58-3.9,1.22-5.81,1.87
			c4.07-1.99,8.39-4.02,12.69-5.84c12.35-5.94,24.8-4.33,28-4.55c-1.95,2.1-4.69,3.23-7.15,2.93c3.92,1.2,10.05-1.77,11.4-8.04
			c2.03-5.63-3.31-15.65-12.09-13.46c-3.6,0.31-7.39,0.85-10.19-0.07c-2.53,0.42,0.84-6.07-4.06-10.05
			c-11.25-6.95-17.95,6.9-21.96,12.78c-10.53,16.92-23.47,29.91-35.12,39.71c0.1-1.88-0.04-3.67-0.43-5.18
			c-0.15-2.44-1.13-4.42-3.06-5.65c0.43-0.77,0.69-1.4,0.79-1.86c-0.35,0.56-0.73,1.12-1.13,1.68c-0.35-0.2-0.67-0.42-1.07-0.57
			c0.36,0.23,0.63,0.51,0.91,0.79c-0.47,0.64-0.97,1.29-1.5,1.94c-0.04,0-0.08-0.04-0.13-0.05c0.04,0.03,0.07,0.06,0.07,0.06
			c-9.62,11.95-29.76,25.55-49.49,30.78c4.58-1.81,7.64-4.38,8.03-5.48c-8.28,7.74-28.88,7.12-42.06,1.1
			c-0.85-0.56-1.66-1.15-2.43-1.76c-0.6-0.54-1.2-1.07-1.75-1.63l5.67,2.04c4.68,1.33,16.29,3.68,27.24,1.86
			c8.47-0.69,14.82-5.61,17.64-9.02l0.06,0.05c0.09,1.12,2.8,2.35,4.68,2.37l-0.01,0.01l0.05-0.01c0.09,0,0.18,0,0.27-0.01
			c-0.49,0.38-0.95,0.74-1.42,1.09c-0.67-0.87-0.52-0.13-0.45,0.35c-0.04,0.04-0.1,0.07-0.14,0.1c-1.47-1.2-2.24,0.21-3.81-0.76
			l-0.3-0.14l0.41,0.33c-0.03,0.64,1.34,1.37,2.43,1.5c-0.44,0.32-0.89,0.65-1.3,0.95c0.59-0.29,1.23-0.62,1.86-0.95
			c0.29-0.04,0.55-0.13,0.67-0.35c0.17-0.09,0.33-0.19,0.5-0.28c0.28,0.16,0.67,0.39,0.41-0.23c6.27-3.49,14.11-8.97,21.35-17.59
			c3.58-3.54,6.81-8.98,8.52-15.07c1.72-2.52,1.67-7.44,1.62-10.18l0.05-0.75l-0.23,1.34c0,0.28-0.08,0.66-0.18,1.1
			c0.07-6.74-2.13-13.58-8.08-19.13c-13.22-13.44-38.22-5.56-38.23,10.53c-0.5,6.63,1.69,14.22,7.29,16.39
			c0.78,0.69,1.7,1.14,2.65,1.43c0.68,0.62,1.36,0.96,1.93,0.89c0.62,0.31,1.21,0.4,1.65,0.19c0.01,0,0.02,0,0.02,0
			c0.51,0.18,0.95,0.18,1.32-0.09c0.71-0.17,1.42-0.5,1.98-0.91c-1.09,3.06-3.27,6.45-5.78,9.21c-5.6,6.94-14.88,13.75-25.77,16.29
			c-10.78,3.68-23.17,1.86-27.29-5.68c-6.04-8.12,9.04-11.4,8.56-5.33c0.96-2.95-0.95-4.45-3.57-4.64c0.58,0.03,1.13,0.09,1.62,0.22
			c2.41,0.37,3.22,1.57,3.5,2.76c-0.52,0.7-1.06,1.26-1.54,1.67v-0.01c0,0,0,0.01,0,0.02c-0.38,0.32-0.74,0.58-1.03,0.71h-0.01
			c0.3-0.01,0.58-0.07,0.87-0.14l-0.15,0.81c0.11-0.29,0.14-0.55,0.2-0.81c0.6-0.15,1.17-0.38,1.7-0.7
			c0.04-0.01,0.07-0.02,0.11-0.02c-0.01,0.41-0.04,0.77-0.02,1c0.22-0.39,0.39-0.75,0.51-1.11c9.81-3.03,6.41-27.77-11.75-29.91
			C822.06,608.01,801.28,626.33,804.53,647.78z M1025.05,703.96c0.23,7.3-4.38,13.89-10.45,16.27c0.08-0.13,0.14-0.26,0.15-0.41
			c-0.87-0.07-1.93,0.06-3.09,0.25c0.05-0.02,0.1-0.04,0.16-0.07c1.65-0.34,3.32-0.89,4.91-1.77
			C1022.58,715.09,1024.4,708.47,1025.05,703.96z M851.24,641.99c2.65-2.21,4.03-6.59,3.08-10.82c-0.08-1.78-0.46-3.58-1.24-5.31
			C856.06,632.2,855.63,639.55,851.24,641.99z M844.49,621.74c3.35-0.37,5.82,1.77,7.18,4.38c-6.64-6.26-16.64,1.06-19.49,8.11
			c-4.12,7.1-0.15,15.08,5.25,19.55c0.18,0.59,0.4,1.17,0.66,1.74c-8.32-3.98-11.92-16.48-4.7-24.41
			C836.24,626.84,840.01,622.62,844.49,621.74z M954.63,703.43c2.06-2.96,3.16-6.86,2.38-11.03c-1.49-8.74-10.22-13.58-18.84-15.28
			c3.07,0.36,6.37,1,9.43,2.18c0.26,0.07,0.47,0.2,0.72,0.29c0.54,0.32,1.06,0.65,1.58,1.02c5.63,4.35,8.31,10.15,9.12,14.62
			c-0.31,1.81-0.88,3.63-1.8,5.41C956.47,701.7,955.57,702.6,954.63,703.43z M963.43,675.07c0.01,0.08,0.02,0.15,0.02,0.23
			c-0.73,0.28-1.52,0.47-2.3,0.54c-4.02,0.26-9.53-4.66-16.4-5.41c-2.78-0.56-5.44-0.79-7.98-0.8c0.54-0.13,1.13-0.26,1.72-0.4
			C948.02,668.55,962.49,669.98,963.43,675.07c-0.36-5.04-8.57-7.98-14.63-7.31c-1.32,0.02-2.64,0.1-3.95,0.21
			c3.05-0.48,6.33-0.82,9.54-0.77c3.22-0.48,6.13,0.63,8.3,2.17c-0.15,0.11-0.33,0.24-0.48,0.34l-0.94,0.62l1.54-0.87
			c0.62,0.45,1.17,0.94,1.65,1.44c-0.09,0.07-0.18,0.15-0.26,0.21l-0.54,0.4l0.91-0.51c0.83,0.88,1.43,1.76,1.74,2.52
			c-0.66,0.68-1.68,1.33-2.84,1.77C963.46,675.22,963.45,675.14,963.43,675.07z M952.88,637.62l-0.04,0.04
			c0.02-0.02,0.04-0.04,0.06-0.05C952.89,637.62,952.88,637.62,952.88,637.62z M976.72,614.46c-1.39,0.98-2.75,2.08-4.1,3.24
			c-0.19,0.11-0.38,0.24-0.57,0.36C973.6,616.72,975.17,615.52,976.72,614.46z M979.47,612.71c-0.64,0.38-1.28,0.79-1.93,1.22
			C978.19,613.5,978.84,613.09,979.47,612.71z M931.69,637.8c0.53,0.36,0.92,0.87,1.16,1.51c-0.27-0.23-0.52-0.47-0.81-0.63
			c-0.15-0.28-0.29-0.54-0.44-0.76C931.62,637.88,931.66,637.84,931.69,637.8z M888.07,672.19c-3.14,1.21-6.64,2.72-10.49,4.16
			c0.1-0.1,0.18-0.19,0.24-0.31c-0.11-0.04-0.25-0.05-0.36-0.08c0.04-0.03,0.07-0.07,0.11-0.11c1.31-0.37,2.24-0.95,2.36-1.72
			c2.98-0.43,5.64-1.14,7.78-1.96C887.83,672.18,887.94,672.19,888.07,672.19z M877.6,674.4c-0.79,0.17-1.62,0.34-2.49,0.51
			c0-0.03,0.01-0.05,0.01-0.08l0.29-0.05l-0.21,0.02c0.21-0.09,0.37-0.18,0.57-0.27C876.39,674.49,877,674.44,877.6,674.4z
			 M863.83,673.11c-0.15-0.04-0.29-0.06-0.44-0.09l-0.34-0.11l0.21,0.08c-0.66-0.12-1.19-0.17-1.54-0.11
			c-2.09-0.78-4.19-1.72-6.25-2.79C858.09,671.33,860.9,672.39,863.83,673.11z M876.61,678.57l0.03,0.02
			c-0.05,0.01-0.09,0.02-0.14,0.02C876.54,678.59,876.58,678.58,876.61,678.57z M878.43,677.75c1.27,0.03,2.53,0,3.8-0.1
			c-1.75,0.31-3.4,0.58-4.88,0.82c-0.13-0.03-0.26-0.04-0.38-0.07C877.47,678.19,877.95,677.97,878.43,677.75z M933.22,641.86
			c-0.17-0.7-0.38-1.35-0.61-1.94c0.2,0.24,0.4,0.47,0.55,0.71C933.2,641.02,933.22,641.43,933.22,641.86z M874.8,677.35l-0.29-0.01
			c0.35-0.07,0.67-0.15,0.97-0.23C875.25,677.19,875.03,677.27,874.8,677.35z M864.15,673.19c0.76,0.18,1.53,0.35,2.31,0.49
			c2.19,0.49,4.35,0.73,6.45,0.81c-0.62,0.15-1.25,0.28-1.9,0.37c-0.11-0.01-0.22-0.04-0.33-0.05
			C868.57,674.43,866.07,673.65,864.15,673.19z M913.02,664.7c-0.85,0.67-1.61,1.31-2.19,1.9c0.27-0.04,0.58-0.12,0.88-0.18
			c-3.18,1.68-6.83,3.61-10.81,5.3c-8.17,3.32-16,4.24-20.17,5.59l0.37,0.04c0.33,0.1,0.72,0.18,1.11,0.26
			c-1.11,0.01-2.22-0.01-3.33-0.09c3.93-1.84,7.4-3.77,10.48-5.37C895.39,671.87,904.12,669.49,913.02,664.7z M944.39,647.43
			c0.45-0.36,0.91-0.75,1.39-1.15l0.3-0.11l-0.03,0.02l-1.38,1.09C944.58,647.33,944.48,647.38,944.39,647.43z M950.99,641.85
			c-1.5,1.61-3.03,3-4.64,4.12c-0.11,0.04-0.24,0.1-0.35,0.14C947.53,644.82,949.21,643.4,950.99,641.85z M983.87,612.57
			c-2.42,1.07-4.91,2.41-7.4,3.95c0.24-0.2,0.44-0.36,0.62-0.52C979.44,614.55,981.76,613.44,983.87,612.57z M982.75,614.72
			c-8.03,4.58-16.17,11.74-23.91,18.9c3.42-3.8,7.33-7.87,11.7-11.19C974.67,619.17,978.97,616.65,982.75,614.72z M949.14,643.93
			c-0.48,0.5-0.92,0.98-1.37,1.46c-0.37,0.15-0.74,0.3-1.1,0.44l2.02-1.52C948.83,644.22,948.99,644.05,949.14,643.93z
			 M953.18,639.96c0.26-0.22,0.52-0.46,0.79-0.69c-0.34,0.32-0.67,0.62-1,0.92C953.04,640.12,953.12,640.03,953.18,639.96z
			 M947.6,645.58c-0.06,0.06-0.11,0.12-0.16,0.18c-0.83,0.45-1.65,0.9-2.46,1.35l1.4-1.06L947.6,645.58z M915.45,672.07
			c5.83-0.68,13.71-3.64,22.18-7.39l2.27-0.57l-1.19,0.63c-3.62,1.21-6.94,2.57-9.71,3.65l-3.07,1.22l5.49-2.04
			c4.16-1.49,14.28-4.65,24.05-4.46c0.14,0,0.27,0,0.41,0c-0.08,0.06-0.18,0.14-0.27,0.2c-1.68-0.11-3.39,0-5.02,0.36
			c-8.36,0.96-16.31,4.03-22.06,5.97l-2.89,0.96l5.16-1.57c3.88-1.13,13.29-3.9,22.24-4.11c1.97-0.22,3.75-0.09,5.37,0.24l-0.1,0.07
			l0.11-0.06c0.91,0.19,1.79,0.44,2.58,0.76c-0.26,0.21-0.48,0.39-0.71,0.57c-2.69-1.08-5.73-1.53-8.21-0.69
			c-5.07,0.44-9.96,1.77-14.28,3.08c-1.35,0.24-2.67,0.51-3.9,0.79c-7.54,0.46-13.73,2.8-17.77,4.56h-1.23l1.1,0.05
			c-0.58,0.26-1.12,0.5-1.61,0.72c-1.37,0.04-2.72,0.11-4.06,0.21C912.08,674.32,913.79,673.25,915.45,672.07z M930.61,675.95
			c0.26-0.03,0.51-0.06,0.78-0.09c0.56-0.05,1.12-0.1,1.64-0.16c1.61,0.07,3.27,0.19,4.97,0.44c-2.42-0.22-4.76-0.24-6.91-0.11
			C930.93,676.01,930.77,675.97,930.61,675.95z M934.59,669.66c0.47-0.08,0.96-0.15,1.47-0.21c-0.19,0.06-0.41,0.13-0.61,0.18
			C935.17,669.65,934.87,669.65,934.59,669.66z M948.57,677.06c0.88,0.22,1.68,0.51,2.43,0.85c-0.99-0.35-1.97-0.64-2.9-0.87
			C948.27,677.04,948.41,677.05,948.57,677.06z M945.79,676.81c0.23,0.03,0.45,0.06,0.68,0.08c0.51,0.11,1.2,0.43,1.97,0.85
			c-0.12-0.02-0.26-0.05-0.37-0.06C947.32,677.32,946.55,677.08,945.79,676.81z M957.38,683.3c0.02,0.05,0.04,0.11,0.06,0.15
			c-0.46-0.4-0.95-0.77-1.5-1.13c0.16,0,0.33,0.04,0.47-0.01c-0.04-0.12-0.12-0.24-0.18-0.36c0.02,0,0.04,0,0.06,0
			C956.69,682.42,957.06,682.87,957.38,683.3z M968.17,670.27c-0.1-0.25-0.22-0.49-0.36-0.72c0.76-0.33,1.52-0.7,2.23-1.08
			c0.28,0.34,0.52,0.67,0.71,0.99c-0.44,0.24-0.88,0.44-1.33,0.53l-0.66,0.22l1.18-0.24c0.26,0,0.59-0.05,0.96-0.14
			c0.18,0.4,0.3,0.79,0.33,1.17C970.21,670.93,969.16,670.65,968.17,670.27z M971.28,669.17c-0.07-0.42-0.2-0.82-0.37-1.21
			c0.4-0.25,0.73-0.51,0.99-0.78c0.37,0.28,0.71,0.56,1.02,0.84C972.37,668.44,971.83,668.83,971.28,669.17z M975.93,669.17
			c-0.22-0.36-0.46-0.7-0.73-1.01c0.1-0.06,0.2-0.12,0.3-0.17c0.2,0.37,0.36,0.75,0.5,1.1
			C975.98,669.12,975.96,669.15,975.93,669.17z M977.57,665.5c-0.08-0.49-0.21-0.96-0.4-1.43c0.04-0.04,0.1-0.09,0.13-0.14
			c0.37,0.37,0.7,0.7,0.97,0.98c-0.11,0.29-0.22,0.6-0.37,0.91c0.04-0.12,0.12-0.26,0.1-0.37
			C977.86,665.43,977.72,665.48,977.57,665.5z M969.31,657.56c-0.27-0.08-0.53-0.17-0.8-0.24c0.05-0.02,0.13-0.03,0.18-0.05
			C968.89,657.37,969.1,657.46,969.31,657.56z M951.83,661.39c0.75-0.09,1.51-0.14,2.28-0.17c-1.05,0.17-2.06,0.37-3.06,0.58
			C951.29,661.65,951.54,661.52,951.83,661.39z M963.27,662.72c0.07-0.03,0.12-0.06,0.19-0.09c0.46,0.18,0.92,0.35,1.36,0.54
			l-0.04,0.03l0.05-0.02c0.03,0.01,0.06,0.03,0.06,0.03l-0.04,0.05C964.35,663.05,963.81,662.88,963.27,662.72z M969.6,666.07
			c0.14-0.07,0.28-0.14,0.41-0.21c0.28,0.18,0.55,0.36,0.83,0.55c-0.24,0.08-0.48,0.16-0.72,0.28
			C969.96,666.48,969.79,666.27,969.6,666.07z M968.57,665.19c-0.56-0.42-1.2-0.78-1.87-1.13c0.01-0.01,0.03-0.01,0.03-0.01
			c0.7,0.33,1.36,0.68,1.99,1.04C968.66,665.11,968.61,665.15,968.57,665.19z M968.22,663.22c0.13-0.09,0.24-0.18,0.35-0.28
			c0.23-0.09,0.48-0.19,0.73-0.29c0.29,0.1,0.55,0.2,0.81,0.32c-0.32,0.27-0.62,0.53-0.89,0.77
			C968.89,663.57,968.55,663.4,968.22,663.22z M962.42,660.14c0.04,0,0.07-0.01,0.07-0.01c-0.07,0.08-0.17,0.15-0.28,0.23
			c-0.06,0-0.13,0-0.19-0.01C962.15,660.28,962.28,660.21,962.42,660.14z M965.1,660.33c-0.07,0-0.14,0-0.2,0
			c0.46-0.2,0.84-0.44,1.1-0.71c0.13-0.04,0.25-0.07,0.36-0.11C965.95,659.78,965.52,660.04,965.1,660.33z M970.02,659.32
			c0.14,0.05,0.27,0.1,0.4,0.15c-0.41,0.09-0.83,0.23-1.24,0.44c0.08-0.12,0.14-0.26,0.16-0.39c0.11-0.07,0.21-0.13,0.3-0.2
			C969.77,659.32,969.89,659.32,970.02,659.32z M971.4,662c-0.1-0.05-0.19-0.1-0.29-0.14c0.66-0.32,1.26-0.66,1.72-1.01
			c0.1,0.08,0.21,0.15,0.3,0.23C972.54,661.3,971.96,661.62,971.4,662z M966.6,662.41c-0.04-0.01-0.07-0.03-0.1-0.04
			c0.21-0.07,0.41-0.15,0.65-0.22c0.08,0.01,0.15,0.02,0.21,0.03C967.11,662.25,966.86,662.3,966.6,662.41z M966.02,662.16
			c-0.12-0.06-0.25-0.11-0.37-0.16c0.18,0.01,0.35,0.02,0.51,0.03C966.13,662.08,966.07,662.12,966.02,662.16z M957.63,659.91
			c0.13-0.06,0.21-0.13,0.31-0.19c0.28-0.01,0.56-0.02,0.84-0.03c-0.24,0.09-0.48,0.18-0.72,0.27
			C957.93,659.94,957.78,659.92,957.63,659.91z M971.17,663.49c-0.37,0.23-0.75,0.48-1.13,0.72c-0.16-0.1-0.33-0.19-0.5-0.29
			c0.41-0.18,0.92-0.34,1.49-0.51C971.08,663.44,971.12,663.47,971.17,663.49z M962.21,662.44c-0.02,0-0.04-0.01-0.04-0.01
			c0.01-0.02,0.07-0.04,0.12-0.05C962.26,662.4,962.23,662.42,962.21,662.44z M960.09,662.01c0.33-0.04,0.64-0.07,0.95-0.11
			c0.37,0.1,0.74,0.18,1.12,0.3c-0.1,0.06-0.19,0.11-0.28,0.16C961.29,662.23,960.69,662.11,960.09,662.01z M965.47,656.21
			c0.16,0,0.32,0.01,0.49,0.03c-0.29,0.01-0.6,0.03-0.91,0.06C965.19,656.27,965.33,656.24,965.47,656.21z M974.42,664.18
			c-0.18-0.17-0.36-0.33-0.55-0.49c0.4-0.25,0.75-0.5,1.07-0.74c0.16,0.22,0.33,0.44,0.48,0.65
			C975.09,663.76,974.75,663.96,974.42,664.18z M973.28,665.04c-0.27,0.22-0.53,0.44-0.79,0.67c-0.06-0.04-0.11-0.09-0.17-0.13
			c-0.27-0.17-0.56-0.33-0.83-0.51c0.39-0.21,0.76-0.42,1.13-0.62C972.85,664.64,973.07,664.84,973.28,665.04z M967.22,668.63
			c-0.25-0.33-0.53-0.66-0.84-0.96c0.58-0.28,1.2-0.59,1.83-0.89c0.26,0.19,0.51,0.39,0.74,0.59
			C968.36,667.74,967.78,668.17,967.22,668.63z M965.82,667.14c-0.74-0.66-1.61-1.24-2.57-1.74c0.49-0.18,1-0.37,1.51-0.57
			c0.91,0.39,1.74,0.82,2.47,1.28C966.75,666.46,966.29,666.8,965.82,667.14z M962.33,664.94c-0.66-0.3-1.35-0.55-2.07-0.77
			c0.28-0.14,0.6-0.3,0.96-0.48c0.71,0.16,1.39,0.35,2.04,0.57C962.94,664.49,962.63,664.71,962.33,664.94z M959.99,664.09
			c-1.34-0.4-2.77-0.64-4.21-0.74l0.38-0.21c1.6,0,3.13,0.15,4.54,0.44C960.45,663.76,960.22,663.92,959.99,664.09z M938.81,664.72
			l1.55-0.72c2.1-0.51,5.61-1.7,9.7-2.38l-0.57,0.25l1.07-0.31c0,0,0.07-0.02,0.1-0.03c0.09-0.01,0.19-0.02,0.28-0.04
			c-0.18,0.15-0.33,0.28-0.49,0.42c-0.31,0.07-0.62,0.13-0.91,0.19C945.78,662.62,942.16,663.6,938.81,664.72z M941.59,663.43
			l1.65-0.77c1.96-0.77,5.56-1.96,9.81-2.85c-0.35,0.18-0.65,0.37-0.94,0.55C948.29,661.06,944.75,662.37,941.59,663.43z
			 M940.55,663.77c-0.84,0.27-1.64,0.5-2.42,0.69c2.09-0.93,4.2-1.9,6.33-2.89c4.46-1.83,8.88-3.19,13.05-4.23
			c-0.1,0.1-0.19,0.2-0.28,0.31c-0.66,0.15-1.34,0.44-2.01,0.79c-0.28,0.07-0.55,0.13-0.83,0.2l-0.88,0.01l0.69,0.04
			c-5.04,1.27-9.61,3.12-13.09,4.79L940.55,663.77z M975.77,655.74c-0.55,0.1-1.06,0.26-1.51,0.45c-1.94-0.47-4.19-0.52-6.26-0.44
			c1.32-0.21,2.67-0.38,4.05-0.48C973.58,655.11,974.79,655.31,975.77,655.74z M978.78,661.76c-1.04-1.65-2.74-3.03-4.97-3.3
			c-0.29-0.07-0.59-0.11-0.88-0.17c-0.48-0.26-0.98-0.49-1.47-0.7c0.04-0.11,0.08-0.21,0.09-0.3c-0.18,0.02-0.37,0.09-0.54,0.12
			c-0.54-0.22-1.08-0.4-1.62-0.54c0.02-0.02,0.06-0.04,0.07-0.05c3.18,0.65,6.64,1.64,8.35,2.11
			C978.37,659.69,978.73,660.64,978.78,661.76z M976.56,665.72c-0.22,0.08-0.45,0.16-0.67,0.27c-0.15-0.22-0.29-0.44-0.45-0.66
			c0.26-0.14,0.51-0.28,0.74-0.43C976.32,665.18,976.44,665.45,976.56,665.72z M974.16,667.09c-0.29-0.26-0.58-0.52-0.89-0.77
			c0.29-0.11,0.58-0.24,0.88-0.37c0.2,0.24,0.39,0.49,0.56,0.73C974.53,666.82,974.34,666.95,974.16,667.09z M966.29,669.4
			c-0.58-0.32-1.1-0.63-1.56-0.93c0.11-0.06,0.23-0.11,0.36-0.17c0.45,0.36,0.85,0.72,1.22,1.08L966.29,669.4z M964.89,669.34
			c-0.22-0.2-0.45-0.4-0.7-0.6c0.16-0.08,0.34-0.17,0.52-0.26l0.15,0.22C964.84,668.9,964.85,669.12,964.89,669.34z M963.92,668.52
			c-0.99-0.75-2.16-1.41-3.43-1.93l0.05-0.03c0.22-0.14,0.51-0.29,0.87-0.45c1.24,0.53,2.33,1.17,3.26,1.86
			C964.41,668.16,964.16,668.35,963.92,668.52z M976.77,667.99c-0.06-0.23-0.12-0.45-0.2-0.67c0.16-0.11,0.33-0.22,0.45-0.33
			c0.04,0.12,0.07,0.24,0.1,0.35C977.01,667.56,976.89,667.78,976.77,667.99z M973.61,670.75c-0.75,0.25-1.54,0.31-2.33,0.26
			c0.08-0.44,0.1-0.87,0.07-1.29c0.73-0.2,1.57-0.5,2.43-0.87c0.4,0.43,0.74,0.84,0.98,1.23
			C974.36,670.28,973.99,670.51,973.61,670.75z M953.82,677.67c0.12,0.14,0.24,0.28,0.36,0.43c-0.65-0.39-1.32-0.74-2.05-1.05
			c-0.02-0.01-0.03-0.02-0.04-0.04C952.66,677.24,953.24,677.46,953.82,677.67z M959.23,690.53c-0.15-0.37-0.28-0.75-0.45-1.12
			c0.11,0.09,0.24,0.19,0.36,0.24C959.18,689.94,959.21,690.23,959.23,690.53z M951.28,705.72c-3.14,1.61-6.57,2.08-9.46,1.29
			c5.83-1.69,14.65-6.4,11.5-15.88c-2.85-10.14-15.25-12.87-24.8-13.26c-8.71-0.96-17.39-0.33-25.64,0.61c1.8-0.61,3.6-1.34,5.4-2.2
			c2.24-0.08,4.54-0.11,6.9-0.07l-0.76,0.07l1.6-0.05c-0.35,0.07-0.72,0.15-1.03,0.21l-1.16,0.21l2.08-0.22
			c0.67-0.06,1.83-0.09,3.2-0.11c2.18,0.1,4.4,0.27,6.63,0.49l-2.34,0.23l2.8-0.19c4.41,0.44,8.87,1.11,13.24,2.06
			c10.9,1.96,18.96,11.88,15.76,20.28C954.43,702.26,952.94,704.32,951.28,705.72z M883.53,680.73c-0.62,0.05-1.24,0.1-1.84,0.15
			c0.39-0.07,0.77-0.18,1.15-0.26C883.07,680.65,883.29,680.69,883.53,680.73z M880.21,680.95c-2.55,0.12-5,0.14-7.31-0.04
			l-1.72-0.21c1.38-0.48,2.73-0.99,4.01-1.53c0.98,0.11,2.06,0.21,3.25,0.28c1.05,0.41,2.21,0.75,3.48,1
			C881.35,680.61,880.78,680.78,880.21,680.95z M872.76,678.02c0.18-0.15,0.34-0.31,0.47-0.47c0.34-0.05,0.68-0.1,0.99-0.16
			c0.11,0.02,0.22,0.03,0.33,0.04C873.96,677.63,873.36,677.83,872.76,678.02z M858.25,672.9c-3.41-1.58-6.84-3.56-10.05-5.75
			c0.41,0.2,0.84,0.4,1.25,0.59c2.4,1.62,5.05,3.14,7.73,4.46l0.98,0.61C858.19,672.84,858.22,672.87,858.25,672.9z M838.73,659.19
			l3.53,2.96c0.25,0.17,0.6,0.38,0.91,0.57c1.62,1.61,3.65,3.22,5.9,4.76c-0.44-0.21-0.88-0.4-1.31-0.63
			C844.34,664.46,841.23,661.82,838.73,659.19z M853.05,659.41c-2.07-0.16-4.3-0.45-6.62-1.01c-1.66-0.7-3.37-1.59-5.06-2.7
			c-1.57-1.36-3.13-3.07-4.45-5.02c-0.03-0.24-0.07-0.47-0.11-0.7c0.66,1,1.45,1.9,2.34,2.7c3.47,4.17,8.92,6.06,13.62,6.68
			C852.86,659.37,852.95,659.39,853.05,659.41z M852.88,630.36c0.14,1.15,0.17,2.22,0.1,3.22c-0.7-1.8-2.02-3.45-4.02-4.46
			c-5.04-3.82-13.36-0.27-15.04,5.99c-2.67,6.55-0.62,12.41,3.06,16.83c0.04,0.19,0.08,0.37,0.13,0.55
			c-5.83-5.14-7.86-15.23-1.13-21.52C840.52,623.42,850.98,624.07,852.88,630.36z M837.17,652.57c-0.03-0.17-0.06-0.33-0.08-0.5
			c0.46,0.53,0.93,1.06,1.42,1.54c-0.03-0.03-0.07-0.06-0.07-0.06C837.98,653.23,837.56,652.91,837.17,652.57z M836.78,649.94
			c0.01,0.21,0.04,0.42,0.05,0.63c-3.34-5.01-4.93-11.57,0.02-17.74c3.57-5.42,10.82-4.05,13.77-0.53
			c-0.59-0.55-1.28-1.02-2.12-1.36c-5.15-1.51-11.59,1.26-13.72,6.79c-1.56,4.36-0.78,7.86,1.14,10.68
			C836.17,648.95,836.45,649.46,836.78,649.94z M846.13,632.92c-4.41-0.4-9.58,2.6-10.69,7.64c-0.22,0.75-0.35,1.48-0.43,2.19
			c-0.11-2.2,0.55-4.55,2.48-7.02c3.62-4.02,10.73-5.12,13.07-1.41c1.08,1.45,1.38,2.82,1.32,4.01c-0.16,0.37-0.3,0.73-0.48,1.06
			C851.51,636.65,850.24,633.17,846.13,632.92z M843.56,657.6c-1.24-0.4-2.5-0.84-3.77-1.41c-0.36-0.11-0.69-0.27-1.04-0.41
			c-0.24-0.41-0.51-0.83-0.71-1.24l-0.33-0.51c0.78,0.62,1.59,1.17,2.4,1.63C841.23,656.39,842.39,657.02,843.56,657.6z
			 M838.35,655.62c-0.31-0.54-0.59-1.09-0.84-1.65c-0.02-0.05-0.02-0.1-0.04-0.15c0.02,0.02,0.05,0.04,0.07,0.06l1.15,1.87
			C838.58,655.71,838.47,655.67,838.35,655.62z M839.38,657.01c0.02,0.13,0.07,0.26,0.11,0.38c-0.11-0.16-0.22-0.31-0.32-0.47
			C839.24,656.96,839.31,656.97,839.38,657.01z M848.71,643l-0.03,0.09c-0.35,0.18-0.66,0.31-0.91,0.36
			C848.09,643.33,848.4,643.17,848.71,643z M848.75,642.98c0.12-0.07,0.25-0.15,0.36-0.22c0.05,0,0.09,0,0.14-0.01
			c-0.18,0.12-0.35,0.22-0.52,0.31C848.74,643.03,848.75,643,848.75,642.98z M850.46,641.7c0,0.04,0,0.07,0,0.1
			c-0.36,0.35-0.72,0.63-1.07,0.87c-0.06,0.01-0.13,0.03-0.2,0.04C849.64,642.41,850.06,642.08,850.46,641.7z M837.2,639.72
			c0.17-0.36,0.33-0.72,0.55-1.08c2.42-3.99,8.13-5.22,10.82-3.42c1.47,1.07,1.89,2.52,2.06,3.8
			C848.35,635.91,840.55,635.91,837.2,639.72z M893.37,625.51l0.23,0.11c0.16,0.18,0.34,0.36,0.55,0.54c-0.03,0-0.05,0-0.08,0h-0.02
			C893.82,625.94,893.6,625.72,893.37,625.51z M891.06,600.66c3.51-0.94,8.41-1.93,13.35-0.75c2.9,0.76,4.97,2.87,6.63,5.17
			c-0.75,0.41-1.48,0.9-2.19,1.43c-2.3-2.56-7.22-4.94-12.29-3.85c-4.97,0.44-8.96,3.09-10.73,4.96
			C886.63,604.79,888.52,602.43,891.06,600.66z M911.58,604.82c-1.65-2.75-4.19-5.8-8.41-6.64c-2.24-0.55-4.39-0.51-6.29-0.21
			c2.3-0.66,4.74-0.96,7.2-0.87c3.09,1.65,7.06,3.92,10,6.79C913.24,604.09,912.41,604.41,911.58,604.82z M915.31,605.22
			c0.85,1,1.56,2.07,2.05,3.19c-1.09,0.2-2.2,0.55-3.3,1.02l-0.17-0.27c-0.41-0.66-0.97-1.9-1.72-3.3
			C913.26,605.42,914.32,605.24,915.31,605.22z M913.94,609.5c-1.14,0.51-2.24,1.16-3.27,1.86l-0.48-2.38
			c-0.06-0.5-0.33-1.05-0.69-1.6c0.51-0.36,1.04-0.7,1.59-0.98c0.23-0.14,0.45-0.22,0.68-0.33
			C912.55,607.28,913.27,608.46,913.94,609.5z M917.4,602.75c0.65,0.61,1.22,1.23,1.77,1.87c-1.23-0.8-2.57-1.07-3.98-0.94
			c-1.96-2.31-4.68-4.54-7.2-6.09C911.49,598.37,914.8,600.03,917.4,602.75z M922.09,608.92c-1.24-0.64-2.71-0.77-4.26-0.57
			c-0.2-0.97-0.72-2.01-1.44-3.09c1.55,0.11,2.82,0.42,3.53,0.27C920.76,606.62,921.49,607.75,922.09,608.92z M842.93,661.17
			c-0.43-0.43-0.8-0.88-1.2-1.32l5.9,1.9c6.02,1.28,21.43,2.11,34.24-4.28c13.66-5.49,19.34-18.99,19.41-21.44
			c-4.93,17.08-38.59,31.76-57.06,24.53l-2.53-0.77c-0.8-0.9-1.53-1.81-2.16-2.73c0.95,0.38,1.92,0.69,2.9,0.88
			c1.28,0.39,2.56,0.69,3.82,0.95c1.34,0.59,2.64,1.03,3.81,1.25l0.98,0.1c3.29,0.72,6.5,0.9,9.35,0.54
			c1.06-0.15,2.08-0.42,3.08-0.77c-2.49,0.8-5.19,0.97-7.79,0.75c-0.6-0.04-1.31-0.13-2.04-0.25c0.27,0.02,0.52,0.05,0.8,0.07
			l-0.95-0.09c-1.33-0.22-2.83-0.58-4.45-1.1c6.6,0.91,12.91,0.28,18.11-0.9c1.24-0.29,2.46-0.68,3.66-1.12
			c-1.95,0.69-3.99,1.18-6.03,1.52c1.27-0.28,2.52-0.61,3.73-1.02c1.32-0.32,2.58-0.72,3.83-1.14c-0.51,0.22-1,0.45-1.52,0.64
			c0.54-0.19,1.06-0.43,1.58-0.66c10.33-3.48,18.32-10.16,23.35-17.41c5.91-6.53,8.42-19.87-0.03-19.27c3.38,0.53,4.4,2.8,3.98,5.72
			c-0.07-0.13-0.18-0.25-0.33-0.37c0.06-0.72-0.2-1.54-0.86-2.44l0.16,1.31c0.11,0.56,0.12,1.03,0.06,1.43h-0.06
			c-0.01-0.03,0.01-0.05,0-0.07c-0.33-0.19-0.65-0.25-0.98-0.25c-0.61-0.59-1.54-0.03-2.33-0.9l-0.2-0.15l0.22,0.35
			c-0.11,0.24,0.09,0.66,0.42,1.05h-0.01c-0.99-0.31-2.05-0.51-2.93-1.33l-0.35-0.24l0.49,0.51c0.03,0.23,0.23,0.54,0.51,0.87
			l-0.18-0.05c-0.99-0.93-1.93-1.9-2.56-2.97l-0.37-0.53l0.53,1.02c-0.01,0.69,0.71,2.1,1.69,3.42c-0.17-0.12-0.33-0.26-0.49-0.38
			c-1.55-1.68-3.16-3.58-3.62-5.59l-0.25-0.71l0.3,1.29c-0.2,0.78,0.29,2.27,1.09,3.77c-0.01-0.02-0.02-0.02-0.03-0.04l-0.4-0.4
			l0.17,0.24c-0.04-0.04-0.1-0.08-0.14-0.12c-2.1-1.28-3.29-3.62-3.83-6.35c3.47-2.37,10.03-3.49,14.43-1.04l1.04,0.37l-1.79-0.79
			c-1.32-0.48-4.49-2.68-8.1-2.26c-3.08-0.08-4.98,2.17-5.63,3.33c-0.45-2.6-0.37-5.48,0.07-8.12c0.03-0.4,0.14-0.76,0.22-1.14
			c4.86-3.58,17.73-7.26,22.84-1.71c-3.13,2.42-5.75,5.74-6.72,8.08l-0.92,1.25l1.76-2.12c1.13-1.26,3.54-4.21,6.54-6.36
			c0.56,0.84,1.02,1.82,1.25,3.01l0.18,0.77c-2.42,1.68-4.39,3.74-5.13,5.52l-0.84,1.23l1.61-2.08c0.69-1.43,2.44-2.74,4.57-3.79
			l0.1,0.43l-0.08-0.44c1.22-0.6,2.57-1.11,3.94-1.51l1.03,1.54l-0.95-1.56c1.02-0.3,2.05-0.54,3.03-0.7
			c0.07,0.31,0.15,0.62,0.19,0.95l0.41,1.57l-0.53-2.52c1.82-0.3,3.46-0.35,4.64-0.08c0.82,1.81,1.35,3.67,1.65,5.56
			c-4.08-4.96-13.93,1.67-17.08,4.49l-1.1,0.76l2.04-1.22c2.85-2.69,13.38-5.44,16.2-3.69c0.19,1.33,0.3,2.67,0.27,4.01
			c-2.71-3.26-11.77,0.42-13.75,2.38l-1.01,0.6l1.86-0.92c2.52-1.77,10.23-2.6,12.8-0.76c-0.09,1.43-0.3,2.85-0.61,4.27
			c-1.94-4.72-11.31-1.46-14.2-0.4l-1.09,0.22l1.97-0.24c3-1.12,11.04-1.01,13.18,1.03c-0.34,1.4-0.76,2.78-1.27,4.12
			c-0.96-4.34-9.37-3.07-11.75-1.59l-0.91,0.23l1.64-0.26c2.82-1.18,9.25,0.34,10.75,2.26c-0.46,1.13-0.96,2.23-1.52,3.3
			c-2.81-4.17-10.94-1.15-14.5-0.27l-1,0.22l1.8-0.23c3.14-0.91,11.99,0.08,13.68,0.33c-0.88,1.66-1.85,3.23-2.9,4.68
			c-2.08-4.29-10.59-2.17-13.62-1.21l-1.02,0.18l1.83-0.16c2.83-0.88,10.08,0.16,12.47,1.63c-0.35,0.46-0.7,0.93-1.07,1.37
			c-2.79,3.74-5.71,7-8.6,9.85c-2.08-1.15-5.5-0.34-7.71-1.14l-0.58-0.13l0.95,0.37c0.86,0.69,4.29,1.96,6.32,1.87
			c-0.42,0.4-0.83,0.79-1.24,1.17c-0.95-0.27-1.27,0.98-2.19,1.24l-0.22,0.09l0.37-0.01c0.08,0.04,0.26,0.09,0.46,0.13
			c-0.04,0.04-0.08,0.07-0.12,0.11c-2.12-0.11-4.88-0.21-6.87-1.24l-0.56-0.24l0.91,0.55c0.4,0.84,2.92,1.96,5,2.23
			c-0.37,0.31-0.73,0.62-1.1,0.92c-0.84-0.68-1.13,0.08-1.36,0.74c-0.1-0.01-0.21-0.01-0.3,0.02c-1.81-0.15-4.14,0.12-5.93-1.17
			c0.97-1.18,1.51-2.17,1.54-2.73c-0.55,0.87-1.25,1.66-2.01,2.42l-0.23-0.15l0.2,0.18c-9.63,9.6-34.47,11.15-47.11,6.54
			L842.93,661.17z M870.63,670.91c-2.95,0.29-5.84,0.34-8.63,0.11c-4.43-1.16-8.7-2.82-12.48-4.97c5,2.24,11.57,4.4,18.35,4.68
			C868.81,670.85,869.72,670.89,870.63,670.91z M931.16,638.57c0.07,0.05,0.15,0.11,0.22,0.17c-0.01,0.15-0.01,0.31-0.02,0.48
			c-0.1-0.08-0.18-0.19-0.29-0.26c0.13,0.15,0.21,0.32,0.28,0.51c-0.03,0.84-0.09,1.77-0.17,2.74c-0.17,0.59-0.43,1.23-0.73,1.92
			c-3.03,5.23-9.13,11.08-17.54,15.83c-7.62,4.42-14.94,7.62-20.62,9.83c0.43-0.35,0.74-0.68,0.88-0.96
			c-3.7,2.6-9.17,3.93-15.28,4.1c0.12-0.17,0.27-0.34,0.34-0.53c-0.33,0.21-0.69,0.37-1.02,0.54c-4.49,0.07-9.29-0.48-13.97-1.6
			c10.46,0.64,26.48-1.9,39.81-9.53C916.58,655.02,926.77,644.72,931.16,638.57z M931.29,638.39c0.04-0.06,0.07-0.11,0.11-0.16
			c0,0.07-0.01,0.14-0.01,0.2C931.35,638.41,931.32,638.4,931.29,638.39z M933.53,638.24c-0.5-0.33-1.08-0.53-1.74-0.58
			c0.28-0.42,0.52-0.81,0.73-1.17C932.97,637,933.29,637.59,933.53,638.24z M935.7,650.79c5.77-4.13,11.84-9.09,17.84-14.92
			c-4.29,4.72-8.41,8.96-12.3,11.66l-3.66,2.54l6.57-4.39c2.08-1.54,5.04-4.35,8.46-7.8l-2.12,2.13l4.34-4.14
			c0.4-0.49,0.89-1.07,1.43-1.71c2.08-2.14,4.25-4.41,6.47-6.71c0.07-0.06,0.14-0.12,0.21-0.18c-5.49,6.03-10.49,12.17-14.68,15.92
			l-3.04,2.44l3.7-2.85c-1.51,1.37-3,2.69-4.45,3.94l-3.74,1.52l3.6-1.39c-0.79,0.67-1.56,1.31-2.32,1.93
			c-2.3,1.31-4.56,2.64-6.77,3.96C935.41,652.1,935.57,651.45,935.7,650.79z M967.89,636.08c-1.57,0.62-3.13,1.27-4.67,1.94
			c15.17-7.73,36.63-18.56,47.52-19.87c-11.42-0.55-25.23,6.54-38.26,13.99c13.71-8.15,29.03-16.38,37.3-18.01
			c-15.23,0.73-34,14.15-49.75,25.13c-0.65,0.37-1.31,0.74-1.96,1.09c-1.45,0.69-2.88,1.38-4.29,2.09
			c16.42-11.42,40.69-28.52,51.86-31.36c-10.11,1.11-22.65,8.03-32.98,17.07c-7.39,5.7-15.18,11.18-22.33,16.06
			c-0.4,0.21-0.78,0.42-1.17,0.62c-0.23,0.11-0.45,0.17-0.67,0.27c0.42-0.34,0.84-0.69,1.23-1.08c4-4.25,14.93-12.5,25.53-19.74
			c10.77-6.66,22.14-11.32,23.7-13.58c-10.98,3.18-27.72,13.93-40.37,24.53c3.55-3.11,7.28-6.35,10.97-9.47
			c11.54-10.52,25.34-14.49,28.05-15.97c-2.51,0.08-5.07,0.63-7.65,1.54c1.6-0.71,2.79-1.23,3.36-1.6c-1.25,0.14-2.6,0.46-3.98,0.85
			c1.43-0.47,2.48-0.81,2.99-1.12c-4.15-0.55-8.27,0.65-12.3,2.91c5.17-3.05,9.51-4.63,10.82-5.45c-5.16,0.19-10.22,2.77-15.16,6.54
			c4.68-4.49,8.96-8.11,11.45-9.08c-6.09,1.32-11.99,6.63-17.46,12.88c1.25-1.72,2.47-3.5,3.66-5.33
			c6.01-5.47,11.92-10.12,15.11-11.04c-3.97,0.51-7.92,2.68-11.74,5.78c4.09-6.4,9.25-12.91,14.04-9.14
			c3.36,0.73-1.05,6.6,5.19,10.31c4.64,1.32,8.45,0.22,11.88-0.16c7.15-2.27,10.75,4.96,10.1,10.07c-0.27,2.14-1.21,3.95-2.48,5.36
			C1002.44,617.65,983.48,627.67,967.89,636.08z M1069.53,688.26c-6.25-23.65-24.01-44.12-44.92-53.47
			c-17.35-5.84-34.32-2.37-48.97,1.41c3.22-1.03,6.51-1.98,9.89-2.78c11.42-3.03,24.17-3.78,36.29-0.72
			c11.92,3.73,22.33,12.64,30.63,23.23C1060.28,664.91,1066.5,676.23,1069.53,688.26z M1062.33,726.4c4.17-8.93,6.35-19,5.63-29.15
			c-4.72-37.62-41.08-65.04-70.62-64.83c10.21-1.06,22.13-0.43,33.99,6.39c19.41,12.8,39.41,37.03,37.92,64.24
			C1068.72,711.61,1066.16,719.44,1062.33,726.4z M1048.14,738.82c3.73-3.99,8.62-10.05,11.65-18.17
			c-1.54,6.99-9.17,19.85-21.1,27.59c4.04-3.06,7.49-6.76,10.14-10.43C1048.6,738.16,1048.36,738.5,1048.14,738.82z M1016.73,753.29
			c2.14-0.42,4.22-0.89,6.21-1.39c4.49,0.22,9.72-0.02,14.55-2.86C1030.6,754.27,1022.77,754,1016.73,753.29z M1015.8,745.41
			c1.77,0.96,3.74,1.65,5.81,1.99c-3.79-0.19-7.78-1.1-11.29-3.4c-3.8-2.88-6.83-7.56-5.92-10.79c0.74-1.79,2.27-2.52,3.57-2.97
			c-3.08,3.17-1.97,11.35,4.16,13.43C1013.32,744.41,1014.55,744.95,1015.8,745.41z M1002.92,733.57c-0.19,0.78-0.25,1.64,0.02,2.68
			c1.13,4.39,4.6,8.19,9.02,10.27c0.15,0.07,0.31,0.1,0.46,0.16c-0.59-0.15-1.18-0.25-1.75-0.44c-1.51-0.47-3.02-1.08-4.42-1.79
			c-3.04-2.45-6.14-5.68-5.48-9.3C1001.41,734.4,1002.27,733.93,1002.92,733.57z M1028.79,747.68c0.17,0.02,0.33,0.04,0.49,0.07
			l-1.52,0.2c-3.35,0.73-10.26,1.99-17.64,1.71c-0.12-0.04-0.23-0.08-0.36-0.12c4.28,0.22,8.79-0.24,12.42-0.84
			C1024.47,748.53,1026.69,748.18,1028.79,747.68z M1000.65,747.4c1.74,0.95,3.86,1.55,6.17,1.87c0.33,0.09,0.67,0.18,0.99,0.27
			c-1.09-0.09-2.18-0.21-3.27-0.39c-5.5-0.39-8.66-3.37-9.8-6.13C995.92,744.85,998.59,746.68,1000.65,747.4z M994.24,740.69
			c0-0.26,0.04-0.51,0.08-0.74c0.27-0.09,0.51-0.16,0.71-0.23C994.64,740.01,994.37,740.33,994.24,740.69z M1013.41,750.8
			c0.33,0.07,0.69,0.15,1,0.21l0.15,0.02c-3.44,0.33-7.02,0.51-10.56,0.4c-5.63-0.05-10.82-2.78-12.42-6.7
			c-1.13-2.68,0.37-3.84,1.85-4.45c-0.83,1.87-0.51,4.52,1.67,6.23c2.83,3.01,7.49,4.23,11.76,4.3
			C1009.06,751.01,1011.25,750.98,1013.41,750.8z M1029.7,747.81c0.29,0.04,0.6,0.07,0.88,0.12l0.54,0.07
			c-3.6,1.12-9.56,2.35-16.23,3l-1.06-0.24C1019.75,750.2,1025.29,748.57,1029.7,747.81z M1017.67,751.57
			c1.06,0.05,2.23,0.13,3.48,0.22c-2.48,0.4-5.24,0.77-8.1,1.03c-0.92-0.12-1.76-0.21-2.52-0.25
			C1012.95,752.32,1015.33,751.98,1017.67,751.57z M1012.84,753.97c2.05,0.28,4.29,0.58,6.63,0.77c-3.74-0.07-7.54-0.17-10.7-0.22
			C1010.14,754.37,1011.49,754.18,1012.84,753.97z M988.54,746.48c-0.04-0.02-0.08-0.04-0.12-0.05c-0.09-1.05,0.23-2.18,1.36-3.39
			c0.18-0.23,0.37-0.42,0.56-0.63c-0.64,1.94-0.26,4.38,2.01,6.11c3.55,3.81,9.49,4.75,14.68,4.36c0.32-0.02,0.63-0.06,0.95-0.08
			c-0.29,0.1-0.52,0.24-0.72,0.41c-5.67,0.22-11.04-0.08-14.46-1.29c0,0,0.03,0,0.05,0l-0.22-0.14c-1.22-0.88-2.7-2.05-3.55-3.44
			c0,0-0.01-0.05-0.01-0.07c0,0.02,0,0.05,0,0.05c-0.36-0.56-0.58-1.19-0.64-1.84C988.46,746.46,988.5,746.48,988.54,746.48z
			 M997.11,738.88c1.01,2.73,3.04,4.97,4.84,5.83c3.55,2.3,6.84,3.15,9.11,3.41l-0.34-0.21c-0.08-0.06-0.18-0.14-0.26-0.21
			c0.85,0.23,1.71,0.44,2.56,0.61c0.93,0.17,1.86,0.26,2.79,0.34c-4.74-0.25-10.11-1.1-14.07-2.49c-1.96-0.98-3.75-2.02-5-3.03
			c-0.26-0.7-0.45-1.45-0.51-2.29c-0.22,0.8-0.04,1.54,0.43,2.22c-1.8-1.49-2.37-2.9-0.5-3.92c-0.27,0.1-0.49,0.22-0.71,0.33
			c-0.28-0.11-0.55-0.18-0.83-0.22C995.5,738.92,996.33,738.8,997.11,738.88z M1006.06,730.08c-1.31,0.58-2.47,1.54-3,2.94
			c-0.6,0.04-1.2,0.25-1.76,0.58c0.11-0.22,0.19-0.43,0.32-0.65C1002.6,731.41,1004.24,730.5,1006.06,730.08z M1009.31,731.8
			c-0.65,0.14-1.03,0.52-1.29,1c0.38-1.24,0.99-2.28,1.58-2.96c2.07,0.18,3.97,0.9,5.07,1.97
			C1013.37,731.22,1011.43,730.82,1009.31,731.8z M1009.24,738.96c0.25,0.52,0.58,1.03,0.92,1.53c-2.01-1.94-2.58-4.05-2.45-5.92
			C1007.79,736.29,1008.64,738.3,1009.24,738.96z M1046.32,739.92c-2.96,3.18-6.77,6.53-11.1,8.65c-1.87,0.7-3.79,1.14-5.67,1.44
			c0.95-0.31,1.86-0.62,2.71-0.92l2.97-1.31c-1.71,0.85-3.55,1.46-5.42,1.98c-0.3,0.12-0.69,0.26-1.11,0.38
			c-2.28,0.31-4.44,0.43-6.35,0.5c3.37-0.75,6.51-1.64,9.34-2.58l1.38,0.17l-1.28-0.2c1.27-0.42,2.49-0.84,3.6-1.28l3.68-1.21
			l-6.57,2c-0.35,0.13-0.82,0.26-1.25,0.4l-1.26-0.2c0.07-0.01,0.14-0.03,0.2-0.04l3.11-0.49l-3.63,0.48l-0.58-0.09
			c0.98-0.24,1.92-0.5,2.83-0.8C1037.96,745.46,1042.84,742.7,1046.32,739.92z M1041.08,656.2c-3.42-3.19-7.12-6.07-10.97-8.58
			c7.52,3.98,13.02,8.04,14.67,10.76c-2.4-5.28-8.68-9.44-15.44-12.72c-7.03-3.66-15.47-8.34-24.75-8.73
			c-18.48-0.71-36.51,5.61-48.18,12l-6.26,2.35c3.75-1.3,7.46-2.67,11.02-4.41c5.16-2.75,16.56-6.88,29.39-8.21
			c-4.44,0.94-8.43,2.27-12.09,3.77c-6.21,2.01-11.92,4.3-16.23,6.22l-3.63,1.1l6.49-1.82c1.57-0.51,3.85-1.36,6.53-2.33
			c-3,1.57-5.73,3.21-8.16,4.76c-4.81,1.23-9.03,2.9-12.54,4.58c-2.66,0.7-5.38,1.59-8.12,2.71c-8.92,4.17-16.58,8.24-22.71,11.11
			c1.13-0.86,2.21-1.73,3.24-2.63c3.62-1.28,8.27-4.48,10.75-10.23c4.5-2.62,9.17-5.27,14.02-7.83c-0.11,0.12-0.24,0.22-0.35,0.34
			c0.14-0.14,0.31-0.26,0.46-0.39c8.43-4.44,17.43-8.58,27.21-11.75c0.39-0.09,0.78-0.18,1.17-0.26c0.08-0.01,0.17-0.03,0.26-0.04
			c-2.58,0.71-5.06,1.69-7.29,3.18c2.49-1.57,5.18-2.57,7.96-3.29c1.75-0.28,3.73-0.67,5.89-1.12c4.26-0.55,8.62-0.71,12.83-1.13
			c10.42-1.94,28.72,2.18,43.93,16.84c15.64,12.81,30.34,35.62,25.79,58.86c-1.54,10.53-5.97,20.04-11.94,27.77
			c8.05-11.6,13.09-24.68,11-35.18l-0.98-2.51c0.84,2.51,1.36,5.09,1.29,7.81c0.69,8.93-8.56,28.82-23.36,41.64
			c-3.33,2.42-6.8,4.39-10.32,5.79c-1.44,0.11-3.26,0.16-5.32,0.17c5.41-0.43,10.85-2.19,15.37-7.11
			c10.04-7.1,16.5-18.35,18.35-27.81c1.56-4.42,2.56-9.4,2.52-15.01C1062.76,688.86,1055.01,670.48,1041.08,656.2z M967.07,672.17
			c-0.02,0.21-0.08,0.42-0.21,0.64c-0.01-0.32-0.07-0.63-0.18-0.95C966.79,671.96,966.93,672.06,967.07,672.17z M940.83,697.41
			c-0.34,0.09-0.73,0.12-1.18,0.1C940.04,697.44,940.43,697.4,940.83,697.41z M862.72,683.05c2.95-0.61,5.71-1.39,8.31-2.3
			c2.53,0.26,5.08,0.4,7.64,0.36c0.27,0.02,0.6,0.01,0.89,0.03c-0.08,0.03-0.18,0.05-0.25,0.07c0.16-0.02,0.32-0.04,0.49-0.07
			c1.65,0.05,3.56-0.02,5.75-0.2c4.1,0.3,8.89-0.12,13.87-1.42c10.44-1.04,22.81-1.81,34.71,0.43c11.06,0.44,20.65,9.67,18,17.94
			c-2.85,5.88-8.35,7.71-11.15,8.88c-0.66-0.25-1.3-0.56-1.88-0.97c-5.46-3.11-3.44-7.1-0.06-8.14c6.64,3.25,6.34-12.06-3.07-13.44
			c-8.08-3.25-18.03-3.49-28.23-3.27C888.32,683.43,872.38,685.1,862.72,683.05z M828.39,678.95c-0.64-0.54-1.27-1.06-1.86-1.56
			c2.84,1.57,5.8,2.83,8.77,3.84c5.34,4.13,11.17,10.36,15.52,17.33c-0.46-0.66-0.91-1.32-1.44-1.94c-0.17-0.19-0.35-0.35-0.53-0.53
			c-0.85-1.01-1.81-1.96-2.82-2.87C839.94,687.2,833.78,682.6,828.39,678.95z M852.26,684.19c5.15,2.44,14,8.56,22.07,16.56
			c-7.49-6.61-15.28-12.76-22.37-16.57C852.06,684.19,852.16,684.19,852.26,684.19z M879.09,708.68
			c-4.26-4.55-8.87-8.81-13.42-12.39c-3.02-2.89-8.09-6.9-12.98-10.22c1.25,0.59,2.45,1.17,3.44,1.68l0.79,0.4l-1.32-0.85
			c-0.66-0.58-2.3-1.88-4.13-3.11c0.08,0,0.15,0,0.23,0c6.4,3.14,18.43,14.25,29.83,24.72c0.16,0.12,0.28,0.26,0.44,0.38
			c0.18,0.23,0.35,0.46,0.51,0.69c-0.94-0.26-1.81-0.33-2.53-0.16C879.66,709.43,879.37,709.04,879.09,708.68z M852.62,688.19
			c-0.44-0.4-0.89-0.79-1.35-1.19c0.19,0.07,0.4,0.14,0.57,0.2c1.03,0.65,2.06,1.31,3.1,1.98c-0.28-0.14-0.57-0.32-0.84-0.45
			L852.62,688.19z M853.56,692.01c-0.02-0.03-0.04-0.06-0.04-0.06c0.01,0.01,0.06,0.04,0.09,0.07
			C853.6,692.02,853.59,692.02,853.56,692.01z M816.56,727.32c0.12-0.22,0.25-0.44,0.44-0.64
			C816.84,726.88,816.71,727.12,816.56,727.32z M819.49,729.88c-0.26,0.13-0.55,0.24-0.79,0.39c0.12-0.1,0.23-0.2,0.35-0.3
			C819.19,729.93,819.35,729.91,819.49,729.88z M810.33,750.71c-0.06-0.13-0.11-0.26-0.16-0.39c-0.04-0.16-0.06-0.33-0.09-0.49
			C810.15,750.13,810.23,750.43,810.33,750.71z M809.58,741.78c0.46-6.7,3.7-11.67,6.61-14.68c-0.2,0.43-0.33,0.86-0.37,1.29
			c-3.03,4.34-5.24,9.59-6.2,15.25c-0.15,1.33-0.11,2.55,0.01,3.73c0.03,0.82,0.13,1.61,0.29,2.35
			C809.1,747.39,808.85,744.73,809.58,741.78z M831.72,731.12c-0.56-0.48-1.2-0.93-1.98-1.3c-2.34-1.24-4.9-1.45-7.22-1.01
			c-0.56-0.07-1.11-0.1-1.65-0.07c0.54-0.29,1.09-0.56,1.68-0.79C826.95,727.06,829.82,728.73,831.72,731.12z M832.66,735.75
			c-1.49-2.49-4.15-4.75-6.98-6c1.65,0.29,3.3,0.95,4.75,2.23C831.65,733.08,832.32,734.39,832.66,735.75z M821.44,729.82
			c0.99,0.45,2,1.19,2.95,2.12c-1.14-0.94-2.53-1.61-4.13-1.77c-0.05,0-0.09,0.01-0.14,0.02
			C820.54,730.04,820.98,729.91,821.44,729.82z M817.32,758.55c-0.51-0.32-1.02-0.69-1.53-1.07c-1.42-1.4-2.64-3.14-3.51-5.1
			C813.49,754.72,815.2,756.85,817.32,758.55z M818.81,759.64c0.28,0.18,0.55,0.37,0.84,0.53c-0.54-0.26-1.07-0.55-1.61-0.89
			C818.3,759.4,818.55,759.52,818.81,759.64z M860.94,735.61c0.22-0.14,0.44-0.29,0.65-0.44c-0.04,0.22-0.09,0.45-0.13,0.69
			l-0.01-0.01c-0.02-0.01-0.02-0.04-0.03-0.04c-0.63,0.4-1.05,1.07-1.35,1.84c-0.04-0.15-0.11-0.27-0.18-0.38
			C860.31,736.74,860.66,736.19,860.94,735.61z M865.26,729.4c-0.04,0.09-0.07,0.19-0.11,0.29c-0.05,0.07-0.1,0.14-0.15,0.21
			l-0.01-0.03C865.08,729.72,865.18,729.56,865.26,729.4z M860.26,749.08c0.02-0.1,0.04-0.19,0.04-0.29c0.27-0.49,0.55-1,0.82-1.52
			C860.84,747.88,860.56,748.47,860.26,749.08z M862.68,734.34c0.1-0.08,0.22-0.16,0.32-0.25c-0.02,0.3-0.07,0.62-0.1,0.92
			C862.86,734.76,862.79,734.53,862.68,734.34z M858.09,752.36c0.32-0.45,0.65-0.94,0.99-1.48c-0.06,0.16-0.11,0.31-0.18,0.47
			C858.64,751.69,858.36,752.03,858.09,752.36z M856.11,748.07l-0.2,0.26c0.38-0.73,0.73-1.45,1.02-2.17
			c0.41-0.54,0.9-1.34,1.38-2.25c-0.28,0.9-0.58,1.75-0.95,2.45l-0.03,0.09C856.93,747.02,856.53,747.58,856.11,748.07z
			 M866.07,727.64c0.01,0.22,0.04,0.43,0.04,0.64c-0.22,0.36-0.47,0.73-0.74,1.1c-0.02-0.02-0.04-0.05-0.06-0.06
			C865.61,728.74,865.85,728.18,866.07,727.64z M866.14,730.86c0,0.33,0.01,0.65,0,0.98c-0.04-0.07-0.07-0.17-0.12-0.24
			c0-0.19-0.01-0.38-0.03-0.55l0.02-0.03C866.05,730.96,866.1,730.91,866.14,730.86z M865.68,737.07c-0.01,0.06-0.02,0.11-0.03,0.17
			c-0.06-0.13-0.12-0.27-0.21-0.37c-0.01,0.03-0.03,0.07-0.04,0.1c0.21-0.78,0.33-1.5,0.32-2.12c0.05-0.3,0.1-0.59,0.14-0.88
			C865.91,734.98,865.84,736.02,865.68,737.07z M850.02,760.21c3.11-2.5,5.62-5.35,7.62-8.25c-0.64,1.17-1.31,2.26-2.02,3.13
			l-0.49,0.55l-1.17,0.93l0.9-0.65C853.35,757.44,851.73,758.88,850.02,760.21z M848.01,761.7c0.65-0.45,1.29-0.91,1.89-1.4
			C849.28,760.78,848.65,761.25,848.01,761.7z M861.36,742.08c0.15-0.46,0.31-0.91,0.41-1.33c0.12-0.26,0.22-0.53,0.33-0.78
			c-0.03,0.14-0.07,0.28-0.11,0.42C861.81,740.94,861.6,741.51,861.36,742.08z M855.48,749.19c0.13-0.23,0.22-0.45,0.34-0.69
			l0.87-0.95c0.07-0.04,0.17-0.11,0.26-0.16C856.48,748,855.98,748.6,855.48,749.19z M808.45,764.79c0.04-0.02,0.06-0.03,0.1-0.04
			c0,0,0.03,0.01,0.04,0.01C808.55,764.77,808.49,764.79,808.45,764.79z M798.77,771.51c0,0,0.02-0.07,0.04-0.11
			c0,0.02,0,0.04,0,0.04L798.77,771.51z M799.06,771.06c0.03-0.04,0.08-0.08,0.11-0.13c-0.02,0.03-0.03,0.07-0.03,0.07
			c-0.05,0.07-0.07,0.12-0.11,0.16l0.01-0.04L799.06,771.06z M797.13,774.03l0.26-0.25c0.16-0.21,0.4-0.44,0.65-0.67l-0.26,0.75
			l0.4-0.88c0.31-0.27,0.67-0.56,1.06-0.85l-0.01,0.01c-1.45,1.98-2.1,4.11-1.36,5.93c-0.57-1.95,0.65-4.02,2.65-5.84
			c-1.77,2.51-1.7,5.44-0.92,7.86l-0.27-0.17c0.11,0.09,0.18,0.19,0.3,0.28l0.01,0.01c0.62,1.83,1.62,3.36,2.56,4.17
			C798.02,784.33,794.7,780.35,797.13,774.03z M798.22,771.7c0.18-0.49,0.38-0.92,0.59-1.35c-0.01,0.07,0.01,0.12,0,0.19
			c-0.33,0.6-0.54,1.2-0.63,1.79c-0.32,0.47-0.61,0.88-0.87,1.25C797.55,772.97,797.85,772.35,798.22,771.7z M818.98,724.12
			c-0.07,0.05-0.14,0.1-0.21,0.14c-6.1,2.12-11.2,11.23-10.72,20.23c-0.16,3.69,0.99,6.72,2.83,9.15c0.13,0.24,0.28,0.46,0.41,0.7
			c-0.12-0.22-0.26-0.43-0.38-0.65c1.12,1.46,2.47,2.7,3.95,3.73c2.81,2.46,6.36,4.06,9.87,4.85c10.05,3.69,20.56-0.66,26.11-6.69
			c0.94-0.73,1.86-1.5,2.74-2.32c1.82-1.43,3.31-3.08,4.52-4.77c-0.1,0.15-0.18,0.31-0.28,0.47l-0.3,0.42l0.15-0.18
			c-3.4,5.3-8.23,10.32-14.38,13.67c-11.74,6.09-26.79,0.35-32.01-8.52c0.22,0.4,0.42,0.8,0.68,1.18
			c2.23,6.01,18.87,15.71,32.76,8.28c-5.27,3.07-10.95,4.92-16.35,4.76c7.86,0.63,18.98-1.56,26.03-10.26
			c0.55-0.46,1.08-0.94,1.6-1.43c-0.69,1.06-1.36,2.08-2.03,2.81l-0.32,0.39c-0.03,0.04-0.07,0.07-0.1,0.11l-0.02,0.02l0.01-0.01
			c-3.53,3.97-8.49,7.26-15.06,8.48c-12.79,3.36-31.69-4.32-33.76-21.48C802.97,736.69,810.81,726.68,818.98,724.12z M845.4,763.4
			c0.58-0.33,1.15-0.69,1.71-1.09C846.54,762.69,845.97,763.05,845.4,763.4z M833.25,730.89c-0.58-0.82-1.23-1.6-1.97-2.27
			c-1.93-3.5-7.9-4.51-12.32-1.86c0.15-0.17,0.3-0.34,0.45-0.49c1.33-0.66,2.77-1.21,3.12-1.91c-0.04-0.03-0.08-0.03-0.12-0.06
			c1.01-0.22,1.96-0.4,2.77-0.54c2.5,0.56,4.8,2.05,6.55,4.79C832.28,729.28,832.79,730.08,833.25,730.89z M833.38,743.29
			c0.64-1.9,1.27-4.57,0.94-7.14c0.51,1.53,0.8,2.91,0.98,3.76C835.04,741.24,834.43,742.41,833.38,743.29z M825.41,742.41
			c2.94-1.1,2.94-4.98,1.04-8.09c2.4,3.24,3.97,7.18,3.14,8.97c3.69-3.4-1.05-10.62-6.05-13.34c2.04,0.47,4.11,1.55,5.6,3.47
			c4.4,4.31,3.08,9.55,2.24,10.62c0.48-0.34,0.85-0.7,1.19-1.08c-0.04,0.35-0.06,0.66-0.06,0.94c-0.04,0.02-0.07,0.05-0.1,0.07
			C829.65,745.49,826.85,744.36,825.41,742.41z M824.53,738.54c0.8-0.5,1.18-1.39,1.15-2.44c1.35,2.86,0.82,5.77-0.28,6.3
			C824.57,741.28,824.19,739.88,824.53,738.54z M824.82,737.76c0,0-0.01,0.02-0.01,0.03C824.81,737.78,824.82,737.77,824.82,737.76z
			 M848.55,732.12c2.73-0.49,5.34-2,6.75-4.47c0.33-0.48,0.61-1.07,0.85-1.72c0.3-0.51,0.56-1.02,0.76-1.6
			c3.39-5.39-0.2-19.58-7.09-30.2c-3.3-5.32-7.67-9.25-11.57-11.99c1.22,0.34,2.43,0.63,3.65,0.89c5.41,5.05,11.97,12.6,16.01,22.04
			c4.37,9.5,3.03,25.44-5.82,27.97C850.84,733.04,849.68,732.64,848.55,732.12z M857.08,721.8c0.52-4.87-0.39-11.39-3.16-17.58
			C856.71,710.13,858.09,716.23,857.08,721.8z M855.54,710.96c1.86,6.18,1.86,12.43-0.85,16.86l-2.36,2.46
			c0.74-0.73,1.5-1.46,2.2-2.22c-0.59,0.92-1.28,1.78-2.13,2.51c-1.2,0.78-2.55,1.24-3.95,1.51c-0.07-0.03-0.13-0.05-0.2-0.08
			C853.38,729.97,856.79,720.63,855.54,710.96z M820.88,673.71c0.28,0.21,0.56,0.42,0.85,0.62c0.11,0.13,0.22,0.26,0.33,0.39
			c-0.13-0.08-0.24-0.16-0.37-0.24C821.42,674.23,821.14,673.97,820.88,673.71z M816.01,690.22c-1.85-3.29-4.83-5.7-6.52-7.79
			l-0.57-0.62c-0.94-2.08-1.85-4.2-2.65-6.28c-1.02-2.22-1.63-4.37-1.95-6.41c-0.04-5.23,0.84-9.59,2.1-12.28
			c0.18-0.26,0.37-0.5,0.55-0.71c0.31,0.73,0.65,1.43,0.99,2.14c-3.89,5.28-2.12,17.85,5.04,26.72
			C814.11,686.79,815.14,688.53,816.01,690.22z M805.47,698.62c0.03-0.05,0.04-0.1,0.08-0.16c0,0.05,0.01,0.09,0.02,0.14
			c-0.05,0.09-0.1,0.19-0.15,0.28C805.44,698.79,805.45,698.71,805.47,698.62z M805.63,699.51l0.11-0.6l0.01-0.02
			c-0.05,0.34-0.06,0.72-0.07,1.1c-0.18,0.44-0.4,0.89-0.62,1.34c0.29-1.03,0.46-1.86,0.54-2.38c0,0.07,0.02,0.14,0.02,0.21
			L805.63,699.51z M792.87,712.9c0.6-0.24,1.22-0.55,1.86-0.95c2.5-1.46,4.62-3.34,6.31-5.3c-1.1,1.62-2.39,3.16-3.9,4.38
			C795.83,711.88,794.4,712.52,792.87,712.9z M805.59,684.03c0.94,3.97,3.1,11.99,5.87,17.74
			C808.23,696.95,804.72,689.48,805.59,684.03z M814.57,697.03c-0.56-1.13-1.01-2.25-1.2-3.3
			C813.82,694.85,814.22,695.95,814.57,697.03z M809.65,683.44l1.21,1.64c1.35,0.92,2.34,3.22,3.12,5.96
			c-1.2-2.43-2.49-4.67-3.66-6.31l-0.34-0.58C809.86,683.91,809.76,683.67,809.65,683.44z M810.76,685.79
			c0.69,0.94,1.42,2.78,2.15,4.94c-0.77-1.82-1.64-3.74-2.55-5.71L810.76,685.79z M808.99,681.98l1.46,1.71
			c1.25,1.87,5.41,5.74,5.87,10.79c-1.27-4.26-3.38-8.38-6.11-10.42l-0.62-0.75C809.39,682.87,809.19,682.42,808.99,681.98z
			 M814.31,703.99c-3.68-5.63-6.06-14.55-8.63-20.65l0.31-0.95C807.66,686.69,810.97,697.62,814.31,703.99z M805.63,683.22
			c-0.05-0.12-0.11-0.26-0.16-0.37c0.03-0.53,0.04-1.06,0.04-1.59l0.19,0.39c0.09,0.19,0.18,0.46,0.28,0.7
			C805.86,682.64,805.75,682.93,805.63,683.22z M805.31,678.43c-0.13-0.67-0.25-1.32-0.36-1.97c0.33,0.77,0.67,1.53,1.05,2.24
			c2.82,4.94,5.32,9.89,7.2,14.59l0.08,0.65c-0.1,0.72,0.11,2,0.48,3.43c-0.69-0.97-1.41-1.87-1.88-2.63l-0.32-0.52l0.44,0.99
			c0.1,0.22,0.21,0.56,0.34,0.95c-2.11-4.91-4.23-10.07-6.26-14.04l0.1-0.28c-0.03,0.08-0.07,0.18-0.11,0.26
			c-0.19-0.37-0.38-0.73-0.56-1.08C805.49,680.16,805.43,679.3,805.31,678.43z M817.9,702.37c-0.02-0.15-0.06-0.3-0.08-0.44
			c-0.06-2.07-0.02-4.34-0.21-6.65c-0.09-1.28-0.41-2.42-0.85-3.49c1.24,2.74,1.92,5.35,1.54,7.86
			C818.1,700.5,817.97,701.43,817.9,702.37z M808.97,700.6c1.38,2.41,2.88,4.1,4.21,4.23c0.17,0.26,0.33,0.54,0.51,0.78
			c-0.4-0.22-0.82-0.41-1.24-0.58c-0.27-0.18-0.55-0.37-0.81-0.57C810.42,703.39,809.61,702.01,808.97,700.6z M803.35,699.97
			c0.35-0.65,0.62-1.28,0.89-1.91C804.09,698.77,803.94,699.48,803.35,699.97z M805.76,692.82c0.15,0.55,0.32,1.09,0.51,1.63
			c-0.14-0.14-0.32-0.24-0.55-0.28c-0.11,0.1-0.18,0.21-0.26,0.32C805.6,693.88,805.68,693.34,805.76,692.82z M805.36,684.08
			c0.03-0.23,0.07-0.46,0.09-0.7c0.02,0.09,0.04,0.16,0.05,0.26C805.45,683.78,805.4,683.93,805.36,684.08z M804.78,649.18
			c0.25,1.22,0.52,2.45,0.93,3.69c0.3,0.89,0.66,1.74,1.01,2.6c-0.39,0.35-0.74,0.73-1.06,1.14c-0.81,0.72-1.43,1.63-1.91,2.68
			C803.93,655.4,804.2,651.98,804.78,649.18z M820.88,619.83c-0.25,0.33-0.51,0.64-0.75,0.97l0.89-1.06
			c5.33-3.69,11.67-5.44,17.72-4.16c6.87,0.35,11.71,4.83,14.23,10.06c-0.46-0.99-1.04-1.95-1.76-2.86c-2.16-1.89-4.31-2.6-6.4-2.5
			c0.69-0.15,1.39-0.3,2.09-0.43c-0.76,0.13-1.51,0.27-2.26,0.42c-0.87,0.06-1.72,0.26-2.55,0.58c-0.32-0.01-0.64-0.03-0.97-0.04
			l3.72-1.48l-3.91,1.49c-0.35,0-0.7,0.03-1.04,0.03c0.26,0.01,0.51-0.01,0.76,0.01h0.16l-1.97,0.74c0.2-0.04,0.38-0.1,0.59-0.13
			l1.55-0.62l0.99,0.03l-0.04,0.01c-0.75,0.2-1.49,0.43-2.22,0.68c0.26-0.06,0.49-0.17,0.76-0.21c0.27-0.08,0.55-0.14,0.82-0.22
			c-5.33,2.45-9.8,9.39-11.82,14.23c-3.89,8.74,1.76,17.86,9.26,21.33c0.07,0.11,0.11,0.23,0.18,0.34c0.27,0.48,0.65,0.99,1.06,1.53
			c0.15,0.28,0.31,0.55,0.49,0.84l-0.71-0.21l0.72,0.23c0.55,0.87,1.26,1.76,2.11,2.66c-0.88-0.58-1.7-1.19-2.44-1.83l-1.6-1.28
			c-0.31-0.33-0.64-0.67-0.93-1c0.25,0.27,0.53,0.59,0.84,0.92l-1.15-0.92l1.29,1.08c2.51,2.82,6.72,7.55,12.01,11.36
			c-7.95-4.32-14.96-10.34-17.91-16.66l-1.51-3.39c0.89,2,1.62,4.1,2.64,6.03c1.78,3.04,6.47,8.4,12.71,12.89
			c-3.75-2.04-7.36-4.57-10.62-7.52c-11.88-9.86-10.75-31.4-0.48-38.38c-9.29,2.96-15.27,31.11,3.58,42.72
			c5.5,4.77,11.72,7.52,17.57,8.92c0.98,0.45,1.96,0.82,2.93,1.15c-9.79-2.01-24.58-6.23-32.01-18.96
			c-6.68-11.74-2.81-28.34,6.71-33.92c-8.27,2.88-16.71,23.77-5.33,38.47c11.03,13.53,28.17,15.18,32.49,14.97
			c2.1,0.55,4.13,0.85,6.02,0.98c-11.27,2.35-27.26,0.59-38.73-9.73c-13.14-11.25-16.33-31.37-10.66-43.63
			c-0.29,0.58-0.59,1.13-0.83,1.74c-4.68,7.74-4.03,34.17,14.89,46.29c12.82,8.93,27.74,8.45,35.97,6.22
			c0.62-0.03,1.35-0.17,2.11-0.38c-0.38,0.32-0.77,0.61-1.17,0.87c-5.01,1.32-10.46,2.19-16.38,2.01
			c-16.03-0.73-36.5-9.89-42.85-29.53C805.56,638.72,811.64,626.32,820.88,619.83z"/>
		<path id="XMLID_48_" d="M997.27,710.77c-1.47,2.97-1.52,5.35-0.61,7.18C995.1,716.08,994.9,713.61,997.27,710.77z"/>
		<path id="XMLID_47_" d="M1016.7,619.16c-1.89-0.65-3.89-0.91-5.95-1.01C1013.49,617.81,1015.57,618.08,1016.7,619.16z"/>
		<path id="XMLID_46_" d="M1014.72,614.33c-1.59-0.25-3.24-0.27-4.93-0.2C1011.97,613.7,1013.67,613.71,1014.72,614.33z"/>
		<path id="XMLID_45_" d="M1010.21,610.98c-1.45-0.12-2.97-0.07-4.56,0.1C1007.6,610.59,1009.17,610.5,1010.21,610.98z"/>
		<path id="XMLID_44_" d="M987.12,604.39c0.47-0.18,0.88-0.28,1.21-0.26C987.92,604.17,987.52,604.3,987.12,604.39z"/>
		<path id="XMLID_43_" d="M988.43,600.9c0.51-0.15,0.98-0.22,1.34-0.17C989.32,600.75,988.87,600.84,988.43,600.9z"/>
		<path id="XMLID_42_" d="M881.57,683.35c-1.81-0.2-3.61-0.59-5.41-1.05L881.57,683.35z"/>
		<path id="XMLID_41_" d="M882.21,683.48l-0.64-0.13c0.37,0.04,0.76,0.04,1.13,0.07C882.55,683.43,882.37,683.46,882.21,683.48z"/>
		<path id="XMLID_40_" d="M936.85,700.42c-0.11-0.22-0.21-0.43-0.22-0.64C936.68,700.02,936.77,700.2,936.85,700.42z"/>
		<path id="XMLID_39_" d="M947.91,692.01c2.58,7.92-8.66,15.39-11.07,8.41c1.15,2.09,6.6,4,9.16-2.93
			c3.31-6.72-5.18-13.9-13.71-15.42c-17.86-3.51-37.31-0.33-45.33,1.21c-1.43,0.24-2.85,0.24-4.26,0.15
			c12.08-1.24,28.47-5.85,45.13-3.58C935.83,680.72,945.34,683.87,947.91,692.01z"/>
		<path id="XMLID_38_" d="M878.42,681.33c-2.27,0.22-4.57,0.28-6.87,0.29L878.42,681.33z"/>
		<path id="XMLID_37_" d="M878.42,681.33c0.29-0.03,0.59-0.09,0.89-0.12c-0.11,0.03-0.22,0.06-0.31,0.09L878.42,681.33z"/>
		<path id="XMLID_36_" d="M904.54,641.16l-1.26-0.11l0.72-0.02c2.57-0.22,8.63-1.22,10.04,2.08
			C912.68,643.55,906.85,641.04,904.54,641.16z"/>
		<path id="XMLID_35_" d="M901.56,645.44l0.58,0.02c2.19-0.05,6.7-0.56,8.18,1.51c-1.23,1.38-6.05-1.15-7.76-1.35L901.56,645.44z"/>
		<path id="XMLID_34_" d="M863.47,660.02c0.91-0.31,1.79-0.69,2.64-1.13C865.28,659.37,864.38,659.73,863.47,660.02z"/>
		<path id="XMLID_33_" d="M839.72,621.59c-1.36,0.47-2.71,1.01-3.98,1.73c-0.09,0.02-0.19,0.07-0.29,0.1
			C836.74,622.56,838.17,621.96,839.72,621.59z"/>
		<path id="XMLID_32_" d="M838.85,621.62l-3.67,1.4c-0.32,0.06-0.63,0.2-0.95,0.31C835.65,622.49,837.19,621.91,838.85,621.62z"/>
		<path id="XMLID_31_" d="M839.9,620.86c-0.45,0-0.9,0.02-1.35,0.04C839,620.85,839.45,620.85,839.9,620.86z"/>
		<path id="XMLID_30_" d="M820.09,642.34c-0.79,11.85,6.74,22.12,13.71,25.27c-2.63,0.79-14.98-7.64-15.13-21.87
			c-0.73-14.28,13.07-24.31,18.57-24.8c0.44-0.04,0.86-0.03,1.29-0.04C830.02,621.76,821.37,632.22,820.09,642.34z"/>
		<path id="XMLID_29_" d="M837.63,658c-0.02-0.03-0.04-0.06-0.07-0.08C837.58,657.94,837.61,657.97,837.63,658z"/>
		<path id="XMLID_28_" d="M834.09,653.92l2,2.17c0.45,0.6,0.94,1.22,1.47,1.83c-0.01-0.01-0.04-0.03-0.04-0.04L834.09,653.92z"/>
		<path id="XMLID_27_" d="M818.02,624.38c0.15-0.33,0.3-0.67,0.48-1C818.32,623.7,818.18,624.05,818.02,624.38z"/>
		<path id="XMLID_26_" d="M818.59,623.22c-0.04,0.05-0.07,0.11-0.1,0.16C818.52,623.33,818.55,623.28,818.59,623.22z"/>
		<path id="XMLID_25_" d="M819.67,621.35l0.46-0.55c-0.56,0.77-1.08,1.58-1.54,2.41C818.93,622.57,819.27,621.94,819.67,621.35z"/>
		<path id="XMLID_24_" d="M989.06,748.26c0.01-0.12,0-0.24,0.01-0.37C989.07,748.01,989.06,748.14,989.06,748.26z"/>
		<path id="XMLID_23_" d="M989.35,746.52c-0.15,0.48-0.23,0.93-0.28,1.37C989.09,747.46,989.17,747.01,989.35,746.52z"/>
		<path id="XMLID_22_" d="M1011.78,693.99c2.97,4.09,5.28,11,2.37,17.36c-3.64,7.12-14.26,8.49-16.9,3.43
			c1.09,1.27,8.92,3.9,14.54-2.54C1016.77,706.09,1013.53,696.82,1011.78,693.99z"/>
		<path id="XMLID_21_" d="M1010.38,692.32c0.41,0.42,0.82,0.91,1.21,1.43l-3.07-3.33L1010.38,692.32z"/>
		<path id="XMLID_20_" d="M1011.72,693.88c0.02,0.03,0.04,0.09,0.06,0.11c-0.06-0.08-0.12-0.16-0.18-0.24L1011.72,693.88z"/>
		<path id="XMLID_19_" d="M995.97,755.36c-0.46-0.29-0.86-0.59-1.15-0.87C995.18,754.8,995.59,755.07,995.97,755.36z"/>
		<path id="XMLID_18_" d="M1064.03,699.4l-1.5-3.88C1063.1,696.8,1063.6,698.09,1064.03,699.4z"/>
		<path id="XMLID_17_" d="M1045.31,659.59c-0.13-0.41-0.34-0.81-0.53-1.21C1045.05,658.82,1045.26,659.23,1045.31,659.59z"/>
		<path id="XMLID_16_" d="M788.55,703.73c0,0-0.02-0.02-0.04-0.03c0.02,0.01,0.05,0.01,0.07,0.03H788.55z"/>
		<path id="XMLID_15_" d="M781.55,694.96c0.59-0.79,1.39-1.41,2.35-1.89C783.12,693.71,782.17,694.22,781.55,694.96z"/>
		<path id="XMLID_14_" d="M781.55,694.96c-0.06,0.07-0.1,0.16-0.15,0.23c0.03-0.05,0.04-0.11,0.07-0.16
			C781.49,695,781.53,694.98,781.55,694.96z"/>
		<path id="XMLID_13_" d="M779.93,693.98c-0.25,0.23-0.46,0.5-0.67,0.76c0.12-0.18,0.23-0.37,0.37-0.55L779.93,693.98z"/>
		<path id="XMLID_12_" d="M779.4,697.85c0,0.3,0.01,0.63,0.03,0.97c-0.06-1.35,0.01-2.7,0.17-4.04L779.4,697.85z"/>
		<path id="XMLID_11_" d="M779.44,698.91c-0.01-0.03-0.01-0.05-0.01-0.05S779.44,698.88,779.44,698.91z"/>
		<path id="XMLID_10_" d="M849.55,734.17c-1-0.44-1.98-0.99-2.89-1.56C847.63,733.13,848.55,733.74,849.55,734.17z"/>
		<path id="XMLID_9_" d="M849.72,734.24c-0.05-0.02-0.11-0.05-0.17-0.07C849.61,734.19,849.67,734.22,849.72,734.24z"/>
		<path id="XMLID_8_" d="M873.78,727.81c0.14,0.94,0.46,1.59,0.89,2.06C874.09,729.56,873.72,728.92,873.78,727.81z"/>
		<path id="XMLID_7_" d="M876,731.64c0.56,0.95,1.2,1.52,1.88,1.84C877.09,733.36,876.41,732.82,876,731.64z"/>
		<path id="XMLID_6_" d="M880.81,734c1.07,0.14,2.05,0.08,2.93-0.12C882.71,734.55,881.66,734.65,880.81,734z"/>
		<path id="XMLID_5_" d="M797.89,778.06c0.28,0.67,0.76,1.3,1.46,1.86l-0.74-0.46C798.24,779.01,798.03,778.53,797.89,778.06z"/>
		<path id="XMLID_4_" d="M828.08,744.25c0.61-0.27,1.1-0.59,1.5-0.96C829.33,743.84,828.85,744.2,828.08,744.25z"/>
		<path id="XMLID_3_" d="M818.27,765.36c0.84,0.47,1.69,0.9,2.6,1.26c1.61,0.96,4.3,1.68,7.52,1.95
			C824.82,768.46,821.38,767.47,818.27,765.36z"/>
		<path id="XMLID_2_" d="M817.53,764.86c0.24,0.18,0.5,0.33,0.74,0.49c-1.68-0.93-3.26-2.04-4.71-3.32
			C814.9,762.97,816.07,764.14,817.53,764.86z"/>
	</g>
</g>
<g id="psuedo_page">
	<rect id="page_bounding_box__x28_for_SVG_x29_" class="st1" width="1080" height="1080"/>
</g>
</svg>
