<?xml version="1.0" encoding="utf-8"?>
<!-- Generator: Adobe Illustrator 26.5.0, SVG Export Plug-In . SVG Version: 6.00 Build 0)  -->
<svg version="1.1" id="Layer_1" xmlns="http://www.w3.org/2000/svg" xmlns:xlink="http://www.w3.org/1999/xlink" x="0px" y="0px"
	 viewBox="0 0 1080 1080" style="enable-background:new 0 0 1080 1080;" xml:space="preserve">
<style type="text/css">
	.scrollleft0{fill:#FFFFFF;}
	.scrollleft1{fill:none;}
</style>
<g id="LEFT_Ornamental_Scroll">
	<path id="LEFT_white_back-fill" class="scrollleft0" d="M230.58,642.84c0,0-2.03-0.37-3.33-1.11c-1.29-0.74-2.96-3.88-3.14-5.18
		c-0.18-1.29-1.66-6.29,2.03-12.57c3.7-6.29,10.72-11.65,18.31-10.54c7.58,1.11,15.72,3.33,20.71,9.25
		c4.99,5.92,9.62,17.94,8.51,22.19s0.55,2.96,0.55,2.96s1.66,2.59,2.4,5.36c0.74,2.77,0.92,25.15,2.96,34.21
		c2.03,9.06,6.1,13.68,8.32,14.42s6.29,1.66,6.84-0.37s0.74-4.81,0-5.73c0,0,0.12,1.39-0.18,1.76c-0.31,0.37-1.11,0.86-1.57,0.8
		c-0.46-0.06-1.7-0.96-1.57-1.88c0.12-0.92,0.25-4.59,3.51-5.24s7.03-1.33,8.35,1.02c1.33,2.34,4.59,6.9,3.45,10.02
		c-1.14,3.11-5.02,10.14-7.8,11.13c-2.77,0.99-11.31,3.45-16.09,0.09s-10.45-12.27-10.45-12.27s-0.86,4.04-4.01,5.39
		c-3.14,1.36-7.46,2.13-7.46,2.13s-1.57-9.15-1.48-11.28s1.76-7.15,6.13-14.89c4.38-7.74,5.79-12.17,6.04-14.55s0.76-6.41,0.39-7.23
		s-1.24-2.51-1.24-2.51l-5.9,8.04l-6.03,8.83l-12.74,9.25c0,0-13.62,10.46-16.45,16.5s-4.07,11.46-4.07,16.77s0.79,9.25,3.21,11.83
		c2.42,2.58,3.94,2.68,4.35,2.77s2.37-0.28,2.37-0.28l-0.74,1.39c0,0-3.94,4.44-5.45,4.75s-8.81-0.74-8.81-0.74l0.06,2.87
		c0,0,1.11,5.15,7.21,11.59s12.94,10.26,22.9,8.26c9.95-2,14.24-6.78,15.81-10.69s0.34-13.01-1.2-14.67s-3.17-3.05-5.08-2.84
		c-1.91,0.22-5.33,1.79-5.49,2.56c-0.15,0.77-0.49,2.84-0.49,2.84l0.86,1.42c0,0,0.37,1.39,0.09,2.06s-1.82,4.28-4.1,4.38
		c-2.28,0.09-5.08-0.22-5.86-1.2c-0.77-0.99-3.48-4.93-2.93-6.87s2.4-8.88,4.9-11.06c2.5-2.19,10.17-7.49,16.09-3.61
		c5.92,3.88,10.29,7.95,12.27,13.62c1.97,5.67,2.37,9.34,1.05,13.81c-1.33,4.47-1.14,5.73-4.75,9.83s-5.42,5.7-5.42,5.7
		s8.44-2.87,10.94-0.83c2.5,2.03,5.7,4.53,6.5,6.93s3.02,7.64,1.26,9.99c-1.76,2.34-3.76,3.36-3.76,3.36l-3.24,0.25l-1.26-0.62
		c0,0,1.08-1.97,1.26-3.11s0.99-6.38-1.2-8.54s-13.13-4.47-14.58-4.59c-1.45-0.12-6.23,3.64-13.5,3.27s-18.12-3.45-21.54-6.6
		c-3.42-3.14-6.9-6.01-10.17-11.86c-3.27-5.86-6.75-17.97-6.69-20.22s2.19-18.95,8.41-28.45c6.23-9.49,8.01-12.94,8.01-12.94
		l-11.65,7.7c0,0-9.55,9.06-11.9,12.76s-3.51,7.33-2.9,10.35c0.62,3.02,1.73,3.7,1.73,3.7s1.11-0.49,2.22-0.18s2.59,0.68,2.28,3.51
		s-3.08,8.07-6.35,7.95s-7.03,0.18-9.43-5.61c-2.4-5.79-3.27-9.06-1.36-12.7s5.24-7.95,5.24-7.95l8.01-8.07l3.21-3.82
		c0,0,7.03-6.1,9.43-7.83s7.03-4.56,7.03-4.56l6.84-3.57c0,0-3.27,0.18-6.1-0.12c-2.84-0.31-4.87-0.49-4.87-0.49l-1.54,0.86
		c0,0-11.71,2.28-17.81,2.28s-27.74-2.77-33.1-2.4s-19.42,0-23.67,3.33s-4.62,3.51-5.18,5.73c-0.55,2.22-0.74,4.25,0.14,4.85
		s1.8,0.83,2.13,0.79c0.32-0.05,1.02-0.37,1.02-0.37s1.25-0.37,2.36,0.46s2.17,1.94,2.03,3.56s-0.4,5.75-5.66,7.26
		c-3.72,1.06-15.23,0.42-17.68-5.41c-2.45-5.82-5.78-12.8-2.77-17.75c3-4.95,5.92-10.82,5.92-10.82s-3.19,2.36-4.39,2.4
		c-1.2,0.05-6.06-1.53-6.66-2.13s-1.99-3.47-1.99-3.47s-2.45,0.97-4.21,0.97s-4.9-0.51-5.69-2.59s-2.73-7.58-2.73-7.58l1.06-8.88
		c0,0,0-2.22,6.33-2.22s9.38,0.05,9.38,0.05s-1.48-1.48-2.77-2.17c-1.29-0.69-11.09-6.15-17.01-7.54s-16.83-4.99-26.81-1.76
		c-9.99,3.24-26.35,13.73-33.33,22.42s-8,10.63-11.83,20.02c-3.84,9.38-5.45,17.01-5.55,23.67c-0.09,6.66,1.8,11.79,2.87,15.16
		s4.81,10.45,5.59,11.74s2.63,3.37,2.63,3.37s7.63,5.92,12.94,7.35s16.55,2.36,20.02,0.28s7.44-5.04,7.72-7.81s0.14-3.1-0.79-3.7
		s-2.63-0.79-2.63-0.79l-2.68,0.46c0,0,0.28-4.35,5.18-4.16c4.9,0.18,6.43,0.37,8.41,1.85s3.98,4.99,3.65,6.33s2.5,1.76,2.5,1.76
		s4.9,0.6,6.01,1.8s3.98,5.87,3.98,5.87l3.84-2.68c0,0,11.37-15.44,6.98-29.26s-8.37-15.49-10.77-16.23s-11.42-1.11-14.33,1.25
		s-2.68,1.2-3.42,4.16c-0.74,2.96,0.92,5.41,1.71,6.61s2.82,1.85,2.82,1.85l0.92,0.37l0.74,0.83l0.14-1.34c0,0,0.83,1.39,1.02,2.17
		c0.18,0.79,0.32,2.59,0.23,3.05c-0.09,0.46-0.97,2.36-2.96,3.79c-1.42,1.02-4.16,1.62-4.95,1.76c-0.79,0.14-8.18-0.37-9.48-0.79
		c-1.29-0.42-4.39-1.71-5.82-2.77s-4.99-4.99-5.59-6.84s-3.98-14.1,4.11-22.51s16.78-13.22,29.45-8.27s13.82,7.07,17.47,10.68
		s8.83,13.04,9.29,16.36s1.39,11.37,0.14,16.6c-1.25,5.22-5.96,16.36-13.59,23.3C94,754.53,80,767.06,63.59,765.12
		s-43.87-15.62-50.85-33.84s-11.05-35.13-2.59-52.38s14.89-29.59,33.33-41c18.44-11.42,31.3-9.62,31.3-9.62l-3.79-2.03
		c0,0-3.56,0.28-5.55-1.25c-1.99-1.53-6.84-6.1-4.44-12.11s5.36-6.84,6.38-6.98c1.02-0.14,10.31,1.11,12.71,0.74
		s4.21-1.06,4.48-2.31c0.28-1.25-0.37-6.29,1.66-7.67c2.03-1.39,4.81-3.42,8.04-1.99s7.67,4.81,10.4,10.4s6.43,12.99,13.13,19.92
		s26.72,24.22,26.72,24.22s0.05-8.74,0.51-10.35c0.46-1.62,1.99-2.63,1.99-2.63s3.05,4.39,4.48,5.87s16.92,16.46,29.03,21.26
		c12.11,4.81,19.42,6.47,19.42,6.47l0.51-0.65l-6.15-2.59c0,0-6.93-3.56-9.94-5.27c-3-1.71-6.98-4.53-10.86-7.9
		s-11.7-9.06-17.61-21.73c-5.92-12.67-2.36-28.75,7.12-33.05s24.22-4.72,29.68,3.37c5.45,8.09,2.73,16.55,1.76,18.58
		s-3.1,4.76-4.67,5.5c-1.57,0.74-2.27,1.62-4.81,1.43c-2.54-0.18-5.45-0.46-5.45-0.46s3.24,10.68,8.69,15.12
		s20.48,16.83,36.01,14.93s16.97-7.3,17.84-9.48s0.83-4.44-0.92-5.96c-1.76-1.53-3.74-3.05-5.27-3s-3.74,0.79-4.21,1.16
		c-0.46,0.37-0.74,0.28-0.92,1.16C230.58,641.87,230.58,642.84,230.58,642.84z"/>
	<g id="XMLID_00000044152671083140666130000009416053092923469496_">
		<path id="XMLID_00000104673355972573501960000012612729967280427155_" d="M240.22,612.55c-18.17,2.15-21.56,26.89-11.75,29.91
			c0.13,0.36,0.29,0.73,0.51,1.11c0.02-0.22-0.01-0.59-0.02-1c0.04,0,0.07,0.01,0.11,0.02c0.53,0.32,1.1,0.56,1.7,0.7
			c0.06,0.26,0.09,0.52,0.2,0.81l-0.15-0.81c0.28,0.07,0.57,0.13,0.87,0.14h-0.01c-0.29-0.14-0.65-0.39-1.03-0.71
			c0-0.01,0-0.02,0-0.02v0.01c-0.49-0.4-1.02-0.97-1.54-1.67c0.27-1.19,1.09-2.39,3.5-2.76c0.49-0.14,1.04-0.2,1.62-0.22
			c-2.63,0.19-4.53,1.69-3.57,4.64c-0.48-6.07,14.6-2.79,8.56,5.33c-4.12,7.54-16.51,9.36-27.29,5.68
			c-10.89-2.53-20.17-9.35-25.77-16.29c-2.51-2.77-4.69-6.16-5.78-9.21c0.57,0.41,1.28,0.74,1.98,0.91
			c0.37,0.27,0.82,0.27,1.32,0.09c0,0,0.01,0,0.02,0c0.44,0.22,1.03,0.12,1.65-0.19c0.57,0.07,1.25-0.28,1.93-0.89
			c0.95-0.28,1.87-0.74,2.65-1.43c5.6-2.17,7.79-9.76,7.29-16.39c-0.01-16.1-25.01-23.98-38.23-10.53
			c-5.94,5.55-8.15,12.39-8.08,19.13c-0.11-0.44-0.18-0.81-0.18-1.1l-0.23-1.34l0.05,0.75c-0.05,2.74-0.1,7.66,1.62,10.18
			c1.71,6.1,4.94,11.53,8.52,15.07c7.24,8.62,15.08,14.1,21.35,17.59c-0.26,0.62,0.14,0.4,0.41,0.23c0.17,0.09,0.33,0.19,0.5,0.28
			c0.12,0.22,0.37,0.31,0.67,0.35c0.63,0.33,1.27,0.66,1.86,0.95c-0.41-0.3-0.86-0.64-1.3-0.95c1.09-0.13,2.46-0.87,2.43-1.5
			l0.41-0.33l-0.3,0.14c-1.57,0.97-2.35-0.44-3.81,0.76c-0.04-0.03-0.09-0.07-0.14-0.1c0.07-0.48,0.22-1.22-0.45-0.35
			c-0.47-0.35-0.93-0.71-1.42-1.09c0.09,0.01,0.18,0.01,0.27,0.01l0.05,0.01l-0.01-0.01c1.88-0.02,4.6-1.25,4.68-2.37l0.06-0.05
			c2.82,3.41,9.17,8.33,17.64,9.02c10.96,1.82,22.57-0.53,27.24-1.86l5.67-2.04c-0.55,0.55-1.15,1.09-1.75,1.63
			c-0.77,0.61-1.58,1.2-2.43,1.76c-13.19,6.02-33.78,6.64-42.06-1.1c0.4,1.1,3.45,3.67,8.03,5.48
			c-19.73-5.23-39.87-18.84-49.49-30.78c0,0,0.03-0.03,0.07-0.06c-0.04,0.01-0.09,0.05-0.13,0.05c-0.53-0.65-1.03-1.3-1.5-1.94
			c0.29-0.28,0.56-0.56,0.91-0.79c-0.4,0.15-0.72,0.37-1.07,0.57c-0.41-0.57-0.79-1.13-1.13-1.68c0.1,0.47,0.37,1.1,0.79,1.86
			c-1.93,1.23-2.9,3.21-3.06,5.65c-0.39,1.51-0.52,3.29-0.43,5.18c-11.65-9.8-24.59-22.79-35.12-39.71
			c-4.01-5.89-10.71-19.73-21.96-12.78c-4.9,3.98-1.53,10.47-4.06,10.05c-2.79,0.92-6.58,0.37-10.19,0.07
			c-8.78-2.18-14.12,7.84-12.09,13.46c1.35,6.27,7.48,9.23,11.4,8.04c-2.46,0.3-5.19-0.83-7.15-2.93c3.2,0.22,15.65-1.39,28,4.55
			c4.3,1.82,8.61,3.85,12.69,5.84c-1.91-0.66-3.84-1.29-5.81-1.87C51.1,605.48-21.3,675.86,13.04,735.75
			c10.35,17.5,30.35,29.98,49.94,31.18l0.67,0.21l-0.36-0.19c10.08,0.56,20.05-1.83,28.52-8.18c11.45-8.45,21.74-19.25,25.09-32.99
			c3.02-13.74-2.05-27.71-11.05-36.61c-9.04-8.91-21.86-13.29-33.33-10.73C61,681.29,53.46,692,52.82,702.09
			c-3.68,19.8,25.42,25.08,29.97,15.86c-1.61,1.94-4.68,3.22-7.9,3.61c0.31-0.07,0.61-0.16,0.88-0.27c2.49-0.41,4.47-1.7,4.95-3.99
			c-0.22,0.53-1.02,1.17-2.16,1.71c-1.93-0.18-5.85,0.36-10.13-0.36c-0.33-0.15-0.66-0.26-1-0.45c-6.7-3.01-8.03-11.41-7.62-14.47
			l0.71-4.17l-0.48,2.34c-0.96,4.01-0.89,10.86,3.62,15.29c-5.82-2.72-8.44-9.65-8.96-12.38l-0.28-1.34
			c0.03-0.42,0.04-0.84,0.11-1.25c0.88-9.45,8.12-19.06,18.54-21.39c10.47-2.12,22.46,2.21,30.58,10.51
			c8.23,8.42,12.62,21.35,9.74,33.7c-3.05,12.22-12.95,22.62-23.89,30.53c-22.56,17.04-58.07,2.88-72.83-22.01
			c-9.07-13.71-10.43-29.3-7.06-43.93c-9.93,50.96,56.63,92.19,80.41,62.9c-3.22,3.24-18.04,14.01-37.81,5.49
			c-0.59-0.26-1.2-0.56-1.8-0.84c0.63,0.16,1.25,0.34,1.88,0.48c11.61,3.72,23.39,3.55,31.17-2.28c-3.51,2.3-11.67,4.88-22.2,3.24
			c7.7,0.08,14.85-1.62,19.67-3.66c-2.74,0.04-16.62,4.76-31.09,0.44c-0.36-0.12-0.71-0.25-1.06-0.38
			c8.88,1.07,21.16,2.18,28.05-0.01c4.61,0,9.52-0.8,11.97-3.07c1.17-0.13,2.53-0.53,3.93-1.63c0.62-0.4,1.07-0.99,1.42-1.67
			c0.01-0.01,0.05-0.04,0.05-0.04c6.98-4.39,13.67-14.66,16.45-25.71c2.36-11.15-1.95-23.68-9.19-26.77
			c2.09,1.28,9.56,10.7,8.17,23.39c-0.79,12.16-9.07,23.57-12.93,27.15c-0.76,0.68-1.58,1.26-2.44,1.77c0.42-0.89,0.6-1.93,0.6-3
			c9.08-4.5,17.96-22.69,8.91-40.27c-4.3-10.56-18.4-13.28-25.38-7.59c-3.87,2.27-5.54,8.15-2.49,10.97
			c1.71,2.9,7.11,2.98,5.96,4.53l-0.06,0.11c-1.28,0.28-3.7,1.88-6.33,0.4c-2.78-1.9-3.93-7.14-3.36-11.84
			c1.01-12.01,15.62-10.41,18.97-8.14l5.74,1.79l-3.22-1.05c-5.21-2.49-18.17-6.57-22.23,4.5c-1.53,4.57-1.19,9.6,1,13.47
			c2.25,4.22,6.83,3.14,9.13,1.48l0,0c0.31-0.2,0.52-0.39,0.68-0.58c0.03-0.03,0.06-0.05,0.09-0.08h-0.02
			c1.37-1.8-3.7-3.07-4.47-5.01c-1.98-2.35-1.33-5.73,1.83-7.62c5.91-4.27,16.71-2.2,20.42,6.64c7.5,14.97,2.1,30.88-5.26,37.04
			c-0.23-1.4-0.81-2.74-1.74-3.71c-2.35-3.99-7.06-4.9-10.18-4.01c0.2-1.86-0.11-3.81-1.37-5.65c-8.26-11.4-23.92,0.29-17.16,4.75
			c-0.88-1.4-0.63-2.63,0.26-3.61c9.98-1.57,1.38,11.86-9.93,11.45c-10.74-0.1-19.84-4.82-25.06-7.66c-0.8-1.06-1.48-2.03-1.92-2.74
			l-2.62-4.83l1.4,2.76c0.51,1.07,1.13,2.2,1.82,3.35c-4.42-7.09-9.07-16.91-8.36-29.39c0.56-15.07,8.25-32.15,21.42-45.7
			c13.34-12.36,30.57-20.38,45.3-17.8c10.09,1.25,18.58,4.79,25.56,8.11c-5.08-0.86-11.22-0.78-14.5,3.77
			c-1.54,3.02-1.28,5.56-0.65,7.6c-0.59,2.68,0.05,5.7,1.41,8.28c3.12,6.23,8.77,5.9,12.49,3.92c0.05,0.37,0.17,0.76,0.43,1.21
			c1.33,2.1,3.36,3.79,6.48,4.6c1.08,0.11,2.09,0.07,3.08-0.05c-4.63,5.84-7.08,14.76-2.13,24.39c5.32,7.6,16.3,10.32,22.82,5.49
			c2.93-2.16,5.4-5.89,3.83-9.41c-2.16-2.99-5.04-2.16-6.88-1.9c-4.17-1.05-0.24-9.36,5.95-10.31c7.42-2.25,16.96-2.14,27.06-1.9
			c18.62,2.39,37.04,2.83,45.79-2.01c2.51,0.49,5.14,0.85,7.91,1.02c0.53,0.02,1.08,0,1.62-0.01c-8.99,4.06-19.19,11.44-27.35,20.43
			c-0.56,0.56-1.09,1.16-1.61,1.77c-2.45,1.57-4.38,3.78-5.78,6.29c-4.78,4.04-8.61,11.8-3.38,20.64
			c3.38,5.92,12.83,7.74,16.42,2.49c4.24-3.78,2.28-11.35-1.76-10.26l-0.47-0.13c7.67,1.88-2.12,14.23-8.76,7.98
			c0.45,0.22,0.93,0.38,1.45,0.51c-3.02-1.93-5.96-8.59-4.3-15.35c0.37-0.89,0.8-1.75,1.28-2.55c-0.73,2.57-0.93,5.23-0.43,7.83
			c0.7,4.77,5.63,11.4,9.31,9.66c-3.99,0.64-11.22-10.67-6.24-20.83c1.38-1.38,2.85-2.35,4.12-2.77c-3.12,4.17-6.81,9.58-3.8,14.59
			c1.02,4.15,6.81,7.91,9.13,5.39c-3.25,1.76-14.05-8.19-5.27-17.66c5.08-6.87,11.7-13.17,16.93-17.4c2.16-1.64,4.53-3.29,6.94-4.89
			c1.09-0.62,2.21-1.18,3.36-1.66c-1.4,1.23-2.65,2.33-3.41,2.81l-1.33,0.96l-0.07,0.05l0.01-0.01h-0.01l0.04-0.03l0.87-0.5
			c0.14-0.08,0.3-0.17,0.44-0.25c0.33-0.17,0.64-0.35,1-0.54c-0.98,0.8-2.01,1.69-2.97,2.51l-0.11,0.07l0.07-0.04
			c-0.24,0.21-0.48,0.41-0.72,0.61c-4.45,2.25-9.61,6.17-14.33,11.35c-3.58,4.05-6.51,8.53-7.35,13.22
			c-1.01,5.18,3.07,8.52,5.34,8.78c-5.49-3.32-2.09-11.82,5.18-19.19c5.75-6.3,11.42-11.54,15.45-14.66
			c-0.73,1.01-1.45,2.09-2.15,3.21c-7.17,8.17-15.19,22-13.34,39.81c2.37,19.16,16.65,32.82,27.47,34.15
			c0.69,0.26,1.39,0.52,2.13,0.73c6.44,2.55,15.05,2.08,22.67-1.26c3.35,0.31,7.53,0.91,11.55,2.78c5.65,2.57,4.01,7.93,3.17,11.48
			c-0.48-0.06-0.95-0.14-1.44-0.3l-0.4-0.04c0.44,0.19,1.02,0.55,1.71,0.91c-0.01,0.03-0.02,0.07-0.03,0.1
			c0.04-0.01,0.08-0.04,0.12-0.05c1.94,1.02,4.74,2.05,8.02-0.47c3.8-3.88,2.95-9.91,0.76-14.58c-2.18-4.62-6.51-9.12-11.64-8.56
			c-0.1,0.01-0.18,0.05-0.27,0.06c2.95-3.66,5.05-8.18,5.75-13.57c1-10.02-3.69-19.28-10.94-24.59c-7.36-5.76-18.82-3.61-22.74,3.5
			c-4.16,5.73-5.79,15.7,1.08,18.8c5.87,2.49,10.13-3.11,8.99-6.78c0.07,0.02,0.12,0.08,0.19,0.1l0.7,0.5
			c-0.37-0.22-0.67-0.47-0.92-0.72c-0.16-0.45-0.4-0.87-0.73-1.24c-1.05-3.79,8.22-7.93,9.96,0.22c3.36,6.98-0.48,17.5-10.38,20.34
			c-17.98,6.43-29.65-9.99-33.18-19.41c1.17,0.85,2.67,1.44,4.57,1.51c6.21,0,9.64-4.95,9.58-7.34c-1.12,0.6-2.48,1.34-4.01,1.94
			l1.98-1.06l-2.11,1.03c-0.15,0.1-0.3,0.14-0.46,0.22c-1.47,0.53-3.09,0.94-4.86,0.95c-3.72-0.09-5.79-2.69-7.43-4.86l-0.11-0.18
			c-0.03,0.05-0.05,0.11-0.07,0.16c-1.92-2.69-3.3-6.03-3.92-9.19c0.37-2.07,0.84-4.06,1.41-5.98c-0.32,9.7,4.5,18.88,9.62,19.23
			c1.62,0.25,3.15-0.13,4.61-0.75c-0.35,0.14-0.71,0.26-1.08,0.34c-11.13,2.59-14.71-16.46-10.29-26.24
			c0.37-0.81,0.77-1.6,1.16-2.39c-3.58,10.86,0.68,23.03,4.64,26.06c2,1.61,4.75,1.22,6.85,0.13c0.34,0.06,0.68,0.11,1.02,0.13
			c-0.32-0.05-0.64-0.11-0.95-0.17c0.05-0.02,0.1-0.04,0.15-0.07c1.16,0.45,2.41,0.55,3.7,0.17l0.66-0.29
			c-8.69,2.73-12.63-21.04-2.23-32.59c8.33-9.14,17.62-16.38,23.97-22.26c4.08-3.39,7.57-7.07,9.2-10.98
			c1.67-2.07,3.16-4.33,4.45-6.8c1.13,6-1.31,14.48-8.19,23.55c-3.22,5.12-6.37,11.69-4.68,17.33c1.26,4.11,2.23,7.26,1.01,9.41
			c-0.15,0.11-0.33,0.23-0.46,0.35l-0.18,0.09c0.1,0.03,0.22,0.05,0.33,0.08c-0.23,0.29-0.49,0.55-0.82,0.8
			c0.57-0.07,1.04-0.32,1.47-0.64c2.55,0.53,6.77,0.65,11.11-2.56c1.25-1.19,2.04-2.45,2.54-3.71c0.61,2.16,1.62,4.38,3.34,6.51
			c4.52,6.85,17.58,9.98,25.75,2.25c9.72-5.61,7.74-22.79-2.94-23.24c-4.42-0.48-8.88,2.41-8.77,6.51c0.46,1.81,1.98,3.79,3.79,2.38
			c1.5-1.36-0.65-2.72-1-3.29c2.11,2.58-0.85,3.95-1.06,0.83c0.18-1.83,2.58-3.42,5-3.51l2.29,1.6c-0.66-0.62-1.44-1.12-2.25-1.6
			c0.52-0.02,1.04,0,1.54,0.14c2.68,0.47,4.48,2.24,5.3,4.55c0.29,3.32-0.54,6.99-2.06,10c-0.72,0.88-1.57,1.71-2.61,2.41
			c-0.61,0.48-1.21,0.9-1.82,1.28c4.22-4.75,5.19-11.96,3.66-14.26c-0.26-0.68-0.65-1.25-1.09-1.78c3.43,4.98,0.01,13.82-6.14,17.45
			c4.38-3.1,6.29-10.35,5.9-11.96c0.06-0.44,0.04-0.88,0.06-1.32c-0.43,5.55-4.61,16.01-12.55,12.89
			c-5.19-2.83-9.65-7.32-11.83-11.59c0.23,0.08,0.44,0.11,0.64,0.04c1.34,2.45,3.24,4.92,5.97,6.93c9.92,7.52,17.79-6.76,16.64-9.87
			c-0.1-0.82-0.41-1.51-0.83-2.12c2.9,5.58-5.99,16.08-13.05,12.07c-6.55-3.69-9.32-10.98-10.9-16.02c0.32-1.42,0.51-2.75,0.55-3.91
			c2.19,9.11,8.99,16.4,13.13,17.19c1.16,0.14,2.18-0.22,3.1-0.78c-8.92,2.51-15.42-12.53-15.64-21.98
			c0.09-0.66,0.18-1.34,0.28-2.03l0.24-0.51l-0.23,0.45c0.22-1.61,0.44-3.27,0.62-4.94c0.07,2.21,0.15,4.49,0.27,6.87
			c0.7,7.48,2.95,15.21,8.28,19.53c1.88,1.57,4.2,2.55,6.41,2.46c-0.05,0.04-0.1,0.08-0.16,0.12c0.07-0.05,0.16-0.07,0.22-0.12
			c0.84-0.04,1.65-0.22,2.42-0.6c2.91-1.77,2.12-4.86,1.56-6.33l-0.14-0.61c1.37,4.31-3.56,7.86-7.84,3.14
			c-3.96-3.87-5.9-10.68-6.54-18.12c-0.59-13.54-1.77-26.9-5.7-33.29C278.16,626.33,257.38,608.01,240.22,612.55z M62.71,718.23
			c1.6,0.88,3.26,1.43,4.91,1.77c0.06,0.03,0.11,0.05,0.16,0.07c-1.16-0.19-2.22-0.33-3.09-0.25c0.02,0.15,0.07,0.28,0.15,0.41
			c-6.08-2.38-10.69-8.97-10.45-16.27C55.04,708.47,56.86,715.09,62.71,718.23z M226.36,625.86c-0.78,1.73-1.16,3.53-1.24,5.31
			c-0.95,4.22,0.43,8.6,3.08,10.82C223.81,639.55,223.38,632.2,226.36,625.86z M246.05,631.11c7.23,7.93,3.62,20.43-4.7,24.41
			c0.26-0.57,0.48-1.15,0.66-1.74c5.4-4.47,9.37-12.45,5.25-19.55c-2.86-7.05-12.86-14.37-19.49-8.11c1.36-2.61,3.83-4.75,7.18-4.38
			C239.43,622.62,243.2,626.84,246.05,631.11z M122.21,700.65c-0.91-1.78-1.49-3.6-1.8-5.41c0.81-4.46,3.49-10.27,9.12-14.62
			c0.52-0.37,1.05-0.71,1.58-1.02c0.25-0.09,0.46-0.22,0.72-0.29c3.07-1.18,6.36-1.82,9.43-2.18c-8.62,1.69-17.35,6.54-18.84,15.28
			c-0.78,4.17,0.32,8.06,2.38,11.03C123.87,702.6,122.97,701.7,122.21,700.65z M115.98,675.3c-1.17-0.44-2.18-1.1-2.84-1.77
			c0.31-0.77,0.91-1.65,1.74-2.52l0.91,0.51l-0.54-0.4c-0.08-0.06-0.18-0.14-0.26-0.21c0.48-0.5,1.03-0.99,1.65-1.44l1.54,0.87
			l-0.94-0.62c-0.15-0.1-0.32-0.23-0.48-0.34c2.16-1.54,5.08-2.65,8.3-2.17c3.21-0.05,6.5,0.28,9.54,0.77
			c-1.31-0.11-2.62-0.19-3.95-0.21c-6.06-0.67-14.27,2.27-14.63,7.31c0.94-5.09,15.41-6.52,24.94-5.84c0.58,0.13,1.18,0.27,1.72,0.4
			c-2.54,0.01-5.21,0.25-7.98,0.8c-6.87,0.75-12.39,5.67-16.4,5.41c-0.78-0.07-1.57-0.26-2.3-0.54c0-0.08,0.01-0.15,0.02-0.23
			C115.99,675.14,115.98,675.22,115.98,675.3z M126.54,637.61c0.02,0.02,0.04,0.04,0.06,0.05l-0.04-0.04
			C126.56,637.62,126.55,637.62,126.54,637.61z M107.39,618.06c-0.19-0.12-0.37-0.24-0.57-0.36c-1.35-1.16-2.72-2.27-4.1-3.24
			C104.27,615.52,105.84,616.72,107.39,618.06z M101.9,613.93c-0.64-0.43-1.28-0.84-1.93-1.22
			C100.6,613.09,101.25,613.5,101.9,613.93z M147.84,637.93c-0.15,0.22-0.3,0.48-0.44,0.76c-0.29,0.16-0.54,0.4-0.81,0.63
			c0.24-0.65,0.63-1.15,1.16-1.51C147.78,637.84,147.82,637.88,147.84,637.93z M191.73,672.18c2.14,0.81,4.8,1.53,7.78,1.96
			c0.12,0.77,1.04,1.35,2.36,1.72c0.04,0.04,0.07,0.08,0.11,0.11c-0.11,0.03-0.25,0.04-0.36,0.08c0.05,0.12,0.14,0.21,0.24,0.31
			c-3.84-1.44-7.34-2.94-10.49-4.16C191.5,672.19,191.61,672.18,191.73,672.18z M203.67,674.51c0.19,0.09,0.36,0.18,0.57,0.27
			l-0.21-0.02l0.29,0.05c0,0.03,0.01,0.06,0.01,0.08c-0.87-0.16-1.71-0.34-2.49-0.51C202.44,674.44,203.05,674.49,203.67,674.51z
			 M223.97,670.1c-2.05,1.06-4.16,2.01-6.25,2.79c-0.36-0.07-0.88-0.02-1.54,0.11l0.21-0.08l-0.34,0.11
			c-0.15,0.03-0.29,0.05-0.44,0.09C218.54,672.39,221.35,671.33,223.97,670.1z M202.93,678.61c-0.05,0-0.09-0.01-0.14-0.02
			l0.03-0.02C202.86,678.58,202.9,678.59,202.93,678.61z M202.46,678.4c-0.12,0.02-0.25,0.04-0.38,0.07
			c-1.48-0.24-3.13-0.51-4.88-0.82c1.27,0.1,2.53,0.13,3.8,0.1C201.49,677.97,201.97,678.19,202.46,678.4z M146.28,640.63
			c0.15-0.25,0.36-0.48,0.55-0.71c-0.23,0.58-0.44,1.24-0.61,1.94C146.22,641.43,146.24,641.02,146.28,640.63z M203.96,677.11
			c0.3,0.08,0.62,0.16,0.97,0.23l-0.29,0.01C204.41,677.27,204.19,677.19,203.96,677.11z M208.76,674.81
			c-0.11,0.01-0.22,0.04-0.33,0.05c-0.65-0.09-1.28-0.22-1.9-0.37c2.1-0.08,4.27-0.32,6.45-0.81c0.77-0.14,1.54-0.3,2.31-0.49
			C213.37,673.65,210.87,674.43,208.76,674.81z M190.08,672.17c3.07,1.61,6.55,3.53,10.48,5.37c-1.11,0.08-2.22,0.11-3.33,0.09
			c0.39-0.09,0.78-0.17,1.11-0.26l0.37-0.04c-4.17-1.35-12-2.28-20.17-5.59c-3.99-1.69-7.64-3.62-10.81-5.3
			c0.3,0.06,0.62,0.14,0.88,0.18c-0.57-0.59-1.34-1.23-2.19-1.9C175.32,669.49,184.06,671.87,190.08,672.17z M134.77,647.27
			l-1.38-1.09l-0.03-0.02l0.3,0.11c0.48,0.4,0.95,0.79,1.39,1.15C134.96,647.38,134.86,647.33,134.77,647.27z M133.44,646.1
			c-0.11-0.04-0.24-0.1-0.35-0.14c-1.61-1.11-3.14-2.51-4.64-4.12C130.23,643.4,131.91,644.82,133.44,646.1z M102.34,616
			c0.19,0.16,0.38,0.33,0.62,0.52c-2.49-1.54-4.99-2.89-7.4-3.95C97.68,613.44,100.01,614.55,102.34,616z M108.9,622.43
			c4.37,3.31,8.28,7.39,11.7,11.19c-7.73-7.16-15.88-14.31-23.91-18.9C100.47,616.65,104.77,619.17,108.9,622.43z M130.75,644.32
			l2.02,1.52c-0.36-0.14-0.74-0.29-1.1-0.44c-0.44-0.48-0.89-0.96-1.37-1.46C130.45,644.05,130.61,644.22,130.75,644.32z
			 M126.47,640.19c-0.33-0.3-0.66-0.61-1-0.92c0.27,0.23,0.53,0.47,0.79,0.69C126.33,640.03,126.4,640.12,126.47,640.19z
			 M133.06,646.05l1.4,1.06c-0.81-0.45-1.63-0.91-2.46-1.35c-0.05-0.06-0.11-0.11-0.16-0.18L133.06,646.05z M169.09,675.24
			c-1.34-0.09-2.69-0.16-4.06-0.21c-0.49-0.22-1.03-0.46-1.61-0.72l1.1-0.05h-1.23c-4.04-1.76-10.23-4.09-17.77-4.56
			c-1.24-0.28-2.55-0.55-3.9-0.79c-4.32-1.31-9.21-2.63-14.28-3.08c-2.48-0.84-5.52-0.4-8.21,0.69c-0.23-0.18-0.46-0.37-0.71-0.57
			c0.8-0.32,1.67-0.57,2.58-0.76l0.11,0.06l-0.1-0.07c1.61-0.33,3.4-0.46,5.37-0.24c8.95,0.21,18.36,2.97,22.24,4.11l5.16,1.57
			l-2.89-0.96c-5.74-1.94-13.7-5.01-22.06-5.97c-1.63-0.36-3.34-0.47-5.02-0.36c-0.09-0.06-0.19-0.14-0.27-0.2
			c0.14,0,0.27-0.01,0.41,0c9.76-0.19,19.89,2.96,24.05,4.46l5.49,2.04l-3.07-1.22c-2.77-1.08-6.08-2.44-9.71-3.65l-1.19-0.63
			l2.27,0.57c8.46,3.75,16.34,6.7,22.18,7.39C165.65,673.25,167.36,674.32,169.09,675.24z M148.35,676.04
			c-2.15-0.14-4.48-0.12-6.91,0.11c1.69-0.24,3.36-0.37,4.97-0.44c0.52,0.06,1.08,0.11,1.64,0.16c0.26,0.03,0.51,0.06,0.78,0.09
			C148.67,675.97,148.51,676.01,148.35,676.04z M143.98,669.64c-0.19-0.06-0.41-0.12-0.61-0.18c0.51,0.06,1.01,0.13,1.47,0.21
			C144.57,669.65,144.27,669.65,143.98,669.64z M131.34,677.04c-0.92,0.22-1.91,0.51-2.9,0.87c0.75-0.34,1.56-0.63,2.43-0.85
			C131.03,677.05,131.17,677.04,131.34,677.04z M131.37,677.68c-0.11,0.01-0.25,0.04-0.37,0.06c0.77-0.42,1.46-0.74,1.97-0.85
			c0.23-0.03,0.45-0.05,0.68-0.08C132.89,677.08,132.12,677.32,131.37,677.68z M123.15,681.96c0.02,0,0.04,0,0.06,0
			c-0.05,0.12-0.14,0.24-0.18,0.36c0.14,0.05,0.31,0.02,0.47,0.01c-0.55,0.36-1.04,0.73-1.5,1.13c0.02-0.05,0.04-0.1,0.06-0.15
			C122.38,682.87,122.75,682.42,123.15,681.96z M108.19,671c0.02-0.37,0.14-0.77,0.33-1.17c0.38,0.08,0.71,0.14,0.96,0.14l1.18,0.24
			l-0.66-0.22c-0.44-0.09-0.88-0.29-1.33-0.53c0.19-0.33,0.43-0.66,0.71-0.99c0.71,0.38,1.47,0.75,2.23,1.08
			c-0.13,0.23-0.26,0.48-0.36,0.72C110.28,670.65,109.23,670.93,108.19,671z M106.52,668.02c0.31-0.28,0.66-0.56,1.02-0.84
			c0.26,0.26,0.58,0.53,0.99,0.78c-0.17,0.39-0.29,0.79-0.37,1.21C107.61,668.83,107.07,668.44,106.52,668.02z M103.44,669.1
			c0.14-0.36,0.3-0.73,0.5-1.1c0.1,0.05,0.2,0.11,0.3,0.17c-0.28,0.32-0.51,0.66-0.73,1.01
			C103.48,669.15,103.46,669.12,103.44,669.1z M101.43,665.44c-0.02,0.12,0.07,0.25,0.1,0.37c-0.14-0.31-0.26-0.61-0.37-0.91
			c0.27-0.28,0.61-0.62,0.97-0.98c0.03,0.05,0.08,0.1,0.13,0.14c-0.19,0.47-0.31,0.94-0.4,1.43
			C101.72,665.48,101.58,665.43,101.43,665.44z M110.75,657.28c0.05,0.02,0.13,0.03,0.18,0.05c-0.27,0.07-0.53,0.16-0.8,0.24
			C110.34,657.46,110.55,657.37,110.75,657.28z M128.39,661.79c-1-0.22-2.01-0.41-3.06-0.58c0.77,0.04,1.53,0.08,2.28,0.17
			C127.9,661.52,128.15,661.65,128.39,661.79z M114.58,663.25l-0.04-0.05c0,0,0.03-0.02,0.06-0.03l0.05,0.02l-0.04-0.03
			c0.44-0.19,0.9-0.37,1.36-0.54c0.07,0.04,0.13,0.06,0.19,0.09C115.63,662.88,115.09,663.05,114.58,663.25z M109.32,666.69
			c-0.24-0.12-0.48-0.2-0.72-0.28c0.27-0.18,0.55-0.37,0.83-0.55c0.14,0.07,0.28,0.14,0.41,0.21
			C109.65,666.27,109.48,666.48,109.32,666.69z M110.73,665.08c0.63-0.36,1.29-0.71,1.99-1.04c0,0,0.02,0,0.03,0.01
			c-0.67,0.35-1.31,0.71-1.87,1.13C110.83,665.15,110.78,665.11,110.73,665.08z M110.22,663.75c-0.27-0.24-0.58-0.51-0.89-0.77
			c0.26-0.11,0.52-0.22,0.81-0.32c0.25,0.1,0.5,0.2,0.73,0.29c0.11,0.1,0.22,0.19,0.35,0.28
			C110.89,663.4,110.55,663.57,110.22,663.75z M117.43,660.35c-0.07,0-0.13,0-0.19,0.01c-0.11-0.08-0.21-0.15-0.28-0.23
			c0,0,0.03,0,0.07,0.01C117.16,660.21,117.29,660.28,117.43,660.35z M113.07,659.5c0.11,0.04,0.23,0.08,0.36,0.11
			c0.27,0.28,0.65,0.51,1.1,0.71c-0.06,0-0.13,0-0.2,0C113.92,660.04,113.49,659.78,113.07,659.5z M109.8,659.31
			c0.1,0.07,0.19,0.14,0.3,0.2c0.02,0.14,0.08,0.27,0.16,0.39c-0.41-0.2-0.83-0.35-1.24-0.44c0.13-0.05,0.26-0.1,0.4-0.15
			C109.55,659.32,109.67,659.32,109.8,659.31z M106.31,661.08c0.1-0.08,0.2-0.15,0.3-0.23c0.46,0.36,1.06,0.7,1.72,1.01
			c-0.1,0.04-0.19,0.09-0.29,0.14C107.48,661.62,106.9,661.3,106.31,661.08z M112.08,662.18c0.07-0.01,0.13-0.02,0.21-0.03
			c0.24,0.07,0.44,0.15,0.65,0.22c-0.03,0.01-0.07,0.03-0.1,0.04C112.58,662.3,112.33,662.25,112.08,662.18z M113.27,662.03
			c0.17-0.01,0.34-0.02,0.51-0.03c-0.12,0.05-0.25,0.1-0.37,0.16C113.37,662.12,113.31,662.08,113.27,662.03z M121.37,659.96
			c-0.24-0.09-0.48-0.18-0.72-0.27c0.28,0.01,0.56,0.01,0.84,0.03c0.11,0.07,0.18,0.14,0.31,0.19
			C121.66,659.92,121.51,659.94,121.37,659.96z M108.41,663.41c0.56,0.17,1.08,0.33,1.49,0.51c-0.17,0.09-0.33,0.18-0.5,0.29
			c-0.37-0.24-0.76-0.49-1.13-0.72C108.32,663.47,108.36,663.44,108.41,663.41z M117.15,662.38c0.05,0.02,0.11,0.03,0.12,0.05
			c0,0-0.02,0-0.04,0.01C117.21,662.42,117.18,662.4,117.15,662.38z M117.57,662.36c-0.09-0.05-0.18-0.11-0.28-0.16
			c0.37-0.12,0.75-0.2,1.12-0.3c0.3,0.04,0.61,0.08,0.95,0.11C118.75,662.11,118.15,662.23,117.57,662.36z M114.4,656.3
			c-0.31-0.03-0.62-0.05-0.91-0.06c0.17-0.02,0.33-0.03,0.49-0.03C114.11,656.24,114.25,656.27,114.4,656.3z M104.02,663.6
			c0.15-0.22,0.32-0.43,0.48-0.65c0.32,0.24,0.67,0.49,1.07,0.74c-0.19,0.16-0.38,0.33-0.55,0.49
			C104.69,663.96,104.35,663.76,104.02,663.6z M106.83,664.46c0.37,0.21,0.74,0.42,1.13,0.62c-0.27,0.17-0.56,0.33-0.83,0.51
			c-0.06,0.04-0.11,0.09-0.17,0.13c-0.26-0.23-0.52-0.45-0.79-0.67C106.37,664.84,106.59,664.64,106.83,664.46z M110.49,667.36
			c0.23-0.2,0.48-0.4,0.74-0.59c0.63,0.31,1.24,0.61,1.83,0.89c-0.3,0.31-0.58,0.63-0.84,0.96
			C111.66,668.17,111.08,667.74,110.49,667.36z M112.2,666.11c0.74-0.46,1.56-0.89,2.47-1.28c0.51,0.2,1.02,0.39,1.51,0.57
			c-0.95,0.51-1.83,1.08-2.57,1.74C113.15,666.8,112.69,666.46,112.2,666.11z M116.18,664.27c0.65-0.22,1.32-0.41,2.04-0.57
			c0.36,0.18,0.69,0.33,0.96,0.48c-0.72,0.22-1.41,0.48-2.07,0.77C116.81,664.71,116.5,664.49,116.18,664.27z M118.75,663.57
			c1.41-0.28,2.94-0.44,4.54-0.44l0.38,0.21c-1.45,0.1-2.87,0.35-4.21,0.74C119.22,663.92,118.99,663.76,118.75,663.57z
			 M129.9,662.11c-0.29-0.07-0.61-0.13-0.91-0.19c-0.16-0.14-0.31-0.26-0.49-0.42c0.09,0.02,0.18,0.03,0.28,0.04
			c0.03,0.01,0.1,0.03,0.1,0.03l1.07,0.31l-0.57-0.25c4.09,0.67,7.6,1.86,9.7,2.38l1.55,0.72
			C137.28,663.6,133.66,662.62,129.9,662.11z M127.33,660.36c-0.29-0.18-0.59-0.37-0.94-0.55c4.24,0.89,7.85,2.08,9.81,2.85
			l1.65,0.77C134.69,662.37,131.15,661.06,127.33,660.36z M138.33,663.47c-3.48-1.67-8.05-3.52-13.09-4.79l0.69-0.04l-0.88-0.01
			c-0.28-0.07-0.55-0.14-0.83-0.2c-0.67-0.35-1.35-0.64-2.01-0.79c-0.09-0.11-0.18-0.21-0.28-0.31c4.18,1.04,8.59,2.4,13.05,4.23
			c2.13,0.99,4.24,1.96,6.33,2.89c-0.78-0.19-1.59-0.42-2.42-0.69L138.33,663.47z M107.39,655.27c1.38,0.1,2.73,0.27,4.05,0.48
			c-2.08-0.08-4.32-0.03-6.26,0.44c-0.45-0.19-0.96-0.35-1.51-0.45C104.65,655.31,105.86,655.11,107.39,655.27z M101.62,658.92
			c1.71-0.47,5.17-1.46,8.35-2.11c0.02,0.02,0.06,0.03,0.07,0.05c-0.54,0.15-1.08,0.33-1.62,0.54c-0.18-0.04-0.37-0.11-0.54-0.12
			c0.01,0.1,0.05,0.2,0.09,0.3c-0.5,0.21-0.99,0.45-1.47,0.7c-0.29,0.07-0.58,0.1-0.88,0.17c-2.22,0.27-3.93,1.65-4.97,3.3
			C100.71,660.64,101.07,659.69,101.62,658.92z M103.26,664.9c0.23,0.15,0.47,0.29,0.74,0.43c-0.16,0.22-0.3,0.43-0.45,0.66
			c-0.22-0.11-0.44-0.19-0.67-0.27C103,665.45,103.12,665.18,103.26,664.9z M104.73,666.69c0.17-0.25,0.36-0.49,0.56-0.73
			c0.3,0.13,0.58,0.26,0.88,0.37c-0.31,0.25-0.61,0.51-0.89,0.77C105.1,666.95,104.91,666.82,104.73,666.69z M113.13,669.38
			c0.37-0.36,0.77-0.72,1.22-1.08c0.13,0.06,0.24,0.11,0.36,0.17c-0.45,0.29-0.98,0.61-1.56,0.93L113.13,669.38z M114.58,668.7
			l0.15-0.22c0.18,0.09,0.36,0.18,0.52,0.26c-0.25,0.2-0.48,0.4-0.7,0.6C114.59,669.12,114.6,668.9,114.58,668.7z M114.77,667.98
			c0.93-0.69,2.02-1.33,3.26-1.86c0.35,0.15,0.65,0.31,0.87,0.45l0.05,0.03c-1.27,0.52-2.44,1.18-3.43,1.93
			C115.28,668.35,115.03,668.16,114.77,667.98z M102.32,667.34c0.04-0.11,0.06-0.23,0.1-0.35c0.13,0.11,0.29,0.22,0.45,0.33
			c-0.08,0.22-0.15,0.44-0.2,0.67C102.55,667.78,102.43,667.56,102.32,667.34z M104.68,670.08c0.23-0.39,0.57-0.8,0.98-1.23
			c0.86,0.37,1.7,0.67,2.43,0.87c-0.03,0.42,0,0.84,0.07,1.29c-0.79,0.05-1.58-0.01-2.33-0.26
			C105.45,670.51,105.08,670.28,104.68,670.08z M127.35,677.01c-0.01,0.01-0.02,0.03-0.04,0.04c-0.72,0.31-1.4,0.66-2.05,1.05
			c0.12-0.15,0.24-0.29,0.36-0.43C126.2,677.46,126.78,677.24,127.35,677.01z M120.3,689.65c0.12-0.05,0.25-0.15,0.36-0.24
			c-0.17,0.37-0.3,0.75-0.45,1.12C120.23,690.23,120.26,689.94,120.3,689.65z M124.24,699.19c-3.2-8.41,4.86-18.32,15.76-20.28
			c4.37-0.95,8.83-1.61,13.24-2.06l2.8,0.19l-2.34-0.23c2.23-0.22,4.45-0.39,6.63-0.49c1.37,0.02,2.52,0.05,3.2,0.11l2.08,0.22
			l-1.16-0.21c-0.31-0.07-0.68-0.14-1.03-0.21l1.6,0.05l-0.76-0.07c2.36-0.04,4.66-0.01,6.9,0.07c1.79,0.86,3.6,1.59,5.4,2.2
			c-8.25-0.94-16.93-1.57-25.64-0.61c-9.56,0.39-21.96,3.12-24.8,13.26c-3.14,9.48,5.67,14.19,11.5,15.88
			c-2.89,0.8-6.32,0.32-9.46-1.29C126.5,704.32,125.01,702.26,124.24,699.19z M196.6,680.62c0.38,0.08,0.76,0.19,1.15,0.26
			c-0.61-0.04-1.23-0.1-1.84-0.15C196.15,680.69,196.37,680.65,196.6,680.62z M197.51,680.44c1.27-0.26,2.43-0.59,3.48-1
			c1.19-0.07,2.27-0.16,3.25-0.28c1.28,0.54,2.63,1.05,4.01,1.53l-1.72,0.21c-2.31,0.18-4.76,0.17-7.31,0.04
			C198.66,680.78,198.1,680.61,197.51,680.44z M204.89,677.43c0.11-0.01,0.22-0.02,0.33-0.04c0.31,0.06,0.65,0.11,0.99,0.16
			c0.13,0.16,0.29,0.31,0.47,0.47C206.08,677.83,205.48,677.63,204.89,677.43z M221.27,672.81l0.98-0.61
			c2.69-1.33,5.33-2.85,7.73-4.46c0.42-0.19,0.84-0.39,1.25-0.59c-3.21,2.19-6.64,4.17-10.05,5.75
			C221.22,672.87,221.25,672.84,221.27,672.81z M231.67,666.84c-0.43,0.23-0.88,0.42-1.31,0.63c2.26-1.54,4.28-3.15,5.9-4.76
			c0.31-0.19,0.66-0.4,0.91-0.57l3.53-2.96C238.21,661.82,235.1,664.46,231.67,666.84z M226.67,659.36
			c4.7-0.62,10.16-2.51,13.62-6.68c0.9-0.8,1.68-1.7,2.34-2.7c-0.04,0.24-0.08,0.47-0.11,0.7c-1.32,1.95-2.89,3.66-4.45,5.02
			c-1.69,1.11-3.4,2-5.06,2.7c-2.33,0.55-4.55,0.85-6.62,1.01C226.49,659.39,226.58,659.37,226.67,659.36z M243.46,630.99
			c6.73,6.29,4.7,16.38-1.13,21.52c0.04-0.19,0.09-0.37,0.13-0.55c3.69-4.42,5.73-10.28,3.06-16.83c-1.68-6.26-10-9.81-15.04-5.99
			c-1.99,1-3.32,2.66-4.02,4.46c-0.07-1.01-0.04-2.08,0.1-3.22C228.46,624.07,238.92,623.42,243.46,630.99z M241.01,653.55
			c0,0-0.04,0.03-0.07,0.06c0.49-0.48,0.96-1.01,1.42-1.54c-0.03,0.17-0.05,0.33-0.08,0.5
			C241.88,652.91,241.46,653.23,241.01,653.55z M243.51,648.41c1.92-2.82,2.71-6.32,1.14-10.68c-2.13-5.53-8.57-8.3-13.72-6.79
			c-0.83,0.34-1.53,0.81-2.12,1.36c2.95-3.52,10.2-4.89,13.77,0.53c4.95,6.17,3.36,12.72,0.02,17.74c0.01-0.21,0.04-0.42,0.05-0.63
			C242.99,649.46,243.27,648.95,243.51,648.41z M228.04,639.38c-0.18-0.33-0.33-0.69-0.48-1.06c-0.06-1.18,0.25-2.56,1.32-4.01
			c2.34-3.71,9.46-2.61,13.07,1.41c1.93,2.47,2.59,4.82,2.48,7.02c-0.08-0.71-0.2-1.44-0.43-2.19c-1.12-5.03-6.29-8.03-10.69-7.64
			C229.2,633.17,227.93,636.65,228.04,639.38z M239.34,655.65c0.81-0.46,1.62-1.01,2.4-1.63l-0.33,0.51
			c-0.2,0.41-0.48,0.83-0.71,1.24c-0.34,0.14-0.68,0.3-1.04,0.41c-1.27,0.56-2.53,1.01-3.77,1.41
			C237.05,657.02,238.21,656.39,239.34,655.65z M240.75,655.76l1.15-1.87c0.02-0.02,0.05-0.04,0.07-0.06
			c-0.02,0.05-0.02,0.1-0.04,0.15c-0.25,0.56-0.53,1.11-0.84,1.65C240.97,655.67,240.86,655.71,240.75,655.76z M240.27,656.93
			c-0.1,0.16-0.21,0.31-0.32,0.47c0.04-0.13,0.08-0.26,0.11-0.38C240.13,656.97,240.2,656.96,240.27,656.93z M231.67,643.45
			c-0.25-0.05-0.56-0.18-0.91-0.36l-0.03-0.09C231.04,643.17,231.35,643.33,231.67,643.45z M230.71,643.06
			c-0.17-0.09-0.34-0.19-0.52-0.31c0.05,0,0.09,0.01,0.14,0.01c0.11,0.08,0.24,0.16,0.36,0.22
			C230.69,643,230.7,643.03,230.71,643.06z M230.24,642.7c-0.07-0.01-0.14-0.03-0.2-0.04c-0.35-0.24-0.71-0.52-1.07-0.87
			c0-0.03,0-0.06,0-0.1C229.38,642.08,229.8,642.41,230.24,642.7z M228.81,639.02c0.17-1.27,0.59-2.72,2.06-3.8
			c2.68-1.79,8.4-0.57,10.82,3.42c0.22,0.36,0.38,0.72,0.55,1.08C238.9,635.91,231.09,635.91,228.81,639.02z M185.4,626.15h-0.02
			c-0.03,0-0.05,0-0.08,0c0.21-0.18,0.39-0.36,0.55-0.54l0.23-0.11C185.85,625.72,185.63,625.94,185.4,626.15z M193.6,607.62
			c-1.76-1.87-5.75-4.52-10.73-4.96c-5.07-1.09-9.99,1.29-12.29,3.85c-0.71-0.53-1.44-1.02-2.19-1.43c1.66-2.3,3.73-4.41,6.63-5.17
			c4.94-1.18,9.84-0.19,13.35,0.75C190.92,602.43,192.81,604.79,193.6,607.62z M165.37,603.89c2.94-2.87,6.91-5.13,10-6.79
			c2.46-0.09,4.91,0.21,7.2,0.87c-1.9-0.3-4.06-0.34-6.29,0.21c-4.22,0.84-6.76,3.89-8.41,6.64
			C167.03,604.41,166.2,604.09,165.37,603.89z M167.26,605.87c-0.75,1.39-1.31,2.63-1.72,3.3l-0.17,0.27
			c-1.1-0.48-2.21-0.83-3.3-1.02c0.49-1.13,1.21-2.19,2.05-3.19C165.12,605.24,166.18,605.42,167.26,605.87z M167.68,606.07
			c0.23,0.11,0.45,0.18,0.68,0.33c0.55,0.29,1.08,0.62,1.59,0.98c-0.36,0.55-0.63,1.1-0.69,1.6l-0.48,2.38
			c-1.03-0.71-2.13-1.35-3.27-1.86C166.18,608.46,166.89,607.28,167.68,606.07z M171.44,597.59c-2.52,1.55-5.24,3.78-7.2,6.09
			c-1.41-0.14-2.75,0.13-3.98,0.94c0.55-0.64,1.13-1.26,1.77-1.87C164.64,600.03,167.95,598.37,171.44,597.59z M159.53,605.53
			c0.71,0.15,1.97-0.16,3.53-0.27c-0.73,1.08-1.24,2.12-1.44,3.09c-1.55-0.21-3.02-0.07-4.26,0.57
			C157.95,607.75,158.68,606.62,159.53,605.53z M233.48,662.21c-12.64,4.61-37.48,3.06-47.11-6.54l0.2-0.18l-0.23,0.15
			c-0.76-0.76-1.46-1.55-2.01-2.42c0.03,0.56,0.57,1.55,1.54,2.73c-1.79,1.29-4.12,1.02-5.93,1.17c-0.1-0.03-0.2-0.04-0.3-0.02
			c-0.23-0.66-0.52-1.42-1.36-0.74c-0.36-0.3-0.73-0.61-1.1-0.92c2.08-0.26,4.6-1.38,5-2.23l0.91-0.55l-0.56,0.24
			c-1.99,1.03-4.74,1.12-6.87,1.24c-0.04-0.04-0.08-0.07-0.12-0.11c0.19-0.04,0.37-0.09,0.46-0.13l0.37,0.01l-0.22-0.09
			c-0.92-0.26-1.24-1.5-2.19-1.24c-0.41-0.38-0.82-0.77-1.24-1.17c2.03,0.08,5.45-1.18,6.32-1.87l0.95-0.37l-0.58,0.13
			c-2.21,0.8-5.63-0.01-7.71,1.14c-2.89-2.85-5.82-6.11-8.6-9.85c-0.37-0.44-0.72-0.91-1.07-1.37c2.39-1.47,9.65-2.51,12.47-1.63
			l1.83,0.16l-1.02-0.18c-3.03-0.96-11.54-3.08-13.62,1.21c-1.06-1.45-2.03-3.02-2.9-4.68c1.68-0.26,10.54-1.25,13.68-0.33l1.8,0.23
			l-1-0.22c-3.55-0.88-11.69-3.89-14.5,0.27c-0.56-1.06-1.06-2.17-1.52-3.3c1.5-1.92,7.94-3.44,10.75-2.26l1.64,0.26l-0.91-0.23
			c-2.38-1.48-10.79-2.74-11.75,1.59c-0.51-1.33-0.93-2.72-1.27-4.12c2.14-2.04,10.17-2.15,13.18-1.03l1.97,0.24l-1.09-0.22
			c-2.89-1.06-12.27-4.32-14.2,0.4c-0.31-1.41-0.51-2.84-0.61-4.27c2.57-1.84,10.28-1.01,12.8,0.76l1.86,0.92l-1.01-0.6
			c-1.98-1.96-11.04-5.64-13.75-2.38c-0.03-1.34,0.08-2.68,0.27-4.01c2.82-1.74,13.35,1.01,16.2,3.69l2.04,1.22l-1.1-0.76
			c-3.14-2.82-13-9.44-17.08-4.49c0.29-1.89,0.83-3.75,1.65-5.56c1.17-0.27,2.82-0.22,4.64,0.08l-0.53,2.52l0.41-1.57
			c0.04-0.32,0.12-0.63,0.19-0.95c0.99,0.16,2.01,0.4,3.03,0.7l-0.95,1.56l1.03-1.54c1.36,0.4,2.71,0.91,3.94,1.51l-0.08,0.44
			l0.1-0.43c2.14,1.05,3.88,2.36,4.57,3.79l1.61,2.08l-0.84-1.23c-0.75-1.78-2.71-3.85-5.13-5.52l0.18-0.77
			c0.24-1.2,0.69-2.17,1.25-3.01c3,2.15,5.42,5.11,6.54,6.36l1.76,2.12l-0.92-1.25c-0.96-2.34-3.58-5.67-6.72-8.08
			c5.11-5.56,17.99-1.87,22.84,1.71c0.07,0.38,0.18,0.74,0.22,1.14c0.44,2.64,0.52,5.53,0.07,8.12c-0.65-1.15-2.56-3.4-5.63-3.33
			c-3.61-0.42-6.79,1.78-8.1,2.26l-1.79,0.79l1.04-0.37c4.39-2.45,10.95-1.33,14.43,1.04c-0.54,2.73-1.73,5.08-3.83,6.35
			c-0.04,0.04-0.1,0.07-0.14,0.12l0.17-0.24l-0.4,0.4c-0.01,0.01-0.02,0.02-0.03,0.04c0.8-1.5,1.29-2.99,1.09-3.77l0.3-1.29
			l-0.25,0.71c-0.46,2.01-2.07,3.91-3.62,5.59c-0.17,0.13-0.32,0.26-0.49,0.38c0.99-1.32,1.7-2.74,1.69-3.42l0.53-1.02l-0.37,0.53
			c-0.62,1.07-1.57,2.04-2.56,2.97l-0.18,0.05c0.27-0.33,0.48-0.64,0.51-0.87l0.49-0.51l-0.35,0.24c-0.87,0.82-1.94,1.02-2.93,1.33
			h-0.01c0.33-0.39,0.54-0.81,0.42-1.05l0.22-0.35l-0.2,0.15c-0.79,0.87-1.72,0.31-2.33,0.9c-0.33,0-0.65,0.05-0.98,0.25
			c-0.01,0.02,0.01,0.04,0,0.07h-0.06c-0.06-0.4-0.06-0.87,0.06-1.43l0.16-1.31c-0.66,0.9-0.92,1.72-0.86,2.44
			c-0.15,0.12-0.25,0.25-0.33,0.37c-0.42-2.92,0.6-5.19,3.99-5.72c-8.45-0.6-5.94,12.74-0.03,19.27
			c5.03,7.25,13.02,13.93,23.35,17.41c0.52,0.22,1.04,0.47,1.58,0.66c-0.51-0.19-1.01-0.42-1.52-0.64c1.25,0.42,2.51,0.82,3.83,1.14
			c1.21,0.41,2.45,0.74,3.73,1.02c-2.05-0.34-4.08-0.83-6.03-1.52c1.2,0.44,2.41,0.83,3.66,1.12c5.2,1.18,11.51,1.81,18.11,0.9
			c-1.61,0.52-3.11,0.88-4.45,1.1l-0.95,0.09c0.27-0.01,0.53-0.04,0.8-0.07c-0.73,0.12-1.43,0.21-2.04,0.25
			c-2.6,0.22-5.3,0.05-7.79-0.75c1,0.35,2.03,0.61,3.08,0.77c2.85,0.36,6.06,0.18,9.35-0.54l0.98-0.1c1.17-0.22,2.47-0.66,3.81-1.25
			c1.27-0.26,2.54-0.57,3.82-0.95c0.98-0.19,1.95-0.5,2.9-0.88c-0.63,0.92-1.36,1.83-2.16,2.73l-2.53,0.77
			c-18.47,7.22-52.14-7.45-57.06-24.53c0.07,2.45,5.75,15.95,19.41,21.44c12.81,6.39,28.22,5.56,34.24,4.28l5.9-1.9
			c-0.4,0.44-0.77,0.88-1.2,1.32L233.48,662.21z M211.57,670.74c6.78-0.29,13.35-2.44,18.35-4.68c-3.77,2.14-8.05,3.8-12.48,4.97
			c-2.79,0.23-5.68,0.18-8.63-0.11C209.72,670.89,210.63,670.85,211.57,670.74z M176.41,661.81c13.32,7.63,29.35,10.16,39.81,9.53
			c-4.69,1.12-9.49,1.66-13.97,1.6c-0.34-0.17-0.69-0.33-1.02-0.54c0.07,0.18,0.22,0.36,0.34,0.53c-6.11-0.17-11.58-1.5-15.28-4.1
			c0.15,0.29,0.45,0.62,0.88,0.96c-5.69-2.2-13-5.41-20.62-9.83c-8.41-4.75-14.51-10.59-17.54-15.83c-0.3-0.69-0.56-1.34-0.73-1.92
			c-0.08-0.97-0.14-1.9-0.17-2.74c0.07-0.19,0.15-0.37,0.28-0.51c-0.11,0.07-0.19,0.18-0.29,0.26c-0.01-0.17-0.01-0.33-0.02-0.48
			c0.07-0.06,0.15-0.12,0.22-0.17C152.67,644.72,162.86,655.02,176.41,661.81z M148.05,638.43c0-0.07,0-0.14-0.01-0.2
			c0.04,0.06,0.07,0.11,0.11,0.16C148.12,638.4,148.09,638.41,148.05,638.43z M146.92,636.49c0.21,0.37,0.45,0.75,0.73,1.17
			c-0.66,0.05-1.24,0.25-1.74,0.58C146.15,637.59,146.47,637,146.92,636.49z M144.21,652.75c-2.21-1.32-4.47-2.65-6.77-3.96
			c-0.77-0.62-1.54-1.26-2.32-1.93l3.6,1.39l-3.74-1.52c-1.46-1.24-2.94-2.56-4.45-3.94l3.7,2.85l-3.04-2.44
			c-4.19-3.75-9.18-9.89-14.68-15.92c0.07,0.06,0.14,0.12,0.21,0.18c2.21,2.3,4.39,4.57,6.47,6.71c0.54,0.64,1.02,1.22,1.43,1.71
			l4.34,4.14l-2.12-2.13c3.43,3.45,6.38,6.26,8.46,7.8l6.57,4.39l-3.66-2.54c-3.9-2.71-8.01-6.95-12.3-11.66
			c6,5.83,12.07,10.79,17.84,14.92C143.87,651.45,144.03,652.1,144.21,652.75z M64.02,623.11c-1.27-1.4-2.21-3.22-2.48-5.36
			c-0.65-5.11,2.95-12.34,10.1-10.07c3.43,0.37,7.24,1.48,11.88,0.16c6.23-3.71,1.83-9.58,5.19-10.31
			c4.79-3.76,9.95,2.74,14.04,9.14c-3.82-3.1-7.77-5.27-11.74-5.78c3.19,0.93,9.1,5.58,15.11,11.04c1.2,1.83,2.41,3.61,3.66,5.33
			c-5.47-6.25-11.37-11.56-17.46-12.88c2.49,0.97,6.77,4.59,11.45,9.08c-4.94-3.77-10-6.35-15.16-6.54c1.3,0.82,5.65,2.4,10.82,5.45
			c-4.03-2.26-8.15-3.46-12.3-2.91c0.51,0.31,1.56,0.65,2.99,1.12c-1.39-0.39-2.74-0.71-3.99-0.85c0.57,0.37,1.75,0.89,3.36,1.6
			c-2.58-0.91-5.14-1.46-7.65-1.54c2.72,1.48,16.51,5.45,28.05,15.97c3.69,3.12,7.41,6.36,10.97,9.47
			c-12.65-10.6-29.4-21.35-40.37-24.53c1.56,2.26,12.93,6.92,23.7,13.58c10.6,7.24,21.53,15.49,25.53,19.74
			c0.4,0.38,0.81,0.73,1.23,1.08c-0.22-0.1-0.44-0.17-0.67-0.27c-0.39-0.2-0.78-0.41-1.17-0.62c-7.15-4.88-14.94-10.36-22.33-16.06
			c-10.33-9.04-22.87-15.96-32.98-17.07c11.17,2.84,35.44,19.94,51.86,31.36c-1.41-0.71-2.84-1.4-4.29-2.09
			c-0.64-0.35-1.31-0.72-1.96-1.09c-15.75-10.98-34.52-24.4-49.75-25.13c8.28,1.63,23.6,9.86,37.3,18.01
			c-13.02-7.45-26.84-14.55-38.26-13.99c10.89,1.31,32.36,12.14,47.52,19.87c-1.54-0.67-3.09-1.31-4.67-1.94
			C95.96,627.67,77,617.65,64.02,623.11z M26.99,655.93c8.31-10.6,18.71-19.5,30.63-23.23c12.13-3.06,24.87-2.31,36.29,0.72
			c3.39,0.8,6.68,1.75,9.89,2.78c-14.66-3.77-31.63-7.25-48.97-1.41c-20.91,9.35-38.67,29.82-44.92,53.47
			C12.94,676.23,19.16,664.91,26.99,655.93z M10.2,703.03c-1.49-27.21,18.51-51.44,37.92-64.24c11.85-6.82,23.77-7.45,33.99-6.39
			c-29.54-0.21-65.89,27.22-70.62,64.83c-0.73,10.16,1.46,20.22,5.63,29.15C13.28,719.44,10.72,711.61,10.2,703.03z M30.61,737.82
			c2.65,3.66,6.1,7.37,10.14,10.43c-11.93-7.74-19.56-20.6-21.1-27.59c3.03,8.12,7.91,14.17,11.65,18.17
			C31.08,738.5,30.84,738.16,30.61,737.82z M41.96,749.04c4.83,2.84,10.05,3.08,14.55,2.86c1.99,0.5,4.07,0.97,6.21,1.39
			C56.67,754,48.84,754.27,41.96,749.04z M67.31,743.67c6.13-2.08,7.24-10.26,4.16-13.43c1.31,0.46,2.83,1.18,3.57,2.97
			c0.91,3.23-2.12,7.91-5.92,10.79c-3.51,2.31-7.5,3.22-11.29,3.4c2.07-0.34,4.04-1.03,5.81-1.99
			C64.89,744.95,66.12,744.41,67.31,743.67z M78.68,735.15c0.66,3.62-2.44,6.85-5.48,9.3c-1.4,0.72-2.92,1.33-4.42,1.79
			c-0.58,0.18-1.17,0.29-1.75,0.44c0.15-0.06,0.31-0.08,0.46-0.16c4.42-2.07,7.89-5.88,9.02-10.27c0.27-1.04,0.21-1.9,0.02-2.68
			C77.17,733.93,78.03,734.4,78.68,735.15z M57.26,748.7c3.63,0.6,8.14,1.06,12.42,0.84c-0.13,0.04-0.24,0.08-0.36,0.12
			c-7.38,0.28-14.3-0.98-17.64-1.71l-1.52-0.2c0.16-0.03,0.32-0.05,0.49-0.07C52.75,748.18,54.97,748.53,57.26,748.7z M84.7,743.03
			c-1.15,2.76-4.31,5.74-9.8,6.13c-1.09,0.18-2.18,0.29-3.27,0.39c0.32-0.08,0.66-0.18,0.99-0.27c2.3-0.32,4.42-0.92,6.17-1.87
			C80.85,746.68,83.52,744.85,84.7,743.03z M84.4,739.72c0.2,0.07,0.44,0.14,0.71,0.23c0.05,0.23,0.08,0.48,0.08,0.74
			C85.07,740.33,84.8,740.01,84.4,739.72z M72.58,750.8c4.27-0.07,8.92-1.28,11.76-4.3c2.17-1.71,2.5-4.36,1.67-6.23
			c1.49,0.62,2.99,1.77,1.85,4.45c-1.6,3.91-6.79,6.65-12.42,6.7c-3.53,0.11-7.12-0.07-10.56-0.4l0.15-0.02
			c0.31-0.06,0.68-0.14,1-0.21C68.19,750.98,70.38,751.01,72.58,750.8z M65.62,750.75L64.56,751c-6.67-0.65-12.64-1.89-16.23-3
			l0.54-0.07c0.28-0.05,0.59-0.08,0.88-0.12C54.15,748.57,59.69,750.2,65.62,750.75z M68.91,752.57c-0.76,0.04-1.6,0.12-2.52,0.25
			c-2.85-0.27-5.62-0.63-8.1-1.03c1.25-0.09,2.41-0.17,3.48-0.22C64.11,751.98,66.49,752.32,68.91,752.57z M70.66,754.53
			c-3.15,0.04-6.96,0.15-10.7,0.22c2.35-0.19,4.58-0.5,6.63-0.77C67.95,754.18,69.3,754.37,70.66,754.53z M91.02,746.46
			c-0.06,0.65-0.28,1.28-0.64,1.84c0,0,0-0.03,0-0.05c0,0.03-0.01,0.07-0.01,0.07c-0.85,1.39-2.33,2.55-3.55,3.44l-0.22,0.14
			c0.02,0,0.05,0,0.05,0c-3.42,1.21-8.8,1.51-14.46,1.29c-0.19-0.18-0.43-0.31-0.72-0.41c0.32,0.03,0.63,0.06,0.95,0.08
			c5.19,0.4,11.13-0.55,14.68-4.36c2.27-1.73,2.65-4.17,2.01-6.11c0.18,0.21,0.38,0.4,0.56,0.63c1.13,1.21,1.45,2.34,1.36,3.39
			c-0.04,0.02-0.07,0.04-0.12,0.05C90.94,746.48,90.98,746.46,91.02,746.46z M84.81,739.24c-0.28,0.04-0.55,0.11-0.83,0.22
			c-0.22-0.11-0.44-0.23-0.71-0.33c1.87,1.02,1.3,2.43-0.5,3.92c0.47-0.68,0.65-1.42,0.43-2.22c-0.06,0.84-0.26,1.59-0.51,2.29
			c-1.24,1.01-3.03,2.05-5,3.03c-3.95,1.4-9.32,2.25-14.07,2.49c0.93-0.09,1.86-0.18,2.79-0.34c0.85-0.17,1.7-0.38,2.56-0.61
			c-0.08,0.07-0.18,0.15-0.26,0.21l-0.34,0.21c2.27-0.26,5.57-1.11,9.11-3.41c1.8-0.86,3.84-3.1,4.84-5.83
			C83.12,738.8,83.94,738.92,84.81,739.24z M77.83,732.95c0.13,0.22,0.21,0.44,0.32,0.65c-0.56-0.33-1.16-0.55-1.76-0.58
			c-0.54-1.4-1.7-2.35-3-2.94C75.2,730.5,76.84,731.41,77.83,732.95z M64.76,731.81c1.1-1.07,3-1.79,5.07-1.97
			c0.59,0.69,1.2,1.73,1.58,2.96c-0.26-0.48-0.64-0.86-1.29-1C68.01,730.82,66.07,731.22,64.76,731.81z M71.74,734.56
			c0.12,1.88-0.44,3.99-2.45,5.92c0.34-0.5,0.67-1,0.92-1.53C70.8,738.3,71.65,736.29,71.74,734.56z M47.52,746.81
			c0.91,0.29,1.86,0.56,2.83,0.8l-0.58,0.09l-3.63-0.48l3.11,0.49c0.06,0.01,0.13,0.03,0.2,0.04l-1.26,0.2
			c-0.43-0.14-0.9-0.28-1.25-0.4l-6.57-2l3.68,1.21c1.11,0.44,2.33,0.86,3.6,1.28l-1.28,0.2l1.38-0.17
			c2.83,0.94,5.97,1.83,9.34,2.58c-1.91-0.07-4.06-0.18-6.35-0.5c-0.42-0.13-0.8-0.26-1.11-0.38c-1.86-0.52-3.71-1.13-5.42-1.98
			l2.97,1.31c0.85,0.31,1.76,0.62,2.71,0.92c-1.88-0.3-3.8-0.73-5.67-1.44c-4.32-2.12-8.14-5.47-11.1-8.65
			C36.6,742.7,41.48,745.46,47.52,746.81z M16.86,704.88c-0.04,5.61,0.97,10.6,2.52,15.01c1.85,9.45,8.31,20.7,18.35,27.81
			c4.52,4.92,9.97,6.69,15.37,7.11c-2.05-0.01-3.88-0.06-5.32-0.17c-3.51-1.4-6.98-3.37-10.32-5.79
			c-14.79-12.82-24.05-32.72-23.36-41.64c-0.07-2.72,0.45-5.3,1.29-7.81l-0.98,2.51c-2.09,10.5,2.94,23.58,11,35.18
			c-5.96-7.74-10.4-17.25-11.94-27.77c-4.54-23.24,10.16-46.05,25.79-58.86c15.21-14.66,33.5-18.79,43.93-16.84
			c4.2,0.42,8.57,0.59,12.83,1.13c2.16,0.45,4.14,0.84,5.89,1.12c2.78,0.72,5.47,1.72,7.96,3.29c-2.23-1.49-4.71-2.47-7.29-3.18
			c0.08,0.01,0.17,0.03,0.26,0.04c0.38,0.08,0.78,0.17,1.17,0.26c9.78,3.17,18.79,7.31,27.21,11.75c0.15,0.14,0.32,0.25,0.46,0.39
			c-0.11-0.12-0.24-0.22-0.35-0.34c4.85,2.56,9.51,5.21,14.02,7.83c2.48,5.75,7.12,8.95,10.75,10.23c1.03,0.9,2.11,1.77,3.24,2.63
			c-6.13-2.87-13.79-6.94-22.71-11.11c-2.74-1.12-5.46-2.01-8.12-2.71c-3.51-1.68-7.74-3.35-12.54-4.58
			c-2.44-1.55-5.16-3.18-8.16-4.76c2.67,0.97,4.95,1.83,6.53,2.33l6.49,1.82l-3.63-1.1c-4.31-1.93-10.02-4.22-16.23-6.22
			c-3.66-1.5-7.65-2.83-12.09-3.77c12.83,1.33,24.23,5.46,29.39,8.21c3.55,1.75,7.27,3.11,11.02,4.41l-6.26-2.35
			c-11.67-6.39-29.7-12.71-48.18-12c-9.29,0.39-17.72,5.07-24.75,8.73c-6.76,3.29-13.04,7.44-15.44,12.72
			c1.65-2.71,7.15-6.78,14.67-10.76c-3.85,2.51-7.55,5.39-10.97,8.58C24.43,670.48,16.68,688.86,16.86,704.88z M112.77,671.85
			c-0.11,0.32-0.18,0.64-0.18,0.95c-0.13-0.22-0.19-0.43-0.21-0.64C112.51,672.06,112.65,671.96,112.77,671.85z M139.78,697.51
			c-0.44,0.02-0.84-0.01-1.18-0.1C139.01,697.4,139.4,697.44,139.78,697.51z M171.69,680.95c-10.2-0.22-20.15,0.01-28.23,3.27
			c-9.41,1.39-9.71,16.7-3.07,13.44c3.38,1.04,5.4,5.03-0.06,8.14c-0.59,0.4-1.22,0.72-1.88,0.97c-2.8-1.17-8.3-3-11.15-8.88
			c-2.64-8.27,6.95-17.5,18-17.94c11.9-2.24,24.27-1.47,34.71-0.43c4.98,1.3,9.77,1.72,13.87,1.42c2.19,0.18,4.1,0.26,5.75,0.2
			c0.17,0.03,0.33,0.05,0.49,0.07c-0.07-0.02-0.16-0.05-0.25-0.07c0.29-0.01,0.62-0.01,0.89-0.03c2.56,0.05,5.1-0.1,7.64-0.36
			c2.6,0.91,5.36,1.69,8.31,2.3C207.06,685.1,191.12,683.43,171.69,680.95z M233.4,693.22c-1.01,0.91-1.97,1.86-2.82,2.87
			c-0.18,0.18-0.36,0.34-0.53,0.53c-0.54,0.62-0.98,1.28-1.44,1.94c4.35-6.97,10.18-13.2,15.52-17.33c2.98-1.01,5.93-2.27,8.77-3.84
			c-0.59,0.5-1.21,1.02-1.86,1.56C245.66,682.6,239.5,687.2,233.4,693.22z M227.48,684.19c-7.09,3.81-14.88,9.96-22.37,16.57
			c8.07-8,16.92-14.12,22.07-16.56C227.28,684.19,227.38,684.19,227.48,684.19z M199.5,709.82c-0.72-0.17-1.59-0.1-2.53,0.16
			c0.17-0.23,0.33-0.46,0.51-0.69c0.16-0.12,0.27-0.26,0.44-0.38c11.4-10.48,23.43-21.59,29.83-24.72c0.08,0,0.15,0,0.23,0
			c-1.83,1.23-3.47,2.53-4.13,3.11l-1.32,0.85l0.79-0.4c0.99-0.51,2.19-1.09,3.44-1.68c-4.89,3.32-9.96,7.33-12.98,10.22
			c-4.55,3.58-9.16,7.84-13.42,12.39C200.07,709.04,199.78,709.43,199.5,709.82z M225.34,688.73c-0.28,0.14-0.57,0.31-0.84,0.45
			c1.03-0.68,2.07-1.34,3.1-1.98c0.18-0.06,0.38-0.14,0.57-0.2c-0.46,0.4-0.91,0.79-1.35,1.19L225.34,688.73z M225.82,692.02
			c0.04-0.03,0.08-0.06,0.09-0.07c0,0-0.02,0.03-0.04,0.06C225.85,692.02,225.84,692.02,225.82,692.02z M262.44,726.68
			c0.19,0.2,0.32,0.42,0.44,0.64C262.73,727.12,262.6,726.88,262.44,726.68z M260.39,729.97c0.12,0.1,0.23,0.2,0.35,0.3
			c-0.24-0.15-0.52-0.26-0.79-0.39C260.09,729.91,260.25,729.93,260.39,729.97z M269.37,749.83c-0.03,0.16-0.05,0.33-0.09,0.49
			c-0.05,0.13-0.1,0.26-0.16,0.39C269.21,750.43,269.29,750.13,269.37,749.83z M269.52,749.73c0.16-0.74,0.25-1.53,0.29-2.35
			c0.12-1.18,0.16-2.41,0.01-3.73c-0.96-5.66-3.17-10.91-6.2-15.25c-0.04-0.43-0.17-0.86-0.37-1.29c2.9,3.01,6.14,7.98,6.61,14.68
			C270.59,744.73,270.34,747.39,269.52,749.73z M256.89,727.96c0.58,0.23,1.14,0.5,1.68,0.79c-0.54-0.04-1.09-0.01-1.65,0.07
			c-2.32-0.44-4.88-0.22-7.22,1.01c-0.78,0.37-1.42,0.81-1.98,1.3C249.62,728.73,252.49,727.06,256.89,727.96z M249.02,731.98
			c1.45-1.28,3.1-1.94,4.75-2.23c-2.83,1.25-5.5,3.51-6.98,6C247.12,734.39,247.79,733.08,249.02,731.98z M259.32,730.18
			c-0.05,0-0.09-0.02-0.14-0.02c-1.59,0.17-2.98,0.84-4.13,1.77c0.95-0.93,1.96-1.67,2.95-2.12
			C258.46,729.91,258.9,730.04,259.32,730.18z M267.17,752.38c-0.87,1.97-2.09,3.7-3.51,5.1c-0.51,0.39-1.02,0.75-1.53,1.07
			C264.24,756.85,265.95,754.72,267.17,752.38z M261.4,759.28c-0.53,0.34-1.07,0.63-1.61,0.89c0.29-0.17,0.56-0.35,0.84-0.53
			C260.89,759.52,261.14,759.4,261.4,759.28z M219.56,737.26c-0.07,0.11-0.14,0.24-0.18,0.38c-0.31-0.77-0.73-1.44-1.35-1.84
			c-0.01,0.01-0.01,0.03-0.03,0.04l-0.01,0.01c-0.04-0.24-0.09-0.47-0.13-0.69c0.22,0.15,0.43,0.3,0.65,0.44
			C218.78,736.19,219.13,736.74,219.56,737.26z M214.45,729.87l-0.01,0.03c-0.05-0.07-0.1-0.14-0.15-0.21
			c-0.04-0.09-0.06-0.2-0.11-0.29C214.26,729.56,214.36,729.72,214.45,729.87z M218.32,747.27c0.27,0.51,0.55,1.02,0.82,1.52
			c0.01,0.09,0.03,0.19,0.04,0.29C218.88,748.47,218.6,747.88,218.32,747.27z M216.54,735.02c-0.03-0.3-0.08-0.62-0.1-0.92
			c0.11,0.09,0.22,0.17,0.32,0.25C216.65,734.53,216.58,734.76,216.54,735.02z M220.54,751.35c-0.06-0.16-0.11-0.31-0.18-0.47
			c0.34,0.54,0.67,1.03,0.99,1.48C221.08,752.03,220.8,751.69,220.54,751.35z M222.11,746.43l-0.03-0.09
			c-0.37-0.7-0.67-1.54-0.95-2.45c0.48,0.91,0.97,1.71,1.38,2.25c0.3,0.72,0.64,1.44,1.02,2.17l-0.2-0.26
			C222.91,747.58,222.51,747.02,222.11,746.43z M214.13,729.32c-0.02,0.01-0.04,0.04-0.06,0.06c-0.27-0.37-0.51-0.74-0.74-1.1
			c0-0.22,0.04-0.42,0.04-0.64C213.59,728.18,213.83,728.74,214.13,729.32z M213.43,731.02l0.02,0.03
			c-0.02,0.18-0.02,0.36-0.03,0.55c-0.05,0.07-0.08,0.16-0.12,0.24c-0.01-0.33,0.01-0.65,0-0.98
			C213.34,730.91,213.39,730.96,213.43,731.02z M213.58,733.97c0.04,0.29,0.08,0.58,0.14,0.88c-0.01,0.62,0.11,1.34,0.32,2.12
			c-0.01-0.03-0.02-0.07-0.04-0.1c-0.09,0.09-0.15,0.23-0.21,0.37c-0.01-0.05-0.02-0.11-0.03-0.17
			C213.6,736.02,213.53,734.98,213.58,733.97z M224.58,755.92l0.9,0.65l-1.17-0.93l-0.49-0.55c-0.72-0.87-1.38-1.96-2.02-3.13
			c2,2.9,4.51,5.75,7.62,8.25C227.71,758.88,226.09,757.44,224.58,755.92z M229.54,760.3c0.6,0.48,1.24,0.95,1.89,1.4
			C230.79,761.25,230.16,760.78,229.54,760.3z M217.44,740.39c-0.04-0.15-0.08-0.28-0.11-0.42c0.11,0.26,0.21,0.52,0.33,0.78
			c0.1,0.42,0.26,0.88,0.41,1.33C217.84,741.51,217.63,740.94,217.44,740.39z M222.5,747.4c0.09,0.05,0.18,0.12,0.26,0.16l0.87,0.95
			c0.12,0.23,0.21,0.45,0.34,0.69C223.46,748.6,222.96,748,222.5,747.4z M270.85,764.76c0.01,0,0.04-0.01,0.04-0.01
			c0.04,0.02,0.06,0.03,0.1,0.04C270.95,764.79,270.89,764.77,270.85,764.76z M280.63,771.45c0,0,0-0.02,0-0.04
			c0.01,0.04,0.04,0.11,0.04,0.11L280.63,771.45z M280.39,771.12l0.01,0.04c-0.04-0.04-0.06-0.09-0.11-0.16c0,0-0.01-0.04-0.03-0.07
			c0.04,0.04,0.08,0.08,0.11,0.13L280.39,771.12z M277.22,784.38c0.94-0.81,1.94-2.34,2.56-4.17l0.01-0.01
			c0.12-0.09,0.19-0.18,0.3-0.28l-0.27,0.17c0.78-2.42,0.85-5.36-0.92-7.86c2.01,1.82,3.22,3.88,2.65,5.84
			c0.74-1.82,0.09-3.95-1.36-5.93c0,0,0,0-0.01-0.01c0.39,0.29,0.75,0.58,1.06,0.85l0.4,0.88l-0.26-0.75
			c0.26,0.24,0.49,0.46,0.65,0.67l0.26,0.25C284.74,780.35,281.42,784.33,277.22,784.38z M282.14,773.59
			c-0.26-0.37-0.55-0.78-0.87-1.25c-0.09-0.6-0.3-1.2-0.63-1.79c-0.01-0.07,0.01-0.12,0-0.19c0.2,0.43,0.4,0.86,0.59,1.35
			C281.59,772.35,281.89,772.97,282.14,773.59z M274.7,747.2c-2.07,17.16-20.97,24.85-33.76,21.48c-6.56-1.22-11.52-4.51-15.06-8.48
			l0.01,0.01l-0.02-0.02c-0.03-0.04-0.07-0.07-0.1-0.11l-0.32-0.39c-0.67-0.73-1.33-1.75-2.03-2.81c0.51,0.48,1.04,0.97,1.6,1.43
			c7.06,8.7,18.18,10.89,26.03,10.26c-5.4,0.15-11.08-1.69-16.35-4.76c13.89,7.43,30.53-2.27,32.76-8.28
			c0.26-0.38,0.46-0.79,0.68-1.18c-5.22,8.87-20.27,14.61-32.01,8.52c-6.15-3.35-10.97-8.37-14.38-13.67l0.15,0.18l-0.3-0.42
			c-0.1-0.16-0.18-0.31-0.28-0.47c1.21,1.69,2.71,3.34,4.52,4.77c0.88,0.83,1.79,1.6,2.74,2.32c5.56,6.03,16.07,10.38,26.11,6.69
			c3.5-0.79,7.06-2.39,9.87-4.85c1.48-1.03,2.84-2.27,3.95-3.73c-0.11,0.22-0.26,0.43-0.38,0.65c0.14-0.24,0.29-0.46,0.41-0.7
			c1.84-2.43,3-5.46,2.83-9.15c0.48-9-4.62-18.11-10.72-20.23c-0.07-0.04-0.14-0.09-0.21-0.14
			C268.63,726.68,276.47,736.69,274.7,747.2z M232.33,762.31c0.56,0.4,1.13,0.75,1.71,1.09
			C233.47,763.05,232.9,762.69,232.33,762.31z M247.7,728.55c1.75-2.74,4.06-4.22,6.55-4.79c0.81,0.14,1.76,0.31,2.77,0.54
			c-0.04,0.03-0.08,0.03-0.12,0.06c0.34,0.7,1.79,1.24,3.12,1.91c0.15,0.15,0.3,0.33,0.45,0.49c-4.42-2.65-10.39-1.64-12.32,1.86
			c-0.73,0.67-1.39,1.45-1.97,2.27C246.65,730.08,247.16,729.28,247.7,728.55z M244.15,739.91c0.17-0.85,0.47-2.23,0.98-3.76
			c-0.33,2.56,0.3,5.23,0.94,7.14C245.01,742.41,244.4,741.24,244.15,739.91z M247.02,743.96c-0.03-0.02-0.06-0.04-0.1-0.07
			c0-0.28-0.01-0.59-0.06-0.94c0.33,0.37,0.71,0.74,1.19,1.08c-0.84-1.07-2.16-6.31,2.24-10.62c1.5-1.92,3.57-3,5.6-3.47
			c-5,2.73-9.74,9.94-6.05,13.34c-0.83-1.79,0.74-5.73,3.14-8.97c-1.9,3.11-1.9,6.99,1.04,8.09
			C252.59,744.36,249.79,745.49,247.02,743.96z M254.04,742.41c-1.1-0.54-1.63-3.44-0.28-6.3c-0.03,1.05,0.34,1.94,1.15,2.44
			C255.25,739.88,254.87,741.28,254.04,742.41z M254.63,737.79c0-0.01-0.01-0.03-0.01-0.03
			C254.62,737.77,254.63,737.78,254.63,737.79z M227.34,733.05c-8.85-2.53-10.19-18.47-5.82-27.97c4.04-9.44,10.6-16.99,16.01-22.04
			c1.21-0.26,2.43-0.55,3.65-0.89c-3.91,2.74-8.27,6.67-11.57,11.99c-6.89,10.61-10.48,24.8-7.09,30.2c0.19,0.58,0.46,1.1,0.76,1.6
			c0.25,0.64,0.53,1.24,0.85,1.72c1.41,2.48,4.02,3.98,6.75,4.47C229.76,732.64,228.6,733.04,227.34,733.05z M225.52,704.23
			c-2.77,6.19-3.68,12.7-3.16,17.58C221.35,716.23,222.73,710.13,225.52,704.23z M231.18,732c-0.07,0.03-0.13,0.05-0.2,0.08
			c-1.4-0.28-2.75-0.73-3.95-1.51c-0.85-0.73-1.53-1.59-2.13-2.51c0.7,0.77,1.46,1.5,2.2,2.22l-2.36-2.46
			c-2.71-4.42-2.71-10.68-0.85-16.86C222.65,720.63,226.06,729.97,231.18,732z M257.76,674.49c-0.12,0.08-0.23,0.15-0.37,0.24
			c0.11-0.13,0.22-0.26,0.33-0.39c0.29-0.21,0.57-0.41,0.85-0.62C258.3,673.97,258.02,674.23,257.76,674.49z M266.44,684.99
			c7.16-8.87,8.93-21.43,5.04-26.72c0.34-0.7,0.68-1.41,0.99-2.14c0.18,0.21,0.37,0.45,0.55,0.71c1.26,2.69,2.13,7.06,2.1,12.28
			c-0.32,2.04-0.92,4.19-1.95,6.41c-0.8,2.08-1.72,4.2-2.65,6.28l-0.57,0.62c-1.69,2.09-4.67,4.5-6.52,7.79
			C264.3,688.53,265.33,686.79,266.44,684.99z M274.03,698.88c-0.05-0.09-0.1-0.18-0.15-0.28c0.01-0.05,0.01-0.09,0.02-0.14
			c0.04,0.06,0.05,0.11,0.08,0.16C273.99,698.71,274,698.79,274.03,698.88z M273.83,699.15c0-0.07,0.01-0.14,0.02-0.21
			c0.08,0.53,0.25,1.35,0.54,2.38c-0.23-0.45-0.44-0.9-0.62-1.34c-0.01-0.38-0.03-0.76-0.07-1.1l0.01,0.02l0.11,0.6L273.83,699.15z
			 M282.29,711.04c-1.51-1.22-2.79-2.76-3.9-4.38c1.69,1.95,3.8,3.83,6.31,5.3c0.64,0.4,1.27,0.7,1.86,0.95
			C285.04,712.52,283.61,711.88,282.29,711.04z M267.97,701.78c2.77-5.75,4.94-13.78,5.87-17.74
			C274.72,689.48,271.22,696.95,267.97,701.78z M266.06,693.73c-0.19,1.06-0.63,2.17-1.2,3.3
			C265.22,695.95,265.62,694.85,266.06,693.73z M269.47,684.15l-0.34,0.58c-1.17,1.64-2.46,3.88-3.66,6.31
			c0.78-2.74,1.77-5.04,3.12-5.96l1.21-1.64C269.68,683.67,269.58,683.91,269.47,684.15z M269.08,685.02
			c-0.9,1.97-1.78,3.89-2.55,5.71c0.73-2.17,1.46-4,2.15-4.94L269.08,685.02z M269.86,683.3l-0.62,0.75
			c-2.73,2.05-4.85,6.16-6.11,10.42c0.46-5.05,4.62-8.92,5.87-10.79l1.46-1.71C270.25,682.42,270.05,682.87,269.86,683.3z
			 M273.45,682.4l0.31,0.95c-2.58,6.11-4.95,15.03-8.63,20.65C268.47,697.62,271.78,686.69,273.45,682.4z M273.46,682.35
			c0.1-0.24,0.19-0.51,0.28-0.7l0.19-0.39c0,0.53,0,1.06,0.04,1.59c-0.05,0.12-0.11,0.25-0.16,0.37
			C273.69,682.93,273.58,682.64,273.46,682.35z M273.92,681.02c-0.18,0.35-0.37,0.71-0.56,1.08c-0.04-0.08-0.07-0.18-0.11-0.26
			l0.1,0.28c-2.03,3.97-4.15,9.13-6.26,14.04c0.13-0.4,0.25-0.74,0.34-0.95l0.44-0.99l-0.32,0.52c-0.47,0.75-1.18,1.66-1.88,2.63
			c0.38-1.43,0.58-2.71,0.48-3.43l0.08-0.65c1.88-4.7,4.38-9.65,7.2-14.59c0.38-0.71,0.72-1.47,1.05-2.24
			c-0.11,0.65-0.23,1.31-0.36,1.97C274.01,679.3,273.95,680.16,273.92,681.02z M261.15,699.64c-0.37-2.52,0.31-5.12,1.54-7.86
			c-0.44,1.07-0.77,2.22-0.85,3.49c-0.19,2.31-0.15,4.58-0.21,6.65c-0.03,0.15-0.07,0.3-0.08,0.44
			C261.47,701.43,261.35,700.5,261.15,699.64z M267.8,704.45c-0.26,0.2-0.54,0.39-0.81,0.57c-0.41,0.17-0.84,0.36-1.24,0.58
			c0.17-0.24,0.34-0.52,0.51-0.78c1.33-0.13,2.84-1.82,4.21-4.23C269.83,702.01,269.02,703.39,267.8,704.45z M275.2,698.06
			c0.27,0.63,0.54,1.27,0.89,1.91C275.5,699.48,275.35,698.77,275.2,698.06z M273.98,694.49c-0.08-0.11-0.14-0.22-0.26-0.32
			c-0.24,0.04-0.42,0.14-0.55,0.28c0.18-0.55,0.35-1.09,0.51-1.63C273.76,693.34,273.84,693.88,273.98,694.49z M273.94,683.63
			c0.02-0.1,0.03-0.16,0.05-0.26c0.02,0.24,0.06,0.47,0.09,0.7C274.04,683.93,274,683.78,273.94,683.63z M275.69,659.29
			c-0.48-1.05-1.1-1.96-1.91-2.68c-0.32-0.42-0.67-0.8-1.06-1.14c0.35-0.86,0.71-1.71,1.01-2.6c0.41-1.24,0.68-2.47,0.93-3.69
			C275.24,651.98,275.51,655.4,275.69,659.29z M269.68,651.6c-6.35,19.64-26.82,28.8-42.85,29.53c-5.92,0.18-11.37-0.69-16.38-2.01
			c-0.4-0.26-0.79-0.55-1.17-0.87c0.75,0.22,1.48,0.36,2.11,0.38c8.23,2.23,23.14,2.71,35.97-6.22
			c18.93-12.12,19.58-38.55,14.89-46.29c-0.24-0.61-0.54-1.17-0.83-1.74c5.67,12.26,2.48,32.38-10.66,43.63
			c-11.48,10.32-27.46,12.08-38.73,9.73c1.9-0.12,3.92-0.43,6.02-0.98c4.32,0.21,21.46-1.44,32.49-14.97
			c11.38-14.7,2.94-35.59-5.33-38.47c9.51,5.58,13.39,22.18,6.71,33.92c-7.43,12.73-22.22,16.95-32.01,18.96
			c0.98-0.33,1.96-0.7,2.93-1.15c5.85-1.39,12.07-4.15,17.57-8.92c18.85-11.61,12.86-39.76,3.58-42.72
			c10.27,6.98,11.41,28.52-0.48,38.38c-3.25,2.95-6.87,5.48-10.62,7.52c6.24-4.5,10.93-9.85,12.71-12.89
			c1.02-1.93,1.76-4.02,2.64-6.03l-1.51,3.39c-2.95,6.32-9.96,12.34-17.91,16.66c5.29-3.8,9.51-8.54,12.01-11.36l1.29-1.08
			l-1.15,0.92c0.3-0.34,0.58-0.66,0.84-0.92c-0.29,0.33-0.62,0.66-0.93,1l-1.6,1.28c-0.74,0.64-1.56,1.25-2.44,1.83
			c0.85-0.9,1.56-1.79,2.11-2.66l0.72-0.23l-0.71,0.21c0.18-0.28,0.34-0.56,0.49-0.84c0.41-0.54,0.79-1.05,1.06-1.53
			c0.07-0.11,0.11-0.23,0.18-0.34c7.5-3.47,13.15-12.59,9.26-21.33c-2.02-4.84-6.49-11.78-11.82-14.23
			c0.27,0.08,0.55,0.14,0.82,0.22c0.26,0.04,0.5,0.15,0.76,0.21c-0.73-0.25-1.47-0.48-2.22-0.68l-0.04-0.01l0.99-0.03l1.55,0.62
			c0.21,0.03,0.39,0.09,0.59,0.13l-1.97-0.74h0.16c0.26-0.03,0.51,0,0.76-0.01c-0.35,0-0.69-0.04-1.04-0.03l-3.91-1.49l3.72,1.48
			c-0.33,0-0.65,0.02-0.97,0.04c-0.83-0.31-1.68-0.52-2.55-0.58c-0.75-0.15-1.5-0.29-2.26-0.42c0.7,0.13,1.39,0.28,2.09,0.43
			c-2.09-0.09-4.25,0.61-6.4,2.5c-0.72,0.91-1.3,1.87-1.76,2.86c2.52-5.23,7.37-9.71,14.23-10.06c6.05-1.28,12.39,0.47,17.72,4.16
			l0.89,1.06c-0.24-0.33-0.5-0.64-0.75-0.97C267.8,626.32,273.89,638.72,269.68,651.6z"/>
		<path id="XMLID_00000017506916480082334040000016150221252553564289_" d="M82.17,710.77c1.47,2.97,1.52,5.35,0.61,7.18
			C84.34,716.08,84.54,713.61,82.17,710.77z"/>
		<path id="XMLID_00000008114982869120813800000006278036722257054341_" d="M62.75,619.16c1.89-0.65,3.89-0.91,5.95-1.01
			C65.95,617.81,63.87,618.08,62.75,619.16z"/>
		<path id="XMLID_00000163071805770773215840000015218640107549139360_" d="M64.72,614.33c1.59-0.25,3.24-0.27,4.93-0.2
			C67.47,613.7,65.77,613.71,64.72,614.33z"/>
		<path id="XMLID_00000155124921125676303020000003828987928959908536_" d="M69.23,610.98c1.45-0.12,2.97-0.07,4.56,0.1
			C71.84,610.59,70.27,610.5,69.23,610.98z"/>
		<path id="XMLID_00000172415486157196999370000000971552851926776759_" d="M92.32,604.39c-0.47-0.18-0.88-0.28-1.21-0.26
			C91.52,604.17,91.92,604.3,92.32,604.39z"/>
		<path id="XMLID_00000059297401012243797100000003546052823112764082_" d="M91.01,600.9c-0.51-0.15-0.98-0.22-1.34-0.17
			C90.12,600.75,90.57,600.84,91.01,600.9z"/>
		<path id="XMLID_00000145759812035616864950000001482847452044322221_" d="M197.87,683.35c1.81-0.2,3.61-0.59,5.41-1.05
			L197.87,683.35z"/>
		<path id="XMLID_00000160892471119934467780000007007576597245962668_" d="M197.23,683.48l0.64-0.13
			c-0.37,0.04-0.76,0.04-1.13,0.07C196.89,683.43,197.07,683.46,197.23,683.48z"/>
		<path id="XMLID_00000181062286527863171930000005442686962171254426_" d="M142.6,700.42c0.11-0.22,0.21-0.43,0.22-0.64
			C142.76,700.02,142.67,700.2,142.6,700.42z"/>
		<path id="XMLID_00000183935544129544633510000007533557418012879274_" d="M131.53,692.01c-2.58,7.92,8.66,15.39,11.07,8.41
			c-1.15,2.09-6.6,4-9.16-2.93c-3.31-6.72,5.18-13.9,13.71-15.42c17.86-3.51,37.31-0.33,45.33,1.21c1.43,0.24,2.85,0.24,4.26,0.15
			c-12.08-1.24-28.47-5.85-45.13-3.58C143.61,680.72,134.1,683.87,131.53,692.01z"/>
		<path id="XMLID_00000160899616995600382710000002871970230922509192_" d="M201.02,681.33c2.27,0.22,4.57,0.28,6.87,0.29
			L201.02,681.33z"/>
		<path id="XMLID_00000120555294423086436930000015114441200238280848_" d="M201.02,681.33c-0.29-0.03-0.59-0.09-0.89-0.12
			c0.11,0.03,0.22,0.06,0.31,0.09L201.02,681.33z"/>
		<path id="XMLID_00000102532473767382762250000015544698690545531051_" d="M174.9,641.16l1.26-0.11l-0.72-0.02
			c-2.57-0.22-8.63-1.22-10.04,2.08C166.76,643.55,172.59,641.04,174.9,641.16z"/>
		<path id="XMLID_00000158720456346352200630000010763034606680584357_" d="M177.88,645.44l-0.58,0.02
			c-2.19-0.05-6.7-0.56-8.18,1.51c1.23,1.38,6.05-1.15,7.76-1.35L177.88,645.44z"/>
		<path id="XMLID_00000061441819609600441450000010684666974747375027_" d="M215.97,660.02c-0.91-0.31-1.79-0.69-2.64-1.13
			C214.16,659.37,215.06,659.73,215.97,660.02z"/>
		<path id="XMLID_00000041273045330763740290000011671441926106787979_" d="M239.72,621.59c1.36,0.47,2.71,1.01,3.98,1.73
			c0.09,0.02,0.19,0.07,0.29,0.1C242.7,622.56,241.27,621.96,239.72,621.59z"/>
		<path id="XMLID_00000000207680464140024800000017751198315328437417_" d="M240.59,621.62l3.67,1.4c0.32,0.06,0.63,0.2,0.95,0.31
			C243.79,622.49,242.25,621.91,240.59,621.62z"/>
		<path id="XMLID_00000017486258580549273340000014344211936803736224_" d="M239.54,620.86c0.45,0,0.9,0.02,1.35,0.04
			C240.44,620.85,239.99,620.85,239.54,620.86z"/>
		<path id="XMLID_00000072276728564786730560000017902945864831476923_" d="M259.35,642.34c0.79,11.85-6.74,22.12-13.71,25.27
			c2.63,0.79,14.98-7.64,15.13-21.87c0.73-14.28-13.07-24.31-18.57-24.8c-0.44-0.04-0.86-0.03-1.29-0.04
			C249.43,621.76,258.07,632.22,259.35,642.34z"/>
		<path id="XMLID_00000064344968574073553080000016927904461837835940_" d="M241.81,658c0.02-0.03,0.04-0.06,0.07-0.08
			C241.86,657.94,241.83,657.97,241.81,658z"/>
		<path id="XMLID_00000158737579230845396400000017662229933217568904_" d="M245.35,653.92l-2,2.17c-0.45,0.6-0.94,1.22-1.47,1.83
			c0.01-0.01,0.04-0.03,0.04-0.04L245.35,653.92z"/>
		<path id="XMLID_00000021830309750577180410000013220467519737024147_" d="M261.42,624.38c-0.15-0.33-0.3-0.67-0.48-1
			C261.13,623.7,261.26,624.05,261.42,624.38z"/>
		<path id="XMLID_00000155117785197851702880000010148208442710808763_" d="M260.85,623.22c0.04,0.05,0.07,0.11,0.1,0.16
			C260.92,623.33,260.89,623.28,260.85,623.22z"/>
		<path id="XMLID_00000059991415705737032080000000970110007292287365_" d="M259.77,621.35l-0.46-0.55
			c0.56,0.77,1.08,1.58,1.54,2.41C260.51,622.57,260.17,621.94,259.77,621.35z"/>
		<path id="XMLID_00000031898160815166394190000005584129631590548668_" d="M90.38,748.26c-0.01-0.12,0-0.24-0.01-0.37
			C90.37,748.01,90.39,748.14,90.38,748.26z"/>
		<path id="XMLID_00000022547850363623863430000014383755298244714659_" d="M90.09,746.52c0.15,0.48,0.23,0.93,0.28,1.37
			C90.35,747.46,90.28,747.01,90.09,746.52z"/>
		<path id="XMLID_00000081622727680521426010000003611564391329969314_" d="M67.66,693.99c-2.97,4.09-5.28,11-2.37,17.36
			c3.64,7.12,14.26,8.49,16.9,3.43c-1.09,1.27-8.92,3.9-14.54-2.54C62.67,706.09,65.91,696.82,67.66,693.99z"/>
		<path id="XMLID_00000160182453901109491290000015920523665796356522_" d="M69.06,692.32c-0.41,0.42-0.82,0.91-1.21,1.43l3.07-3.33
			L69.06,692.32z"/>
		<path id="XMLID_00000134248154112151590310000011156235415494969730_" d="M67.72,693.88c-0.02,0.03-0.04,0.09-0.06,0.11
			c0.06-0.08,0.12-0.16,0.18-0.24L67.72,693.88z"/>
		<path id="XMLID_00000042014384930966592880000001689118192081916057_" d="M83.47,755.36c0.46-0.29,0.86-0.59,1.15-0.87
			C84.26,754.8,83.85,755.07,83.47,755.36z"/>
		<path id="XMLID_00000102503142394830496730000015069878909248918445_" d="M15.41,699.4l1.5-3.88
			C16.34,696.8,15.84,698.09,15.41,699.4z"/>
		<path id="XMLID_00000085246860906209157730000005232810087962902205_" d="M34.13,659.59c0.13-0.41,0.34-0.81,0.53-1.21
			C34.39,658.82,34.18,659.23,34.13,659.59z"/>
		<path id="XMLID_00000156546450717304922800000014614944531077059202_" d="M290.89,703.73c0,0,0.02-0.02,0.04-0.03
			c-0.02,0.01-0.05,0.01-0.07,0.03H290.89z"/>
		<path id="XMLID_00000177472289547469370260000006080450086007092371_" d="M297.89,694.96c-0.59-0.79-1.39-1.41-2.35-1.89
			C296.32,693.71,297.27,694.22,297.89,694.96z"/>
		<path id="XMLID_00000138535362276894846550000012865047315429740212_" d="M297.89,694.96c0.06,0.07,0.1,0.16,0.15,0.23
			c-0.03-0.05-0.04-0.11-0.07-0.16C297.95,695,297.91,694.98,297.89,694.96z"/>
		<path id="XMLID_00000067217586485814850710000010428956689985543554_" d="M299.51,693.98c0.25,0.23,0.46,0.5,0.67,0.76
			c-0.12-0.18-0.23-0.37-0.37-0.55L299.51,693.98z"/>
		<path id="XMLID_00000041988982090025471450000014846725720411964569_" d="M300.04,697.85c0,0.3-0.01,0.63-0.03,0.97
			c0.06-1.35-0.01-2.7-0.17-4.04L300.04,697.85z"/>
		<path id="XMLID_00000018222385535435428300000001203100187316104105_" d="M300,698.91c0.01-0.03,0.01-0.05,0.01-0.05
			S300,698.88,300,698.91z"/>
		<path id="XMLID_00000150076723841653323770000004741586359715327163_" d="M229.89,734.17c1-0.44,1.98-0.99,2.89-1.56
			C231.81,733.13,230.89,733.74,229.89,734.17z"/>
		<path id="XMLID_00000113313580965397442410000010165951887801343629_" d="M229.72,734.24c0.05-0.02,0.11-0.05,0.17-0.07
			C229.83,734.19,229.77,734.22,229.72,734.24z"/>
		<path id="XMLID_00000117659149183797010200000013621970908525605053_" d="M205.66,727.81c-0.14,0.94-0.46,1.59-0.89,2.06
			C205.35,729.56,205.72,728.92,205.66,727.81z"/>
		<path id="XMLID_00000073690375039464410550000004998950478091313574_" d="M203.44,731.64c-0.56,0.95-1.2,1.52-1.88,1.84
			C202.35,733.36,203.03,732.82,203.44,731.64z"/>
		<path id="XMLID_00000008114045237065246730000016803778174654007216_" d="M198.63,734c-1.07,0.14-2.05,0.08-2.93-0.12
			C196.73,734.55,197.78,734.65,198.63,734z"/>
		<path id="XMLID_00000085242504416350145730000015351475272782576519_" d="M281.55,778.06c-0.28,0.67-0.76,1.3-1.46,1.86l0.74-0.46
			C281.2,779.01,281.41,778.53,281.55,778.06z"/>
		<path id="XMLID_00000137116129300852431220000013301149697544677252_" d="M251.36,744.25c-0.61-0.27-1.1-0.59-1.5-0.96
			C250.11,743.84,250.59,744.2,251.36,744.25z"/>
		<path id="XMLID_00000054260640841986445510000012928266270168848572_" d="M261.17,765.36c-0.84,0.47-1.69,0.9-2.6,1.26
			c-1.61,0.96-4.3,1.68-7.52,1.95C254.62,768.46,258.06,767.47,261.17,765.36z"/>
		<path id="XMLID_00000078004405413285456420000001075540600089287818_" d="M261.91,764.86c-0.24,0.18-0.5,0.33-0.74,0.49
			c1.68-0.93,3.26-2.04,4.71-3.32C264.54,762.97,263.37,764.14,261.91,764.86z"/>
	</g>
</g>
<g id="psuedo_page">
	<rect id="page_bounding_box__x28_for_SVG_x29_" class="scrollleft1" width="1080" height="1080"/>
</g>
</svg>
