<?xml version="1.0" encoding="utf-8"?>
<!-- Generator: Adobe Illustrator 26.5.0, SVG Export Plug-In . SVG Version: 6.00 Build 0)  -->
<svg version="1.1" id="Layer_1" xmlns="http://www.w3.org/2000/svg" xmlns:xlink="http://www.w3.org/1999/xlink" x="0px" y="0px"
	 viewBox="0 0 1080 1080" style="enable-background:new 0 0 1080 1080;" xml:space="preserve">
<style type="text/css">
	.barright0{fill:none;}
</style>
<g id="RIGHT_bar">
	<g id="XMLID_245_">
		<path id="XMLID_248_" d="M814.27,590.2c1.06-0.47,2.1-0.94,3.09-1.46c0.38-0.22,0.76-0.43,1.13-0.66
			c-3.13-1.49-6.51-2.65-9.95-3.75c-3.16-1.01-6.57-1.86-10-2.16c-6.33-0.55-10.9,2.16-13.73,5.88c-0.22,0.06-0.29,0.73-0.15,0.92
			c2.9,3.87,6.85,6.33,13.35,6.16c3.96-0.11,7.7-1.32,11.11-2.69C810.88,591.74,812.58,590.97,814.27,590.2z"/>
		<path id="XMLID_247_" d="M821.97,593.42c-2.89,0-5.23-2.44-5.23-5.43s2.34-5.41,5.23-5.41c2.89,0,5.23,2.43,5.23,5.41
			C827.2,590.99,824.86,593.42,821.97,593.42z"/>
		<path id="XMLID_246_" d="M781.25,590.71c0.36-0.48,0.71-0.95,1.05-1.47c0.13-0.21,0.26-0.43,0.39-0.65
			c-1.08-1.5-2.23-2.65-3.41-3.76c-1.08-1.01-2.25-1.85-3.43-2.15c-2.17-0.55-3.73,2.17-4.7,5.88c-0.08,0.06-0.11,0.73-0.06,0.93
			c0.99,3.87,2.35,6.32,4.57,6.16c1.36-0.1,2.64-1.32,3.81-2.69C780.08,592.24,780.66,591.47,781.25,590.71z"/>
	</g>
	<path id="XMLID_244_" d="M869.52,591.51l85.38-3.25v-0.15v-0.15c0,0-85.31-3.26-85.34-3.26l-82.27,3.13v0.54
		C802.57,588.95,869.51,591.51,869.52,591.51z"/>
	<g id="XMLID_240_">
		<path id="XMLID_243_" d="M929,589.9c-1.06-0.46-2.11-0.93-3.08-1.46c-0.38-0.2-0.77-0.42-1.14-0.65c3.14-1.5,6.51-2.65,9.96-3.75
			c3.16-1.01,6.56-1.86,9.99-2.16c6.33-0.55,10.9,2.16,13.72,5.88c0.23,0.05,0.3,0.73,0.16,0.92c-2.9,3.86-6.85,6.32-13.37,6.16
			c-3.95-0.1-7.68-1.31-11.1-2.68C932.39,591.44,930.69,590.67,929,589.9z"/>
		<path id="XMLID_242_" d="M921.3,593.12c2.89,0,5.23-2.43,5.23-5.42s-2.34-5.42-5.23-5.42c-2.89,0-5.23,2.43-5.23,5.42
			S918.41,593.12,921.3,593.12z"/>
		<path id="XMLID_241_" d="M962.02,590.39c-0.36-0.45-0.72-0.93-1.06-1.46c-0.13-0.2-0.25-0.42-0.38-0.65
			c1.07-1.49,2.22-2.65,3.41-3.76c1.07-1.01,2.25-1.85,3.42-2.16c2.18-0.54,3.74,2.18,4.72,5.89c0.07,0.06,0.11,0.73,0.05,0.92
			c-1,3.88-2.35,6.34-4.58,6.16c-1.35-0.1-2.63-1.32-3.8-2.69C963.19,591.93,962.6,591.16,962.02,590.39z"/>
	</g>
</g>
<g id="psuedo_page">
	<rect id="page_bounding_box__x28_for_SVG_x29_" class="barright0" width="1080" height="1080"/>
</g>
</svg>
