<?xml version="1.0" encoding="utf-8"?>
<!-- Generator: Adobe Illustrator 26.5.0, SVG Export Plug-In . SVG Version: 6.00 Build 0)  -->
<svg version="1.1" id="Layer_1" xmlns="http://www.w3.org/2000/svg" xmlns:xlink="http://www.w3.org/1999/xlink" x="0px" y="0px"
	 viewBox="0 0 1080 1080" style="enable-background:new 0 0 1080 1080;" xml:space="preserve">
<style type="text/css">
	.st0{fill:none;}
</style>
<g id="LEFT_bar_00000049216538079616257740000007062990162708087687_">
	<g id="XMLID_00000142136214479967687380000000456941892929908657_">
		<path id="XMLID_00000098205729065605744500000011539089456788101545_" d="M265.17,590.2c-1.06-0.47-2.1-0.94-3.09-1.46
			c-0.38-0.22-0.76-0.43-1.13-0.66c3.13-1.49,6.51-2.65,9.95-3.75c3.16-1.01,6.57-1.86,10-2.16c6.33-0.55,10.9,2.16,13.73,5.88
			c0.22,0.06,0.29,0.73,0.15,0.92c-2.9,3.87-6.85,6.33-13.35,6.16c-3.96-0.11-7.7-1.32-11.11-2.69
			C268.56,591.74,266.86,590.97,265.17,590.2z"/>
		<path id="XMLID_00000060732203435889082130000009656170328884433797_" d="M257.47,593.42c2.89,0,5.23-2.44,5.23-5.43
			s-2.34-5.41-5.23-5.41c-2.89,0-5.23,2.43-5.23,5.41C252.24,590.99,254.58,593.42,257.47,593.42z"/>
		<path id="XMLID_00000165224166862969563730000010805126486109976760_" d="M298.19,590.71c-0.36-0.48-0.71-0.95-1.05-1.47
			c-0.13-0.21-0.26-0.43-0.39-0.65c1.08-1.5,2.23-2.65,3.41-3.76c1.08-1.01,2.25-1.85,3.43-2.15c2.17-0.55,3.73,2.17,4.7,5.88
			c0.08,0.06,0.11,0.73,0.06,0.93c-0.99,3.87-2.35,6.32-4.57,6.16c-1.36-0.1-2.64-1.32-3.81-2.69
			C299.36,592.24,298.78,591.47,298.19,590.71z"/>
	</g>
	<path id="XMLID_00000178884024263694218150000010741151646996582805_" d="M209.92,591.51l-85.38-3.25v-0.15v-0.15
		c0,0,85.31-3.26,85.34-3.26l82.27,3.13v0.54C276.87,588.95,209.93,591.51,209.92,591.51z"/>
	<g id="XMLID_00000140015261997188092390000016616524866927949698_">
		<path id="XMLID_00000039107415524949326330000010812527290381492096_" d="M150.44,589.9c1.06-0.46,2.11-0.93,3.08-1.46
			c0.38-0.2,0.77-0.42,1.14-0.65c-3.14-1.5-6.51-2.65-9.96-3.75c-3.16-1.01-6.56-1.86-9.99-2.16c-6.33-0.55-10.9,2.16-13.72,5.88
			c-0.23,0.05-0.3,0.73-0.16,0.92c2.9,3.86,6.85,6.32,13.37,6.16c3.95-0.1,7.68-1.31,11.1-2.68
			C147.05,591.44,148.75,590.67,150.44,589.9z"/>
		<path id="XMLID_00000105416577160915432290000001889796561674595743_" d="M158.14,593.12c-2.89,0-5.23-2.43-5.23-5.42
			s2.34-5.42,5.23-5.42s5.23,2.43,5.23,5.42S161.03,593.12,158.14,593.12z"/>
		<path id="XMLID_00000012452037500712777010000003632495856145376415_" d="M117.42,590.39c0.36-0.45,0.72-0.93,1.06-1.46
			c0.13-0.2,0.25-0.42,0.38-0.65c-1.07-1.49-2.22-2.65-3.41-3.76c-1.07-1.01-2.25-1.85-3.42-2.16c-2.18-0.54-3.74,2.18-4.72,5.89
			c-0.07,0.06-0.11,0.73-0.05,0.92c1,3.88,2.35,6.34,4.58,6.16c1.35-0.1,2.63-1.32,3.8-2.69
			C116.25,591.93,116.84,591.16,117.42,590.39z"/>
	</g>
</g>
<g id="psuedo_page">
	<rect id="page_bounding_box__x28_for_SVG_x29_" class="st0" width="1080" height="1080"/>
</g>
</svg>
