<?xml version="1.0" encoding="utf-8"?>
<!-- Generator: Adobe Illustrator 26.5.0, SVG Export Plug-In . SVG Version: 6.00 Build 0)  -->
<svg version="1.1" id="Layer_1" xmlns="http://www.w3.org/2000/svg" xmlns:xlink="http://www.w3.org/1999/xlink" x="0px" y="0px"
	 viewBox="0 0 1080 1080" style="enable-background:new 0 0 1080 1080;" xml:space="preserve">
<style type="text/css">
	.hexagon0{fill:#4073D9;stroke:#4073D9;stroke-width:8;stroke-miterlimit:10;}
	.hexagon1{fill:#FFFFFF;stroke:#FFFFFF;stroke-width:8;stroke-miterlimit:10;}
	.hexagon2{fill:none;stroke:#000000;stroke-width:1.5;stroke-miterlimit:10;}
	.hexagon3{fill:none;stroke:#000000;stroke-width:2;stroke-miterlimit:10;}
	.hexagon4{fill:none;stroke:#000000;stroke-width:2.5;stroke-miterlimit:10;}
	.hexagon5{fill:none;stroke:#000000;stroke-width:3;stroke-miterlimit:10;}
	.hexagon6{fill:none;stroke:#000000;stroke-width:3.5;stroke-miterlimit:10;}
	.hexagon7{fill:none;}
</style>
<g id="Hexagon_Crest">
	<g id="MIE">
		<path id="blue_MIE" class="hexagon0" d="M391.92,389.97c0,1.41,0.64,2.43,1.91,3.05c1.27,0.63,2.62,0.94,4.03,0.94h8.18v8.69h-41.31
			v-8.69h7.79c2.11,0,3.58-0.31,4.42-0.94c0.84-0.63,1.25-1.64,1.25-3.05l4.74-77.67c0-1.41-0.48-2.43-1.45-3.05
			c-0.97-0.63-2.2-0.94-3.7-0.94h-8.31v-8.69h41.44l22.65,80.62l27.19-80.62h36.07v8.69h-8.84c-1.5,0-2.73,0.31-3.7,0.94
			s-1.45,1.64-1.45,3.05v76.02c0,3.76,1.89,5.64,5.67,5.64h8.32v8.69h-45.8v-8.69h8.71c1.76,0,3.15-0.37,4.16-1.12
			c1.01-0.74,1.52-1.7,1.52-2.88v-78.61h-0.26l-31,91.3h-10.96l-26.27-91.3h-0.26L391.92,389.97z M594.3,402.66v-8.69h7.39
			c2.29,0,4.03-0.49,5.21-1.47c1.19-0.98,1.78-3.23,1.78-6.75v-70.86c0-2.5-0.55-4.23-1.65-5.17c-1.1-0.94-3.37-1.41-6.8-1.41h-5.94
			v-8.69h112.1l1.32,21.74h-6.85c-0.47-2.46-0.95-4.55-1.44-6.29c-0.48-1.74-1.19-3.16-2.13-4.27c-0.93-1.11-2.22-1.92-3.84-2.42
			c-1.63-0.51-66.3-0.06-66.3-0.06v37.99h34.28c3.07,0,5.32-0.76,6.76-2.28c1.43-1.52,2.15-4.13,2.15-7.84v-1.18h7.58v30.44h-7.58
			v-2.19c0-3.71-0.72-6.33-2.15-7.88c-1.43-1.55-3.69-2.32-6.76-2.32h-34.28v40.92h57.15c3.08,0,5.65-0.43,7.71-1.29
			c2.06-0.86,3.76-2.27,5.09-4.23c1.33-1.96,2.3-4.46,2.91-7.52c0.61-3.05,0.91-6.77,0.9-11.16h9.77l2.01,32.89L594.3,402.66
			L594.3,402.66z M555.79,309.72c1.1-0.94,3.37-1.41,6.8-1.41h5.94v-8.69h-46.94v8.69h5.94c3.43,0,5.7,0.47,6.8,1.41
			s1.65,2.66,1.65,5.17v70.86c0,3.52-0.59,5.78-1.78,6.75c-1.19,0.98-2.93,1.47-5.21,1.47h-7.39v8.69h46.94v-8.69h-7.39
			c-2.29,0-4.03-0.49-5.21-1.47c-1.19-0.98-1.78-3.23-1.78-6.75v-70.86C554.14,312.38,554.69,310.66,555.79,309.72z"/>
		<g id="white_E">
			<g>
				<path class="hexagon1" d="M589.26,397.62v-8.69h7.39c2.29,0,4.03-0.49,5.21-1.47c1.19-0.98,1.78-3.23,1.78-6.75v-70.86
					c0-2.5-0.55-4.23-1.65-5.17c-1.1-0.94-3.37-1.41-6.8-1.41h-5.94v-8.69h112.1l1.32,21.74h-6.85c-0.47-2.46-0.95-4.55-1.44-6.29
					c-0.48-1.74-1.19-3.16-2.13-4.27c-0.93-1.11-2.22-1.92-3.84-2.42c-1.63-0.51-66.3-0.06-66.3-0.06v37.99h34.28
					c3.07,0,5.32-0.76,6.76-2.28c1.43-1.52,2.15-4.13,2.15-7.84v-1.18h7.58v30.44h-7.58v-2.19c0-3.71-0.72-6.33-2.15-7.88
					c-1.43-1.55-3.69-2.32-6.76-2.32h-34.28v40.92h57.15c3.08,0,5.65-0.43,7.71-1.29c2.06-0.86,3.76-2.27,5.09-4.23
					c1.33-1.96,2.3-4.46,2.91-7.52c0.61-3.05,0.91-6.77,0.9-11.16h9.77l2.01,32.89L589.26,397.62L589.26,397.62z"/>
			</g>
		</g>
		<g id="white_M">
			<g>
				<path class="hexagon1" d="M386.89,384.94c0,1.41,0.64,2.43,1.91,3.05c1.27,0.63,2.62,0.94,4.03,0.94h8.18v8.69H359.7v-8.69h7.79
					c2.11,0,3.58-0.31,4.42-0.94c0.84-0.63,1.25-1.64,1.25-3.05l4.74-77.67c0-1.41-0.48-2.43-1.45-3.05
					c-0.97-0.63-2.2-0.94-3.7-0.94h-8.31v-8.69h41.44l22.65,80.62l27.19-80.62h36.07v8.69h-8.84c-1.5,0-2.73,0.31-3.7,0.94
					s-1.45,1.64-1.45,3.05v76.02c0,3.76,1.89,5.64,5.67,5.64h8.32v8.69h-45.8v-8.69h8.71c1.76,0,3.15-0.37,4.16-1.12
					c1.01-0.74,1.52-1.7,1.52-2.88v-78.61h-0.26l-31,91.3h-10.96l-26.27-91.3h-0.26L386.89,384.94z"/>
			</g>
		</g>
		<g id="antenna_00000091005631475079417890000007591432182078081966_">
			<path d="M590.67,418.26l4.72-2.82l-46.34-232.02h-5.28l4.18,20.95l-5.3-0.37v-20.58h-5.28V204l-5.44,0.38l4.19-20.96h-5.28
				l-46.33,231.95l4.72,2.82l3.47-17.38l44.68,26.73V447l2.64,1.58l2.64-1.58v-19.46l44.55-26.66L590.67,418.26z M542.64,282.15
				l20.05-3.96l7.12,35.62l-27.16,9v-40.66H542.64z M542.64,276.67v-37.21l12.16-0.78l6.84,34.23L542.64,276.67z M537.36,276.67
				l-19.13-3.78l6.83-34.21l12.29,0.79v37.2H537.36z M537.36,282.15v40.66l-27.29-9.04l7.11-35.61L537.36,282.15z M537.36,328.48
				v41.33l-35.22-16.37l6.86-34.36L537.36,328.48z M542.64,328.48l28.23-9.35l6.87,34.37l-35.09,16.31L542.64,328.48L542.64,328.48z
				 M549.04,209.83l4.7,23.53l-11.1,0.71v-24.69L549.04,209.83z M537.36,209.38v24.69l-11.23-0.72l4.7-23.51L537.36,209.38z
				 M493.8,395.2l7.26-36.33l36.3,16.87v45.52L493.8,395.2z M542.64,421.26v-45.52l36.18-16.81l7.26,36.34L542.64,421.26z"/>
			<g>
				<line class="hexagon2" x1="537.36" y1="209.38" x2="526.13" y2="233.35"/>
				<line class="hexagon2" x1="530.83" y1="209.84" x2="537.36" y2="234.07"/>
				<line class="hexagon2" x1="542.64" y1="209.38" x2="553.87" y2="233.35"/>
				<line class="hexagon2" x1="549.17" y1="209.84" x2="542.64" y2="234.07"/>
				<line class="hexagon3" x1="537.36" y1="239.46" x2="518.23" y2="272.89"/>
				<line class="hexagon3" x1="525.07" y1="238.67" x2="537.36" y2="276.67"/>
				<line class="hexagon3" x1="542.64" y1="239.46" x2="561.77" y2="272.89"/>
				<line class="hexagon3" x1="554.93" y1="238.67" x2="542.64" y2="276.67"/>
				<line class="hexagon4" x1="537.36" y1="282.15" x2="510.07" y2="313.77"/>
				<line class="hexagon4" x1="517.18" y1="278.16" x2="537.36" y2="322.81"/>
				<line class="hexagon4" x1="542.64" y1="282.15" x2="569.93" y2="313.77"/>
				<line class="hexagon4" x1="562.82" y1="278.16" x2="542.64" y2="322.81"/>
				<line class="hexagon5" x1="537.36" y1="328.48" x2="502.14" y2="353.44"/>
				<line class="hexagon5" x1="509" y1="319.09" x2="537.36" y2="369.81"/>
				<line class="hexagon5" x1="542.64" y1="328.48" x2="577.86" y2="353.44"/>
				<line class="hexagon5" x1="571" y1="319.09" x2="542.64" y2="369.81"/>
				<line class="hexagon6" x1="537.36" y1="375.74" x2="493.8" y2="395.2"/>
				<line class="hexagon6" x1="501.06" y1="358.87" x2="537.36" y2="421.26"/>
				<line class="hexagon6" x1="542.64" y1="375.74" x2="586.2" y2="395.2"/>
				<line class="hexagon6" x1="578.94" y1="358.87" x2="542.64" y2="421.26"/>
			</g>
			<circle cx="540" cy="184.12" r="9.21"/>
		</g>
		<path id="white_I__x28_in_front_of_antenna_x29_" class="hexagon1" d="M550.76,304.69c1.1-0.94,3.37-1.41,6.8-1.41h5.94v-8.69h-46.94
			v8.69h5.94c3.43,0,5.7,0.47,6.8,1.41s1.65,2.66,1.65,5.17v70.86c0,3.52-0.59,5.78-1.78,6.75c-1.19,0.98-2.93,1.47-5.21,1.47h-7.39
			v8.69h46.94v-8.69h-7.39c-2.29,0-4.03-0.49-5.21-1.47c-1.19-0.98-1.78-3.23-1.78-6.75v-70.86
			C549.11,307.35,549.66,305.62,550.76,304.69z"/>
		<path id="black_MIE" d="M386.89,384.94c0,1.41,0.64,2.43,1.91,3.05c1.27,0.63,2.62,0.94,4.03,0.94h8.18v8.69H359.7v-8.69h7.79
			c2.11,0,3.58-0.31,4.42-0.94c0.84-0.63,1.25-1.64,1.25-3.05l4.74-77.67c0-1.41-0.48-2.43-1.45-3.05c-0.97-0.63-2.2-0.94-3.7-0.94
			h-8.31v-8.69h41.44l22.65,80.62l27.19-80.62h36.07v8.69h-8.84c-1.5,0-2.73,0.31-3.7,0.94s-1.45,1.64-1.45,3.05v76.02
			c0,3.76,1.89,5.64,5.67,5.64h8.32v8.69h-45.8v-8.69h8.71c1.76,0,3.15-0.37,4.16-1.12c1.01-0.74,1.52-1.7,1.52-2.88v-78.61h-0.26
			l-31,91.3h-10.96l-26.27-91.3h-0.26L386.89,384.94z M589.26,397.62v-8.69h7.39c2.29,0,4.03-0.49,5.21-1.47
			c1.19-0.98,1.78-3.23,1.78-6.75v-70.86c0-2.5-0.55-4.23-1.65-5.17c-1.1-0.94-3.37-1.41-6.8-1.41h-5.94v-8.69h112.1l1.32,21.74
			h-6.85c-0.47-2.46-0.95-4.55-1.44-6.29c-0.48-1.74-1.19-3.16-2.13-4.27c-0.93-1.11-2.22-1.92-3.84-2.42
			c-1.63-0.51-66.3-0.06-66.3-0.06v37.99h34.28c3.07,0,5.32-0.76,6.76-2.28c1.43-1.52,2.15-4.13,2.15-7.84v-1.18h7.58v30.44h-7.58
			v-2.19c0-3.71-0.72-6.33-2.15-7.88c-1.43-1.55-3.69-2.32-6.76-2.32h-34.28v40.92h57.15c3.08,0,5.65-0.43,7.71-1.29
			c2.06-0.86,3.76-2.27,5.09-4.23c1.33-1.96,2.3-4.46,2.91-7.52c0.61-3.05,0.91-6.77,0.9-11.16h9.77l2.01,32.89L589.26,397.62
			L589.26,397.62z M550.76,304.69c1.1-0.94,3.37-1.41,6.8-1.41h5.94v-8.69h-46.94v8.69h5.94c3.43,0,5.7,0.47,6.8,1.41
			s1.65,2.66,1.65,5.17v70.86c0,3.52-0.59,5.78-1.78,6.75c-1.19,0.98-2.93,1.47-5.21,1.47h-7.39v8.69h46.94v-8.69h-7.39
			c-2.29,0-4.03-0.49-5.21-1.47c-1.19-0.98-1.78-3.23-1.78-6.75v-70.86C549.11,307.35,549.66,305.62,550.76,304.69z"/>
	</g>
</g>
<g id="psuedo_page">
	<rect id="page_bounding_box__x28_for_SVG_x29_" class="hexagon7" width="1080" height="1080"/>
</g>
</svg>
