<?xml version="1.0" encoding="utf-8"?>
<!-- Generator: Adobe Illustrator 26.5.0, SVG Export Plug-In . SVG Version: 6.00 Build 0)  -->
<svg version="1.1" id="Layer_1" xmlns="http://www.w3.org/2000/svg" xmlns:xlink="http://www.w3.org/1999/xlink" x="0px" y="0px"
	 viewBox="0 0 1080 1080" style="enable-background:new 0 0 1080 1080;" xml:space="preserve">
<style type="text/css">
	.ribbonfront0{fill:#FFFFFF;}
	.ribbonfront1{fill:#4175DB;}
	.ribbonfront2{fill:none;}
</style>
<g id="Hexagon_Crest">
	<rect id="Ribbon_in_front" x="282.19" y="433" width="515.61" height="48.4"/>
	<g id="HUNTSVILLE_x2C__ALABAMA_x2C__USA">
		<path class="ribbonfront0" d="M327.8,456.66v-4.44c0-0.56-0.37-0.85-1.1-0.85h-1.19v-2.49h10.45v2.49h-1.75c-0.73,0-1.1,0.38-1.1,1.13
			v11.58c0,0.7,0.37,1.05,1.1,1.05h1.72v2.49h-10.4v-2.49h1.16c0.36,0,0.63-0.06,0.82-0.18s0.28-0.37,0.28-0.75v-5.06h-6.21v5
			c0,0.66,0.37,0.99,1.1,0.99h1.16v2.49h-10.4v-2.49h1.72c0.73,0,1.1-0.38,1.1-1.13v-11.86c0-0.51-0.37-0.76-1.1-0.76h-1.75v-2.49
			h10.45v2.49h-1.19c-0.36,0-0.63,0.08-0.82,0.24s-0.28,0.48-0.28,0.97v4.07L327.8,456.66L327.8,456.66z"/>
		<path class="ribbonfront0" d="M336.9,448.89h11.02v2.49h-1.75c-0.73,0-1.1,0.38-1.1,1.13v9.97c0,0.9,0.26,1.64,0.78,2.22
			c0.52,0.57,1.35,0.86,2.5,0.86c0.83,0,1.49-0.09,1.99-0.28s0.89-0.48,1.16-0.88s0.46-0.91,0.55-1.54s0.14-1.38,0.14-2.25v-8.11
			c0-0.75-0.37-1.13-1.1-1.13h-1.67v-2.49h8.62v2.49h-1.67c-0.73,0-1.1,0.38-1.1,1.13v9.07c0,2.09-0.59,3.71-1.77,4.87
			s-3.08,1.74-5.72,1.74c-1.24,0-2.36-0.11-3.35-0.32c-0.99-0.22-1.83-0.57-2.53-1.06s-1.23-1.14-1.6-1.95s-0.55-1.81-0.55-2.99
			v-9.35c0-0.75-0.37-1.13-1.1-1.13h-1.75L336.9,448.89L336.9,448.89z"/>
		<path class="ribbonfront0" d="M375.46,461.8h0.06v-9.29c0-0.75-0.37-1.13-1.1-1.13h-1.72v-2.49h8.7v2.49h-1.69c-0.73,0-1.1,0.38-1.1,1.13
			v15.11h-5.71l-7.85-13.93h-0.06V464c0,0.75,0.37,1.13,1.1,1.13h1.72v2.49h-8.73v-2.49h1.72c0.73,0,1.1-0.38,1.1-1.13v-11.5
			c0-0.75-0.37-1.13-1.1-1.13h-1.75v-2.49h9.1L375.46,461.8z"/>
		<path class="ribbonfront0" d="M382.81,456.07v-7.18h18.76v7.18h-2.63c0-0.72-0.06-1.37-0.18-1.95c-0.12-0.58-0.34-1.08-0.65-1.48
			c-0.31-0.4-0.73-0.72-1.26-0.93c-0.53-0.22-1.2-0.32-2.01-0.32V464c0,0.75,0.37,1.13,1.1,1.13h1.69v2.49h-10.96v-2.49h1.75
			c0.73,0,1.1-0.38,1.1-1.13v-12.63c-0.81,0-1.48,0.11-2.01,0.32c-0.53,0.22-0.95,0.53-1.26,0.93c-0.31,0.41-0.53,0.9-0.65,1.48
			c-0.12,0.58-0.18,1.23-0.18,1.95h-2.61V456.07z"/>
		<path class="ribbonfront0" d="M419.5,455.59h-2.6c-0.11-0.73-0.35-1.39-0.71-1.96c-0.36-0.57-0.79-1.06-1.3-1.45
			c-0.51-0.4-1.07-0.7-1.68-0.9c-0.61-0.21-1.23-0.31-1.85-0.31c-0.41,0-0.81,0.04-1.19,0.11c-0.38,0.08-0.71,0.21-1,0.4
			s-0.53,0.44-0.71,0.75s-0.27,0.7-0.27,1.17c0,0.58,0.3,1.02,0.9,1.31s1.36,0.54,2.26,0.75c0.9,0.21,1.89,0.42,2.95,0.64
			s2.05,0.55,2.95,1c0.9,0.45,1.66,1.07,2.26,1.86c0.6,0.79,0.9,1.86,0.9,3.19c0,1.13-0.22,2.08-0.66,2.85
			c-0.44,0.77-1.03,1.39-1.77,1.86c-0.73,0.47-1.57,0.81-2.5,1.02s-1.89,0.31-2.87,0.31c-1.09,0-2.17-0.13-3.22-0.38
			s-2.03-0.71-2.94-1.37l-0.73,1.5h-2.37v-7.4H406c0.09,0.73,0.31,1.41,0.65,2.03s0.78,1.15,1.31,1.6c0.54,0.44,1.16,0.79,1.88,1.03
			c0.72,0.25,1.49,0.37,2.32,0.37c0.38,0,0.75-0.05,1.13-0.16c0.38-0.1,0.73-0.25,1.05-0.45c0.32-0.2,0.58-0.45,0.78-0.76
			s0.3-0.66,0.3-1.06c0-0.68-0.3-1.18-0.9-1.5s-1.36-0.58-2.26-0.79c-0.9-0.21-1.89-0.41-2.95-0.62s-2.05-0.53-2.95-0.96
			c-0.9-0.43-1.66-1.04-2.26-1.81s-0.9-1.84-0.9-3.19c0-1.17,0.24-2.13,0.72-2.9c0.48-0.76,1.11-1.37,1.88-1.82
			c0.77-0.45,1.64-0.77,2.6-0.95c0.96-0.18,1.93-0.27,2.91-0.27c0.96,0,1.89,0.15,2.8,0.44c0.9,0.29,1.76,0.69,2.57,1.2l0.51-1.33
			h2.34v6.95H419.5z"/>
		<path class="ribbonfront0" d="M432.53,448.89v2.49h-1.81c-0.58,0-0.88,0.2-0.88,0.59c0,0.24,0.05,0.54,0.16,0.88c0.1,0.34,0.2,0.64,0.3,0.9
			l2.97,9.27h0.06l2.99-9.27c0.09-0.26,0.19-0.56,0.3-0.9c0.1-0.34,0.15-0.63,0.13-0.88c0.04-0.4-0.25-0.59-0.85-0.59h-1.61v-2.49
			h8.25v2.49h-0.68c-0.62,0-1.08,0.11-1.37,0.34s-0.56,0.7-0.81,1.41l-4.89,14.49h-5.03l-4.92-14.49c-0.25-0.72-0.52-1.19-0.83-1.41
			c-0.31-0.23-0.82-0.34-1.54-0.34h-0.59v-2.49H432.53z"/>
		<path class="ribbonfront0" d="M454.98,451.38h-1.75c-0.36,0-0.63,0.06-0.82,0.18s-0.28,0.44-0.28,0.95V464c0,0.75,0.37,1.13,1.1,1.13h1.72
			v2.49H444v-2.49h1.72c0.73,0,1.1-0.38,1.1-1.13v-11.89c0-0.49-0.37-0.73-1.1-0.73h-1.75v-2.49h11.02L454.98,451.38L454.98,451.38z
			"/>
		<path class="ribbonfront0" d="M456.11,467.62v-2.49h1.72c0.73,0,1.1-0.38,1.1-1.13v-11.5c0-0.75-0.37-1.13-1.1-1.13h-1.75v-2.49h11.02v2.49
			h-1.75c-0.73,0-1.1,0.38-1.1,1.13v12.63h3.08c0.85,0,1.53-0.13,2.05-0.38s0.91-0.62,1.19-1.09c0.27-0.47,0.46-1.03,0.55-1.67
			s0.14-1.34,0.14-2.09h2.63v7.71h-17.78V467.62z"/>
		<path class="ribbonfront0" d="M474.96,467.62v-2.49h1.72c0.73,0,1.1-0.38,1.1-1.13v-11.5c0-0.75-0.37-1.13-1.1-1.13h-1.75v-2.49h11.02v2.49
			h-1.75c-0.73,0-1.1,0.38-1.1,1.13v12.63h3.08c0.85,0,1.53-0.13,2.05-0.38s0.91-0.62,1.19-1.09c0.27-0.47,0.46-1.03,0.55-1.67
			s0.14-1.34,0.14-2.09h2.63v7.71h-17.78V467.62z"/>
		<path class="ribbonfront0" d="M496.77,452.51c0-0.75-0.37-1.13-1.1-1.13h-1.75v-2.49h18.79v7.18h-2.63c0-1.02-0.1-1.83-0.3-2.44
			c-0.2-0.61-0.51-1.09-0.93-1.43c-0.42-0.34-0.97-0.56-1.62-0.66c-0.66-0.1-1.44-0.16-2.34-0.16h-2.8v5.4h0.88
			c0.83,0,1.41-0.18,1.74-0.54c0.33-0.36,0.49-0.98,0.49-1.86v-0.62h2.34v8.53h-2.34v-0.68c0-0.26-0.02-0.53-0.07-0.81
			s-0.13-0.52-0.24-0.75s-0.26-0.41-0.44-0.57c-0.18-0.15-0.4-0.23-0.66-0.23h-1.69v5.88h3.45c0.73,0,1.39-0.06,1.96-0.17
			c0.57-0.11,1.05-0.35,1.43-0.71s0.66-0.88,0.86-1.57c0.2-0.69,0.3-1.6,0.3-2.73h2.63v7.66h-18.76v-2.49h1.72
			c0.73,0,1.1-0.38,1.1-1.13v-11.48H496.77z"/>
		<path class="ribbonfront0" d="M515.83,469.94c0.72-0.13,1.31-0.39,1.79-0.78c0.48-0.39,0.81-0.94,0.97-1.65c-0.21,0.04-0.4,0.08-0.58,0.14
			c-0.18,0.06-0.37,0.08-0.58,0.08c-0.55,0-1.01-0.17-1.4-0.52c-0.39-0.35-0.58-0.81-0.58-1.37c0-0.72,0.2-1.32,0.61-1.81
			c0.4-0.49,0.99-0.73,1.77-0.73c0.94,0,1.67,0.29,2.17,0.86c0.51,0.57,0.76,1.31,0.76,2.22c0,0.7-0.14,1.34-0.41,1.92
			c-0.27,0.58-0.64,1.1-1.09,1.54s-0.97,0.81-1.57,1.1s-1.22,0.48-1.88,0.55v-1.55H515.83z"/>
		<path class="ribbonfront0" d="M544.68,448.89l4.72,14.12c0.28,0.87,0.56,1.44,0.82,1.71s0.64,0.41,1.13,0.41h0.96v2.49H542v-2.49h0.85
			c0.43,0,0.8-0.03,1.1-0.1s0.45-0.17,0.45-0.32s-0.01-0.31-0.03-0.47s-0.06-0.34-0.11-0.55l-0.59-2.03h-5.76l-0.34,1.13
			c-0.15,0.49-0.26,0.86-0.32,1.12c-0.07,0.25-0.1,0.48-0.1,0.69c0,0.23,0.2,0.37,0.59,0.44c0.4,0.07,0.78,0.1,1.16,0.1h0.82v2.49
			h-8.31v-2.49h0.96c0.49,0,0.87-0.14,1.13-0.41s0.54-0.84,0.82-1.71l4.72-14.12h5.64V448.89z M538.72,459.17h4.1l-2.03-6.07h-0.06
			L538.72,459.17z"/>
		<path class="ribbonfront0" d="M553.41,467.62v-2.49h1.72c0.73,0,1.1-0.38,1.1-1.13v-11.5c0-0.75-0.37-1.13-1.1-1.13h-1.75v-2.49h11.02v2.49
			h-1.75c-0.74,0-1.1,0.38-1.1,1.13v12.63h3.08c0.85,0,1.53-0.13,2.05-0.38c0.52-0.25,0.91-0.62,1.19-1.09
			c0.27-0.47,0.46-1.03,0.55-1.67c0.09-0.64,0.14-1.34,0.14-2.09h2.63v7.71h-17.78V467.62z"/>
		<path class="ribbonfront0" d="M585.5,448.89l4.72,14.12c0.28,0.87,0.56,1.44,0.82,1.71s0.64,0.41,1.13,0.41h0.96v2.49h-10.31v-2.49h0.85
			c0.43,0,0.8-0.03,1.1-0.1s0.45-0.17,0.45-0.32s-0.01-0.31-0.03-0.47s-0.06-0.34-0.11-0.55l-0.59-2.03h-5.76l-0.34,1.13
			c-0.15,0.49-0.26,0.86-0.32,1.12c-0.07,0.25-0.1,0.48-0.1,0.69c0,0.23,0.2,0.37,0.59,0.44c0.4,0.07,0.78,0.1,1.16,0.1h0.82v2.49
			h-8.31v-2.49h0.96c0.49,0,0.87-0.14,1.13-0.41s0.54-0.84,0.82-1.71l4.72-14.12h5.64V448.89z M579.54,459.17h4.1l-2.03-6.07h-0.06
			L579.54,459.17z"/>
		<path class="ribbonfront0" d="M596.94,452.51c0-0.75-0.37-1.13-1.1-1.13h-1.61v-2.49h12.18c2.03,0,3.54,0.41,4.52,1.23
			c0.98,0.82,1.47,1.87,1.47,3.15c0,1.26-0.39,2.25-1.16,2.97c-0.77,0.72-1.73,1.21-2.88,1.47v0.06c0.6,0.19,1.2,0.39,1.79,0.59
			c0.59,0.21,1.12,0.49,1.58,0.83c0.46,0.35,0.84,0.79,1.13,1.33s0.44,1.23,0.44,2.08c0,0.9-0.14,1.68-0.42,2.32
			c-0.28,0.64-0.73,1.16-1.34,1.55c-0.61,0.4-1.4,0.69-2.36,0.88c-0.96,0.19-2.13,0.28-3.5,0.28h-11.41v-2.49h1.58
			c0.73,0,1.1-0.38,1.1-1.13v-11.5H596.94z M602.25,456.66h1.55c0.96,0,1.75-0.18,2.36-0.55s0.92-1.07,0.92-2.1
			c0-1.04-0.31-1.73-0.92-2.09s-1.4-0.54-2.36-0.54h-1.55V456.66z M602.25,465.14h1.89c0.51,0,0.98-0.04,1.41-0.13
			c0.43-0.08,0.81-0.24,1.13-0.47s0.57-0.53,0.76-0.92s0.28-0.88,0.28-1.48s-0.09-1.1-0.28-1.48c-0.19-0.39-0.44-0.69-0.76-0.92
			s-0.7-0.38-1.13-0.47c-0.43-0.08-0.9-0.13-1.41-0.13h-1.89V465.14z"/>
		<path class="ribbonfront0" d="M627.87,448.89l4.72,14.12c0.28,0.87,0.56,1.44,0.82,1.71s0.64,0.41,1.13,0.41h0.96v2.49h-10.31v-2.49h0.85
			c0.43,0,0.8-0.03,1.1-0.1s0.45-0.17,0.45-0.32s-0.01-0.31-0.03-0.47s-0.06-0.34-0.11-0.55l-0.59-2.03h-5.76l-0.34,1.13
			c-0.15,0.49-0.26,0.86-0.32,1.12c-0.07,0.25-0.1,0.48-0.1,0.69c0,0.23,0.2,0.37,0.59,0.44c0.4,0.07,0.78,0.1,1.16,0.1h0.82v2.49
			h-8.31v-2.49h0.96c0.49,0,0.87-0.14,1.13-0.41s0.54-0.84,0.82-1.71l4.72-14.12h5.64V448.89z M621.91,459.17h4.1l-2.03-6.07h-0.06
			L621.91,459.17z"/>
		<path class="ribbonfront0" d="M647,448.89l3.25,11.5h0.06l3.33-11.5h10.06v2.49h-1.55c-0.73,0-1.1,0.38-1.1,1.13V464
			c0,0.75,0.37,1.13,1.1,1.13h1.55v2.49h-10.25v-2.49h1.19c0.73,0,1.1-0.38,1.1-1.13v-11.92h-0.06l-4.43,15.54h-4.12l-4.41-15.82
			h-0.06V464c0,0.75,0.37,1.13,1.1,1.13h1.19v2.49h-8.16v-2.49h1.69c0.73,0,1.1-0.38,1.1-1.13v-11.5c0-0.75-0.37-1.13-1.1-1.13
			h-1.69v-2.49H647V448.89z"/>
		<path class="ribbonfront0" d="M678.1,448.89l4.72,14.12c0.28,0.87,0.56,1.44,0.82,1.71s0.64,0.41,1.13,0.41h0.96v2.49h-10.31v-2.49h0.85
			c0.43,0,0.8-0.03,1.1-0.1s0.45-0.17,0.45-0.32s-0.01-0.31-0.03-0.47s-0.06-0.34-0.11-0.55l-0.59-2.03h-5.76l-0.34,1.13
			c-0.15,0.49-0.26,0.86-0.32,1.12c-0.07,0.25-0.1,0.48-0.1,0.69c0,0.23,0.2,0.37,0.59,0.44c0.4,0.07,0.78,0.1,1.16,0.1h0.82v2.49
			h-8.31v-2.49h0.96c0.49,0,0.87-0.14,1.13-0.41s0.54-0.84,0.82-1.71l4.72-14.12h5.64V448.89z M672.14,459.17h4.1l-2.03-6.07h-0.06
			L672.14,459.17z"/>
		<path class="ribbonfront0" d="M688.47,469.94c0.72-0.13,1.31-0.39,1.79-0.78c0.48-0.39,0.8-0.94,0.97-1.65c-0.21,0.04-0.4,0.08-0.58,0.14
			c-0.18,0.06-0.37,0.08-0.58,0.08c-0.55,0-1.01-0.17-1.4-0.52c-0.39-0.35-0.58-0.81-0.58-1.37c0-0.72,0.2-1.32,0.61-1.81
			c0.4-0.49,0.99-0.73,1.77-0.73c0.94,0,1.67,0.29,2.17,0.86c0.51,0.57,0.76,1.31,0.76,2.22c0,0.7-0.14,1.34-0.41,1.92
			c-0.27,0.58-0.64,1.1-1.09,1.54s-0.97,0.81-1.57,1.1c-0.59,0.29-1.22,0.48-1.88,0.55v-1.55H688.47z"/>
		<path class="ribbonfront0" d="M704.12,448.89h11.02v2.49h-1.75c-0.73,0-1.1,0.38-1.1,1.13v9.97c0,0.9,0.26,1.64,0.78,2.22
			c0.52,0.57,1.35,0.86,2.5,0.86c0.83,0,1.49-0.09,1.99-0.28s0.88-0.48,1.16-0.88s0.46-0.91,0.55-1.54
			c0.09-0.63,0.14-1.38,0.14-2.25v-8.11c0-0.75-0.37-1.13-1.1-1.13h-1.67v-2.49h8.62v2.49h-1.67c-0.73,0-1.1,0.38-1.1,1.13v9.07
			c0,2.09-0.59,3.71-1.77,4.87s-3.08,1.74-5.72,1.74c-1.24,0-2.36-0.11-3.35-0.32c-0.99-0.22-1.83-0.57-2.53-1.06
			s-1.23-1.14-1.6-1.95s-0.55-1.81-0.55-2.99v-9.35c0-0.75-0.37-1.13-1.1-1.13h-1.75L704.12,448.89L704.12,448.89z"/>
		<path class="ribbonfront0" d="M742.79,455.59h-2.6c-0.11-0.73-0.35-1.39-0.71-1.96c-0.36-0.57-0.79-1.06-1.3-1.45s-1.07-0.7-1.68-0.9
			c-0.61-0.21-1.23-0.31-1.85-0.31c-0.41,0-0.81,0.04-1.19,0.11c-0.38,0.08-0.71,0.21-1,0.4s-0.53,0.44-0.71,0.75
			s-0.27,0.7-0.27,1.17c0,0.58,0.3,1.02,0.9,1.31c0.6,0.29,1.36,0.54,2.26,0.75s1.89,0.42,2.95,0.64s2.05,0.55,2.95,1
			s1.66,1.07,2.26,1.86s0.9,1.86,0.9,3.19c0,1.13-0.22,2.08-0.66,2.85c-0.44,0.77-1.03,1.39-1.77,1.86s-1.57,0.81-2.5,1.02
			s-1.89,0.31-2.87,0.31c-1.09,0-2.17-0.13-3.22-0.38s-2.03-0.71-2.94-1.37l-0.74,1.5h-2.37v-7.4h2.63
			c0.09,0.73,0.31,1.41,0.65,2.03s0.78,1.15,1.31,1.6c0.54,0.44,1.16,0.79,1.88,1.03c0.72,0.25,1.49,0.37,2.32,0.37
			c0.38,0,0.75-0.05,1.13-0.16c0.38-0.1,0.72-0.25,1.05-0.45c0.32-0.2,0.58-0.45,0.78-0.76s0.3-0.66,0.3-1.06
			c0-0.68-0.3-1.18-0.9-1.5s-1.36-0.58-2.26-0.79s-1.89-0.41-2.95-0.62s-2.05-0.53-2.95-0.96s-1.66-1.04-2.26-1.81
			c-0.6-0.77-0.9-1.84-0.9-3.19c0-1.17,0.24-2.13,0.72-2.9c0.48-0.76,1.11-1.37,1.88-1.82s1.64-0.77,2.6-0.95
			c0.96-0.18,1.93-0.27,2.91-0.27c0.96,0,1.89,0.15,2.8,0.44c0.9,0.29,1.76,0.69,2.57,1.2l0.51-1.33h2.34L742.79,455.59
			L742.79,455.59z"/>
		<path class="ribbonfront0" d="M758.13,448.89l4.72,14.12c0.28,0.87,0.56,1.44,0.82,1.71s0.64,0.41,1.13,0.41h0.96v2.49h-10.31v-2.49h0.85
			c0.43,0,0.8-0.03,1.1-0.1s0.45-0.17,0.45-0.32s-0.01-0.31-0.03-0.47s-0.06-0.34-0.11-0.55l-0.59-2.03h-5.76l-0.34,1.13
			c-0.15,0.49-0.26,0.86-0.32,1.12c-0.07,0.25-0.1,0.48-0.1,0.69c0,0.23,0.2,0.37,0.59,0.44c0.4,0.07,0.78,0.1,1.16,0.1h0.82v2.49
			h-8.31v-2.49h0.96c0.49,0,0.87-0.14,1.13-0.41s0.54-0.84,0.82-1.71l4.72-14.12h5.64V448.89z M752.17,459.17h4.1l-2.03-6.07h-0.06
			L752.17,459.17z"/>
	</g>
	<polygon id="blue_shadow" class="ribbonfront1" points="321.05,489.06 758.95,489.06 764.6,485.26 315.4,485.26 	"/>
</g>
<g id="psuedo_page">
	<rect id="page_bounding_box__x28_for_SVG_x29_" class="ribbonfront2" width="1080" height="1080"/>
</g>
</svg>
