<?xml version="1.0" encoding="utf-8"?>
<!-- Generator: Adobe Illustrator 26.5.0, SVG Export Plug-In . SVG Version: 6.00 Build 0)  -->
<svg version="1.1" id="Layer_1" xmlns="http://www.w3.org/2000/svg" xmlns:xlink="http://www.w3.org/1999/xlink" x="0px" y="0px"
	 viewBox="0 0 1080 1080" style="enable-background:new 0 0 1080 1080;" xml:space="preserve">
<style type="text/css">
	.st0{fill:none;}
</style>
<g id="TOP_Right_Outter">
	<polygon points="629.68,117.52 598.28,157.45 608.82,161.53 638.39,121.07 	"/>
	<polygon points="618.4,165.23 608.82,161.53 566.23,227.47 	"/>
</g>
<g id="TOP_Right_Inner">
	<polygon points="613.39,31.47 574.79,93.21 585.46,97.3 	"/>
	<polygon points="595.83,101.35 585.46,97.3 551.93,174.22 	"/>
</g>
<g id="TOP_Left_Outter">
	<polygon points="450.32,117.52 481.72,157.45 471.18,161.53 441.61,121.07 	"/>
	<polygon points="461.6,165.23 471.18,161.53 513.77,227.47 	"/>
</g>
<g id="TOP_Left_Inner">
	<polygon points="466.61,31.47 505.21,93.21 494.54,97.3 	"/>
	<polygon points="484.17,101.35 494.54,97.3 528.07,174.22 	"/>
</g>
<g id="TOP_Center">
	<polygon points="544.73,10.35 547.09,66.76 540,66.76 540,8.61 	"/>
	<polygon points="528.64,66.76 540,66.76 540,145.62 	"/>
</g>
<rect id="page_bounding_box__x28_for_SVG_x29_" class="st0" width="1080" height="1080"/>
</svg>
