<?xml version="1.0" encoding="utf-8"?>
<!-- Generator: Adobe Illustrator 26.5.0, SVG Export Plug-In . SVG Version: 6.00 Build 0)  -->
<svg version="1.1" id="Layer_1" xmlns="http://www.w3.org/2000/svg" xmlns:xlink="http://www.w3.org/1999/xlink" x="0px" y="0px"
	 viewBox="0 0 1080 1080" style="enable-background:new 0 0 1080 1080;" xml:space="preserve">
<style type="text/css">
	.miename0{fill:#DD9619;}
	.miename1{fill:#FFFFFF;}
	.miename2{stroke:#000000;stroke-miterlimit:10;}
	.miename3{fill:none;}
</style>
<g id="THE_MUSEUM_OF_INFORMATION_EXPLOSION">
	<g id="text_yellow_shadow">
		<polygon class="miename0" points="28.41,523.63 30.91,528.42 38.19,528.61 36.54,512.79 28.47,512.79 28.47,513.22 14.46,513.22 
			14.46,512.79 6.39,512.79 4.74,528.61 12.02,528.42 14.52,523.63 14.52,544.72 11.67,544.72 11.67,552.59 31.42,552.59 
			31.42,544.72 28.41,544.72 		"/>
		<path class="miename0" d="M96.96,528.48l4.82,0.12l-1.65-15.82h-8.07v0.43H72.92h-0.27H37.54v7.87h2.85v23.64h-2.85v7.87h35.11h0.27
			h20.92v0.43h8.07l1.66-15.82l-6.61,0.17V528.48z M89.71,524.95l-0.32,0.86v-4.72h1.26c0,0,0,0,0.01,0c0.09,0.15,0.2,0.37,0.3,0.55
			c0.09,0.18,0.19,0.37,0.26,0.49l1.47,2.83h-2.98V524.95z M92.75,544.17c-0.09,0.17-0.2,0.39-0.29,0.55H89.4v-7.18l0.32,0.86h6.05
			l-2.73,5.23C92.94,543.81,92.84,543.99,92.75,544.17z M54.29,521.09h1.88v6.65h-1.88V521.09z M56.17,544.72h-1.88v-9.12h1.88
			V544.72z M75.5,544.72h-2.58h-0.27h-2.58v-23.64h2.58h0.27h2.58V544.72z"/>
		<path class="miename0" d="M258.01,537.37v-8.89l4.82,0.12l-1.65-15.82h-8.07v0.43h-19.4v3.8h-3.5c-0.3-0.12-1.11-0.7-2.06-1.94
			l-1.46-1.9H207l-1.39,1.65c-1.72,2.05-2.48,2.19-2.48,2.19h-3.37v-3.8h-34.78h-0.27h-9.7h-5.11h-0.86l-4.86,14.82l-5.11-14.82
			h-9.24h-2.01h-5.41v7.87h3.39c0.39,0,0.75,0.05,1.08,0.15v23.48h-2.85v7.87h13.41v-4.01l1.31,4.01h26.23v-7.87h-2.85v-23.64h2.58
			h0.27h2.58v19.8H165v7.87h3.77c0.3,0.12,1.11,0.7,2.06,1.94l1.46,1.9h19.68l1.39-1.65c1.72-2.05,2.48-2.18,2.48-2.19h3.63v-7.87
			h-2.56v-19.8h2.58v3.8h2.56v16h-2.56v7.87h3.61c0.03,0,0.79,0.14,2.52,2.2l1.38,1.64h19.67l1.47-1.91
			c0.95-1.23,1.76-1.81,2.05-1.93h3.5v3.84h21.19v0.43h8.07l1.66-15.82L258.01,537.37z M134.59,544.72v-4.87l1.59,4.87H134.59z
			 M148.23,541.24v3.49h-1.09L148.23,541.24z M181.45,521.09h1.56v23.64h-1.56V521.09z M250.77,524.95l-0.32,0.86v-4.72h1.26
			c0,0,0,0,0.01,0c0.09,0.15,0.2,0.37,0.3,0.55c0.09,0.18,0.19,0.37,0.26,0.49l1.47,2.83h-2.98V524.95z M253.8,544.17
			c-0.09,0.17-0.2,0.39-0.29,0.55h-3.06v-7.18l0.32,0.86h6.05l-2.73,5.23C253.99,543.81,253.89,543.99,253.8,544.17z M217.51,521.05
			v5.36l-1.56-0.7v-4.66H217.51z M209.13,535.78l8.38,3.77v5.17h-1.56v-5.51L209.13,535.78z M236.55,544.72h-2.58v-3.84h-2.56v-8.26
			l-6.64-2.97l6.64,2.74v-7.5h2.56v-3.8h2.58V544.72z"/>
		<path class="miename0" d="M326.25,513.22h-0.86l-4.86,14.82l-5.11-14.82h-9.24h-2.01h-5.14h-0.27h-34.78v7.87h2.85v19.8h-2.56v7.87
			h3.77c0.3,0.12,1.11,0.7,2.06,1.94l1.46,1.9h19.68l1.39-1.65c1.72-2.05,2.48-2.18,2.48-2.19h3.63v-7.87h-2.56v-19.8h2.58h0.27
			h3.12c0.39,0,0.75,0.05,1.08,0.15v23.48h-2.85v7.87h13.41v-4.01l1.31,4.01h26.23v-7.87h-2.85v-23.64h2.85v-7.87h-9.97h-5.11
			V513.22z M280.71,521.09h1.56v23.64h-1.56V521.09z M310.94,544.72v-4.87l1.59,4.87H310.94z M324.57,541.24v3.49h-1.09
			L324.57,541.24z"/>
		<path class="miename0" d="M413.01,512.79v0.43h-20.05v3.8h-1.71c-0.3-0.12-1.11-0.7-2.06-1.94l-1.46-1.9h-19.67l-1.39,1.65
			c-1.72,2.05-2.48,2.19-2.48,2.19h-3.63v7.87h2.56v16h-2.56v7.87h3.77c0.3,0.12,1.11,0.7,2.06,1.94l1.46,1.9h19.68l1.39-1.65
			c1.72-2.05,2.48-2.18,2.48-2.19h1.58v3.84h22.36v-7.87h-5.61v-8.9c0.04,0.1,0.09,0.23,0.15,0.37l0.82,2.2h7.25v-9.91l4.82,0.12
			l-1.66-15.82H413.01z M409.71,521.09h1.91c0,0,0,0,0.01,0c0.09,0.15,0.2,0.37,0.3,0.55c0.09,0.18,0.19,0.37,0.26,0.49l1.47,2.83
			h-2.97l-0.82,2.2c-0.05,0.15-0.1,0.27-0.15,0.37v-6.44H409.71z M378.56,521.05v23.67H377v-23.67H378.56z M395.81,544.72h-0.79
			v-3.84h-2.56v-16h2.56v-3.8h0.79V544.72z"/>
		<path class="miename0" d="M591.31,542.68l-2-7.5c-0.28-1.03-0.73-2-1.34-2.9c0.17-0.09,0.26-0.11,0.26-0.11h3.63v-15.11h-3.77
			c-0.3-0.12-1.11-0.7-2.06-1.94l-1.47-1.9h-26.33v3.8h-3.06c-0.3-0.12-1.11-0.7-2.06-1.94l-1.47-1.9h-19.67l-1.39,1.65
			c-1.72,2.05-2.48,2.19-2.48,2.19h-3.63v5.34l-1-9.58h-8.07v0.43h-20.05v7.87h2.85v23.64h-2.58h-0.27h-2.95v-23.64h2.85v-7.87
			h-13.41v7.87h2.85v10.61l-7.37-18.48H466.4h-1.6h-4.25h-0.88h-18.71v7.87h2.85v23.64h-2.85v7.87h19.59v-7.87h-2.85v-23.64h1.97
			h0.88h2.51c0.08,0,0.37,0.02,0.8,0.32v23.31h-2.85v7.87h13.41v-7.79l3.21,7.79h11.66h2.18h3.88h0.27h22.09v-7.87h-5.61v-8.9
			c0.04,0.1,0.09,0.23,0.15,0.37l0.82,2.2h7.25v-9.91l4.82,0.12l-0.39-3.72h2.3v16h-2.56v7.87h3.77c0.3,0.12,1.11,0.7,2.06,1.94
			l1.46,1.9h19.68l1.39-1.65c1.72-2.05,2.48-2.18,2.48-2.19h2.92v3.84h19.88v-1.92l0.51,1.92h17.87v-7.87h-3.39
			C592.39,544.72,591.87,544.72,591.31,542.68z M471.58,544.72v-6.85l2.82,6.85H471.58z M512.1,521.09h1.91c0,0,0,0,0.01,0
			c0.09,0.15,0.2,0.37,0.3,0.55c0.09,0.18,0.19,0.37,0.26,0.49l1.47,2.83h-2.97l-0.82,2.2c-0.05,0.15-0.1,0.27-0.15,0.37
			L512.1,521.09L512.1,521.09z M575.41,521.09v7.83c0,0.33-0.14,0.58-0.42,0.76v-8.6L575.41,521.09L575.41,521.09z M542.5,521.05
			v23.67h-1.56v-23.67H542.5z M561.09,544.72h-2.13v-3.84h-2.56v-16h2.56v-3.8h2.13V544.72z M574.99,544.72v-5.81l1.55,5.81H574.99z
			"/>
		<path class="miename0" d="M670.32,544.72c-0.62-0.62-1.34-3.23-1.74-4.65l-5.16-18.6c-0.49-1.81-1.65-6.06-5.92-7.96l-0.66-0.29h-4.82
			l-0.37-0.98l-0.25,0.98h-6.73v7.87h3.06c0.13,0.24,0.29,0.58,0.49,1.08l-5.08,20.32c-0.33,1.34-0.63,1.97-0.79,2.23
			c-0.13,0-0.3,0-0.43,0h-3.12h-0.27h-2.58v-23.64h2.85v-7.87h-9.96h-5.11h-0.86l-4.86,14.82l-5.11-14.82h-9.25h-2.01h-5.41v7.87
			h3.39c0.39,0,0.75,0.05,1.08,0.15v23.48h-2.85v7.87h13.41v-4.01l1.31,4.01h25.96h0.27h14.4v-7.81l-2.74-0.05
			c0.04-0.21,0.09-0.4,0.12-0.53l0.61-2.44h2.7l0.28,0.97c1.02,3.48,2.07,6.18,6.16,9.2l0.9,0.66h12.39l-0.01-7.87h-3.29V544.72z
			 M608.43,544.72v-4.87l1.59,4.87H608.43z M622.07,541.24v3.49h-1.09L622.07,541.24z"/>
		<path class="miename0" d="M781.88,521.09h2.85v-7.87h-13.41v7.87h2.85v10.61l-7.37-18.47h-10.93h-1.6h-5.12v3.8h-1.39
			c-0.3-0.12-1.11-0.7-2.06-1.94l-1.47-1.9h-19.67l-1.39,1.65c-1.72,2.05-2.48,2.19-2.49,2.19h-1.05v-3.8h-19.59v3.32l-0.39-3.76
			h-8.07v0.43h-14v-0.43h-8.07l-1.66,15.82l7.28-0.18l2.5-4.79v21.09h-2.85v7.87h19.76v-7.87h-3.01v-21.09l2.5,4.79l7.28,0.18
			l-0.79-7.52h2.37v23.64h-2.85v7.87h19.59v-3.84h1.18c0.3,0.12,1.11,0.7,2.06,1.94l1.47,1.9h19.67l1.39-1.65
			c1.72-2.05,2.48-2.18,2.48-2.19h2.59v3.84h13.41v-7.8l3.21,7.8h11.66h2.18h4.15v-7.87h-3.21L781.88,521.09L781.88,521.09z
			 M735.08,521.05v23.67h-1.56v-23.67H735.08z M716.8,521.09h0.26v3.8h2.56v16h-2.56v3.84h-0.26V521.09z M753.34,544.72h-1.81v-3.84
			h-2.56v-16h2.56v-3.8h1.01c0.08,0,0.37,0.02,0.8,0.32V544.72z M761.06,544.72v-6.85l2.82,6.85H761.06z"/>
		<path class="miename0" d="M828.62,528.48l4.82,0.12l-1.66-15.82h-8.07v0.43h-19.4v7.87h2.85v23.64h-2.85v7.87h21.19v0.43h8.07
			l1.66-15.82l-6.61,0.17V528.48z M821.38,524.95l-0.32,0.86v-4.72h1.26c0,0,0,0,0.01,0c0.09,0.15,0.2,0.38,0.29,0.55
			c0.09,0.18,0.19,0.36,0.26,0.49l1.47,2.83h-2.97V524.95z M824.41,544.18c-0.09,0.17-0.2,0.39-0.29,0.55h-3.06v-7.18l0.32,0.86
			h6.05l-2.73,5.23C824.6,543.81,824.51,543.99,824.41,544.18z"/>
		<path class="miename0" d="M1075.22,544.72v-23.64h2.85v-7.87h-13.41v7.87h2.85v10.61l-7.37-18.47h-10.93h-1.6h-5.12v3.8h-1.39
			c-0.3-0.12-1.11-0.7-2.06-1.94l-1.47-1.9h-19.67l-1.39,1.65c-1.72,2.05-2.48,2.19-2.49,2.19h-1.04v-3.8h-19.59v3.8h-1.18
			c-0.3-0.12-1.11-0.7-2.06-1.94l-1.47-1.9h-19.67l-1.39,1.65c-1.72,2.05-2.48,2.19-2.49,2.19h-3.37h-0.27H958
			c-0.3-0.12-1.11-0.7-2.06-1.94l-1.47-1.9H934.8l-1.39,1.65c-1.72,2.05-2.48,2.19-2.49,2.19h-3.63v7.87h2.56v16h-2.29l0.39-3.68
			l-7.28,0.19l-3.27,6.27c-0.09,0.17-0.18,0.35-0.27,0.52c-0.09,0.17-0.2,0.39-0.28,0.54c-0.02,0-0.05,0-0.08,0h-0.43v-23.64h3.95
			v-7.87H899.6v3.84h-1.71c-0.3-0.12-1.11-0.7-2.06-1.94l-1.47-1.9h-26.22h-0.1h-12.78v7.87h0.63l-0.6,1.41l-0.59-1.41
			c-1.16-2.84-2.82-5.96-6.28-7.55l-0.67-0.31h-13.16v7.87h3.63c0.38,0.54,1.11,1.75,2.21,4.39l3.49,8.37l-4.48,10.85
			c0,0.01-0.01,0.01-0.01,0.02h-3.77v7.87h12.92v-7.8c1.18,2.54,2.65,4.71,6.01,7.15l0.89,0.65h12.56h0.27h22.33v-7.87h-5.86v-5.02
			h9.45l1.35-1.73c1.69-2.01,2.44-2.14,2.45-2.14h3.63v-7.87h-2.56v-3.03h2.56v-3.84h0.79v23.64h-2.85v7.87h18.63v0.43h8.07l1-9.58
			v5.3h3.77c0.3,0.12,1.11,0.7,2.06,1.94l1.47,1.9h19.67l1.39-1.65c1.72-2.05,2.48-2.18,2.48-2.19h3.63l0,0h3.34
			c0.03,0,0.79,0.14,2.51,2.19l1.38,1.64h19.68l1.47-1.91c0.95-1.23,1.76-1.81,2.05-1.93h1.18v3.84h19.59v-3.84h1.18
			c0.3,0.12,1.11,0.7,2.06,1.94l1.47,1.9h19.67l1.39-1.65c1.72-2.05,2.48-2.18,2.48-2.19h2.59v3.84h13.41v-7.8l3.21,7.8h11.66h2.18
			h4.15v-7.87L1075.22,544.72L1075.22,544.72z M884.76,531.83v-10.75h0.42v10.75H884.76z M847.89,544.72l0.3-0.74
			c0.11,0.25,0.22,0.5,0.33,0.74H847.89z M870.87,544.72h-2.58h-0.27h-2.95c-0.74-0.6-1.86-3.26-2.55-4.88l-2.99-7.16l4.82-11.6
			h3.66h0.1h2.74v23.64H870.87z M1028.42,521.05v23.67h-1.56v-23.67H1028.42z M979.52,521.05v5.36l-1.56-0.7v-4.66H979.52z
			 M971.14,535.78l8.38,3.77v5.17h-1.56v-5.51L971.14,535.78z M945.31,521.05v23.67h-1.56v-23.67H945.31z M964.06,540.88h-2.3h-0.27
			h-2.3v-16h2.3h0.27h2.3V540.88z M996.24,544.72h-0.26v-3.84h-2.56v-8.26l-6.64-2.97l6.64,2.74v-7.5h2.56v-3.8h0.26V544.72z
			 M1010.14,521.09h0.26v3.8h2.56v16h-2.56v3.84h-0.26V521.09z M1046.68,544.72h-1.81v-3.84h-2.56v-16h2.56v-3.8h1.01
			c0.08,0,0.37,0.02,0.8,0.32V544.72z M1054.4,544.72v-6.85l2.82,6.85H1054.4z"/>
	</g>
	<g id="text_white">
		<polygon class="miename1" points="25.14,520.36 27.64,525.16 34.92,525.34 33.26,509.52 25.19,509.52 25.19,509.95 11.19,509.95 
			11.19,509.52 3.12,509.52 1.46,525.34 8.74,525.16 11.24,520.36 11.24,541.46 8.39,541.46 8.39,549.32 28.15,549.32 28.15,541.46 
			25.14,541.46 		"/>
		<path class="miename1" d="M93.68,525.22l4.82,0.12l-1.65-15.82h-8.07v0.43H69.64h-0.27h-35.1v7.87h2.85v23.64h-2.85v7.87h35.11h0.27
			h20.92v0.43h8.07l1.66-15.82l-6.61,0.17v-8.89H93.68z M86.44,521.69l-0.32,0.86v-4.72h1.26c0,0,0,0,0.01,0
			c0.09,0.15,0.2,0.37,0.3,0.55c0.09,0.18,0.19,0.37,0.26,0.49l1.47,2.83h-2.98V521.69z M89.47,540.91
			c-0.09,0.17-0.2,0.39-0.29,0.55h-3.06v-7.18l0.32,0.86h6.05l-2.73,5.23C89.66,540.54,89.57,540.72,89.47,540.91z M51.01,517.82
			h1.88v6.65h-1.88V517.82z M52.9,541.46h-1.88v-9.12h1.88V541.46z M72.22,541.46h-2.58h-0.27h-2.58v-23.64h2.58h0.27h2.58V541.46z"
			/>
		<path class="miename1" d="M254.74,534.1v-8.89l4.82,0.12l-1.65-15.82h-8.07v0.43h-19.4v3.8h-3.5c-0.3-0.12-1.11-0.7-2.06-1.94
			l-1.46-1.9h-19.67l-1.39,1.65c-1.72,2.05-2.48,2.19-2.48,2.19h-3.37v-3.8H161.7h-0.27h-9.7h-5.11h-0.86l-4.86,14.82l-5.11-14.82
			h-9.24h-2.01h-5.41v7.87h3.39c0.39,0,0.75,0.05,1.08,0.15v23.48h-2.85v7.87h13.41v-4.01l1.31,4.01h26.23v-7.87h-2.85V517.8h2.58
			h0.27h2.58v19.8h-2.56v7.87h3.77c0.3,0.12,1.11,0.7,2.06,1.94l1.46,1.9h19.68l1.39-1.65c1.72-2.05,2.48-2.18,2.48-2.19h3.63v-7.87
			h-2.56v-19.8h2.58v3.8h2.56v16h-2.56v7.87h3.61c0.03,0,0.79,0.14,2.52,2.2l1.38,1.64h19.67l1.47-1.91
			c0.95-1.23,1.76-1.81,2.05-1.93h3.5v3.84h21.19v0.43h8.07l1.66-15.82L254.74,534.1z M131.31,541.46v-4.87l1.59,4.87H131.31z
			 M144.95,537.97v3.49h-1.09L144.95,537.97z M178.18,517.82h1.56v23.64h-1.56V517.82z M247.49,521.69l-0.32,0.86v-4.72h1.26
			c0,0,0,0,0.01,0c0.09,0.15,0.2,0.37,0.3,0.55c0.09,0.18,0.19,0.37,0.26,0.49l1.47,2.83h-2.98V521.69z M250.52,540.91
			c-0.09,0.17-0.2,0.39-0.29,0.55h-3.06v-7.18l0.32,0.86h6.05l-2.73,5.23C250.71,540.54,250.62,540.72,250.52,540.91z
			 M214.23,517.78v5.36l-1.56-0.7v-4.66H214.23z M205.86,532.52l8.38,3.77v5.17h-1.56v-5.51L205.86,532.52z M233.27,541.46h-2.58
			v-3.84h-2.56v-8.26l-6.64-2.97l6.64,2.74v-7.5h2.56v-3.8h2.58V541.46z"/>
		<path class="miename1" d="M322.97,509.95h-0.86l-4.86,14.82l-5.11-14.82h-9.24h-2.01h-5.14h-0.27H260.7v7.87h2.85v19.8h-2.56v7.87h3.77
			c0.3,0.12,1.11,0.7,2.06,1.94l1.46,1.9h19.68l1.39-1.65c1.72-2.05,2.48-2.18,2.48-2.19h3.63v-7.87h-2.56v-19.8h2.58h0.27h3.12
			c0.39,0,0.75,0.05,1.08,0.15v23.48h-2.85v7.87h13.41v-4.01l1.31,4.01h26.23v-7.87h-2.85v-23.64h2.85v-7.87h-9.97h-5.11V509.95z
			 M277.44,517.82H279v23.64h-1.56V517.82z M307.66,541.46v-4.87l1.59,4.87H307.66z M321.3,537.97v3.49h-1.09L321.3,537.97z"/>
		<path class="miename1" d="M409.74,509.52v0.43h-20.05v3.8h-1.71c-0.3-0.12-1.11-0.7-2.06-1.94l-1.46-1.9h-19.67l-1.39,1.65
			c-1.72,2.05-2.48,2.19-2.48,2.19h-3.63v7.87h2.56v16h-2.56v7.87h3.77c0.3,0.12,1.11,0.7,2.06,1.94l1.46,1.9h19.68l1.39-1.65
			c1.72-2.05,2.48-2.18,2.48-2.19h1.58v3.84h22.36v-7.87h-5.61v-8.9c0.04,0.1,0.09,0.23,0.15,0.37l0.82,2.2h7.25v-9.91l4.82,0.12
			l-1.66-15.82L409.74,509.52L409.74,509.52z M406.43,517.82h1.91c0,0,0,0,0.01,0c0.09,0.15,0.2,0.37,0.3,0.55
			c0.09,0.18,0.19,0.37,0.26,0.49l1.47,2.83h-2.97l-0.82,2.2c-0.05,0.15-0.1,0.27-0.15,0.37v-6.44H406.43z M375.28,517.78v23.67
			h-1.56v-23.67H375.28z M392.53,541.46h-0.79v-3.84h-2.56v-16h2.56v-3.8h0.79V541.46z"/>
		<path class="miename1" d="M588.03,539.41l-2-7.5c-0.28-1.03-0.73-2-1.34-2.9c0.17-0.09,0.26-0.11,0.26-0.11h3.63v-15.11h-3.77
			c-0.3-0.12-1.11-0.7-2.06-1.94l-1.47-1.9h-26.33v3.8h-3.06c-0.3-0.12-1.11-0.7-2.06-1.94l-1.47-1.9h-19.67l-1.39,1.65
			c-1.72,2.05-2.48,2.19-2.48,2.19h-3.63v5.34l-1-9.58h-8.07v0.43h-20.05v7.87h2.85v23.64h-2.58h-0.27h-2.95v-23.64h2.85v-7.87
			h-13.41v7.87h2.85v10.61l-7.37-18.48h-10.92h-1.6h-4.25h-0.88h-18.71v7.87h2.85v23.64h-2.85v7.87h19.59v-7.87h-2.85v-23.64h1.97
			h0.88h2.51c0.08,0,0.37,0.02,0.8,0.32v23.31h-2.85v7.87h13.41v-7.79l3.21,7.79h11.66h2.18h3.88h0.27h22.09v-7.87h-5.61v-8.9
			c0.04,0.1,0.09,0.23,0.15,0.37l0.82,2.2h7.25v-9.91l4.82,0.12l-0.39-3.72h2.3v16h-2.56v7.87h3.77c0.3,0.12,1.11,0.7,2.06,1.94
			l1.46,1.9h19.68l1.39-1.65c1.72-2.05,2.48-2.18,2.48-2.19h2.92v3.84h19.88v-1.92l0.51,1.92h17.87v-7.87h-3.39
			C589.11,541.46,588.59,541.46,588.03,539.41z M468.3,541.46v-6.85l2.82,6.85H468.3z M508.82,517.82h1.91c0,0,0,0,0.01,0
			c0.09,0.15,0.2,0.37,0.3,0.55c0.09,0.18,0.19,0.37,0.26,0.49l1.47,2.83h-2.97l-0.82,2.2c-0.05,0.15-0.1,0.27-0.15,0.37v-6.44
			H508.82z M572.13,517.82v7.83c0,0.33-0.14,0.58-0.42,0.76v-8.6L572.13,517.82L572.13,517.82z M539.22,517.78v23.67h-1.56v-23.67
			H539.22z M557.81,541.46h-2.13v-3.84h-2.56v-16h2.56v-3.8h2.13V541.46z M571.71,541.46v-5.81l1.55,5.81H571.71z"/>
		<path class="miename1" d="M667.05,541.45c-0.62-0.62-1.34-3.23-1.74-4.65l-5.16-18.6c-0.49-1.81-1.65-6.06-5.92-7.96l-0.66-0.29h-4.82
			l-0.37-0.98l-0.25,0.98h-6.73v7.87h3.06c0.13,0.24,0.29,0.58,0.49,1.08l-5.08,20.32c-0.33,1.34-0.63,1.97-0.79,2.23
			c-0.13,0-0.3,0-0.43,0h-3.12h-0.27h-2.58v-23.64h2.85v-7.87h-9.96h-5.11h-0.86l-4.86,14.82l-5.11-14.82h-9.25h-2.01h-5.41v7.87
			h3.39c0.39,0,0.75,0.05,1.08,0.15v23.48h-2.85v7.87H608v-4.01l1.31,4.01h25.96h0.27h14.4v-7.81l-2.74-0.05
			c0.04-0.21,0.09-0.4,0.12-0.53l0.61-2.44h2.7l0.28,0.97c1.02,3.48,2.07,6.18,6.16,9.2l0.9,0.66h12.39l-0.01-7.87h-3.3V541.45z
			 M605.15,541.46v-4.87l1.59,4.87H605.15z M618.79,537.97v3.49h-1.09L618.79,537.97z"/>
		<path class="miename1" d="M778.61,517.82h2.85v-7.87h-13.41v7.87h2.85v10.61l-7.37-18.47H752.6H751h-5.12v3.8h-1.39
			c-0.3-0.12-1.11-0.7-2.06-1.94l-1.47-1.9h-19.67l-1.39,1.65c-1.72,2.05-2.48,2.19-2.49,2.19h-1.04v-3.8h-19.59v3.32l-0.39-3.76
			h-8.07v0.43h-14v-0.43h-8.07l-1.66,15.82l7.28-0.18l2.5-4.79v21.09h-2.85v7.87h19.76v-7.87h-3.01v-21.09l2.5,4.79l7.28,0.18
			l-0.79-7.52h2.37v23.64h-2.85v7.87h19.59v-3.84h1.18c0.3,0.12,1.11,0.7,2.06,1.94l1.47,1.9h19.67l1.39-1.65
			c1.72-2.05,2.48-2.18,2.48-2.19h2.59v3.84h13.41v-7.8l3.21,7.8h11.66h2.18h4.15v-7.87h-3.21L778.61,517.82L778.61,517.82z
			 M731.8,517.78v23.67h-1.56v-23.67H731.8z M713.52,517.82h0.26v3.8h2.56v16h-2.56v3.84h-0.26V517.82z M750.07,541.46h-1.81v-3.84
			h-2.56v-16h2.56v-3.8h1.01c0.08,0,0.37,0.02,0.8,0.32V541.46z M757.78,541.46v-6.85l2.82,6.85H757.78z"/>
		<path class="miename1" d="M825.35,525.22l4.82,0.12l-1.66-15.82h-8.07v0.43h-19.4v7.87h2.85v23.64h-2.85v7.87h21.19v0.43h8.07
			l1.66-15.82l-6.61,0.17V525.22z M818.1,521.69l-0.32,0.86v-4.72h1.26c0,0,0,0,0.01,0c0.09,0.15,0.2,0.38,0.29,0.55
			c0.09,0.18,0.19,0.36,0.26,0.49l1.47,2.83h-2.97V521.69z M821.14,540.91c-0.09,0.17-0.2,0.39-0.29,0.55h-3.06v-7.18l0.32,0.86
			h6.05l-2.73,5.23C821.33,540.54,821.23,540.72,821.14,540.91z"/>
		<path class="miename1" d="M1071.95,541.46v-23.64h2.85v-7.87h-13.41v7.87h2.85v10.61l-7.37-18.47h-10.93h-1.6h-5.12v3.8h-1.39
			c-0.3-0.12-1.11-0.7-2.06-1.94l-1.47-1.9h-19.67l-1.39,1.65c-1.72,2.05-2.48,2.19-2.49,2.19h-1.05v-3.8h-19.59v3.8h-1.18
			c-0.3-0.12-1.11-0.7-2.06-1.94l-1.47-1.9h-19.67l-1.39,1.65c-1.72,2.05-2.48,2.19-2.49,2.19h-3.37h-0.27h-3.5
			c-0.3-0.12-1.11-0.7-2.06-1.94l-1.47-1.9h-19.67l-1.39,1.65c-1.72,2.05-2.48,2.19-2.49,2.19H924v7.87h2.56v16h-2.29l0.39-3.68
			l-7.28,0.19l-3.27,6.27c-0.09,0.17-0.18,0.35-0.27,0.52c-0.09,0.17-0.2,0.39-0.28,0.54c-0.02,0-0.05,0-0.08,0h-0.43v-23.64H917
			v-7.87h-20.69v3.84h-1.71c-0.3-0.12-1.11-0.7-2.06-1.94l-1.47-1.9h-26.22h-0.1h-12.78v7.87h0.63l-0.6,1.41l-0.59-1.41
			c-1.16-2.84-2.82-5.96-6.28-7.55l-0.67-0.31H831.3v7.87h3.63c0.38,0.54,1.11,1.75,2.21,4.39l3.49,8.37l-4.48,10.85
			c0,0.01-0.01,0.01-0.01,0.02h-3.77v7.87h12.92v-7.8c1.18,2.54,2.65,4.71,6.01,7.15l0.89,0.65h12.56h0.27h22.33v-7.87h-5.86v-5.02
			h9.45l1.35-1.73c1.69-2.01,2.44-2.14,2.45-2.14h3.63v-7.87h-2.56v-3.03h2.56v-3.84h0.79v23.64h-2.85v7.87h18.63v0.43h8.07l1-9.58
			v5.3h3.77c0.3,0.12,1.11,0.7,2.06,1.94l1.47,1.9h19.67l1.39-1.65c1.72-2.05,2.48-2.18,2.48-2.19h3.63l0,0h3.34
			c0.03,0,0.79,0.14,2.51,2.19l1.38,1.64h19.68l1.47-1.91c0.95-1.23,1.76-1.81,2.05-1.93h1.18v3.84h19.59v-3.84h1.18
			c0.3,0.12,1.11,0.7,2.06,1.94l1.47,1.9h19.67l1.39-1.65c1.72-2.05,2.48-2.18,2.48-2.19h2.59v3.84h13.41v-7.8l3.21,7.8h11.66h2.18
			h4.15v-7.87L1071.95,541.46L1071.95,541.46z M881.49,528.57v-10.75h0.42v10.75H881.49z M844.62,541.46l0.3-0.74
			c0.11,0.25,0.22,0.5,0.33,0.74H844.62z M867.59,541.46h-2.58h-0.27h-2.95c-0.74-0.6-1.86-3.26-2.55-4.88l-2.99-7.16l4.82-11.6
			h3.66h0.1h2.74v23.64H867.59z M1025.14,517.78v23.67h-1.56v-23.67H1025.14z M976.24,517.78v5.36l-1.56-0.7v-4.66H976.24z
			 M967.87,532.52l8.38,3.77v5.17h-1.56v-5.51L967.87,532.52z M942.03,517.78v23.67h-1.56v-23.67H942.03z M960.79,537.62h-2.3h-0.27
			h-2.3v-16h2.3h0.27h2.3V537.62z M992.96,541.46h-0.26v-3.84h-2.56v-8.26l-6.64-2.97l6.64,2.74v-7.5h2.56v-3.8h0.26V541.46z
			 M1006.86,517.82h0.26v3.8h2.56v16h-2.56v3.84h-0.26V517.82z M1043.41,541.46h-1.81v-3.84h-2.56v-16h2.56v-3.8h1.01
			c0.07,0,0.37,0.02,0.8,0.32V541.46z M1051.12,541.46v-6.85l2.82,6.85H1051.12z"/>
	</g>
	<g id="text_black">
		<path class="miename2" d="M14.63,542.78v-26.32c0-1.7-0.08-2.03-1.51-2.03h-0.49c-2.44,0-2.89,1.48-3.62,2.86l-2.36,4.53l-1.42,0.04
			l0.94-8.94H7.8c0,0.43,1.1,0.43,1.59,0.43H27c0.49,0,1.59,0,1.59-0.43h1.63l0.94,8.94l-1.42-0.04l-2.36-4.53
			c-0.73-1.38-1.18-2.86-3.62-2.86h-0.49c-1.42,0-1.51,0.33-1.51,2.03v26.36c0,1.7,0.08,2.03,1.51,2.03h1.51v1.09h-13v-1.09h1.3
			C14.55,544.85,14.63,544.52,14.63,542.78z"/>
		<path class="miename2" d="M66.25,545.93H53.44v-1.09h1.3c1.42,0,1.55-0.33,1.55-2.06v-13.83h-8.67v13.87c0,1.7,0.08,2.03,1.51,2.03
			h1.34v1.09H37.66v-1.09h1.3c1.42,0,1.55-0.33,1.55-2.06v-26.32c0-1.7-0.08-2.03-1.51-2.03h-1.34v-1.09h12.81v1.09h-1.3
			c-1.42,0-1.55,0.33-1.55,2.06v11.37h8.67v-11.41c0-1.7-0.08-2.03-1.51-2.03h-1.34v-1.09h12.81v1.09h-1.3
			c-1.42,0-1.55,0.33-1.55,2.06v26.32c0,1.7,0.08,2.03,1.51,2.03h1.34C66.25,544.84,66.25,545.93,66.25,545.93z"/>
		<path class="miename2" d="M82.73,542.82c0,1.7,0.08,2.03,1.51,2.03h5.04c2.28-0.07,2.73-1.52,3.46-2.86l2.36-4.53l1.42-0.04l-0.94,8.94
			h-1.63c0-0.43-1.1-0.43-1.59-0.43h-19.6v-1.09h1.3c1.42,0,1.55-0.33,1.55-2.06v-26.32c0-1.7-0.08-2.03-1.51-2.03h-1.34v-1.09
			h17.82c0.49,0,1.59,0,1.59-0.43h1.63l0.94,8.94l-1.42-0.04l-2.36-4.53c-0.73-1.34-1.18-2.79-3.46-2.86h-3.21
			c-1.42,0-1.55,0.33-1.55,2.06v11.37h3.17c1.59,0,2.28-1.16,2.89-2.79h1.5v6.66h-1.5c-0.61-1.63-1.3-2.79-2.89-2.79h-3.17v13.89
			H82.73z"/>
		<path class="miename2" d="M129.75,520.88c-0.61-1.85-1.14-3.37-1.83-4.16v26.11c0,1.7,0.08,2.03,1.51,2.03h1.34v1.09h-6.63v-1.09h1.3
			c1.42,0,1.55-0.33,1.55-2.06v-26.76c-1.3-1.05-2.77-1.59-4.47-1.59v-1.09h10.86l7.61,22.05l7.24-22.05h10.09v1.09h-1.3
			c-1.42,0-1.55,0.33-1.55,2.06v26.32c0,1.7,0.08,2.03,1.5,2.03h1.34v1.09h-13.55v-1.09h2.07c1.42,0,1.51-0.33,1.51-2.06v-26.98
			l-9.44,30.13h-0.98L129.75,520.88z"/>
		<path class="miename2" d="M190.25,538.47c0,1.09,0.85,2.53,2.12,2.53h0.45v1.09h-0.24c-1.87,0-3.66,1.7-5.08,3.4l-0.37,0.43H170.7
			l-0.45-0.58c-1.14-1.48-2.93-3.26-4.64-3.26h-0.49v-1.09h0.49c1.18,0,2.07-1.67,2.07-2.61v-21.91c0-1.74-0.12-2.06-1.55-2.06h-1.3
			v-1.09h11.88v1.09h-0.41c-1.42,0-1.51,0.33-1.51,2.03v25.67c0,1.56,1.67,2.72,2.93,2.72h2.44c1.18,0,2.97-1.19,2.97-2.61v-25.74
			c0-1.74-0.12-2.06-1.55-2.06h-0.37v-1.09h11.88v1.09h-1.34c-1.42,0-1.51,0.33-1.51,2.03L190.25,538.47L190.25,538.47z"/>
		<path class="miename2" d="M209.28,524.64l15.46,6.92v6.84c0,0.94,0.9,2.61,2.07,2.61h0.49v1.09h-0.49c-1.71,0-3.5,1.77-4.64,3.26
			l-0.45,0.58H205.3l-0.37-0.43c-1.42-1.7-3.21-3.4-5.09-3.4h-0.24v-1.09h0.45c1.26,0,2.12-1.34,2.12-2.43v-4.13l7.12,3.58v4.2
			c0,1.41,1.79,2.61,2.97,2.61h2.44c1.26,0,2.93-1.16,2.93-2.72v-8.04l-15.46-6.95v-6.37c0-1.09-0.85-2.53-2.12-2.53h-0.45v-1.09
			h0.24c1.87,0,3.66-1.7,5.09-3.4l0.37-0.43h16.44l0.45,0.58c1.14,1.48,2.93,3.26,4.64,3.26h0.49v1.09h-0.49
			c-1.18,0-2.07,1.67-2.07,2.61v3.22l-7.12-2.93v-4.02c0-1.56-1.67-2.72-2.93-2.72h-2.44c-1.18,0-2.97,1.19-2.97,2.61v7.62H209.28z"
			/>
		<path class="miename2" d="M243.78,542.82c0,1.7,0.08,2.03,1.51,2.03h5.04c2.28-0.07,2.73-1.52,3.46-2.86l2.36-4.53l1.42-0.04
			l-0.94,8.94H255c0-0.43-1.1-0.43-1.59-0.43H233.8v-1.09h1.3c1.42,0,1.55-0.33,1.55-2.06v-26.32c0-1.7-0.08-2.03-1.51-2.03h-1.34
			v-1.09h17.82c0.49,0,1.59,0,1.59-0.43h1.63l0.94,8.94l-1.42-0.04l-2.36-4.53c-0.73-1.34-1.18-2.79-3.46-2.86h-3.21
			c-1.42,0-1.55,0.33-1.55,2.06v11.37h3.17c1.59,0,2.28-1.16,2.89-2.79h1.5v6.66h-1.5c-0.61-1.63-1.3-2.79-2.89-2.79h-3.17
			L243.78,542.82L243.78,542.82z"/>
		<path class="miename2" d="M289.5,538.47c0,1.09,0.85,2.53,2.12,2.53h0.45v1.09h-0.24c-1.87,0-3.66,1.7-5.08,3.4l-0.37,0.43h-16.43
			l-0.45-0.58c-1.14-1.48-2.93-3.26-4.64-3.26h-0.49v-1.09h0.49c1.18,0,2.07-1.67,2.07-2.61v-21.91c0-1.74-0.12-2.06-1.55-2.06h-1.3
			v-1.09h11.88v1.09h-0.41c-1.42,0-1.51,0.33-1.51,2.03v25.67c0,1.56,1.67,2.72,2.93,2.72h2.44c1.18,0,2.97-1.19,2.97-2.61v-25.74
			c0-1.74-0.12-2.06-1.55-2.06h-0.37v-1.09h11.88v1.09H291c-1.42,0-1.5,0.33-1.5,2.03L289.5,538.47L289.5,538.47z"/>
		<path class="miename2" d="M306.1,520.88c-0.61-1.85-1.14-3.37-1.83-4.16v26.11c0,1.7,0.08,2.03,1.51,2.03h1.34v1.09h-6.63v-1.09h1.3
			c1.42,0,1.55-0.33,1.55-2.06v-26.76c-1.3-1.05-2.77-1.59-4.47-1.59v-1.09h10.86l7.61,22.05l7.24-22.05h10.09v1.09h-1.3
			c-1.42,0-1.55,0.33-1.55,2.06v26.32c0,1.7,0.08,2.03,1.5,2.03h1.34v1.09h-13.55v-1.09h2.07c1.42,0,1.51-0.33,1.51-2.06v-26.98
			l-9.44,30.13h-0.98L306.1,520.88z"/>
		<path class="miename2" d="M363.22,520.77c0-1.09-0.85-2.53-2.12-2.53h-0.45v-1.09h0.24c1.87,0,3.66-1.7,5.09-3.4l0.37-0.43h16.44
			l0.45,0.58c1.14,1.48,2.93,3.26,4.64,3.26h0.49v1.09h-0.49c-1.18,0-2.07,1.67-2.07,2.61v17.63c0,1.09,0.85,2.53,2.12,2.53h0.45
			v1.09h-0.24c-1.87,0-3.66,1.7-5.09,3.4l-0.37,0.43h-16.44l-0.45-0.58c-1.14-1.48-2.93-3.26-4.64-3.26h-0.49v-1.09h0.49
			c1.18,0,2.07-1.67,2.07-2.61V520.77z M370.33,542.13c0,1.56,1.67,2.72,2.93,2.72h2.44c1.18,0,2.97-1.19,2.97-2.61v-25.13
			c0-1.56-1.67-2.72-2.93-2.72h-2.44c-1.18,0-2.97,1.19-2.97,2.61V542.13z"/>
		<path class="miename2" d="M403.04,542.82c0,1.7,0.08,2.03,1.51,2.03h4.11v1.09h-15.58v-1.09h1.3c1.42,0,1.55-0.33,1.55-2.06v-26.32
			c0-1.7-0.08-2.03-1.5-2.03h-1.34v-1.09h18.47c0.49,0,1.59,0,1.59-0.43h1.63l0.94,8.94l-1.42-0.04l-2.36-4.53
			c-0.73-1.34-1.18-2.79-3.46-2.86h-3.86c-1.42,0-1.55,0.33-1.55,2.06v11.37h3.82c1.59,0,2.28-1.16,2.89-2.79h1.5v6.66h-1.5
			c-0.61-1.63-1.3-2.79-2.89-2.79h-3.82v13.88H403.04z"/>
		<path class="miename2" d="M453.89,545.93h-12.81v-1.09h1.3c1.42,0,1.55-0.33,1.55-2.06v-26.32c0-1.7-0.08-2.03-1.51-2.03h-1.34v-1.09
			h12.81v1.09h-1.3c-1.42,0-1.55,0.33-1.55,2.06v26.32c0,1.7,0.08,2.03,1.5,2.03h1.34v1.09H453.89z"/>
		<path class="miename2" d="M467.76,545.93h-6.63v-1.09h1.3c1.42,0,1.55-0.33,1.55-2.06v-26.07c-1.46-1.74-3.01-2.28-4.19-2.28v-1.09
			h11.96l9.52,23.86c1.14,2.86,2.4,4.27,3.54,5.58v-26.32c0-1.7-0.08-2.03-1.51-2.03h-1.34v-1.09h6.63v1.09h-1.3
			c-1.42,0-1.55,0.33-1.55,2.06v27.08c1.06,0.91,2.07,1.27,3.21,1.27v1.09h-12.33l-10.29-25.02c-0.53-1.3-0.9-2.03-1.42-2.75v24.66
			c0,1.7,0.08,2.03,1.51,2.03h1.34L467.76,545.93L467.76,545.93z"/>
		<path class="miename2" d="M505.43,542.82c0,1.7,0.08,2.03,1.51,2.03h4.11v1.09h-15.58v-1.09h1.3c1.42,0,1.55-0.33,1.55-2.06v-26.32
			c0-1.7-0.08-2.03-1.51-2.03h-1.34v-1.09h18.47c0.49,0,1.59,0,1.59-0.43h1.63l0.94,8.94l-1.42-0.04l-2.36-4.53
			c-0.73-1.34-1.18-2.79-3.46-2.86H507c-1.42,0-1.55,0.33-1.55,2.06v11.37h3.82c1.59,0,2.28-1.16,2.89-2.79h1.5v6.66h-1.5
			c-0.61-1.63-1.3-2.79-2.89-2.79h-3.82v13.88H505.43z"/>
		<path class="miename2" d="M527.15,520.77c0-1.09-0.85-2.53-2.12-2.53h-0.45v-1.09h0.24c1.87,0,3.66-1.7,5.09-3.4l0.37-0.43h16.43
			l0.45,0.58c1.14,1.48,2.93,3.26,4.64,3.26h0.49v1.09h-0.49c-1.18,0-2.07,1.67-2.07,2.61v17.63c0,1.09,0.85,2.53,2.12,2.53h0.45
			v1.09h-0.24c-1.87,0-3.66,1.7-5.08,3.4l-0.37,0.43h-16.43l-0.45-0.58c-1.14-1.48-2.93-3.26-4.64-3.26h-0.49v-1.09h0.49
			c1.18,0,2.07-1.67,2.07-2.61v-17.63H527.15z M534.27,542.13c0,1.56,1.67,2.72,2.93,2.72h2.44c1.18,0,2.97-1.19,2.97-2.61v-25.13
			c0-1.56-1.67-2.72-2.93-2.72h-2.44c-1.18,0-2.97,1.19-2.97,2.61V542.13z"/>
		<path class="miename2" d="M579.88,528.91c1.3,0.9,2.44,2.21,2.89,3.87l1.99,7.5c0.89,3.26,2.52,4.56,5.08,4.56v1.09h-11.88l-3.21-12.06
			c-0.28-0.98-0.57-2.21-1.02-3.22l-5.41,1.19v10.97c0,1.7,0.08,2.03,1.5,2.03h1.63v1.09h-13.1v-1.09h1.3
			c1.42,0,1.55-0.33,1.55-2.06v-26.32c0-1.7-0.08-2.03-1.51-2.03h-1.34v-1.09h21.28l0.45,0.58c1.14,1.48,2.93,3.26,4.64,3.26h0.49
			v1.09h-0.49c-1.18,0-2.07,1.67-2.07,2.61v1.01c0,1.09,0.85,2.53,2.12,2.53h0.45v1.09h-0.24
			C583.09,525.51,581.3,527.21,579.88,528.91z M571.86,529.96c2.85-0.65,3.66-2.9,3.66-4.31v-8.51c0-1.56-1.67-2.72-2.93-2.72h-2.72
			c-1.42,0-1.55,0.33-1.55,2.06v14.27L571.86,529.96z"/>
		<path class="miename2" d="M603.59,520.88c-0.61-1.85-1.14-3.37-1.83-4.16v26.11c0,1.7,0.08,2.03,1.5,2.03h1.34v1.09h-6.63v-1.09h1.3
			c1.42,0,1.55-0.33,1.55-2.06v-26.76c-1.3-1.05-2.77-1.59-4.47-1.59v-1.09h10.86l7.61,22.05l7.24-22.05h10.09v1.09h-1.3
			c-1.42,0-1.55,0.33-1.55,2.06v26.32c0,1.7,0.08,2.03,1.51,2.03h1.34v1.09H618.6v-1.09h2.07c1.42,0,1.51-0.33,1.51-2.06v-26.98
			l-9.44,30.13h-0.98L603.59,520.88z"/>
		<path class="miename2" d="M653.18,535.11h-7.89l-1.26,5c-0.28,1.27-0.49,2.25-0.41,3.01c0.08,1.16,0.89,1.7,2.93,1.74v1.09h-7.89v-1.09
			c1.71,0,3.34,0,4.52-4.82l5.33-21.33c-0.81-2.32-1.75-4.16-2.93-4.27h-0.77v-1.09h8.05c2.44,1.09,3.38,3.37,4.03,5.76l5.17,18.61
			c1.02,3.66,1.99,7.13,4.92,7.13v1.09h-7.89c-3.29-2.43-4.03-4.38-4.92-7.42L653.18,535.11z M649.03,520.3l-3.46,13.72h7.32
			l-3.66-13.11C649.15,520.69,649.11,520.51,649.03,520.3z"/>
		<path class="miename2" d="M677.75,542.78v-26.32c0-1.7-0.08-2.03-1.5-2.03h-0.49c-2.44,0-2.89,1.48-3.62,2.86l-2.36,4.53l-1.42,0.04
			l0.94-8.94h1.63c0,0.43,1.1,0.43,1.59,0.43h17.61c0.49,0,1.59,0,1.59-0.43h1.63l0.94,8.94l-1.42-0.04l-2.36-4.53
			c-0.73-1.38-1.18-2.86-3.62-2.86h-0.49c-1.42,0-1.51,0.33-1.51,2.03v26.36c0,1.7,0.08,2.03,1.51,2.03h1.5v1.09h-13v-1.09h1.3
			C677.67,544.85,677.75,544.52,677.75,542.78z"/>
		<path class="miename2" d="M712.98,545.93h-12.81v-1.09h1.3c1.42,0,1.55-0.33,1.55-2.06v-26.32c0-1.7-0.08-2.03-1.5-2.03h-1.34v-1.09
			h12.81v1.09h-1.3c-1.42,0-1.55,0.33-1.55,2.06v26.32c0,1.7,0.08,2.03,1.5,2.03h1.34V545.93z"/>
		<path class="miename2" d="M719.73,520.77c0-1.09-0.85-2.53-2.12-2.53h-0.45v-1.09h0.24c1.87,0,3.66-1.7,5.08-3.4l0.37-0.43h16.43
			l0.45,0.58c1.14,1.48,2.93,3.26,4.64,3.26h0.49v1.09h-0.49c-1.18,0-2.08,1.67-2.08,2.61v17.63c0,1.09,0.85,2.53,2.12,2.53h0.45
			v1.09h-0.24c-1.87,0-3.66,1.7-5.08,3.4l-0.37,0.43h-16.43l-0.45-0.58c-1.14-1.48-2.93-3.26-4.64-3.26h-0.49v-1.09h0.49
			c1.18,0,2.07-1.67,2.07-2.61v-17.63H719.73z M726.85,542.13c0,1.56,1.67,2.72,2.93,2.72h2.44c1.18,0,2.97-1.19,2.97-2.61v-25.13
			c0-1.56-1.67-2.72-2.93-2.72h-2.44c-1.18,0-2.97,1.19-2.97,2.61V542.13z"/>
		<path class="miename2" d="M757.24,545.93h-6.63v-1.09h1.3c1.42,0,1.55-0.33,1.55-2.06v-26.07c-1.46-1.74-3.01-2.28-4.19-2.28v-1.09
			h11.96l9.52,23.86c1.14,2.86,2.4,4.27,3.54,5.58v-26.32c0-1.7-0.08-2.03-1.5-2.03h-1.34v-1.09h6.63v1.09h-1.3
			c-1.42,0-1.55,0.33-1.55,2.06v27.08c1.06,0.91,2.08,1.27,3.21,1.27v1.09h-12.33l-10.29-25.02c-0.53-1.3-0.89-2.03-1.42-2.75v24.66
			c0,1.7,0.08,2.03,1.51,2.03h1.34v1.08H757.24z"/>
		<path class="miename2" d="M814.4,542.82c0,1.7,0.08,2.03,1.5,2.03h5.04c2.28-0.07,2.73-1.52,3.46-2.86l2.36-4.53l1.42-0.04l-0.94,8.94
			h-1.63c0-0.43-1.1-0.43-1.59-0.43h-19.61v-1.09h1.3c1.42,0,1.55-0.33,1.55-2.06v-26.32c0-1.7-0.08-2.03-1.51-2.03h-1.34v-1.09
			h17.82c0.49,0,1.59,0,1.59-0.43h1.63l0.94,8.94l-1.42-0.04l-2.36-4.53c-0.73-1.34-1.18-2.79-3.46-2.86h-3.21
			c-1.42,0-1.55,0.33-1.55,2.06v11.37h3.17c1.59,0,2.28-1.16,2.89-2.79h1.51v6.66h-1.51c-0.61-1.63-1.3-2.79-2.89-2.79h-3.17v13.89
			H814.4z"/>
		<path class="miename2" d="M844.29,530.58l-4.03-9.67c-1.34-3.22-2.93-6.34-4.31-6.48h-1.26v-1.09h9.03c2.36,1.09,3.58,3.37,4.56,5.76
			l3.7,8.87l4.88-11.51c0.61-1.45-0.08-2.03-1.34-2.03h-0.16v-1.09h6.1v1.09h-0.85c-1.26,0-1.99,0.47-2.64,2.06l-5.37,12.93
			l3.46,8.29c1.55,3.66,2.97,7.13,5.57,7.13v1.09h-8.34c-3.34-2.43-4.35-4.38-5.61-7.42l-2.77-6.63l-4.52,10.94
			c-0.57,1.41,0.08,2.03,1.34,2.03h0.16v1.09h-6.14v-1.09h0.85c1.26,0,1.95-0.47,2.64-2.06L844.29,530.58z"/>
		<path class="miename2" d="M878.1,533.04v9.78c0,1.7,0.08,2.03,1.5,2.03h4.35v1.09h-15.82v-1.09h1.3c1.42,0,1.55-0.33,1.55-2.06v-26.32
			c0-1.7-0.08-2.03-1.51-2.03h-1.34v-1.09h12.53h8.75l0.45,0.58c1.14,1.48,2.93,3.26,4.64,3.26h0.49v1.09h-0.49
			c-1.18,0-2.07,1.67-2.07,2.61v4.67c0,1.09,0.85,2.53,2.12,2.53H895v1.09h-0.24c-1.87,0-3.66,1.7-5.08,3.4l-0.37,0.47H878.1V533.04
			z M882.33,531.96c1.18,0,2.97-1.23,2.97-2.64v-12.17c0-1.56-1.67-2.72-2.93-2.72h-2.72c-1.42,0-1.55,0.33-1.55,2.06v15.46h2.56
			L882.33,531.96L882.33,531.96z"/>
		<path class="miename2" d="M913.61,513.34v1.09h-2.4c-1.42,0-1.55,0.33-1.55,2.06v26.32c0,1.7,0.08,2.03,1.5,2.03h2.32
			c2.44,0,2.89-1.48,3.62-2.86l2.36-4.53l1.42-0.04l-0.94,8.94h-1.63c0-0.43-1.1-0.43-1.59-0.43H899.7v-1.09h1.3
			c1.42,0,1.55-0.33,1.55-2.06v-26.32c0-1.7-0.08-2.03-1.51-2.03h-1.34v-1.09h13.91V513.34z"/>
		<path class="miename2" d="M929.97,520.77c0-1.09-0.85-2.53-2.12-2.53h-0.45v-1.09h0.24c1.87,0,3.66-1.7,5.08-3.4l0.37-0.43h16.43
			l0.45,0.58c1.14,1.48,2.93,3.26,4.64,3.26h0.49v1.09h-0.49c-1.18,0-2.08,1.67-2.08,2.61v17.63c0,1.09,0.85,2.53,2.12,2.53h0.45
			v1.09h-0.24c-1.87,0-3.66,1.7-5.08,3.4l-0.37,0.43h-16.43l-0.45-0.58c-1.14-1.48-2.93-3.26-4.64-3.26h-0.49v-1.09h0.49
			c1.18,0,2.07-1.67,2.07-2.61v-17.63H929.97z M937.08,542.13c0,1.56,1.67,2.72,2.93,2.72h2.44c1.18,0,2.97-1.19,2.97-2.61v-25.13
			c0-1.56-1.67-2.72-2.93-2.72h-2.44c-1.18,0-2.97,1.19-2.97,2.61V542.13z"/>
		<path class="miename2" d="M971.3,524.64l15.46,6.92v6.84c0,0.94,0.9,2.61,2.08,2.61h0.49v1.09h-0.49c-1.71,0-3.5,1.77-4.64,3.26
			l-0.45,0.58h-16.43l-0.37-0.43c-1.42-1.7-3.21-3.4-5.08-3.4h-0.24v-1.09h0.45c1.26,0,2.12-1.34,2.12-2.43v-4.13l7.12,3.58v4.2
			c0,1.41,1.79,2.61,2.97,2.61h2.44c1.26,0,2.93-1.16,2.93-2.72v-8.04l-15.46-6.95v-6.37c0-1.09-0.85-2.53-2.12-2.53h-0.45v-1.09
			h0.24c1.87,0,3.66-1.7,5.08-3.4l0.37-0.43h16.43l0.45,0.58c1.14,1.48,2.93,3.26,4.64,3.26h0.49v1.09h-0.49
			c-1.18,0-2.08,1.67-2.08,2.61v3.22l-7.12-2.93v-4.02c0-1.56-1.67-2.72-2.93-2.72h-2.44c-1.18,0-2.97,1.19-2.97,2.61V524.64z"/>
		<path class="miename2" d="M1006.32,545.93h-12.81v-1.09h1.3c1.42,0,1.55-0.33,1.55-2.06v-26.32c0-1.7-0.08-2.03-1.5-2.03h-1.34v-1.09
			h12.81v1.09h-1.3c-1.42,0-1.55,0.33-1.55,2.06v26.32c0,1.7,0.08,2.03,1.5,2.03h1.34V545.93z"/>
		<path class="miename2" d="M1013.07,520.77c0-1.09-0.85-2.53-2.12-2.53h-0.45v-1.09h0.24c1.87,0,3.66-1.7,5.08-3.4l0.37-0.43h16.43
			l0.45,0.58c1.14,1.48,2.93,3.26,4.64,3.26h0.49v1.09h-0.49c-1.18,0-2.08,1.67-2.08,2.61v17.63c0,1.09,0.85,2.53,2.12,2.53h0.45
			v1.09h-0.24c-1.87,0-3.66,1.7-5.08,3.4l-0.37,0.43h-16.43l-0.45-0.58c-1.14-1.48-2.93-3.26-4.64-3.26h-0.49v-1.09h0.49
			c1.18,0,2.07-1.67,2.07-2.61v-17.63H1013.07z M1020.19,542.13c0,1.56,1.67,2.72,2.93,2.72h2.44c1.18,0,2.97-1.19,2.97-2.61v-25.13
			c0-1.56-1.67-2.72-2.93-2.72h-2.44c-1.18,0-2.97,1.19-2.97,2.61L1020.19,542.13L1020.19,542.13z"/>
		<path class="miename2" d="M1050.58,545.93h-6.63v-1.09h1.3c1.42,0,1.55-0.33,1.55-2.06v-26.07c-1.46-1.74-3.01-2.28-4.19-2.28v-1.09
			h11.96l9.52,23.86c1.14,2.86,2.4,4.27,3.54,5.58v-26.32c0-1.7-0.08-2.03-1.5-2.03h-1.34v-1.09h6.63v1.09h-1.3
			c-1.42,0-1.55,0.33-1.55,2.06v27.08c1.06,0.91,2.08,1.27,3.21,1.27v1.09h-12.33l-10.29-25.02c-0.53-1.3-0.89-2.03-1.42-2.75v24.66
			c0,1.7,0.08,2.03,1.51,2.03h1.34v1.08H1050.58z"/>
	</g>
</g>
<g id="psuedo_page">
	<rect id="page_bounding_box__x28_for_SVG_x29_" class="miename3" width="1080" height="1080"/>
</g>
<g id="guides">
</g>
</svg>
