<?xml version="1.0" encoding="utf-8"?>
<!-- Generator: Adobe Illustrator 26.5.0, SVG Export Plug-In . SVG Version: 6.00 Build 0)  -->
<svg version="1.1" id="labels" xmlns="http://www.w3.org/2000/svg" xmlns:xlink="http://www.w3.org/1999/xlink" x="0px" y="0px"
	 viewBox="0 0 1080 1080" style="enable-background:new 0 0 1080 1080;" xml:space="preserve">
<style type="text/css">
	.plan010{fill:#FFFFFF;stroke:#000000;stroke-miterlimit:10;}
	.plan011{fill:none;}
</style>
<g id="ENTER_00000036947855557323686030000006821381892913780632_">
	<polygon points="337.35,766.95 224.74,882.91 179.17,848.78 291.77,732.82 336.56,727.24 	"/>
	<polygon class="plan010" points="337.35,757.77 224.74,873.73 179.17,839.6 291.77,723.64 336.56,718.05 	"/>
	<g id="ENTER">
		<path d="M202,836.45l14.31-14.74l3.61,2.71l-10.94,11.27l5.86,4.39l9.7-9.99l3.61,2.71l-9.7,9.99l6.09,4.56l11.08-11.41l3.61,2.71
			l-14.45,14.88L202,836.45z"/>
		<path d="M220.52,817.39l3.15-3.24l26.12,1.13l-15.76-11.8l3.37-3.47l22.79,17.07l-2.85,2.93l-26.88-1.16l16.21,12.14l-3.37,3.47
			L220.52,817.39z"/>
		<path d="M250.81,792.79l-6.13,6.32l-3.71-2.78l15.7-16.16l3.71,2.78l-6.13,6.32l19.08,14.29l-3.43,3.53L250.81,792.79z"/>
		<path d="M260.25,776.47l14.31-14.74l3.61,2.71l-10.94,11.27l5.86,4.39l9.7-9.99l3.61,2.71l-9.7,9.99l6.09,4.56l11.08-11.41
			l3.61,2.71l-14.45,14.88L260.25,776.47z"/>
		<path d="M278.77,757.4l8.62-8.88c1.22-1.25,2.49-2.21,3.84-2.88c1.34-0.67,2.68-1.05,4.03-1.16c1.15-0.06,2.27,0.08,3.37,0.41
			s2.15,0.87,3.15,1.62l0.07,0.05c1.87,1.4,2.94,2.96,3.22,4.7c0.28,1.74-0.03,3.48-0.94,5.22l13.85,1.08l-4.01,4.13l-12.71-1.04
			l-0.06,0.06l-4.21,4.34l7.94,5.95l-3.37,3.47L278.77,757.4z M298.42,757.25c1.22-1.26,1.85-2.51,1.88-3.77s-0.54-2.33-1.71-3.21
			l-0.07-0.05c-1.24-0.93-2.54-1.27-3.88-1.03c-1.34,0.24-2.66,1.02-3.93,2.33l-4.96,5.11l7.68,5.75L298.42,757.25z"/>
	</g>
</g>
<g id="Harnessing_Electricity">
	<rect x="58.14" y="602.04" width="230.61" height="34.04"/>
	<rect x="53.14" y="597.04" class="plan010" width="230.61" height="34.04"/>
	<g>
		<path d="M64.07,606.58h2.39v6.01h4.41v-6.01h2.39v14.99h-2.39v-6.97h-4.41v6.97h-2.39V606.58z"/>
		<path d="M78.58,606.58h3.07l3.95,14.99h-2.5l-0.92-3.67h-4.39l-0.97,3.67h-2.5L78.58,606.58z M81.77,615.99l-1.72-7.39h-0.04
			l-1.79,7.39H81.77z"/>
		<path d="M86.65,606.58h5.29c0.53,0,1.03,0.07,1.48,0.21c0.45,0.14,0.86,0.36,1.21,0.67c0.35,0.31,0.62,0.71,0.82,1.2
			c0.2,0.49,0.29,1.08,0.29,1.79c0,0.97-0.21,1.79-0.63,2.47c-0.42,0.68-1.04,1.08-1.87,1.21v0.04c0.76,0.07,1.33,0.34,1.71,0.8
			c0.38,0.46,0.6,1.22,0.64,2.27c0.01,0.49,0.02,1.01,0.03,1.55c0.01,0.55,0.02,1.04,0.05,1.49c0.03,0.36,0.12,0.64,0.26,0.84
			c0.15,0.2,0.3,0.35,0.45,0.46h-2.71c-0.11-0.14-0.2-0.32-0.26-0.55s-0.11-0.48-0.14-0.78c-0.04-0.45-0.06-0.9-0.06-1.34
			s-0.01-0.95-0.04-1.49c-0.03-0.83-0.19-1.42-0.49-1.79c-0.3-0.37-0.86-0.56-1.69-0.56h-1.95v6.51h-2.39V606.58z M90.95,613.26
			c0.77,0,1.36-0.22,1.77-0.65s0.62-1.03,0.62-1.79c0-0.8-0.18-1.4-0.54-1.82s-0.93-0.62-1.73-0.62h-2.04v4.87H90.95z"/>
		<path d="M97.92,606.58h2.92l4.35,11.17h0.04v-11.17h2.27v14.99h-2.92l-4.35-11.47h-0.04v11.47h-2.27V606.58z"/>
		<path d="M109.98,606.58h8.11v2.02h-5.71v4.16h5.38v2.02h-5.38v4.79h5.88v2.02h-8.27V606.58z"/>
		<path d="M121.92,616.93v0.38c0,1.83,0.82,2.75,2.46,2.75c0.38,0,0.71-0.06,1-0.19c0.29-0.13,0.52-0.29,0.71-0.49
			s0.33-0.43,0.42-0.69c0.09-0.26,0.14-0.53,0.14-0.81c0-0.8-0.19-1.39-0.57-1.79c-0.38-0.39-0.9-0.69-1.58-0.88l-1.64-0.57
			c-1.09-0.42-1.89-0.94-2.38-1.56s-0.75-1.47-0.75-2.55c0-1.37,0.43-2.42,1.28-3.15c0.85-0.73,1.98-1.09,3.38-1.09
			c0.97,0,1.73,0.13,2.29,0.4c0.56,0.27,0.98,0.6,1.27,1c0.29,0.4,0.47,0.83,0.56,1.28s0.13,0.88,0.13,1.27v0.34h-2.39v-0.32
			c0-0.69-0.16-1.22-0.48-1.6c-0.32-0.38-0.86-0.57-1.62-0.57c-0.25,0-0.5,0.04-0.75,0.12s-0.46,0.2-0.65,0.37s-0.34,0.39-0.45,0.66
			c-0.11,0.27-0.17,0.61-0.17,1.02c0,0.64,0.17,1.15,0.52,1.52c0.35,0.37,0.92,0.71,1.72,1.02l1.62,0.59
			c1.06,0.38,1.84,0.88,2.32,1.49c0.48,0.62,0.72,1.44,0.72,2.48c0,0.8-0.12,1.48-0.35,2.05c-0.23,0.57-0.56,1.04-1,1.41
			s-0.96,0.64-1.56,0.81c-0.61,0.17-1.29,0.25-2.05,0.25c-0.92,0-1.68-0.14-2.28-0.42c-0.6-0.28-1.06-0.64-1.4-1.08
			c-0.34-0.44-0.57-0.93-0.69-1.48c-0.13-0.55-0.19-1.08-0.19-1.6v-0.36H121.92z"/>
		<path d="M132.82,616.93v0.38c0,1.83,0.82,2.75,2.46,2.75c0.38,0,0.71-0.06,1-0.19c0.29-0.13,0.52-0.29,0.71-0.49
			s0.33-0.43,0.42-0.69c0.09-0.26,0.14-0.53,0.14-0.81c0-0.8-0.19-1.39-0.57-1.79c-0.38-0.39-0.9-0.69-1.58-0.88l-1.64-0.57
			c-1.09-0.42-1.89-0.94-2.38-1.56s-0.75-1.47-0.75-2.55c0-1.37,0.43-2.42,1.28-3.15c0.85-0.73,1.98-1.09,3.38-1.09
			c0.97,0,1.73,0.13,2.29,0.4c0.56,0.27,0.98,0.6,1.27,1c0.29,0.4,0.47,0.83,0.56,1.28s0.13,0.88,0.13,1.27v0.34h-2.39v-0.32
			c0-0.69-0.16-1.22-0.48-1.6c-0.32-0.38-0.86-0.57-1.62-0.57c-0.25,0-0.5,0.04-0.75,0.12s-0.46,0.2-0.65,0.37s-0.34,0.39-0.45,0.66
			c-0.11,0.27-0.17,0.61-0.17,1.02c0,0.64,0.17,1.15,0.52,1.52c0.35,0.37,0.92,0.71,1.72,1.02l1.62,0.59
			c1.06,0.38,1.84,0.88,2.32,1.49c0.48,0.62,0.72,1.44,0.72,2.48c0,0.8-0.12,1.48-0.35,2.05c-0.23,0.57-0.56,1.04-1,1.41
			s-0.96,0.64-1.56,0.81c-0.61,0.17-1.29,0.25-2.05,0.25c-0.92,0-1.68-0.14-2.28-0.42c-0.6-0.28-1.06-0.64-1.4-1.08
			c-0.34-0.44-0.57-0.93-0.69-1.48c-0.13-0.55-0.19-1.08-0.19-1.6v-0.36H132.82z"/>
		<path d="M141.77,606.58h2.39v14.99h-2.39V606.58z"/>
		<path d="M146.54,606.58h2.92l4.35,11.17h0.04v-11.17h2.27v14.99h-2.92l-4.35-11.47h-0.04v11.47h-2.27V606.58z"/>
		<path d="M166,619.83h-0.04c-0.32,0.7-0.73,1.21-1.22,1.54c-0.49,0.33-1.18,0.49-2.06,0.49c-0.81,0-1.5-0.15-2.07-0.46
			s-1.03-0.78-1.39-1.43c-0.36-0.64-0.61-1.45-0.77-2.43c-0.15-0.97-0.23-2.13-0.23-3.48c0-2.67,0.4-4.64,1.19-5.9
			c0.79-1.26,2.05-1.89,3.79-1.89c0.94,0,1.69,0.16,2.27,0.48c0.57,0.32,1.02,0.71,1.33,1.17s0.52,0.93,0.63,1.43
			c0.1,0.5,0.16,0.91,0.16,1.25v0.27h-2.27v-0.36c0-0.28-0.03-0.56-0.09-0.85c-0.06-0.29-0.18-0.55-0.34-0.79s-0.38-0.43-0.65-0.58
			c-0.27-0.15-0.61-0.22-1.02-0.22c-0.42,0-0.79,0.08-1.12,0.25c-0.33,0.17-0.6,0.47-0.82,0.91c-0.22,0.44-0.38,1.04-0.49,1.81
			c-0.11,0.76-0.17,1.75-0.17,2.95s0.05,2.2,0.15,2.98s0.25,1.4,0.45,1.86c0.2,0.46,0.45,0.77,0.76,0.95
			c0.3,0.17,0.65,0.26,1.06,0.26c0.91,0.01,1.55-0.34,1.93-1.05c0.38-0.71,0.57-1.89,0.57-3.53h-2.52v-1.81h4.79v7.9H166V619.83z"/>
		<path d="M174.91,606.58h8.11v2.02h-5.71v4.16h5.38v2.02h-5.38v4.79h5.88v2.02h-8.27V606.58z"/>
		<path d="M184.73,606.58h2.39v12.98h5.8v2.02h-8.19V606.58z"/>
		<path d="M194.33,606.58h8.11v2.02h-5.71v4.16h5.38v2.02h-5.38v4.79h5.88v2.02h-8.27V606.58z"/>
		<path d="M213.65,616.2v0.32c0,0.67-0.07,1.33-0.22,1.97s-0.4,1.22-0.76,1.72s-0.83,0.91-1.43,1.21c-0.6,0.3-1.33,0.45-2.22,0.45
			c-0.94,0-1.73-0.15-2.36-0.46c-0.64-0.31-1.15-0.78-1.53-1.43c-0.39-0.64-0.66-1.45-0.82-2.43c-0.16-0.97-0.24-2.13-0.24-3.48
			s0.08-2.5,0.24-3.48c0.16-0.97,0.43-1.78,0.82-2.43c0.38-0.64,0.9-1.12,1.53-1.43c0.64-0.31,1.43-0.46,2.38-0.46
			c1.06,0,1.9,0.17,2.5,0.51s1.05,0.76,1.35,1.25c0.3,0.49,0.49,1,0.56,1.54c0.07,0.54,0.1,1,0.1,1.4v0.27h-2.39v-0.25
			c0-0.35-0.03-0.7-0.09-1.05c-0.06-0.35-0.18-0.67-0.34-0.96s-0.38-0.51-0.65-0.68s-0.63-0.25-1.06-0.23
			c-0.43,0-0.81,0.08-1.13,0.24c-0.32,0.16-0.59,0.46-0.8,0.9c-0.21,0.44-0.37,1.05-0.47,1.82c-0.1,0.77-0.16,1.76-0.16,2.96
			s0.05,2.2,0.16,2.98s0.26,1.4,0.47,1.86c0.21,0.46,0.48,0.77,0.8,0.95c0.32,0.17,0.7,0.26,1.13,0.26c0.5,0,0.9-0.12,1.2-0.37
			c0.29-0.24,0.52-0.55,0.67-0.91c0.15-0.36,0.25-0.76,0.29-1.18s0.06-0.8,0.06-1.16v-0.25H213.65z"/>
		<path d="M217.79,608.6h-3.57v-2.02h9.47v2.02h-3.51v12.98h-2.39V608.6z"/>
		<path d="M225.05,606.58h5.29c0.53,0,1.03,0.07,1.48,0.21c0.45,0.14,0.86,0.36,1.21,0.67c0.35,0.31,0.62,0.71,0.82,1.2
			c0.2,0.49,0.29,1.08,0.29,1.79c0,0.97-0.21,1.79-0.63,2.47c-0.42,0.68-1.04,1.08-1.87,1.21v0.04c0.76,0.07,1.33,0.34,1.71,0.8
			c0.38,0.46,0.6,1.22,0.64,2.27c0.01,0.49,0.02,1.01,0.03,1.55c0.01,0.55,0.02,1.04,0.05,1.49c0.03,0.36,0.12,0.64,0.26,0.84
			c0.15,0.2,0.3,0.35,0.45,0.46h-2.71c-0.11-0.14-0.2-0.32-0.26-0.55s-0.11-0.48-0.14-0.78c-0.04-0.45-0.06-0.9-0.06-1.34
			s-0.01-0.95-0.04-1.49c-0.03-0.83-0.19-1.42-0.49-1.79c-0.3-0.37-0.86-0.56-1.69-0.56h-1.95v6.51h-2.39V606.58z M229.36,613.26
			c0.77,0,1.36-0.22,1.77-0.65s0.62-1.03,0.62-1.79c0-0.8-0.18-1.4-0.54-1.82s-0.93-0.62-1.73-0.62h-2.04v4.87H229.36z"/>
		<path d="M236.22,606.58h2.39v14.99h-2.39V606.58z"/>
		<path d="M250.21,616.2v0.32c0,0.67-0.07,1.33-0.22,1.97s-0.4,1.22-0.76,1.72s-0.83,0.91-1.43,1.21c-0.6,0.3-1.33,0.45-2.22,0.45
			c-0.94,0-1.73-0.15-2.36-0.46c-0.64-0.31-1.15-0.78-1.53-1.43c-0.39-0.64-0.66-1.45-0.82-2.43c-0.16-0.97-0.24-2.13-0.24-3.48
			s0.08-2.5,0.24-3.48c0.16-0.97,0.43-1.78,0.82-2.43c0.38-0.64,0.9-1.12,1.53-1.43c0.64-0.31,1.43-0.46,2.38-0.46
			c1.06,0,1.9,0.17,2.5,0.51s1.05,0.76,1.35,1.25c0.3,0.49,0.49,1,0.56,1.54c0.07,0.54,0.1,1,0.1,1.4v0.27h-2.39v-0.25
			c0-0.35-0.03-0.7-0.09-1.05c-0.06-0.35-0.18-0.67-0.34-0.96s-0.38-0.51-0.65-0.68s-0.63-0.25-1.06-0.23
			c-0.43,0-0.81,0.08-1.13,0.24c-0.32,0.16-0.59,0.46-0.8,0.9c-0.21,0.44-0.37,1.05-0.47,1.82c-0.1,0.77-0.16,1.76-0.16,2.96
			s0.05,2.2,0.16,2.98s0.26,1.4,0.47,1.86c0.21,0.46,0.48,0.77,0.8,0.95c0.32,0.17,0.7,0.26,1.13,0.26c0.5,0,0.9-0.12,1.2-0.37
			c0.29-0.24,0.52-0.55,0.67-0.91c0.15-0.36,0.25-0.76,0.29-1.18s0.06-0.8,0.06-1.16v-0.25H250.21z"/>
		<path d="M251.79,606.58h2.39v14.99h-2.39V606.58z"/>
		<path d="M259.01,608.6h-3.57v-2.02h9.47v2.02h-3.51v12.98h-2.39V608.6z"/>
		<path d="M268.82,615.71l-3.86-9.13h2.67l2.52,6.47l2.58-6.47h2.5l-4.01,9.13v5.86h-2.39V615.71z"/>
	</g>
</g>
<g id="Telegraph">
	<rect x="28.99" y="506.01" width="113.52" height="34.04"/>
	<rect x="23.99" y="501.01" class="plan010" width="113.52" height="34.04"/>
	<g>
		<path d="M36.38,512.56h-3.57v-2.02h9.47v2.02h-3.51v12.98h-2.39V512.56z"/>
		<path d="M43.65,510.55h8.11v2.02h-5.71v4.16h5.38v2.02h-5.38v4.79h5.88v2.02h-8.27V510.55z"/>
		<path d="M53.47,510.55h2.39v12.98h5.8v2.02h-8.19V510.55z"/>
		<path d="M63.07,510.55h8.11v2.02h-5.71v4.16h5.38v2.02h-5.38v4.79h5.88v2.02h-8.27V510.55z"/>
		<path d="M80.58,523.8h-0.04c-0.32,0.7-0.73,1.21-1.22,1.54c-0.49,0.33-1.18,0.49-2.06,0.49c-0.81,0-1.5-0.15-2.07-0.46
			s-1.03-0.78-1.39-1.43c-0.36-0.64-0.61-1.45-0.77-2.43c-0.15-0.97-0.23-2.13-0.23-3.48c0-2.67,0.4-4.64,1.19-5.9
			c0.79-1.26,2.05-1.89,3.79-1.89c0.94,0,1.69,0.16,2.27,0.48c0.57,0.32,1.02,0.71,1.33,1.17s0.52,0.93,0.63,1.43
			c0.1,0.5,0.16,0.91,0.16,1.25v0.27h-2.27v-0.36c0-0.28-0.03-0.56-0.09-0.85c-0.06-0.29-0.18-0.55-0.34-0.79s-0.38-0.43-0.65-0.58
			c-0.27-0.15-0.61-0.22-1.02-0.22c-0.42,0-0.79,0.08-1.12,0.25c-0.33,0.17-0.6,0.47-0.82,0.91c-0.22,0.44-0.38,1.04-0.49,1.81
			c-0.11,0.76-0.17,1.75-0.17,2.95s0.05,2.2,0.15,2.98s0.25,1.4,0.45,1.86c0.2,0.46,0.45,0.77,0.76,0.95
			c0.3,0.17,0.65,0.26,1.06,0.26c0.91,0.01,1.55-0.34,1.93-1.05c0.38-0.71,0.57-1.89,0.57-3.53H77.6v-1.81h4.79v7.9h-1.81V523.8z"/>
		<path d="M84.45,510.55h5.29c0.53,0,1.03,0.07,1.48,0.21c0.45,0.14,0.86,0.36,1.21,0.67c0.35,0.31,0.62,0.71,0.82,1.2
			c0.2,0.49,0.29,1.08,0.29,1.79c0,0.97-0.21,1.79-0.63,2.47c-0.42,0.68-1.04,1.08-1.87,1.21v0.04c0.76,0.07,1.33,0.34,1.71,0.8
			c0.38,0.46,0.6,1.22,0.64,2.27c0.01,0.49,0.02,1.01,0.03,1.55c0.01,0.55,0.02,1.04,0.05,1.49c0.03,0.36,0.12,0.64,0.26,0.84
			c0.15,0.2,0.3,0.35,0.45,0.46h-2.71c-0.11-0.14-0.2-0.32-0.26-0.55s-0.11-0.48-0.14-0.78c-0.04-0.45-0.06-0.9-0.06-1.34
			s-0.01-0.95-0.04-1.49c-0.03-0.83-0.19-1.42-0.49-1.79c-0.3-0.37-0.86-0.56-1.69-0.56h-1.95v6.51h-2.39V510.55z M88.75,517.23
			c0.77,0,1.36-0.22,1.77-0.65s0.62-1.03,0.62-1.79c0-0.8-0.18-1.4-0.54-1.82s-0.93-0.62-1.73-0.62h-2.04v4.87H88.75z"/>
		<path d="M98.56,510.55h3.07l3.95,14.99h-2.5l-0.92-3.67h-4.39l-0.97,3.67h-2.5L98.56,510.55z M101.75,519.96l-1.72-7.39h-0.04
			l-1.79,7.39H101.75z"/>
		<path d="M106.62,510.55h4.75c0.71,0,1.33,0.11,1.86,0.33c0.53,0.22,0.96,0.52,1.29,0.9c0.34,0.39,0.58,0.84,0.75,1.38
			s0.24,1.12,0.24,1.76c0,1.36-0.38,2.44-1.13,3.23c-0.76,0.8-1.84,1.2-3.25,1.2h-2.1v6.2h-2.39V510.55z M109.02,517.54h1.7
			c0.32,0,0.63-0.04,0.91-0.14c0.29-0.09,0.54-0.24,0.77-0.44c0.22-0.2,0.4-0.47,0.52-0.8c0.13-0.33,0.19-0.73,0.19-1.21
			c0-0.81-0.19-1.45-0.56-1.91s-1.04-0.69-2.01-0.69h-1.53V517.54z"/>
		<path d="M117.12,510.55h2.39v6.01h4.41v-6.01h2.39v14.99h-2.39v-6.97h-4.41v6.97h-2.39V510.55z"/>
	</g>
</g>
<g id="Vacuum_Tube">
	<rect x="348.33" y="334.2" width="134.54" height="34.04"/>
	<rect x="343.33" y="329.19" class="plan010" width="134.54" height="34.04"/>
	<g>
		<path d="M351.9,338.73h2.54l2.54,11.97h0.04l2.69-11.97h2.54l-3.78,14.99h-3.04L351.9,338.73z"/>
		<path d="M366.2,338.73h3.07l3.95,14.99h-2.5l-0.92-3.67h-4.39l-0.97,3.67h-2.5L366.2,338.73z M369.39,348.14l-1.72-7.39h-0.04
			l-1.79,7.39H369.39z"/>
		<path d="M383.48,348.35v0.32c0,0.67-0.07,1.33-0.22,1.97s-0.4,1.22-0.76,1.72s-0.83,0.91-1.43,1.21c-0.6,0.3-1.33,0.45-2.22,0.45
			c-0.94,0-1.73-0.15-2.36-0.46c-0.64-0.31-1.15-0.78-1.53-1.43c-0.39-0.64-0.66-1.45-0.82-2.43c-0.16-0.97-0.24-2.13-0.24-3.48
			s0.08-2.5,0.24-3.48c0.16-0.97,0.43-1.78,0.82-2.43c0.38-0.64,0.9-1.12,1.53-1.43c0.64-0.31,1.43-0.46,2.38-0.46
			c1.06,0,1.9,0.17,2.5,0.51s1.05,0.76,1.35,1.25c0.3,0.49,0.49,1,0.56,1.54c0.07,0.54,0.1,1,0.1,1.4v0.27H381v-0.25
			c0-0.35-0.03-0.7-0.09-1.05c-0.06-0.35-0.18-0.67-0.34-0.96s-0.38-0.51-0.65-0.68s-0.63-0.25-1.06-0.23
			c-0.43,0-0.81,0.08-1.13,0.24c-0.32,0.16-0.59,0.46-0.8,0.9c-0.21,0.44-0.37,1.05-0.47,1.82c-0.1,0.77-0.16,1.76-0.16,2.96
			s0.05,2.2,0.16,2.98s0.26,1.4,0.47,1.86c0.21,0.46,0.48,0.77,0.8,0.95c0.32,0.17,0.7,0.26,1.13,0.26c0.5,0,0.9-0.12,1.2-0.37
			c0.29-0.24,0.52-0.55,0.67-0.91c0.15-0.36,0.25-0.76,0.29-1.18s0.06-0.8,0.06-1.16v-0.25H383.48z"/>
		<path d="M387.36,338.73v10.75c0,0.95,0.19,1.65,0.56,2.08c0.37,0.43,0.92,0.65,1.65,0.65c0.71,0,1.26-0.22,1.63-0.65
			c0.37-0.43,0.56-1.13,0.56-2.08v-10.75h2.39v10.56c0,0.87-0.1,1.6-0.31,2.21c-0.21,0.6-0.51,1.09-0.9,1.46s-0.87,0.64-1.44,0.81
			c-0.57,0.17-1.21,0.25-1.92,0.25s-1.36-0.08-1.93-0.25s-1.06-0.44-1.45-0.81c-0.39-0.37-0.69-0.86-0.9-1.46
			c-0.21-0.6-0.32-1.34-0.32-2.21v-10.56H387.36z"/>
		<path d="M398.64,338.73v10.75c0,0.95,0.19,1.65,0.56,2.08c0.37,0.43,0.92,0.65,1.65,0.65c0.71,0,1.26-0.22,1.63-0.65
			c0.37-0.43,0.56-1.13,0.56-2.08v-10.75h2.39v10.56c0,0.87-0.1,1.6-0.31,2.21c-0.21,0.6-0.51,1.09-0.9,1.46s-0.87,0.64-1.44,0.81
			c-0.57,0.17-1.21,0.25-1.92,0.25s-1.36-0.08-1.93-0.25s-1.06-0.44-1.45-0.81c-0.39-0.37-0.69-0.86-0.9-1.46
			c-0.21-0.6-0.32-1.34-0.32-2.21v-10.56H398.64z"/>
		<path d="M407.71,338.73h3.74l2.65,11.11h0.04l2.6-11.11h3.65v14.99h-2.27v-12.47h-0.04l-3.02,12.47h-2.02l-3.02-12.47h-0.04v12.47
			h-2.27V338.73z"/>
		<path d="M430.37,340.75h-3.57v-2.02h9.47v2.02h-3.51v12.98h-2.39V340.75z"/>
		<path d="M439.84,338.73v10.75c0,0.95,0.19,1.65,0.56,2.08c0.37,0.43,0.92,0.65,1.65,0.65c0.71,0,1.26-0.22,1.63-0.65
			c0.37-0.43,0.56-1.13,0.56-2.08v-10.75h2.39v10.56c0,0.87-0.1,1.6-0.31,2.21c-0.21,0.6-0.51,1.09-0.9,1.46s-0.87,0.64-1.44,0.81
			c-0.57,0.17-1.21,0.25-1.92,0.25s-1.36-0.08-1.93-0.25s-1.06-0.44-1.45-0.81c-0.39-0.37-0.69-0.86-0.9-1.46
			c-0.21-0.6-0.32-1.34-0.32-2.21v-10.56H439.84z"/>
		<path d="M448.91,338.73h4.85c0.56,0,1.08,0.07,1.58,0.2c0.49,0.13,0.92,0.34,1.28,0.63s0.65,0.66,0.86,1.12s0.31,1.02,0.31,1.68
			c0,1.81-0.73,2.94-2.21,3.4v0.04c0.41,0.07,0.78,0.19,1.11,0.36c0.34,0.17,0.62,0.4,0.85,0.7s0.41,0.68,0.54,1.13
			s0.19,1,0.19,1.63s-0.11,1.2-0.33,1.7c-0.22,0.5-0.52,0.93-0.92,1.29s-0.89,0.63-1.46,0.82c-0.57,0.19-1.21,0.28-1.91,0.28h-4.75
			V338.73z M453.2,345.06c0.73,0,1.28-0.22,1.65-0.65c0.37-0.43,0.56-1.01,0.56-1.72c0-0.45-0.06-0.81-0.19-1.09s-0.3-0.5-0.51-0.65
			c-0.22-0.15-0.47-0.26-0.77-0.31c-0.29-0.06-0.61-0.08-0.94-0.08h-1.68v4.52H453.2z M453.68,351.92c0.71,0,1.26-0.22,1.64-0.67
			s0.57-1.11,0.57-1.97c0-0.81-0.22-1.44-0.65-1.88c-0.43-0.44-1-0.66-1.7-0.66h-2.23v5.19H453.68z"/>
		<path d="M460.19,338.73h8.11v2.02h-5.71v4.16h5.38v2.02h-5.38v4.79h5.88v2.02h-8.27V338.73z"/>
	</g>
</g>
<g id="Computer">
	<rect x="646.69" y="433.34" width="109.52" height="34.04"/>
	<rect x="641.69" y="428.34" class="plan010" width="109.52" height="34.04"/>
	<g>
		<path d="M660.84,447.5v0.32c0,0.67-0.07,1.33-0.22,1.97c-0.15,0.64-0.4,1.22-0.76,1.72c-0.36,0.5-0.83,0.91-1.43,1.21
			c-0.6,0.3-1.33,0.45-2.22,0.45c-0.94,0-1.73-0.15-2.36-0.46c-0.64-0.31-1.15-0.78-1.53-1.43c-0.39-0.64-0.66-1.45-0.82-2.43
			c-0.16-0.97-0.24-2.13-0.24-3.48s0.08-2.5,0.24-3.48c0.16-0.97,0.43-1.78,0.82-2.43c0.38-0.64,0.9-1.12,1.53-1.43
			c0.64-0.31,1.43-0.46,2.38-0.46c1.06,0,1.9,0.17,2.5,0.51c0.6,0.34,1.05,0.76,1.35,1.25c0.3,0.49,0.49,1,0.56,1.54
			s0.11,1,0.11,1.4v0.27h-2.39v-0.25c0-0.35-0.03-0.7-0.09-1.05c-0.06-0.35-0.18-0.67-0.34-0.96s-0.38-0.51-0.65-0.68
			c-0.27-0.17-0.63-0.25-1.06-0.23c-0.43,0-0.81,0.08-1.13,0.24c-0.32,0.16-0.59,0.46-0.8,0.9c-0.21,0.44-0.37,1.05-0.47,1.82
			c-0.11,0.77-0.16,1.76-0.16,2.96s0.05,2.2,0.16,2.98c0.1,0.78,0.26,1.4,0.47,1.86c0.21,0.46,0.48,0.77,0.8,0.95
			c0.32,0.17,0.7,0.26,1.13,0.26c0.5,0,0.9-0.12,1.2-0.37c0.29-0.24,0.52-0.55,0.67-0.91c0.15-0.36,0.25-0.76,0.29-1.18
			s0.06-0.8,0.06-1.16v-0.25H660.84z"/>
		<path d="M667.12,453.17c-1.72,0-2.98-0.63-3.77-1.89c-0.79-1.26-1.19-3.23-1.19-5.9s0.4-4.64,1.19-5.9
			c0.79-1.26,2.05-1.89,3.77-1.89c1.72,0,2.98,0.63,3.77,1.89c0.79,1.26,1.19,3.23,1.19,5.9s-0.4,4.64-1.19,5.9
			C670.09,452.54,668.84,453.17,667.12,453.17z M667.12,451.36c0.36,0,0.7-0.07,1.01-0.22c0.31-0.15,0.58-0.44,0.81-0.87
			c0.23-0.43,0.41-1.05,0.55-1.84c0.13-0.79,0.2-1.83,0.2-3.12c0-1.26-0.07-2.28-0.2-3.06c-0.13-0.78-0.32-1.38-0.55-1.8
			c-0.23-0.42-0.5-0.7-0.81-0.85c-0.31-0.15-0.64-0.22-1.01-0.22c-0.35,0-0.68,0.07-1,0.22c-0.32,0.15-0.59,0.43-0.82,0.85
			c-0.23,0.42-0.41,1.02-0.55,1.8c-0.13,0.78-0.2,1.79-0.2,3.06c0,1.29,0.07,2.33,0.2,3.12s0.32,1.4,0.55,1.84
			c0.23,0.43,0.5,0.72,0.82,0.87C666.43,451.29,666.77,451.36,667.12,451.36z"/>
		<path d="M674.19,437.88h3.74l2.65,11.11h0.04l2.6-11.11h3.65v14.99h-2.27V440.4h-0.04l-3.02,12.47h-2.02l-3.02-12.47h-0.04v12.47
			h-2.27V437.88z"/>
		<path d="M689.35,437.88h4.75c0.71,0,1.33,0.11,1.86,0.33c0.53,0.22,0.96,0.52,1.29,0.9c0.34,0.39,0.58,0.84,0.75,1.38
			s0.24,1.12,0.24,1.76c0,1.36-0.38,2.44-1.13,3.23c-0.76,0.8-1.84,1.2-3.25,1.2h-2.1v6.2h-2.39V437.88z M691.75,444.87h1.7
			c0.32,0,0.63-0.04,0.91-0.14c0.29-0.09,0.54-0.24,0.77-0.44s0.4-0.47,0.53-0.8c0.13-0.33,0.19-0.73,0.19-1.21
			c0-0.81-0.19-1.45-0.56-1.91s-1.04-0.69-2-0.69h-1.53V444.87z"/>
		<path d="M702.06,437.88v10.75c0,0.95,0.19,1.65,0.56,2.08c0.37,0.43,0.92,0.65,1.65,0.65c0.71,0,1.26-0.22,1.63-0.65
			c0.37-0.43,0.56-1.13,0.56-2.08v-10.75h2.39v10.56c0,0.87-0.1,1.6-0.31,2.21c-0.21,0.6-0.51,1.09-0.9,1.46
			c-0.39,0.37-0.87,0.64-1.44,0.81s-1.21,0.25-1.92,0.25s-1.36-0.08-1.93-0.25s-1.06-0.44-1.45-0.81s-0.69-0.86-0.9-1.46
			c-0.21-0.6-0.32-1.34-0.32-2.21v-10.56H702.06z"/>
		<path d="M713.59,439.9h-3.57v-2.02h9.47v2.02h-3.51v12.98h-2.39V439.9z"/>
		<path d="M720.85,437.88h8.11v2.02h-5.71v4.16h5.38v2.02h-5.38v4.79h5.88v2.02h-8.27V437.88z"/>
		<path d="M730.96,437.88h5.29c0.53,0,1.03,0.07,1.48,0.21c0.45,0.14,0.86,0.36,1.21,0.67c0.35,0.31,0.62,0.71,0.82,1.2
			c0.2,0.49,0.29,1.08,0.29,1.79c0,0.97-0.21,1.79-0.63,2.47c-0.42,0.68-1.04,1.08-1.87,1.21v0.04c0.76,0.07,1.33,0.34,1.71,0.8
			s0.6,1.22,0.64,2.27c0.01,0.49,0.02,1.01,0.03,1.55c0.01,0.55,0.02,1.04,0.05,1.49c0.03,0.36,0.12,0.64,0.26,0.84
			s0.3,0.35,0.45,0.46h-2.71c-0.11-0.14-0.2-0.32-0.26-0.55c-0.06-0.22-0.11-0.48-0.14-0.78c-0.04-0.45-0.06-0.9-0.06-1.34
			s-0.01-0.95-0.04-1.49c-0.03-0.83-0.19-1.42-0.49-1.79c-0.3-0.37-0.86-0.56-1.69-0.56h-1.95v6.51h-2.39V437.88z M735.26,444.56
			c0.77,0,1.36-0.22,1.77-0.65s0.62-1.03,0.62-1.79c0-0.8-0.18-1.4-0.54-1.82c-0.36-0.41-0.93-0.62-1.73-0.62h-2.04v4.87H735.26z"/>
	</g>
</g>
<g id="Computer_00000060737345817879496520000007996241330544563595_">
	<rect x="526.91" y="368.54" width="109.52" height="34.04"/>
	<rect x="521.9" y="363.54" class="plan010" width="109.52" height="34.04"/>
	<g>
		<path d="M534.29,375.1h-3.57v-2.02h9.47v2.02h-3.51v12.98h-2.39V375.1z"/>
		<path d="M541.56,373.08h8.11v2.02h-5.71v4.16h5.38v2.02h-5.38v4.79h5.88v2.02h-8.27V373.08z"/>
		<path d="M551.39,373.08h2.39v12.98h5.8v2.02h-8.19V373.08z"/>
		<path d="M560.98,373.08h8.11v2.02h-5.71v4.16h5.38v2.02h-5.38v4.79h5.88v2.02h-8.27V373.08z"/>
		<path d="M569.72,373.08h2.54l2.54,11.97h0.04l2.69-11.97h2.54l-3.78,14.99h-3.04L569.72,373.08z"/>
		<path d="M581.08,373.08h2.39v14.99h-2.39V373.08z"/>
		<path d="M587.7,383.43v0.38c0,1.83,0.82,2.75,2.46,2.75c0.38,0,0.71-0.06,1-0.19c0.29-0.13,0.52-0.29,0.71-0.49
			c0.19-0.2,0.33-0.43,0.42-0.69c0.09-0.26,0.14-0.53,0.14-0.81c0-0.8-0.19-1.39-0.57-1.79c-0.38-0.39-0.9-0.69-1.58-0.88
			l-1.64-0.57c-1.09-0.42-1.89-0.94-2.38-1.56s-0.75-1.47-0.75-2.55c0-1.37,0.43-2.42,1.28-3.15c0.85-0.73,1.98-1.09,3.38-1.09
			c0.97,0,1.73,0.13,2.29,0.4c0.56,0.27,0.98,0.6,1.27,1c0.29,0.4,0.47,0.83,0.56,1.28s0.13,0.88,0.13,1.27v0.34h-2.39v-0.32
			c0-0.69-0.16-1.22-0.48-1.6c-0.32-0.38-0.86-0.57-1.62-0.57c-0.25,0-0.5,0.04-0.75,0.12s-0.46,0.2-0.65,0.37
			c-0.19,0.17-0.34,0.39-0.45,0.66c-0.11,0.27-0.17,0.61-0.17,1.02c0,0.64,0.17,1.15,0.53,1.52c0.35,0.37,0.92,0.71,1.72,1.02
			l1.62,0.59c1.06,0.38,1.84,0.88,2.32,1.49c0.48,0.62,0.72,1.44,0.72,2.48c0,0.8-0.12,1.48-0.35,2.05c-0.23,0.57-0.56,1.04-1,1.41
			c-0.43,0.37-0.96,0.64-1.56,0.81s-1.29,0.25-2.05,0.25c-0.92,0-1.68-0.14-2.28-0.42s-1.06-0.64-1.4-1.08
			c-0.34-0.44-0.57-0.93-0.69-1.48c-0.13-0.55-0.19-1.08-0.19-1.6v-0.36H587.7z"/>
		<path d="M596.64,373.08h2.39v14.99h-2.39V373.08z"/>
		<path d="M606.01,388.37c-1.72,0-2.98-0.63-3.77-1.89c-0.79-1.26-1.19-3.23-1.19-5.9s0.4-4.64,1.19-5.9
			c0.79-1.26,2.05-1.89,3.77-1.89c1.72,0,2.98,0.63,3.77,1.89c0.79,1.26,1.19,3.23,1.19,5.9s-0.4,4.64-1.19,5.9
			C608.99,387.74,607.73,388.37,606.01,388.37z M606.01,386.56c0.36,0,0.7-0.07,1.01-0.22c0.31-0.15,0.58-0.44,0.81-0.87
			c0.23-0.43,0.41-1.05,0.55-1.84c0.13-0.79,0.2-1.83,0.2-3.12c0-1.26-0.07-2.28-0.2-3.06c-0.13-0.78-0.32-1.38-0.55-1.8
			c-0.23-0.42-0.5-0.7-0.81-0.85c-0.31-0.15-0.64-0.22-1.01-0.22c-0.35,0-0.68,0.07-1,0.22c-0.32,0.15-0.59,0.43-0.82,0.85
			c-0.23,0.42-0.41,1.02-0.55,1.8c-0.13,0.78-0.2,1.79-0.2,3.06c0,1.29,0.07,2.33,0.2,3.12s0.32,1.4,0.55,1.84
			c0.23,0.43,0.5,0.72,0.82,0.87C605.32,386.49,605.66,386.56,606.01,386.56z"/>
		<path d="M613.08,373.08H616l4.35,11.17h0.04v-11.17h2.27v14.99h-2.92l-4.35-11.47h-0.04v11.47h-2.27V373.08z"/>
	</g>
</g>
<g id="_x33_d_Scan_Lab">
	<rect x="775.31" y="623.81" width="125.53" height="34.04"/>
	<rect x="770.3" y="618.81" class="plan010" width="125.53" height="34.04"/>
	<g>
		<path d="M781.92,639.21c0,0.32,0.03,0.65,0.09,0.98c0.06,0.33,0.17,0.62,0.33,0.88c0.15,0.26,0.36,0.47,0.62,0.64
			s0.59,0.25,1,0.25c0.38,0,0.7-0.07,0.96-0.21s0.47-0.33,0.64-0.58c0.17-0.24,0.29-0.53,0.37-0.85c0.08-0.32,0.12-0.66,0.12-1.03
			c0-0.92-0.18-1.62-0.53-2.08c-0.35-0.46-0.98-0.69-1.89-0.69h-0.92v-1.68h0.86c0.8,0,1.35-0.24,1.67-0.72
			c0.31-0.48,0.47-1.09,0.47-1.82c0-0.27-0.03-0.53-0.09-0.79c-0.06-0.26-0.17-0.49-0.3-0.68c-0.14-0.2-0.32-0.36-0.54-0.48
			c-0.22-0.13-0.48-0.19-0.79-0.19c-0.36,0-0.67,0.07-0.91,0.22c-0.25,0.15-0.44,0.34-0.59,0.58c-0.15,0.24-0.25,0.51-0.3,0.83
			c-0.06,0.32-0.08,0.64-0.08,0.98h-2.27c0-1.4,0.36-2.46,1.07-3.19c0.71-0.73,1.79-1.09,3.21-1.09c0.45,0,0.91,0.06,1.38,0.18
			c0.47,0.12,0.9,0.32,1.29,0.61s0.71,0.67,0.96,1.17c0.24,0.49,0.37,1.11,0.37,1.85c0,0.38-0.06,0.75-0.17,1.12s-0.27,0.7-0.47,1
			s-0.45,0.54-0.75,0.75s-0.62,0.33-0.99,0.39v0.06c0.77,0.07,1.41,0.4,1.93,0.99c0.52,0.59,0.78,1.41,0.78,2.46
			c0,1.48-0.37,2.62-1.11,3.41s-1.88,1.19-3.42,1.19c-1.34,0-2.39-0.35-3.13-1.05s-1.11-1.83-1.11-3.38H781.92z"/>
		<path d="M790.32,628.35h4.26c1.18,0,2.11,0.18,2.81,0.55c0.7,0.36,1.23,0.88,1.6,1.54c0.36,0.67,0.6,1.46,0.71,2.37
			c0.11,0.92,0.17,1.93,0.17,3.03c0,1.11-0.06,2.12-0.17,3.03c-0.11,0.92-0.35,1.71-0.71,2.37c-0.36,0.67-0.9,1.18-1.6,1.54
			s-1.64,0.55-2.81,0.55h-4.26V628.35z M792.71,641.54h1.97c0.49,0,0.91-0.09,1.27-0.27c0.36-0.18,0.65-0.49,0.87-0.92
			c0.22-0.43,0.39-1.02,0.49-1.75c0.11-0.73,0.16-1.65,0.16-2.74c0-1.05-0.05-1.94-0.15-2.67c-0.1-0.73-0.26-1.32-0.47-1.76
			s-0.5-0.77-0.86-0.97c-0.36-0.2-0.79-0.29-1.31-0.29h-1.97V641.54z"/>
		<path d="M808.88,638.71v0.38c0,1.83,0.82,2.75,2.46,2.75c0.38,0,0.71-0.06,1-0.19c0.29-0.13,0.52-0.29,0.71-0.49
			c0.19-0.2,0.33-0.43,0.42-0.69c0.09-0.26,0.14-0.53,0.14-0.81c0-0.8-0.19-1.39-0.57-1.79c-0.38-0.39-0.9-0.69-1.58-0.88
			l-1.64-0.57c-1.09-0.42-1.89-0.94-2.38-1.56s-0.75-1.47-0.75-2.55c0-1.37,0.43-2.42,1.28-3.15c0.85-0.73,1.98-1.09,3.38-1.09
			c0.97,0,1.73,0.13,2.29,0.4c0.56,0.27,0.98,0.6,1.27,1c0.29,0.4,0.47,0.83,0.56,1.28s0.13,0.88,0.13,1.27v0.34h-2.39v-0.32
			c0-0.69-0.16-1.22-0.48-1.6c-0.32-0.38-0.86-0.57-1.62-0.57c-0.25,0-0.5,0.04-0.75,0.12s-0.46,0.2-0.65,0.37
			c-0.19,0.17-0.34,0.39-0.45,0.66c-0.11,0.27-0.17,0.61-0.17,1.02c0,0.64,0.17,1.15,0.53,1.52c0.35,0.37,0.92,0.71,1.72,1.02
			l1.62,0.59c1.06,0.38,1.84,0.88,2.32,1.49c0.48,0.62,0.72,1.44,0.72,2.48c0,0.8-0.12,1.48-0.35,2.05c-0.23,0.57-0.56,1.04-1,1.41
			c-0.43,0.37-0.96,0.64-1.56,0.81s-1.29,0.25-2.05,0.25c-0.92,0-1.68-0.14-2.28-0.42s-1.06-0.64-1.4-1.08
			c-0.34-0.44-0.57-0.93-0.69-1.48c-0.13-0.55-0.19-1.08-0.19-1.6v-0.36H808.88z"/>
		<path d="M827.15,637.97v0.32c0,0.67-0.07,1.33-0.22,1.97c-0.15,0.64-0.4,1.22-0.76,1.72c-0.36,0.5-0.83,0.91-1.43,1.21
			c-0.6,0.3-1.33,0.45-2.22,0.45c-0.94,0-1.73-0.15-2.36-0.46c-0.64-0.31-1.15-0.78-1.53-1.43c-0.39-0.64-0.66-1.45-0.82-2.43
			c-0.16-0.97-0.24-2.13-0.24-3.48s0.08-2.5,0.24-3.48c0.16-0.97,0.43-1.78,0.82-2.43c0.38-0.64,0.9-1.12,1.53-1.43
			c0.64-0.31,1.43-0.46,2.38-0.46c1.06,0,1.9,0.17,2.5,0.51c0.6,0.34,1.05,0.76,1.35,1.25c0.3,0.49,0.49,1,0.56,1.54
			s0.11,1,0.11,1.4v0.27h-2.39v-0.25c0-0.35-0.03-0.7-0.09-1.05c-0.06-0.35-0.18-0.67-0.34-0.96s-0.38-0.51-0.65-0.68
			c-0.27-0.17-0.63-0.25-1.06-0.23c-0.43,0-0.81,0.08-1.13,0.24c-0.32,0.16-0.59,0.46-0.8,0.9c-0.21,0.44-0.37,1.05-0.47,1.82
			c-0.11,0.77-0.16,1.76-0.16,2.96s0.05,2.2,0.16,2.98c0.1,0.78,0.26,1.4,0.47,1.86c0.21,0.46,0.48,0.77,0.8,0.95
			c0.32,0.17,0.7,0.26,1.13,0.26c0.5,0,0.9-0.12,1.2-0.37c0.29-0.24,0.52-0.55,0.67-0.91c0.15-0.36,0.25-0.76,0.29-1.18
			s0.06-0.8,0.06-1.16v-0.25H827.15z"/>
		<path d="M831.67,628.35h3.07l3.95,14.99h-2.5l-0.92-3.67h-4.39l-0.97,3.67h-2.5L831.67,628.35z M834.86,637.76l-1.72-7.39h-0.04
			l-1.79,7.39H834.86z"/>
		<path d="M839.73,628.35h2.92l4.35,11.17h0.04v-11.17h2.27v14.99h-2.92l-4.35-11.47H842v11.47h-2.27V628.35z"/>
		<path d="M856.55,628.35h2.39v12.98h5.8v2.02h-8.19V628.35z"/>
		<path d="M868.98,628.35h3.07l3.95,14.99h-2.5l-0.92-3.67h-4.39l-0.97,3.67h-2.5L868.98,628.35z M872.17,637.76l-1.72-7.39h-0.04
			l-1.79,7.39H872.17z"/>
		<path d="M877.04,628.35h4.85c0.56,0,1.08,0.07,1.58,0.2c0.49,0.13,0.92,0.34,1.28,0.63s0.65,0.66,0.86,1.12s0.31,1.02,0.31,1.68
			c0,1.81-0.73,2.94-2.21,3.4v0.04c0.41,0.07,0.78,0.19,1.11,0.36s0.62,0.4,0.85,0.7c0.23,0.3,0.41,0.68,0.54,1.13s0.19,1,0.19,1.63
			s-0.11,1.2-0.33,1.7c-0.22,0.5-0.52,0.93-0.92,1.29c-0.4,0.36-0.89,0.63-1.46,0.82c-0.57,0.19-1.21,0.28-1.91,0.28h-4.75V628.35z
			 M881.33,634.67c0.73,0,1.28-0.22,1.65-0.65c0.37-0.43,0.56-1.01,0.56-1.72c0-0.45-0.06-0.81-0.19-1.09s-0.3-0.5-0.51-0.65
			s-0.47-0.26-0.77-0.31c-0.29-0.06-0.61-0.08-0.94-0.08h-1.68v4.52H881.33z M881.81,641.54c0.71,0,1.26-0.22,1.64-0.67
			s0.57-1.11,0.57-1.97c0-0.81-0.22-1.44-0.65-1.88c-0.43-0.44-1-0.66-1.7-0.66h-2.23v5.19H881.81z"/>
	</g>
</g>
<g id="VR__x26__AR">
	<rect x="726.22" y="681.74" width="84.5" height="34.04"/>
	<rect x="721.21" y="676.74" class="plan010" width="84.5" height="34.04"/>
	<g>
		<path d="M729.78,686.28h2.54l2.54,11.97h0.04l2.69-11.97h2.54l-3.78,14.99h-3.04L729.78,686.28z"/>
		<path d="M741.25,686.28h5.29c0.53,0,1.03,0.07,1.48,0.21c0.45,0.14,0.86,0.36,1.21,0.67c0.35,0.31,0.62,0.71,0.82,1.2
			c0.2,0.49,0.29,1.08,0.29,1.79c0,0.97-0.21,1.79-0.63,2.47c-0.42,0.68-1.04,1.08-1.87,1.21v0.04c0.76,0.07,1.33,0.34,1.71,0.8
			s0.6,1.22,0.64,2.27c0.01,0.49,0.02,1.01,0.03,1.55c0.01,0.55,0.02,1.04,0.05,1.49c0.03,0.36,0.12,0.64,0.26,0.84
			s0.3,0.35,0.45,0.46h-2.71c-0.11-0.14-0.2-0.32-0.26-0.55c-0.06-0.22-0.11-0.48-0.14-0.78c-0.04-0.45-0.06-0.9-0.06-1.34
			s-0.01-0.95-0.04-1.49c-0.03-0.83-0.19-1.42-0.49-1.79c-0.3-0.37-0.86-0.56-1.69-0.56h-1.95v6.51h-2.39V686.28z M745.55,692.96
			c0.77,0,1.36-0.22,1.77-0.65s0.62-1.03,0.62-1.79c0-0.8-0.18-1.4-0.54-1.82c-0.36-0.41-0.93-0.62-1.73-0.62h-2.04v4.87H745.55z"/>
		<path d="M765.17,696.74c0.18-0.29,0.33-0.65,0.43-1.06c0.11-0.41,0.16-0.82,0.16-1.23v-0.29h1.89v0.19c0,0.2-0.02,0.45-0.05,0.77
			c-0.04,0.31-0.1,0.66-0.2,1.03c-0.1,0.37-0.23,0.75-0.4,1.14c-0.17,0.39-0.38,0.77-0.63,1.13l2.04,2.86h-2.54l-0.9-1.28
			c-0.49,0.45-1.03,0.82-1.62,1.12c-0.59,0.3-1.31,0.45-2.16,0.45c-0.87,0-1.59-0.14-2.15-0.42c-0.57-0.28-1.02-0.63-1.35-1.05
			c-0.34-0.42-0.57-0.87-0.7-1.35c-0.13-0.48-0.2-0.92-0.2-1.31c0-0.83,0.19-1.56,0.57-2.22c0.38-0.65,0.89-1.22,1.53-1.71
			l0.95-0.71l-0.57-0.84c-0.27-0.41-0.49-0.82-0.68-1.23c-0.19-0.41-0.28-0.82-0.28-1.23c0-0.53,0.09-1,0.27-1.41
			c0.18-0.41,0.43-0.74,0.76-1.01c0.32-0.27,0.7-0.46,1.13-0.6c0.43-0.13,0.9-0.2,1.41-0.2c0.28,0,0.61,0.04,0.99,0.13
			c0.38,0.08,0.74,0.24,1.08,0.46c0.34,0.22,0.63,0.53,0.87,0.92c0.24,0.39,0.36,0.9,0.36,1.53c0,0.7-0.17,1.3-0.51,1.8
			s-0.78,0.95-1.31,1.35l-0.78,0.57L765.17,696.74z M760.42,694.59c-0.43,0.35-0.77,0.74-1.02,1.18c-0.25,0.43-0.37,0.93-0.37,1.49
			c0,0.34,0.07,0.65,0.2,0.94c0.13,0.29,0.31,0.55,0.55,0.76c0.23,0.21,0.5,0.38,0.81,0.5c0.31,0.13,0.64,0.19,0.99,0.19
			c0.5,0,0.95-0.12,1.33-0.35c0.38-0.23,0.72-0.5,1-0.81l-3.04-4.28L760.42,694.59z M762.04,691.17c0.27-0.25,0.51-0.54,0.75-0.85
			c0.23-0.32,0.35-0.68,0.35-1.08c0-0.45-0.13-0.79-0.38-1.04c-0.25-0.25-0.6-0.37-1.05-0.37c-0.15,0-0.31,0.02-0.48,0.06
			s-0.32,0.12-0.45,0.22c-0.13,0.1-0.25,0.24-0.34,0.4c-0.09,0.16-0.14,0.37-0.14,0.62c0,0.38,0.09,0.75,0.28,1.11
			c0.19,0.36,0.39,0.69,0.6,0.97l0.34,0.44L762.04,691.17z"/>
		<path d="M777.49,686.28h3.07l3.95,14.99h-2.5l-0.92-3.67h-4.39l-0.97,3.67h-2.5L777.49,686.28z M780.68,695.69l-1.72-7.39h-0.04
			l-1.79,7.39H780.68z"/>
		<path d="M785.56,686.28h5.29c0.53,0,1.03,0.07,1.48,0.21c0.45,0.14,0.86,0.36,1.21,0.67c0.35,0.31,0.62,0.71,0.82,1.2
			c0.2,0.49,0.29,1.08,0.29,1.79c0,0.97-0.21,1.79-0.63,2.47c-0.42,0.68-1.04,1.08-1.87,1.21v0.04c0.76,0.07,1.33,0.34,1.71,0.8
			s0.6,1.22,0.64,2.27c0.01,0.49,0.02,1.01,0.03,1.55c0.01,0.55,0.02,1.04,0.05,1.49c0.03,0.36,0.12,0.64,0.26,0.84
			s0.3,0.35,0.45,0.46h-2.71c-0.11-0.14-0.2-0.32-0.26-0.55c-0.06-0.22-0.11-0.48-0.14-0.78c-0.04-0.45-0.06-0.9-0.06-1.34
			s-0.01-0.95-0.04-1.49c-0.03-0.83-0.19-1.42-0.49-1.79c-0.3-0.37-0.86-0.56-1.69-0.56h-1.95v6.51h-2.39V686.28z M789.86,692.96
			c0.77,0,1.36-0.22,1.77-0.65s0.62-1.03,0.62-1.79c0-0.8-0.18-1.4-0.54-1.82c-0.36-0.41-0.93-0.62-1.73-0.62h-2.04v4.87H789.86z"/>
	</g>
</g>
<g id="Media_Library">
	<rect x="823.42" y="566.87" width="142.54" height="34.04"/>
	<rect x="818.41" y="561.86" class="plan010" width="142.54" height="34.04"/>
	<g>
		<path d="M828.35,571.41h3.74l2.65,11.11h0.04l2.6-11.11h3.65v14.99h-2.27v-12.47h-0.04l-3.02,12.47h-2.02l-3.02-12.47h-0.04v12.47
			h-2.27V571.41z"/>
		<path d="M843.51,571.41h8.11v2.02h-5.71v4.16h5.38v2.02h-5.38v4.79h5.88v2.02h-8.27V571.41z"/>
		<path d="M853.61,571.41h4.26c1.18,0,2.11,0.18,2.81,0.55c0.7,0.36,1.23,0.88,1.6,1.54c0.36,0.67,0.6,1.46,0.71,2.37
			c0.11,0.92,0.17,1.93,0.17,3.03c0,1.11-0.06,2.12-0.17,3.03c-0.11,0.92-0.35,1.71-0.71,2.37c-0.36,0.67-0.9,1.18-1.6,1.54
			s-1.64,0.55-2.81,0.55h-4.26V571.41z M856,584.59h1.97c0.49,0,0.91-0.09,1.27-0.27c0.36-0.18,0.65-0.49,0.87-0.92
			c0.22-0.43,0.39-1.02,0.49-1.75c0.11-0.73,0.16-1.65,0.16-2.74c0-1.05-0.05-1.94-0.15-2.67c-0.1-0.73-0.26-1.32-0.47-1.76
			s-0.5-0.77-0.86-0.97c-0.36-0.2-0.79-0.29-1.31-0.29H856V584.59z"/>
		<path d="M865.18,571.41h2.39v14.99h-2.39V571.41z"/>
		<path d="M872.78,571.41h3.07l3.95,14.99h-2.5l-0.92-3.67h-4.39l-0.97,3.67h-2.5L872.78,571.41z M875.97,580.81l-1.72-7.39h-0.04
			l-1.79,7.39H875.97z"/>
		<path d="M885.61,571.41H888v12.98h5.8v2.02h-8.19V571.41z"/>
		<path d="M895.1,571.41h2.39v14.99h-2.39V571.41z"/>
		<path d="M899.87,571.41h4.85c0.56,0,1.08,0.07,1.58,0.2c0.49,0.13,0.92,0.34,1.28,0.63s0.65,0.66,0.86,1.12s0.32,1.02,0.32,1.68
			c0,1.81-0.74,2.94-2.21,3.4v0.04c0.41,0.07,0.78,0.19,1.11,0.36c0.34,0.17,0.62,0.4,0.85,0.7c0.23,0.3,0.41,0.68,0.54,1.13
			s0.19,1,0.19,1.63s-0.11,1.2-0.33,1.7c-0.22,0.5-0.53,0.93-0.92,1.29c-0.4,0.36-0.89,0.63-1.46,0.82
			c-0.57,0.19-1.21,0.28-1.91,0.28h-4.75V571.41z M904.15,577.73c0.73,0,1.28-0.22,1.65-0.65c0.37-0.43,0.56-1.01,0.56-1.72
			c0-0.45-0.06-0.81-0.19-1.09s-0.3-0.5-0.51-0.65c-0.22-0.15-0.47-0.26-0.77-0.31c-0.29-0.06-0.61-0.08-0.95-0.08h-1.68v4.52
			H904.15z M904.64,584.59c0.71,0,1.26-0.22,1.64-0.67s0.57-1.11,0.57-1.97c0-0.81-0.22-1.44-0.65-1.88c-0.43-0.44-1-0.66-1.7-0.66
			h-2.23v5.19H904.64z"/>
		<path d="M911.15,571.41h5.29c0.53,0,1.03,0.07,1.48,0.21c0.46,0.14,0.86,0.36,1.21,0.67c0.35,0.31,0.62,0.71,0.82,1.2
			s0.29,1.08,0.29,1.79c0,0.97-0.21,1.79-0.63,2.47c-0.42,0.68-1.04,1.08-1.87,1.21v0.04c0.76,0.07,1.33,0.34,1.71,0.8
			c0.38,0.46,0.6,1.22,0.64,2.27c0.01,0.49,0.02,1.01,0.03,1.55s0.02,1.04,0.05,1.49c0.03,0.36,0.12,0.64,0.26,0.84
			c0.15,0.2,0.3,0.35,0.45,0.46h-2.71c-0.11-0.14-0.2-0.32-0.26-0.55c-0.06-0.22-0.11-0.48-0.14-0.78c-0.04-0.45-0.06-0.9-0.06-1.34
			s-0.01-0.95-0.04-1.49c-0.03-0.83-0.19-1.42-0.49-1.79s-0.86-0.56-1.69-0.56h-1.95v6.51h-2.39V571.41z M915.45,578.08
			c0.77,0,1.36-0.22,1.77-0.65s0.62-1.03,0.62-1.79c0-0.8-0.18-1.4-0.54-1.82c-0.36-0.41-0.93-0.62-1.73-0.62h-2.04v4.87H915.45z"/>
		<path d="M925.26,571.41h3.07l3.95,14.99h-2.5l-0.92-3.67h-4.39l-0.97,3.67H921L925.26,571.41z M928.45,580.81l-1.72-7.39h-0.04
			l-1.79,7.39H928.45z"/>
		<path d="M933.32,571.41h5.29c0.53,0,1.03,0.07,1.48,0.21c0.46,0.14,0.86,0.36,1.21,0.67c0.35,0.31,0.62,0.71,0.82,1.2
			s0.29,1.08,0.29,1.79c0,0.97-0.21,1.79-0.63,2.47c-0.42,0.68-1.04,1.08-1.87,1.21v0.04c0.76,0.07,1.33,0.34,1.71,0.8
			c0.38,0.46,0.6,1.22,0.64,2.27c0.01,0.49,0.02,1.01,0.03,1.55s0.02,1.04,0.05,1.49c0.03,0.36,0.12,0.64,0.26,0.84
			c0.15,0.2,0.3,0.35,0.45,0.46h-2.71c-0.11-0.14-0.2-0.32-0.26-0.55c-0.06-0.22-0.11-0.48-0.14-0.78c-0.04-0.45-0.06-0.9-0.06-1.34
			s-0.01-0.95-0.04-1.49c-0.03-0.83-0.19-1.42-0.49-1.79s-0.86-0.56-1.69-0.56h-1.95v6.51h-2.39V571.41z M937.63,578.08
			c0.77,0,1.36-0.22,1.77-0.65s0.62-1.03,0.62-1.79c0-0.8-0.18-1.4-0.54-1.82c-0.36-0.41-0.93-0.62-1.73-0.62h-2.04v4.87H937.63z"/>
		<path d="M947.14,580.54l-3.86-9.13h2.67l2.52,6.47l2.58-6.47h2.5l-4.01,9.13v5.86h-2.39V580.54z"/>
	</g>
</g>
<g id="The_Repair_Shop">
	<rect x="551.45" y="270.36" width="162.56" height="34.04"/>
	<rect x="546.45" y="265.36" class="plan010" width="162.56" height="34.04"/>
	<g>
		<path d="M558.84,276.91h-3.57v-2.02h9.47v2.02h-3.51v12.98h-2.39V276.91z"/>
		<path d="M566.11,274.9h2.39v6.01h4.41v-6.01h2.39v14.99h-2.39v-6.97h-4.41v6.97h-2.39V274.9z"/>
		<path d="M577.78,274.9h8.11v2.02h-5.71v4.16h5.38v2.02h-5.38v4.79h5.88v2.02h-8.27V274.9z"/>
		<path d="M592.92,274.9h5.29c0.53,0,1.03,0.07,1.48,0.21c0.45,0.14,0.86,0.36,1.21,0.67c0.35,0.31,0.62,0.71,0.82,1.2
			c0.2,0.49,0.29,1.08,0.29,1.79c0,0.97-0.21,1.79-0.63,2.47c-0.42,0.68-1.04,1.08-1.87,1.21v0.04c0.76,0.07,1.33,0.34,1.71,0.8
			s0.6,1.22,0.64,2.27c0.01,0.49,0.02,1.01,0.03,1.55c0.01,0.55,0.02,1.04,0.05,1.49c0.03,0.36,0.12,0.64,0.26,0.84
			s0.3,0.35,0.45,0.46h-2.71c-0.11-0.14-0.2-0.32-0.26-0.55c-0.06-0.22-0.11-0.48-0.14-0.78c-0.04-0.45-0.06-0.9-0.06-1.34
			s-0.01-0.95-0.04-1.49c-0.03-0.83-0.19-1.42-0.49-1.79c-0.3-0.37-0.86-0.56-1.69-0.56h-1.95v6.51h-2.39V274.9z M597.23,281.58
			c0.77,0,1.36-0.22,1.77-0.65s0.62-1.03,0.62-1.79c0-0.8-0.18-1.4-0.54-1.82c-0.36-0.41-0.93-0.62-1.73-0.62h-2.04v4.87H597.23z"/>
		<path d="M604.2,274.9h8.11v2.02h-5.71v4.16h5.38v2.02h-5.38v4.79h5.88v2.02h-8.27V274.9z"/>
		<path d="M614.3,274.9h4.75c0.71,0,1.33,0.11,1.86,0.33c0.53,0.22,0.96,0.52,1.29,0.9c0.34,0.39,0.58,0.84,0.75,1.38
			s0.24,1.12,0.24,1.76c0,1.36-0.38,2.44-1.13,3.23c-0.76,0.8-1.84,1.2-3.25,1.2h-2.1v6.2h-2.39V274.9z M616.69,281.89h1.7
			c0.32,0,0.63-0.04,0.91-0.14c0.29-0.09,0.54-0.24,0.77-0.44c0.22-0.2,0.4-0.47,0.52-0.8c0.13-0.33,0.19-0.73,0.19-1.21
			c0-0.81-0.19-1.45-0.56-1.91s-1.04-0.69-2.01-0.69h-1.53V281.89z"/>
		<path d="M627.63,274.9h3.07l3.95,14.99h-2.5l-0.92-3.67h-4.39l-0.97,3.67h-2.5L627.63,274.9z M630.83,284.31l-1.72-7.39h-0.04
			l-1.79,7.39H630.83z"/>
		<path d="M635.59,274.9h2.39v14.99h-2.39V274.9z"/>
		<path d="M640.36,274.9h5.29c0.53,0,1.03,0.07,1.48,0.21c0.46,0.14,0.86,0.36,1.21,0.67c0.35,0.31,0.62,0.71,0.82,1.2
			s0.29,1.08,0.29,1.79c0,0.97-0.21,1.79-0.63,2.47c-0.42,0.68-1.04,1.08-1.87,1.21v0.04c0.76,0.07,1.33,0.34,1.71,0.8
			c0.38,0.46,0.6,1.22,0.64,2.27c0.01,0.49,0.02,1.01,0.03,1.55s0.02,1.04,0.05,1.49c0.03,0.36,0.12,0.64,0.26,0.84
			c0.15,0.2,0.3,0.35,0.45,0.46h-2.71c-0.11-0.14-0.2-0.32-0.26-0.55c-0.06-0.22-0.11-0.48-0.14-0.78c-0.04-0.45-0.06-0.9-0.06-1.34
			s-0.01-0.95-0.04-1.49c-0.03-0.83-0.19-1.42-0.49-1.79s-0.86-0.56-1.69-0.56h-1.95v6.51h-2.39V274.9z M644.67,281.58
			c0.77,0,1.36-0.22,1.77-0.65s0.62-1.03,0.62-1.79c0-0.8-0.18-1.4-0.54-1.82c-0.36-0.41-0.93-0.62-1.73-0.62h-2.04v4.87H644.67z"/>
		<path d="M658.53,285.25v0.38c0,1.83,0.82,2.75,2.46,2.75c0.38,0,0.71-0.06,1-0.19s0.53-0.29,0.71-0.49
			c0.19-0.2,0.33-0.43,0.42-0.69c0.09-0.26,0.14-0.53,0.14-0.81c0-0.8-0.19-1.39-0.57-1.79c-0.38-0.39-0.9-0.69-1.58-0.88
			l-1.64-0.57c-1.09-0.42-1.89-0.94-2.38-1.56s-0.75-1.47-0.75-2.55c0-1.37,0.43-2.42,1.28-3.15c0.85-0.73,1.98-1.09,3.38-1.09
			c0.97,0,1.73,0.13,2.29,0.4s0.98,0.6,1.27,1c0.29,0.4,0.47,0.83,0.56,1.28s0.13,0.88,0.13,1.27v0.34h-2.39v-0.32
			c0-0.69-0.16-1.22-0.48-1.6s-0.86-0.57-1.62-0.57c-0.25,0-0.5,0.04-0.75,0.12s-0.46,0.2-0.65,0.37c-0.19,0.17-0.34,0.39-0.45,0.66
			c-0.11,0.27-0.17,0.61-0.17,1.02c0,0.64,0.17,1.15,0.52,1.52c0.35,0.37,0.92,0.71,1.72,1.02l1.62,0.59
			c1.06,0.38,1.84,0.88,2.32,1.49c0.48,0.62,0.72,1.44,0.72,2.48c0,0.8-0.12,1.48-0.35,2.05c-0.23,0.57-0.56,1.04-1,1.41
			c-0.43,0.37-0.96,0.64-1.56,0.81c-0.61,0.17-1.29,0.25-2.05,0.25c-0.92,0-1.68-0.14-2.28-0.42c-0.6-0.28-1.06-0.64-1.4-1.08
			c-0.34-0.44-0.57-0.93-0.69-1.48c-0.13-0.55-0.19-1.08-0.19-1.6v-0.36H658.53z"/>
		<path d="M667.58,274.9h2.39v6.01h4.41v-6.01h2.39v14.99h-2.39v-6.97h-4.41v6.97h-2.39V274.9z"/>
		<path d="M683.85,290.19c-1.72,0-2.98-0.63-3.77-1.89c-0.79-1.26-1.19-3.23-1.19-5.9s0.4-4.64,1.19-5.9
			c0.79-1.26,2.05-1.89,3.77-1.89c1.72,0,2.98,0.63,3.77,1.89c0.79,1.26,1.19,3.23,1.19,5.9s-0.4,4.64-1.19,5.9
			C686.83,289.56,685.57,290.19,683.85,290.19z M683.85,288.38c0.36,0,0.7-0.07,1.01-0.22c0.31-0.15,0.58-0.44,0.81-0.87
			c0.23-0.43,0.41-1.05,0.55-1.84c0.13-0.79,0.2-1.83,0.2-3.12c0-1.26-0.07-2.28-0.2-3.06c-0.13-0.78-0.32-1.38-0.55-1.8
			c-0.23-0.42-0.5-0.7-0.81-0.85c-0.31-0.15-0.64-0.22-1.01-0.22c-0.35,0-0.68,0.07-1,0.22c-0.32,0.15-0.59,0.43-0.82,0.85
			c-0.23,0.42-0.41,1.02-0.55,1.8c-0.13,0.78-0.2,1.79-0.2,3.06c0,1.29,0.07,2.33,0.2,3.12s0.32,1.4,0.55,1.84
			c0.23,0.43,0.5,0.72,0.82,0.87C683.17,288.31,683.5,288.38,683.85,288.38z"/>
		<path d="M690.93,274.9h4.75c0.71,0,1.33,0.11,1.86,0.33c0.53,0.22,0.96,0.52,1.29,0.9c0.34,0.39,0.58,0.84,0.75,1.38
			s0.24,1.12,0.24,1.76c0,1.36-0.38,2.44-1.13,3.23c-0.76,0.8-1.84,1.2-3.25,1.2h-2.1v6.2h-2.39V274.9z M693.32,281.89h1.7
			c0.32,0,0.63-0.04,0.91-0.14c0.29-0.09,0.54-0.24,0.77-0.44c0.22-0.2,0.4-0.47,0.52-0.8c0.13-0.33,0.19-0.73,0.19-1.21
			c0-0.81-0.19-1.45-0.56-1.91s-1.04-0.69-2.01-0.69h-1.53V281.89z"/>
	</g>
</g>
<g id="Auditorium">
	<rect x="416.08" y="509.96" width="106.51" height="34.04"/>
	<rect x="411.07" y="504.95" class="plan010" width="106.51" height="34.04"/>
	<g>
		<path d="M430.22,524.11v0.32c0,0.67-0.07,1.33-0.22,1.97s-0.4,1.22-0.76,1.72s-0.83,0.91-1.43,1.21c-0.6,0.3-1.33,0.45-2.22,0.45
			c-0.94,0-1.73-0.15-2.36-0.46c-0.64-0.31-1.15-0.78-1.53-1.43c-0.39-0.64-0.66-1.45-0.82-2.43c-0.16-0.97-0.24-2.13-0.24-3.48
			s0.08-2.5,0.24-3.48c0.16-0.97,0.43-1.78,0.82-2.43c0.38-0.64,0.9-1.12,1.53-1.43c0.64-0.31,1.43-0.46,2.38-0.46
			c1.06,0,1.9,0.17,2.5,0.51s1.05,0.76,1.35,1.25c0.3,0.49,0.49,1,0.56,1.54c0.07,0.54,0.1,1,0.1,1.4v0.27h-2.39v-0.25
			c0-0.35-0.03-0.7-0.09-1.05c-0.06-0.35-0.18-0.67-0.34-0.96s-0.38-0.51-0.65-0.68s-0.63-0.25-1.06-0.23
			c-0.43,0-0.81,0.08-1.13,0.24c-0.32,0.16-0.59,0.46-0.8,0.9c-0.21,0.44-0.37,1.05-0.47,1.82c-0.1,0.77-0.16,1.76-0.16,2.96
			s0.05,2.2,0.16,2.98s0.26,1.4,0.47,1.86c0.21,0.46,0.48,0.77,0.8,0.95c0.32,0.17,0.7,0.26,1.13,0.26c0.5,0,0.9-0.12,1.2-0.37
			c0.29-0.24,0.52-0.55,0.67-0.91c0.15-0.36,0.25-0.76,0.29-1.18s0.06-0.8,0.06-1.16v-0.25H430.22z"/>
		<path d="M436.5,529.78c-1.72,0-2.98-0.63-3.77-1.89c-0.79-1.26-1.19-3.23-1.19-5.9s0.4-4.64,1.19-5.9
			c0.79-1.26,2.05-1.89,3.77-1.89c1.72,0,2.98,0.63,3.77,1.89c0.79,1.26,1.19,3.23,1.19,5.9s-0.4,4.64-1.19,5.9
			C439.48,529.15,438.23,529.78,436.5,529.78z M436.5,527.98c0.36,0,0.7-0.07,1.01-0.22c0.31-0.15,0.58-0.44,0.81-0.87
			c0.23-0.43,0.41-1.05,0.55-1.84c0.13-0.79,0.2-1.83,0.2-3.12c0-1.26-0.07-2.28-0.2-3.06c-0.13-0.78-0.31-1.38-0.55-1.8
			c-0.23-0.42-0.5-0.7-0.81-0.85c-0.31-0.15-0.64-0.22-1.01-0.22c-0.35,0-0.68,0.07-1,0.22c-0.31,0.15-0.59,0.43-0.82,0.85
			s-0.41,1.02-0.55,1.8c-0.13,0.78-0.2,1.79-0.2,3.06c0,1.29,0.07,2.33,0.2,3.12c0.13,0.79,0.31,1.4,0.55,1.84
			c0.23,0.43,0.5,0.72,0.82,0.87C435.82,527.9,436.15,527.98,436.5,527.98z"/>
		<path d="M443.58,514.49h3.74l2.65,11.11h0.04l2.6-11.11h3.65v14.99H454v-12.47h-0.04l-3.02,12.47h-2.02l-3.02-12.47h-0.04v12.47
			h-2.27V514.49z"/>
		<path d="M458.74,514.49h3.74l2.65,11.11h0.04l2.6-11.11h3.65v14.99h-2.27v-12.47h-0.04l-3.02,12.47h-2.02l-3.02-12.47h-0.04v12.47
			h-2.27V514.49z"/>
		<path d="M478.5,529.78c-1.72,0-2.98-0.63-3.77-1.89c-0.79-1.26-1.19-3.23-1.19-5.9s0.4-4.64,1.19-5.9
			c0.79-1.26,2.05-1.89,3.77-1.89c1.72,0,2.98,0.63,3.77,1.89c0.79,1.26,1.19,3.23,1.19,5.9s-0.4,4.64-1.19,5.9
			C481.48,529.15,480.22,529.78,478.5,529.78z M478.5,527.98c0.36,0,0.7-0.07,1.01-0.22c0.31-0.15,0.58-0.44,0.81-0.87
			c0.23-0.43,0.41-1.05,0.55-1.84c0.13-0.79,0.2-1.83,0.2-3.12c0-1.26-0.07-2.28-0.2-3.06c-0.13-0.78-0.31-1.38-0.55-1.8
			c-0.23-0.42-0.5-0.7-0.81-0.85c-0.31-0.15-0.64-0.22-1.01-0.22c-0.35,0-0.68,0.07-1,0.22c-0.31,0.15-0.59,0.43-0.82,0.85
			s-0.41,1.02-0.55,1.8c-0.13,0.78-0.2,1.79-0.2,3.06c0,1.29,0.07,2.33,0.2,3.12c0.13,0.79,0.31,1.4,0.55,1.84
			c0.23,0.43,0.5,0.72,0.82,0.87C477.82,527.9,478.15,527.98,478.5,527.98z"/>
		<path d="M485.58,514.49h2.92l4.35,11.17h0.04v-11.17h2.27v14.99h-2.92l-4.35-11.47h-0.04v11.47h-2.27V514.49z"/>
		<path d="M499.48,524.85v0.38c0,1.83,0.82,2.75,2.46,2.75c0.38,0,0.71-0.06,1-0.19c0.29-0.13,0.52-0.29,0.71-0.49
			s0.33-0.43,0.42-0.69c0.09-0.26,0.14-0.53,0.14-0.81c0-0.8-0.19-1.39-0.57-1.79c-0.38-0.39-0.9-0.69-1.58-0.88l-1.64-0.57
			c-1.09-0.42-1.89-0.94-2.38-1.56s-0.75-1.47-0.75-2.55c0-1.37,0.43-2.42,1.28-3.15c0.85-0.73,1.98-1.09,3.38-1.09
			c0.97,0,1.73,0.13,2.29,0.4c0.56,0.27,0.98,0.6,1.27,1c0.29,0.4,0.47,0.83,0.56,1.28s0.13,0.88,0.13,1.27v0.34h-2.39v-0.32
			c0-0.69-0.16-1.22-0.48-1.6c-0.32-0.38-0.86-0.57-1.62-0.57c-0.25,0-0.5,0.04-0.75,0.12s-0.46,0.2-0.65,0.37s-0.34,0.39-0.45,0.66
			c-0.11,0.27-0.17,0.61-0.17,1.02c0,0.64,0.17,1.15,0.52,1.52c0.35,0.37,0.92,0.71,1.72,1.02l1.62,0.59
			c1.06,0.38,1.84,0.88,2.32,1.49c0.48,0.62,0.72,1.44,0.72,2.48c0,0.8-0.12,1.48-0.35,2.05c-0.23,0.57-0.56,1.04-1,1.41
			s-0.96,0.64-1.56,0.81c-0.61,0.17-1.29,0.25-2.05,0.25c-0.92,0-1.68-0.14-2.28-0.42c-0.6-0.28-1.06-0.64-1.4-1.08
			c-0.34-0.44-0.57-0.93-0.69-1.48c-0.13-0.55-0.19-1.08-0.19-1.6v-0.36H499.48z"/>
	</g>
</g>
<g id="Radio">
	<rect x="120" y="426.85" width="71.49" height="34.04"/>
	<rect x="115" y="421.85" class="plan010" width="71.49" height="34.04"/>
	<g>
		<path d="M127.78,431.39h5.29c0.53,0,1.03,0.07,1.48,0.21c0.45,0.14,0.86,0.36,1.21,0.67c0.35,0.31,0.62,0.71,0.82,1.2
			c0.2,0.49,0.29,1.08,0.29,1.79c0,0.97-0.21,1.79-0.63,2.47c-0.42,0.68-1.04,1.08-1.87,1.21v0.04c0.76,0.07,1.33,0.34,1.71,0.8
			c0.38,0.46,0.6,1.22,0.64,2.27c0.01,0.49,0.02,1.01,0.03,1.55c0.01,0.55,0.02,1.04,0.05,1.49c0.03,0.36,0.12,0.64,0.26,0.84
			c0.15,0.2,0.3,0.35,0.45,0.46h-2.71c-0.11-0.14-0.2-0.32-0.26-0.55s-0.11-0.48-0.14-0.78c-0.04-0.45-0.06-0.9-0.06-1.34
			s-0.01-0.95-0.04-1.49c-0.03-0.83-0.19-1.42-0.49-1.79c-0.3-0.37-0.86-0.56-1.69-0.56h-1.95v6.51h-2.39V431.39z M132.09,438.07
			c0.77,0,1.36-0.22,1.77-0.65s0.62-1.03,0.62-1.79c0-0.8-0.18-1.4-0.54-1.82s-0.93-0.62-1.73-0.62h-2.04v4.87H132.09z"/>
		<path d="M141.89,431.39h3.07l3.95,14.99h-2.5l-0.92-3.67h-4.39l-0.97,3.67h-2.5L141.89,431.39z M145.09,440.8l-1.72-7.39h-0.04
			l-1.79,7.39H145.09z"/>
		<path d="M149.96,431.39h4.26c1.18,0,2.11,0.18,2.81,0.55c0.7,0.36,1.23,0.88,1.6,1.54c0.36,0.67,0.6,1.46,0.71,2.37
			c0.11,0.92,0.17,1.93,0.17,3.03c0,1.11-0.06,2.12-0.17,3.03c-0.11,0.92-0.35,1.71-0.71,2.37c-0.36,0.67-0.9,1.18-1.6,1.54
			s-1.64,0.55-2.81,0.55h-4.26V431.39z M152.35,444.58h1.97c0.49,0,0.91-0.09,1.27-0.27c0.36-0.18,0.65-0.49,0.87-0.92
			c0.22-0.43,0.39-1.02,0.49-1.75c0.1-0.73,0.16-1.65,0.16-2.74c0-1.05-0.05-1.94-0.15-2.67c-0.1-0.73-0.26-1.32-0.47-1.76
			c-0.22-0.45-0.5-0.77-0.86-0.97c-0.36-0.2-0.79-0.29-1.31-0.29h-1.97V444.58z"/>
		<path d="M161.53,431.39h2.39v14.99h-2.39V431.39z"/>
		<path d="M170.89,446.68c-1.72,0-2.98-0.63-3.77-1.89c-0.79-1.26-1.19-3.23-1.19-5.9s0.4-4.64,1.19-5.9
			c0.79-1.26,2.05-1.89,3.77-1.89c1.72,0,2.98,0.63,3.77,1.89c0.79,1.26,1.19,3.23,1.19,5.9s-0.4,4.64-1.19,5.9
			C173.87,446.05,172.62,446.68,170.89,446.68z M170.89,444.87c0.36,0,0.7-0.07,1.01-0.22c0.31-0.15,0.58-0.44,0.81-0.87
			c0.23-0.43,0.41-1.05,0.55-1.84c0.13-0.79,0.2-1.83,0.2-3.12c0-1.26-0.07-2.28-0.2-3.06c-0.13-0.78-0.31-1.38-0.55-1.8
			c-0.23-0.42-0.5-0.7-0.81-0.85c-0.31-0.15-0.64-0.22-1.01-0.22c-0.35,0-0.68,0.07-1,0.22c-0.31,0.15-0.59,0.43-0.82,0.85
			s-0.41,1.02-0.55,1.8c-0.13,0.78-0.2,1.79-0.2,3.06c0,1.29,0.07,2.33,0.2,3.12c0.13,0.79,0.31,1.4,0.55,1.84
			c0.23,0.43,0.5,0.72,0.82,0.87C170.21,444.8,170.54,444.87,170.89,444.87z"/>
	</g>
</g>
<g id="Kitchen">
	<rect x="494.74" y="754.8" width="91.5" height="34.04"/>
	<rect x="489.73" y="749.79" class="plan010" width="91.5" height="34.04"/>
	<g>
		<path d="M502.71,759.33h2.39v6.53h0.04l4.54-6.53h2.62l-4.33,6.32l4.79,8.67h-2.71l-3.63-6.74l-1.32,1.89v4.85h-2.39V759.33z"/>
		<path d="M513.5,759.33h2.39v14.99h-2.39V759.33z"/>
		<path d="M520.73,761.35h-3.57v-2.02h9.47v2.02h-3.51v12.98h-2.39V761.35z"/>
		<path d="M537.21,768.95v0.32c0,0.67-0.07,1.33-0.22,1.97s-0.4,1.22-0.76,1.72s-0.83,0.91-1.43,1.21c-0.6,0.3-1.33,0.45-2.22,0.45
			c-0.94,0-1.73-0.15-2.36-0.46c-0.64-0.31-1.15-0.78-1.53-1.43c-0.39-0.64-0.66-1.45-0.82-2.43c-0.16-0.97-0.24-2.13-0.24-3.48
			s0.08-2.5,0.24-3.48c0.16-0.97,0.43-1.78,0.82-2.43c0.38-0.64,0.9-1.12,1.53-1.43c0.64-0.31,1.43-0.46,2.38-0.46
			c1.06,0,1.9,0.17,2.5,0.51s1.05,0.76,1.35,1.25c0.3,0.49,0.49,1,0.56,1.54c0.07,0.54,0.1,1,0.1,1.4v0.27h-2.39v-0.25
			c0-0.35-0.03-0.7-0.09-1.05c-0.06-0.35-0.18-0.67-0.34-0.96s-0.38-0.51-0.65-0.68s-0.63-0.25-1.06-0.23
			c-0.43,0-0.81,0.08-1.13,0.24c-0.32,0.16-0.59,0.46-0.8,0.9c-0.21,0.44-0.37,1.05-0.47,1.82c-0.1,0.77-0.16,1.76-0.16,2.96
			s0.05,2.2,0.16,2.98s0.26,1.4,0.47,1.86c0.21,0.46,0.48,0.77,0.8,0.95c0.32,0.17,0.7,0.26,1.13,0.26c0.5,0,0.9-0.12,1.2-0.37
			c0.29-0.24,0.52-0.55,0.67-0.91c0.15-0.36,0.25-0.76,0.29-1.18s0.06-0.8,0.06-1.16v-0.25H537.21z"/>
		<path d="M538.89,759.33h2.39v6.01h4.41v-6.01h2.39v14.99h-2.39v-6.97h-4.41v6.97h-2.39V759.33z"/>
		<path d="M550.57,759.33h8.11v2.02h-5.71v4.16h5.38v2.02h-5.38v4.79h5.88v2.02h-8.27V759.33z"/>
		<path d="M560.67,759.33h2.92l4.35,11.17h0.04v-11.17h2.27v14.99h-2.92l-4.35-11.47h-0.04v11.47h-2.27V759.33z"/>
	</g>
</g>
<g id="Phonograph">
	<rect x="120" y="374.76" width="131.53" height="34.04"/>
	<rect x="115" y="369.75" class="plan010" width="131.53" height="34.04"/>
	<g>
		<path d="M124.97,379.3h4.75c0.71,0,1.33,0.11,1.86,0.33c0.53,0.22,0.96,0.52,1.29,0.9c0.34,0.39,0.58,0.84,0.75,1.38
			s0.24,1.12,0.24,1.76c0,1.36-0.38,2.44-1.13,3.23c-0.76,0.8-1.84,1.2-3.25,1.2h-2.1v6.2h-2.39V379.3z M127.36,386.29h1.7
			c0.32,0,0.63-0.04,0.91-0.14c0.29-0.09,0.54-0.24,0.77-0.44c0.22-0.2,0.4-0.47,0.52-0.8c0.13-0.33,0.19-0.73,0.19-1.21
			c0-0.81-0.19-1.45-0.56-1.91s-1.04-0.69-2.01-0.69h-1.53V386.29z"/>
		<path d="M135.47,379.3h2.39v6.01h4.41v-6.01h2.39v14.99h-2.39v-6.97h-4.41v6.97h-2.39V379.3z"/>
		<path d="M151.74,394.58c-1.72,0-2.98-0.63-3.77-1.89c-0.79-1.26-1.19-3.23-1.19-5.9s0.4-4.64,1.19-5.9
			c0.79-1.26,2.05-1.89,3.77-1.89c1.72,0,2.98,0.63,3.77,1.89c0.79,1.26,1.19,3.23,1.19,5.9s-0.4,4.64-1.19,5.9
			C154.72,393.95,153.47,394.58,151.74,394.58z M151.74,392.78c0.36,0,0.7-0.07,1.01-0.22c0.31-0.15,0.58-0.44,0.81-0.87
			c0.23-0.43,0.41-1.05,0.55-1.84c0.13-0.79,0.2-1.83,0.2-3.12c0-1.26-0.07-2.28-0.2-3.06c-0.13-0.78-0.31-1.38-0.55-1.8
			c-0.23-0.42-0.5-0.7-0.81-0.85c-0.31-0.15-0.64-0.22-1.01-0.22c-0.35,0-0.68,0.07-1,0.22c-0.31,0.15-0.59,0.43-0.82,0.85
			s-0.41,1.02-0.55,1.8c-0.13,0.78-0.2,1.79-0.2,3.06c0,1.29,0.07,2.33,0.2,3.12c0.13,0.79,0.31,1.4,0.55,1.84
			c0.23,0.43,0.5,0.72,0.82,0.87C151.06,392.7,151.39,392.78,151.74,392.78z"/>
		<path d="M158.82,379.3h2.92l4.35,11.17h0.04V379.3h2.27v14.99h-2.92l-4.35-11.47h-0.04v11.47h-2.27V379.3z"/>
		<path d="M175.47,394.58c-1.72,0-2.98-0.63-3.77-1.89c-0.79-1.26-1.19-3.23-1.19-5.9s0.4-4.64,1.19-5.9
			c0.79-1.26,2.05-1.89,3.77-1.89c1.72,0,2.98,0.63,3.77,1.89c0.79,1.26,1.19,3.23,1.19,5.9s-0.4,4.64-1.19,5.9
			C178.45,393.95,177.2,394.58,175.47,394.58z M175.47,392.78c0.36,0,0.7-0.07,1.01-0.22c0.31-0.15,0.58-0.44,0.81-0.87
			c0.23-0.43,0.41-1.05,0.55-1.84c0.13-0.79,0.2-1.83,0.2-3.12c0-1.26-0.07-2.28-0.2-3.06c-0.13-0.78-0.31-1.38-0.55-1.8
			c-0.23-0.42-0.5-0.7-0.81-0.85c-0.31-0.15-0.64-0.22-1.01-0.22c-0.35,0-0.68,0.07-1,0.22c-0.31,0.15-0.59,0.43-0.82,0.85
			s-0.41,1.02-0.55,1.8c-0.13,0.78-0.2,1.79-0.2,3.06c0,1.29,0.07,2.33,0.2,3.12c0.13,0.79,0.31,1.4,0.55,1.84
			c0.23,0.43,0.5,0.72,0.82,0.87C174.79,392.7,175.12,392.78,175.47,392.78z"/>
		<path d="M189.96,392.55h-0.04c-0.32,0.7-0.73,1.21-1.22,1.54c-0.49,0.33-1.18,0.49-2.06,0.49c-0.81,0-1.5-0.15-2.07-0.46
			s-1.03-0.78-1.39-1.43c-0.36-0.64-0.61-1.45-0.77-2.43c-0.15-0.97-0.23-2.13-0.23-3.48c0-2.67,0.4-4.64,1.19-5.9
			c0.79-1.26,2.05-1.89,3.79-1.89c0.94,0,1.69,0.16,2.27,0.48c0.57,0.32,1.02,0.71,1.33,1.17s0.52,0.93,0.63,1.43
			c0.1,0.5,0.16,0.91,0.16,1.25v0.27h-2.27v-0.36c0-0.28-0.03-0.56-0.09-0.85c-0.06-0.29-0.18-0.55-0.34-0.79s-0.38-0.43-0.65-0.58
			c-0.27-0.15-0.61-0.22-1.02-0.22c-0.42,0-0.79,0.08-1.12,0.25c-0.33,0.17-0.6,0.47-0.82,0.91c-0.22,0.44-0.38,1.04-0.49,1.81
			c-0.11,0.76-0.17,1.75-0.17,2.95s0.05,2.2,0.15,2.98s0.25,1.4,0.45,1.86c0.2,0.46,0.45,0.77,0.76,0.95
			c0.3,0.17,0.65,0.26,1.06,0.26c0.91,0.01,1.55-0.34,1.93-1.05c0.38-0.71,0.57-1.89,0.57-3.53h-2.52v-1.81h4.79v7.9h-1.81V392.55z"
			/>
		<path d="M193.83,379.3h5.29c0.53,0,1.03,0.07,1.48,0.21c0.45,0.14,0.86,0.36,1.21,0.67c0.35,0.31,0.62,0.71,0.82,1.2
			c0.2,0.49,0.29,1.08,0.29,1.79c0,0.97-0.21,1.79-0.63,2.47c-0.42,0.68-1.04,1.08-1.87,1.21v0.04c0.76,0.07,1.33,0.34,1.71,0.8
			c0.38,0.46,0.6,1.22,0.64,2.27c0.01,0.49,0.02,1.01,0.03,1.55c0.01,0.55,0.02,1.04,0.05,1.49c0.03,0.36,0.12,0.64,0.26,0.84
			c0.15,0.2,0.3,0.35,0.45,0.46h-2.71c-0.11-0.14-0.2-0.32-0.26-0.55s-0.11-0.48-0.14-0.78c-0.04-0.45-0.06-0.9-0.06-1.34
			s-0.01-0.95-0.04-1.49c-0.03-0.83-0.19-1.42-0.49-1.79c-0.3-0.37-0.86-0.56-1.69-0.56h-1.95v6.51h-2.39V379.3z M198.13,385.97
			c0.77,0,1.36-0.22,1.77-0.65s0.62-1.03,0.62-1.79c0-0.8-0.18-1.4-0.54-1.82s-0.93-0.62-1.73-0.62h-2.04v4.87H198.13z"/>
		<path d="M207.94,379.3h3.07l3.95,14.99h-2.5l-0.92-3.67h-4.39l-0.97,3.67h-2.5L207.94,379.3z M211.13,388.7l-1.72-7.39h-0.04
			l-1.79,7.39H211.13z"/>
		<path d="M216,379.3h4.75c0.71,0,1.33,0.11,1.86,0.33c0.53,0.22,0.96,0.52,1.29,0.9c0.34,0.39,0.58,0.84,0.75,1.38
			s0.24,1.12,0.24,1.76c0,1.36-0.38,2.44-1.13,3.23c-0.76,0.8-1.84,1.2-3.25,1.2h-2.1v6.2H216V379.3z M218.4,386.29h1.7
			c0.32,0,0.63-0.04,0.91-0.14c0.29-0.09,0.54-0.24,0.77-0.44c0.22-0.2,0.4-0.47,0.52-0.8c0.13-0.33,0.19-0.73,0.19-1.21
			c0-0.81-0.19-1.45-0.56-1.91s-1.04-0.69-2.01-0.69h-1.53V386.29z"/>
		<path d="M226.5,379.3h2.39v6.01h4.41v-6.01h2.39v14.99h-2.39v-6.97h-4.41v6.97h-2.39V379.3z"/>
	</g>
</g>
<g id="Ham_Radio_00000061470616773480133760000008193725650568408459_">
	<rect x="577.77" y="590.83" width="111.52" height="34.04"/>
	<rect x="572.77" y="585.83" class="plan010" width="111.52" height="34.04"/>
	<g>
		<path d="M582.7,595.37h2.39v6.01h4.41v-6.01h2.39v14.99h-2.39v-6.97h-4.41v6.97h-2.39V595.37z"/>
		<path d="M597.21,595.37h3.07l3.95,14.99h-2.5l-0.92-3.67h-4.39l-0.97,3.67h-2.5L597.21,595.37z M600.41,604.78l-1.72-7.39h-0.04
			l-1.79,7.39H600.41z"/>
		<path d="M605.28,595.37h3.74l2.65,11.11h0.04l2.6-11.11h3.65v14.99h-2.27v-12.47h-0.04l-3.02,12.47h-2.02l-3.02-12.47h-0.04v12.47
			h-2.27V595.37z"/>
		<path d="M625.48,595.37h5.29c0.53,0,1.03,0.07,1.48,0.21c0.46,0.14,0.86,0.36,1.21,0.67c0.35,0.31,0.62,0.71,0.82,1.2
			s0.29,1.08,0.29,1.79c0,0.97-0.21,1.79-0.63,2.47c-0.42,0.68-1.04,1.08-1.87,1.21v0.04c0.76,0.07,1.33,0.34,1.71,0.8
			c0.38,0.46,0.6,1.22,0.64,2.27c0.01,0.49,0.02,1.01,0.03,1.55s0.02,1.04,0.05,1.49c0.03,0.36,0.12,0.64,0.26,0.84
			c0.15,0.2,0.3,0.35,0.45,0.46h-2.71c-0.11-0.14-0.2-0.32-0.26-0.55c-0.06-0.22-0.11-0.48-0.14-0.78c-0.04-0.45-0.06-0.9-0.06-1.34
			s-0.01-0.95-0.04-1.49c-0.03-0.83-0.19-1.42-0.49-1.79s-0.86-0.56-1.69-0.56h-1.95v6.51h-2.39V595.37z M629.78,602.05
			c0.77,0,1.36-0.22,1.77-0.65s0.62-1.03,0.62-1.79c0-0.8-0.18-1.4-0.54-1.82c-0.36-0.41-0.93-0.62-1.73-0.62h-2.04v4.87H629.78z"/>
		<path d="M639.59,595.37h3.07l3.95,14.99h-2.5l-0.92-3.67h-4.39l-0.97,3.67h-2.5L639.59,595.37z M642.78,604.78l-1.72-7.39h-0.04
			l-1.79,7.39H642.78z"/>
		<path d="M647.65,595.37h4.26c1.18,0,2.11,0.18,2.81,0.55c0.7,0.36,1.23,0.88,1.6,1.54s0.6,1.46,0.71,2.37s0.17,1.93,0.17,3.03
			c0,1.11-0.06,2.12-0.17,3.03c-0.11,0.92-0.35,1.71-0.71,2.37c-0.36,0.67-0.9,1.18-1.6,1.54s-1.64,0.55-2.81,0.55h-4.26V595.37z
			 M650.05,608.56h1.97c0.49,0,0.91-0.09,1.27-0.27c0.36-0.18,0.65-0.49,0.87-0.92s0.39-1.02,0.49-1.75
			c0.1-0.73,0.16-1.65,0.16-2.74c0-1.05-0.05-1.94-0.15-2.67c-0.1-0.73-0.25-1.32-0.47-1.76c-0.22-0.45-0.5-0.77-0.86-0.97
			c-0.36-0.2-0.79-0.29-1.31-0.29h-1.97V608.56z"/>
		<path d="M659.22,595.37h2.39v14.99h-2.39V595.37z"/>
		<path d="M668.59,610.66c-1.72,0-2.98-0.63-3.77-1.89c-0.79-1.26-1.19-3.23-1.19-5.9s0.4-4.64,1.19-5.9
			c0.79-1.26,2.05-1.89,3.77-1.89s2.98,0.63,3.77,1.89c0.79,1.26,1.19,3.23,1.19,5.9s-0.4,4.64-1.19,5.9
			C671.57,610.03,670.31,610.66,668.59,610.66z M668.59,608.85c0.36,0,0.7-0.07,1.01-0.22c0.31-0.15,0.58-0.44,0.81-0.87
			c0.23-0.43,0.41-1.05,0.55-1.84s0.2-1.83,0.2-3.12c0-1.26-0.07-2.28-0.2-3.06c-0.13-0.78-0.31-1.38-0.55-1.8s-0.5-0.7-0.81-0.85
			c-0.31-0.15-0.64-0.22-1.01-0.22c-0.35,0-0.68,0.07-1,0.22c-0.31,0.15-0.59,0.43-0.82,0.85c-0.23,0.42-0.41,1.02-0.55,1.8
			c-0.13,0.78-0.2,1.79-0.2,3.06c0,1.29,0.07,2.33,0.2,3.12c0.13,0.79,0.31,1.4,0.55,1.84c0.23,0.43,0.5,0.72,0.82,0.87
			C667.91,608.78,668.24,608.85,668.59,608.85z"/>
	</g>
</g>
<g id="What_x2019_s_Next_x3F_">
	<rect x="577.77" y="543.71" width="136.54" height="34.04"/>
	<rect x="572.77" y="538.7" class="plan010" width="136.54" height="34.04"/>
	<g>
		<path d="M581.59,548.24H584l1.97,11.66h0.04l1.97-11.66h2.52l2.02,11.72h0.04l1.95-11.72h2.37l-2.98,14.99h-2.77l-1.93-11.3h-0.04
			l-1.91,11.3h-2.77L581.59,548.24z"/>
		<path d="M598.26,548.24h2.39v6.01h4.41v-6.01h2.39v14.99h-2.39v-6.97h-4.41v6.97h-2.39V548.24z"/>
		<path d="M612.77,548.24h3.07l3.95,14.99h-2.5l-0.92-3.67h-4.39l-0.97,3.67h-2.5L612.77,548.24z M615.97,557.65l-1.72-7.39h-0.04
			l-1.79,7.39H615.97z"/>
		<path d="M623.29,550.26h-3.57v-2.02h9.47v2.02h-3.51v12.98h-2.39V550.26z"/>
		<path d="M630.65,548.24h2.39v2.77c0,0.83-0.17,1.53-0.5,2.1s-0.97,0.95-1.89,1.13v-1.22c0.32-0.08,0.58-0.27,0.77-0.57
			c0.19-0.29,0.28-0.67,0.28-1.13v-0.31h-1.05V548.24z"/>
		<path d="M637.45,558.6v0.38c0,1.83,0.82,2.75,2.46,2.75c0.38,0,0.71-0.06,1-0.19c0.29-0.13,0.52-0.29,0.71-0.49
			c0.19-0.2,0.33-0.43,0.42-0.69c0.09-0.26,0.14-0.53,0.14-0.81c0-0.8-0.19-1.39-0.57-1.79c-0.38-0.39-0.9-0.69-1.58-0.88
			l-1.64-0.57c-1.09-0.42-1.89-0.94-2.38-1.56s-0.75-1.47-0.75-2.55c0-1.37,0.43-2.42,1.28-3.15c0.85-0.73,1.98-1.09,3.38-1.09
			c0.97,0,1.73,0.13,2.29,0.4c0.56,0.27,0.98,0.6,1.27,1c0.29,0.4,0.47,0.83,0.56,1.28s0.13,0.88,0.13,1.27v0.34h-2.39v-0.32
			c0-0.69-0.16-1.22-0.48-1.6c-0.32-0.38-0.86-0.57-1.62-0.57c-0.25,0-0.5,0.04-0.75,0.12s-0.46,0.2-0.65,0.37
			c-0.19,0.17-0.34,0.39-0.45,0.66c-0.11,0.27-0.17,0.61-0.17,1.02c0,0.64,0.17,1.15,0.53,1.52c0.35,0.37,0.92,0.71,1.72,1.02
			l1.62,0.59c1.06,0.38,1.84,0.88,2.32,1.49c0.48,0.62,0.72,1.44,0.72,2.48c0,0.8-0.12,1.48-0.35,2.05c-0.23,0.57-0.56,1.04-1,1.41
			c-0.43,0.37-0.96,0.64-1.56,0.81s-1.29,0.25-2.05,0.25c-0.92,0-1.68-0.14-2.28-0.42s-1.06-0.64-1.4-1.08
			c-0.34-0.44-0.57-0.93-0.69-1.48c-0.13-0.55-0.19-1.08-0.19-1.6v-0.36H637.45z"/>
		<path d="M651.54,548.24h2.92l4.35,11.17h0.04v-11.17h2.27v14.99h-2.92l-4.35-11.47h-0.04v11.47h-2.27V548.24z"/>
		<path d="M663.59,548.24h8.11v2.02h-5.71v4.16h5.38v2.02h-5.38v4.79h5.88v2.02h-8.27V548.24z"/>
		<path d="M676.4,555.62l-3.61-7.37h2.65l2.39,4.98l2.35-4.98h2.58l-3.63,7.37l3.82,7.62h-2.65l-2.6-5.42l-2.67,5.42h-2.58
			L676.4,555.62z"/>
		<path d="M686.65,550.26h-3.57v-2.02h9.47v2.02h-3.51v12.98h-2.39V550.26z"/>
		<path d="M696.23,557.95c0-0.5,0.07-0.93,0.22-1.28c0.15-0.35,0.34-0.66,0.57-0.93c0.23-0.27,0.48-0.53,0.74-0.77
			c0.26-0.24,0.5-0.49,0.74-0.77c0.23-0.27,0.42-0.58,0.57-0.93c0.15-0.35,0.22-0.78,0.22-1.28c0-0.29-0.03-0.57-0.08-0.84
			s-0.15-0.5-0.28-0.71c-0.13-0.21-0.31-0.38-0.53-0.49c-0.22-0.12-0.49-0.18-0.81-0.18c-0.71,0-1.21,0.27-1.48,0.82
			c-0.27,0.55-0.41,1.26-0.41,2.14h-2.27c0-0.66,0.07-1.28,0.22-1.86c0.15-0.58,0.38-1.09,0.71-1.52c0.33-0.43,0.76-0.77,1.28-1.02
			c0.53-0.24,1.17-0.37,1.92-0.37c1.32,0,2.33,0.35,3.04,1.04c0.71,0.69,1.07,1.69,1.07,2.99c0,0.59-0.08,1.11-0.24,1.55
			c-0.16,0.45-0.36,0.85-0.61,1.2c-0.25,0.35-0.51,0.67-0.8,0.95s-0.55,0.56-0.8,0.83s-0.45,0.55-0.61,0.84
			c-0.16,0.29-0.24,0.61-0.24,0.98v0.88h-2.14V557.95z M696.08,560.84h2.39v2.39h-2.39V560.84z"/>
	</g>
</g>
<g id="Gift_Shop">
	<rect x="524.76" y="642.87" width="103.51" height="34.04"/>
	<rect x="519.75" y="637.87" class="plan010" width="103.51" height="34.04"/>
	<g>
		<path d="M537.1,660.66h-0.04c-0.32,0.7-0.73,1.21-1.22,1.54c-0.49,0.33-1.18,0.49-2.06,0.49c-0.81,0-1.5-0.15-2.07-0.46
			s-1.03-0.78-1.39-1.43c-0.36-0.64-0.61-1.45-0.77-2.43c-0.15-0.97-0.23-2.13-0.23-3.48c0-2.67,0.4-4.64,1.19-5.9
			c0.79-1.26,2.05-1.89,3.79-1.89c0.94,0,1.69,0.16,2.27,0.48c0.57,0.32,1.02,0.71,1.33,1.17s0.52,0.93,0.63,1.43
			c0.1,0.5,0.16,0.91,0.16,1.25v0.27h-2.27v-0.36c0-0.28-0.03-0.56-0.09-0.85c-0.06-0.29-0.18-0.55-0.34-0.79s-0.38-0.43-0.65-0.58
			c-0.27-0.15-0.61-0.22-1.02-0.22c-0.42,0-0.79,0.08-1.12,0.25c-0.33,0.17-0.6,0.47-0.82,0.91c-0.22,0.44-0.38,1.04-0.49,1.81
			c-0.11,0.76-0.17,1.75-0.17,2.95s0.05,2.2,0.15,2.98s0.25,1.4,0.45,1.86c0.2,0.46,0.45,0.77,0.76,0.95
			c0.3,0.17,0.65,0.26,1.06,0.26c0.91,0.01,1.55-0.34,1.93-1.05c0.38-0.71,0.57-1.89,0.57-3.53h-2.52v-1.81h4.79v7.9h-1.81V660.66z"
			/>
		<path d="M540.86,647.41h2.39v14.99h-2.39V647.41z"/>
		<path d="M545.62,647.41h8v2.02h-5.61v4.16h5.27v2.02h-5.27v6.8h-2.39V647.41z"/>
		<path d="M557.8,649.42h-3.57v-2.02h9.47v2.02h-3.51v12.98h-2.39V649.42z"/>
		<path d="M571.96,657.76v0.38c0,1.83,0.82,2.75,2.46,2.75c0.38,0,0.71-0.06,1-0.19s0.53-0.29,0.71-0.49
			c0.19-0.2,0.33-0.43,0.42-0.69c0.09-0.26,0.14-0.53,0.14-0.81c0-0.8-0.19-1.39-0.57-1.79c-0.38-0.39-0.9-0.69-1.58-0.88
			l-1.64-0.57c-1.09-0.42-1.89-0.94-2.38-1.56s-0.75-1.47-0.75-2.55c0-1.37,0.43-2.42,1.28-3.15c0.85-0.73,1.98-1.09,3.38-1.09
			c0.97,0,1.73,0.13,2.29,0.4s0.98,0.6,1.27,1c0.29,0.4,0.47,0.83,0.56,1.28s0.13,0.88,0.13,1.27v0.34h-2.39v-0.32
			c0-0.69-0.16-1.22-0.48-1.6s-0.86-0.57-1.62-0.57c-0.25,0-0.5,0.04-0.75,0.12s-0.46,0.2-0.65,0.37c-0.19,0.17-0.34,0.39-0.45,0.66
			c-0.11,0.27-0.17,0.61-0.17,1.02c0,0.64,0.17,1.15,0.52,1.52c0.35,0.37,0.92,0.71,1.72,1.02l1.62,0.59
			c1.06,0.38,1.84,0.88,2.32,1.49c0.48,0.62,0.72,1.44,0.72,2.48c0,0.8-0.12,1.48-0.35,2.05c-0.23,0.57-0.56,1.04-1,1.41
			c-0.43,0.37-0.96,0.64-1.56,0.81c-0.61,0.17-1.29,0.25-2.05,0.25c-0.92,0-1.68-0.14-2.28-0.42c-0.6-0.28-1.06-0.64-1.4-1.08
			c-0.34-0.44-0.57-0.93-0.69-1.48c-0.13-0.55-0.19-1.08-0.19-1.6v-0.36H571.96z"/>
		<path d="M581.01,647.41h2.39v6.01h4.41v-6.01h2.39v14.99h-2.39v-6.97h-4.41v6.97h-2.39V647.41z"/>
		<path d="M597.28,662.7c-1.72,0-2.98-0.63-3.77-1.89c-0.79-1.26-1.19-3.23-1.19-5.9s0.4-4.64,1.19-5.9
			c0.79-1.26,2.05-1.89,3.77-1.89c1.72,0,2.98,0.63,3.77,1.89c0.79,1.26,1.19,3.23,1.19,5.9s-0.4,4.64-1.19,5.9
			C600.26,662.07,599,662.7,597.28,662.7z M597.28,660.89c0.36,0,0.7-0.07,1.01-0.22c0.31-0.15,0.58-0.44,0.81-0.87
			c0.23-0.43,0.41-1.05,0.55-1.84c0.13-0.79,0.2-1.83,0.2-3.12c0-1.26-0.07-2.28-0.2-3.06c-0.13-0.78-0.32-1.38-0.55-1.8
			c-0.23-0.42-0.5-0.7-0.81-0.85c-0.31-0.15-0.64-0.22-1.01-0.22c-0.35,0-0.68,0.07-1,0.22c-0.32,0.15-0.59,0.43-0.82,0.85
			c-0.23,0.42-0.41,1.02-0.55,1.8c-0.13,0.78-0.2,1.79-0.2,3.06c0,1.29,0.07,2.33,0.2,3.12s0.32,1.4,0.55,1.84
			c0.23,0.43,0.5,0.72,0.82,0.87C596.6,660.82,596.93,660.89,597.28,660.89z"/>
		<path d="M604.36,647.41h4.75c0.71,0,1.33,0.11,1.86,0.33c0.53,0.22,0.96,0.52,1.29,0.9c0.34,0.39,0.58,0.84,0.75,1.38
			s0.24,1.12,0.24,1.76c0,1.36-0.38,2.44-1.13,3.23c-0.76,0.8-1.84,1.2-3.25,1.2h-2.1v6.2h-2.39V647.41z M606.75,654.4h1.7
			c0.32,0,0.63-0.04,0.91-0.14c0.29-0.09,0.54-0.24,0.77-0.44c0.22-0.2,0.4-0.47,0.52-0.8c0.13-0.33,0.19-0.73,0.19-1.21
			c0-0.81-0.19-1.45-0.56-1.91s-1.04-0.69-2.01-0.69h-1.53V654.4z"/>
	</g>
</g>
<g id="psuedo_page">
	<rect id="page_bounding_box__x28_for_SVG_x29_" class="plan011" width="1080" height="1080"/>
</g>
</svg>
