<?xml version="1.0" encoding="utf-8"?>
<!-- Generator: Adobe Illustrator 26.5.0, SVG Export Plug-In . SVG Version: 6.00 Build 0)  -->
<svg version="1.1" id="Coming_Soon_00000047740403752344284560000004265664309172482473_"
	 xmlns="http://www.w3.org/2000/svg" xmlns:xlink="http://www.w3.org/1999/xlink" x="0px" y="0px" viewBox="0 0 1080 1080"
	 style="enable-background:new 0 0 1080 1080;" xml:space="preserve">
<style type="text/css">
	.st0{fill:none;}
	.st1{fill:#FFFFFF;}
</style>
<rect class="st0" width="1080" height="1080"/>
<g id="Comiong_Soon">
	<path class="st1" d="M126.51,736.71c-4.29,4.22-8.68,7.47-13.05,9.67c-4.22,2.13-9.34,3.21-15.22,3.21c-4.84,0-9.38-0.95-13.5-2.82
		c-4.15-1.88-7.79-4.49-10.82-7.75c-3.05-3.28-5.5-7.21-7.29-11.67c-1.78-4.45-2.68-9.31-2.68-14.45v-0.25
		c0-5.14,0.88-9.98,2.63-14.4c1.74-4.42,4.17-8.32,7.22-11.6c3.02-3.25,6.66-5.84,10.8-7.68c4.13-1.83,8.68-2.76,13.52-2.76
		c6.11,0,11.33,1.13,15.54,3.37c4.4,2.34,8.48,5.29,12.12,8.78l2.15,2.05l8.88-9.12l-2.26-2.09c-2.35-2.17-4.8-4.18-7.28-5.97
		c-2.54-1.82-5.29-3.43-8.18-4.76c-2.92-1.35-6.12-2.39-9.52-3.11c-3.38-0.71-7.19-1.07-11.33-1.07c-6.78,0-13.13,1.3-18.86,3.85
		c-5.72,2.54-10.73,6.08-14.89,10.51c-4.15,4.42-7.44,9.63-9.79,15.49c-2.36,5.87-3.56,12.18-3.56,18.76v0.25
		c0,6.66,1.2,13.01,3.55,18.88c2.36,5.88,5.66,11.05,9.82,15.39c4.16,4.34,9.15,7.81,14.82,10.31c5.69,2.51,11.97,3.78,18.66,3.78
		c4.16,0,8.01-0.41,11.46-1.21c3.43-0.8,6.69-1.93,9.68-3.36c2.98-1.42,5.83-3.16,8.47-5.17c2.56-1.96,5.09-4.13,7.51-6.46
		l2.23-2.15l-8.74-8.49L126.51,736.71z"/>
	<path class="st1" d="M234.23,694.31c-2.23-5.79-5.44-10.97-9.55-15.39c-4.12-4.43-9.12-8.01-14.87-10.64
		c-5.79-2.65-12.33-3.99-19.45-3.99c-7.03,0-13.57,1.34-19.44,3.98c-5.85,2.63-10.9,6.24-15.03,10.72c-4.1,4.46-7.33,9.67-9.6,15.5
		c-2.27,5.82-3.42,12.02-3.42,18.41v0.25c0,6.39,1.13,12.56,3.35,18.34c2.23,5.79,5.44,10.97,9.55,15.39
		c4.12,4.43,9.15,8.01,14.94,10.64c5.83,2.64,12.35,3.98,19.38,3.98c7.12,0,13.68-1.34,19.51-3.98c5.8-2.63,10.83-6.24,14.96-10.72
		c4.1-4.46,7.33-9.67,9.6-15.5c2.21-5.67,3.35-11.68,3.42-17.89c0.09-0.42,0.09-0.86,0-1.29
		C237.52,705.93,236.39,699.94,234.23,694.31z M165.52,738.89c-3.04-3.27-5.47-7.19-7.22-11.65c-1.74-4.46-2.63-9.28-2.63-14.34
		v-0.25c0-5.07,0.86-9.87,2.57-14.29c1.7-4.4,4.1-8.3,7.15-11.57c3.03-3.26,6.69-5.86,10.88-7.75c4.17-1.87,8.82-2.82,13.83-2.82
		c5,0,9.67,0.97,13.88,2.88c4.23,1.93,7.92,4.56,10.95,7.82c3.05,3.28,5.47,7.2,7.22,11.65c1.74,4.46,2.63,9.29,2.63,14.34v0.25
		c0,5.06-0.87,9.87-2.57,14.29c-1.7,4.41-4.11,8.3-7.15,11.58c-3.03,3.26-6.69,5.87-10.88,7.75c-4.16,1.87-8.82,2.82-13.83,2.82
		c-5,0-9.67-0.97-13.88-2.88C172.24,744.78,168.56,742.15,165.52,738.89z"/>
	<polygon class="st1" points="297.2,715.62 263.39,665.8 252.62,665.8 252.62,760 264.92,760 264.92,690.05 295.25,734.17 
		298.91,734.17 329.23,690.05 329.23,760 341.78,760 341.78,665.8 331.02,665.8 	"/>
	<rect x="361.61" y="665.8" class="st1" width="12.55" height="94.2"/>
	<polygon class="st1" points="461.03,736.92 404.62,665.8 393.99,665.8 393.99,760 406.29,760 406.29,687.24 463.96,760 473.33,760 
		473.33,665.8 461.03,665.8 	"/>
	<path class="st1" d="M531.59,720.31h29.48v20.79c-2.78,2.12-6.26,4.04-10.35,5.69c-4.57,1.85-9.54,2.79-14.75,2.79
		c-5.44,0-10.36-0.93-14.62-2.77c-4.26-1.84-7.92-4.39-10.9-7.59c-2.98-3.21-5.29-7.09-6.87-11.54c-1.6-4.52-2.41-9.51-2.41-14.85
		v-0.25c0-4.9,0.85-9.62,2.52-14.04c1.67-4.42,4-8.34,6.94-11.65c2.91-3.28,6.44-5.92,10.5-7.83c4.03-1.9,8.56-2.86,13.46-2.86
		c6.25,0,11.42,0.92,15.38,2.75c4.08,1.89,7.78,4.27,11,7.09l2.26,1.99l8.26-9.48l-2.33-1.97c-4.59-3.88-9.57-6.93-14.79-9.06
		c-5.29-2.15-11.82-3.24-19.4-3.24c-6.97,0-13.41,1.37-19.17,4.06c-5.71,2.68-10.67,6.3-14.74,10.78
		c-4.06,4.46-7.23,9.69-9.41,15.52c-2.17,5.81-3.28,11.95-3.28,18.25v0.25c0,6.54,1.08,12.8,3.21,18.61
		c2.14,5.85,5.27,11.04,9.3,15.42c4.05,4.41,9.07,7.93,14.94,10.49c5.85,2.55,12.55,3.84,19.91,3.84c7.61,0,14.66-1.42,20.94-4.22
		c6.17-2.75,11.44-6.02,15.68-9.72l1.03-0.9v-38.29h-41.79V720.31z"/>
	<path class="st1" d="M683.56,716.21c-4.97-4.19-12.66-7.3-23.49-9.53c-5.03-1.05-9.2-2.2-12.41-3.4c-3.04-1.14-5.4-2.39-7.02-3.73
		c-1.47-1.21-2.48-2.52-3-3.91c-0.58-1.54-0.88-3.32-0.88-5.3v-0.25c0-1.81,0.39-3.48,1.2-5.08c0.82-1.64,1.98-3.04,3.54-4.29
		c1.6-1.28,3.58-2.32,5.88-3.09c2.33-0.78,5-1.17,7.93-1.17c4.5,0,8.77,0.7,12.66,2.09c3.87,1.38,7.81,3.78,11.71,7.14l2.35,2.02
		l7.97-9.91l-2.32-1.88c-4.68-3.79-9.53-6.67-14.43-8.54c-4.94-1.89-10.9-2.84-17.7-2.84c-4.43,0-8.57,0.65-12.31,1.92
		c-3.78,1.29-7.1,3.12-9.9,5.45c-2.82,2.35-5.07,5.15-6.68,8.32c-1.64,3.22-2.47,6.75-2.47,10.49v0.25c0,7.54,2.69,13.61,8,18.05
		c5.05,4.23,12.94,7.4,24.14,9.71c4.84,0.97,8.83,2.05,11.87,3.2c2.89,1.1,5.18,2.33,6.82,3.63c1.46,1.17,2.46,2.44,2.98,3.78
		c0.58,1.5,0.87,3.25,0.87,5.22v0.25c0,2.06-0.43,3.9-1.31,5.63c-0.89,1.75-2.15,3.29-3.74,4.57c-1.63,1.31-3.68,2.37-6.08,3.13
		c-2.47,0.78-5.21,1.18-8.16,1.18c-6.02,0-11.34-1-15.8-2.96c-4.55-2-9.2-5.15-13.8-9.36l-2.27-2.07l-8.24,9.45l2.18,1.98
		c5.53,5,11.33,8.77,17.25,11.2c5.96,2.45,12.79,3.69,20.29,3.69c4.58,0,8.86-0.64,12.72-1.91c3.9-1.29,7.32-3.12,10.16-5.44
		c2.88-2.36,5.18-5.26,6.84-8.62c1.67-3.39,2.51-7.12,2.51-11.09v-0.25C691.43,726.58,688.78,720.61,683.56,716.21z"/>
	<path class="st1" d="M793.16,694.31c-2.23-5.79-5.44-10.97-9.55-15.39c-4.12-4.43-9.12-8.01-14.87-10.64
		c-5.79-2.65-12.33-3.99-19.45-3.99c-7.03,0-13.57,1.34-19.44,3.98c-5.85,2.64-10.91,6.24-15.02,10.72c-4.1,4.46-7.33,9.67-9.6,15.5
		c-2.27,5.82-3.42,12.02-3.42,18.41v0.25c0,6.39,1.13,12.56,3.35,18.34c2.23,5.79,5.44,10.97,9.55,15.39
		c4.12,4.43,9.15,8.02,14.95,10.64c5.83,2.64,12.35,3.98,19.38,3.98c7.11,0,13.68-1.34,19.51-3.98c5.8-2.63,10.83-6.24,14.95-10.72
		c4.1-4.46,7.33-9.67,9.6-15.5c2.21-5.67,3.36-11.69,3.42-17.91c0.08-0.41,0.08-0.84,0-1.25
		C796.46,705.94,795.33,699.94,793.16,694.31z M724.46,738.89c-3.05-3.27-5.47-7.19-7.22-11.65c-1.74-4.46-2.63-9.28-2.63-14.34
		v-0.25c0-5.06,0.87-9.87,2.57-14.29c1.7-4.4,4.1-8.3,7.15-11.57c3.03-3.26,6.69-5.86,10.88-7.75c4.17-1.87,8.82-2.82,13.83-2.82
		c5,0,9.67,0.97,13.88,2.88c4.23,1.93,7.92,4.56,10.95,7.82c3.05,3.28,5.47,7.2,7.22,11.65c1.74,4.46,2.63,9.28,2.63,14.34v0.25
		c0,5.06-0.87,9.87-2.57,14.29c-1.7,4.41-4.11,8.3-7.15,11.58c-3.03,3.26-6.69,5.87-10.88,7.75c-4.17,1.87-8.82,2.82-13.83,2.82
		c-5,0-9.67-0.97-13.88-2.88C731.17,744.78,727.49,742.15,724.46,738.89z"/>
	<path class="st1" d="M899,694.31c-2.23-5.79-5.44-10.97-9.55-15.39c-4.12-4.43-9.12-8.01-14.87-10.64
		c-5.79-2.65-12.33-3.99-19.45-3.99c-7.03,0-13.57,1.34-19.44,3.98c-5.85,2.64-10.91,6.24-15.02,10.72c-4.1,4.46-7.33,9.67-9.6,15.5
		c-2.27,5.82-3.42,12.02-3.42,18.41v0.25c0,6.39,1.13,12.56,3.35,18.34c2.23,5.79,5.44,10.97,9.55,15.39
		c4.12,4.43,9.15,8.02,14.95,10.64c5.83,2.64,12.35,3.98,19.38,3.98c7.11,0,13.68-1.34,19.51-3.98c5.8-2.63,10.83-6.24,14.95-10.72
		c4.1-4.46,7.33-9.67,9.6-15.5c2.21-5.67,3.36-11.69,3.42-17.91c0.08-0.41,0.08-0.84,0-1.25C902.3,705.94,901.17,699.94,899,694.31z
		 M830.3,738.89c-3.05-3.27-5.47-7.19-7.22-11.65c-1.74-4.46-2.63-9.28-2.63-14.34v-0.25c0-5.06,0.87-9.87,2.57-14.29
		c1.7-4.4,4.1-8.3,7.15-11.57c3.03-3.26,6.69-5.86,10.88-7.75c4.17-1.87,8.82-2.82,13.83-2.82c5,0,9.67,0.97,13.88,2.88
		c4.23,1.93,7.92,4.56,10.95,7.82c3.05,3.28,5.47,7.2,7.22,11.65c1.74,4.46,2.63,9.28,2.63,14.34v0.25c0,5.06-0.87,9.87-2.57,14.29
		c-1.7,4.41-4.11,8.3-7.15,11.58c-3.03,3.26-6.69,5.87-10.88,7.75c-4.17,1.87-8.82,2.82-13.83,2.82c-5,0-9.67-0.97-13.88-2.88
		C837.01,744.78,833.33,742.15,830.3,738.89z"/>
	<polygon class="st1" points="984.43,665.8 984.43,736.92 928.02,665.8 917.4,665.8 917.4,760 929.7,760 929.7,687.24 987.37,760 
		996.73,760 996.73,665.8 	"/>
</g>
<g id="Coming_Soon">
	<path d="M98,758.51c-6.3,0-12.12-1.18-17.45-3.53c-5.34-2.35-9.95-5.56-13.86-9.64c-3.91-4.07-6.97-8.88-9.2-14.43
		c-2.23-5.54-3.34-11.47-3.34-17.77v-0.25c0-6.21,1.11-12.1,3.34-17.64c2.22-5.54,5.29-10.39,9.2-14.55
		c3.91-4.16,8.55-7.43,13.92-9.83c5.37-2.39,11.26-3.59,17.64-3.59c3.95,0,7.52,0.34,10.71,1.01c3.19,0.67,6.15,1.64,8.88,2.9
		c2.73,1.26,5.29,2.75,7.69,4.47c2.39,1.72,4.72,3.63,6.99,5.73l-4.66,4.79c-3.86-3.7-8.13-6.78-12.79-9.26
		c-4.66-2.48-10.31-3.72-16.95-3.72c-5.29,0-10.21,1.01-14.74,3.02c-4.54,2.02-8.46,4.81-11.78,8.38
		c-3.32,3.57-5.92,7.75-7.81,12.54s-2.83,9.95-2.83,15.5v0.25c0,5.54,0.96,10.73,2.9,15.56c1.93,4.83,4.56,9.03,7.88,12.6
		c3.32,3.57,7.25,6.38,11.78,8.44c4.54,2.06,9.45,3.09,14.74,3.09c6.38,0,11.91-1.18,16.57-3.53c4.66-2.35,9.26-5.75,13.8-10.21
		l4.41,4.28c-2.35,2.27-4.77,4.35-7.25,6.24c-2.48,1.89-5.12,3.51-7.94,4.85c-2.82,1.34-5.84,2.39-9.07,3.15
		C105.53,758.13,101.94,758.51,98,758.51z"/>
	<path d="M190.1,758.51c-6.64,0-12.68-1.24-18.14-3.72c-5.46-2.48-10.12-5.8-13.99-9.95c-3.86-4.16-6.85-8.97-8.95-14.43
		c-2.1-5.46-3.15-11.21-3.15-17.26v-0.25c0-6.05,1.07-11.82,3.21-17.32c2.14-5.5,5.14-10.35,9.01-14.55
		c3.86-4.2,8.55-7.54,14.05-10.02c5.5-2.48,11.57-3.72,18.21-3.72c6.72,0,12.79,1.24,18.21,3.72c5.42,2.48,10.06,5.8,13.92,9.95
		c3.86,4.16,6.85,8.97,8.95,14.43c2.1,5.46,3.15,11.21,3.15,17.26c0.08,0.08,0.08,0.17,0,0.25c0,6.05-1.07,11.82-3.21,17.33
		c-2.14,5.5-5.15,10.35-9.01,14.55c-3.86,4.2-8.53,7.54-13.99,10.02C202.91,757.27,196.82,758.51,190.1,758.51z M190.35,752.59
		c5.46,0,10.48-1.03,15.06-3.09c4.58-2.06,8.52-4.87,11.84-8.44c3.32-3.57,5.9-7.75,7.75-12.54c1.85-4.79,2.77-9.91,2.77-15.37
		v-0.25c0-5.46-0.95-10.6-2.83-15.43c-1.89-4.83-4.49-9.03-7.81-12.6c-3.32-3.57-7.29-6.41-11.91-8.51
		c-4.62-2.1-9.66-3.15-15.12-3.15c-5.46,0-10.48,1.03-15.06,3.09c-4.58,2.06-8.53,4.87-11.84,8.44c-3.32,3.57-5.9,7.75-7.75,12.54
		c-1.85,4.79-2.77,9.91-2.77,15.37v0.25c0,5.46,0.94,10.61,2.83,15.44c1.89,4.83,4.49,9.03,7.81,12.6c3.32,3.57,7.29,6.41,11.91,8.5
		C179.85,751.54,184.89,752.59,190.35,752.59z"/>
	<path d="M255.62,668.8h6.17l35.41,52.16l35.41-52.16h6.17V757h-6.55v-76.61l-34.9,50.78h-0.5l-34.9-50.78V757h-6.3V668.8z"/>
	<path d="M364.61,668.8h6.55V757h-6.55V668.8z"/>
	<path d="M396.99,668.8h6.17l60.86,76.73V668.8h6.3V757h-4.91l-62.12-78.37V757h-6.3V668.8z"/>
	<path d="M535.72,758.51c-6.97,0-13.21-1.2-18.71-3.59c-5.5-2.39-10.14-5.65-13.92-9.77c-3.78-4.11-6.68-8.92-8.69-14.43
		c-2.02-5.5-3.02-11.36-3.02-17.58v-0.25c0-5.96,1.03-11.7,3.09-17.2c2.06-5.5,5-10.35,8.82-14.55c3.82-4.2,8.42-7.56,13.8-10.08
		c5.38-2.52,11.34-3.78,17.89-3.78c7.22,0,13.31,1.01,18.27,3.02c4.96,2.02,9.62,4.87,13.99,8.57l-4.29,4.91
		c-3.45-3.02-7.35-5.54-11.72-7.56c-4.37-2.02-9.91-3.02-16.63-3.02c-5.38,0-10.29,1.05-14.74,3.15c-4.45,2.1-8.27,4.95-11.47,8.55
		c-3.19,3.61-5.69,7.8-7.5,12.58c-1.81,4.78-2.71,9.81-2.71,15.09v0.25c0,5.7,0.86,10.99,2.58,15.85c1.72,4.86,4.22,9.06,7.5,12.58
		c3.28,3.52,7.25,6.29,11.91,8.3c4.66,2.01,9.93,3.02,15.81,3.02c5.63,0,10.92-1,15.88-3.01c4.96-2.01,9.03-4.35,12.22-7.03v-25.24
		h-29.48v-5.92h35.79v33.93c-4.03,3.52-9.01,6.6-14.93,9.24C549.52,757.19,542.94,758.51,535.72,758.51z"/>
	<path d="M659.2,758.26c-7.14,0-13.53-1.16-19.15-3.46c-5.63-2.31-11.09-5.86-16.38-10.65l4.28-4.91c4.87,4.45,9.74,7.75,14.62,9.89
		c4.87,2.14,10.54,3.21,17.01,3.21c3.28,0,6.3-0.44,9.07-1.32s5.12-2.1,7.06-3.65c1.93-1.55,3.44-3.4,4.54-5.54
		c1.09-2.14,1.64-4.47,1.64-6.99v-0.25c0-2.35-0.36-4.45-1.07-6.3c-0.71-1.85-2.02-3.53-3.91-5.04c-1.89-1.51-4.43-2.88-7.62-4.09
		c-3.19-1.22-7.31-2.33-12.35-3.34c-10.58-2.18-18.19-5.21-22.81-9.07c-4.62-3.86-6.93-9.11-6.93-15.75v-0.25
		c0-3.28,0.71-6.32,2.14-9.13c1.43-2.81,3.4-5.27,5.92-7.37c2.52-2.1,5.5-3.74,8.95-4.91c3.44-1.18,7.22-1.76,11.34-1.76
		c6.47,0,12.01,0.88,16.63,2.65c4.62,1.76,9.15,4.45,13.61,8.06l-4.16,5.17c-4.2-3.61-8.42-6.17-12.66-7.69
		c-4.24-1.51-8.8-2.27-13.67-2.27c-3.28,0-6.24,0.44-8.88,1.32c-2.65,0.88-4.91,2.08-6.8,3.59c-1.89,1.51-3.34,3.28-4.35,5.29
		c-1.01,2.02-1.51,4.16-1.51,6.43v0.25c0,2.35,0.36,4.47,1.07,6.36c0.71,1.89,2.02,3.61,3.91,5.17c1.89,1.55,4.51,2.96,7.88,4.22
		c3.36,1.26,7.64,2.44,12.85,3.53c10.25,2.1,17.64,5.06,22.18,8.88c4.54,3.82,6.8,8.97,6.8,15.43v0.25c0,3.53-0.74,6.79-2.21,9.77
		c-1.47,2.98-3.49,5.52-6.05,7.62c-2.56,2.1-5.63,3.74-9.2,4.91C667.41,757.67,663.48,758.26,659.2,758.26z"/>
	<path d="M749.04,758.51c-6.64,0-12.68-1.24-18.14-3.72c-5.46-2.48-10.12-5.8-13.99-9.95c-3.86-4.16-6.85-8.97-8.95-14.43
		c-2.1-5.46-3.15-11.21-3.15-17.26v-0.25c0-6.05,1.07-11.82,3.21-17.32c2.14-5.5,5.14-10.35,9.01-14.55
		c3.86-4.2,8.55-7.54,14.05-10.02c5.5-2.48,11.57-3.72,18.21-3.72c6.72,0,12.79,1.24,18.21,3.72c5.42,2.48,10.06,5.8,13.92,9.95
		c3.86,4.16,6.85,8.97,8.95,14.43c2.1,5.46,3.15,11.21,3.15,17.26c0.08,0.08,0.08,0.17,0,0.25c0,6.05-1.07,11.82-3.21,17.33
		c-2.14,5.5-5.15,10.35-9.01,14.55c-3.86,4.2-8.53,7.54-13.99,10.02C761.84,757.27,755.76,758.51,749.04,758.51z M749.29,752.59
		c5.46,0,10.48-1.03,15.06-3.09c4.58-2.06,8.52-4.87,11.84-8.44c3.32-3.57,5.9-7.75,7.75-12.54c1.85-4.79,2.77-9.91,2.77-15.37
		v-0.25c0-5.46-0.94-10.6-2.83-15.43c-1.89-4.83-4.49-9.03-7.81-12.6c-3.32-3.57-7.29-6.41-11.91-8.51
		c-4.62-2.1-9.66-3.15-15.12-3.15c-5.46,0-10.48,1.03-15.06,3.09c-4.58,2.06-8.53,4.87-11.84,8.44c-3.32,3.57-5.9,7.75-7.75,12.54
		c-1.85,4.79-2.77,9.91-2.77,15.37v0.25c0,5.46,0.95,10.61,2.83,15.44c1.89,4.83,4.49,9.03,7.81,12.6c3.32,3.57,7.29,6.41,11.91,8.5
		C738.79,751.54,743.83,752.59,749.29,752.59z"/>
	<path d="M854.88,758.51c-6.64,0-12.68-1.24-18.14-3.72c-5.46-2.48-10.12-5.8-13.99-9.95c-3.86-4.16-6.85-8.97-8.95-14.43
		c-2.1-5.46-3.15-11.21-3.15-17.26v-0.25c0-6.05,1.07-11.82,3.21-17.32c2.14-5.5,5.14-10.35,9.01-14.55
		c3.86-4.2,8.55-7.54,14.05-10.02c5.5-2.48,11.57-3.72,18.21-3.72c6.72,0,12.79,1.24,18.21,3.72c5.42,2.48,10.06,5.8,13.92,9.95
		c3.86,4.16,6.85,8.97,8.95,14.43c2.1,5.46,3.15,11.21,3.15,17.26c0.08,0.08,0.08,0.17,0,0.25c0,6.05-1.07,11.82-3.21,17.33
		c-2.14,5.5-5.15,10.35-9.01,14.55c-3.86,4.2-8.53,7.54-13.99,10.02C867.69,757.27,861.6,758.51,854.88,758.51z M855.13,752.59
		c5.46,0,10.48-1.03,15.06-3.09c4.58-2.06,8.52-4.87,11.84-8.44c3.32-3.57,5.9-7.75,7.75-12.54c1.85-4.79,2.77-9.91,2.77-15.37
		v-0.25c0-5.46-0.94-10.6-2.83-15.43c-1.89-4.83-4.49-9.03-7.81-12.6c-3.32-3.57-7.29-6.41-11.91-8.51
		c-4.62-2.1-9.66-3.15-15.12-3.15c-5.46,0-10.48,1.03-15.06,3.09c-4.58,2.06-8.53,4.87-11.84,8.44c-3.32,3.57-5.9,7.75-7.75,12.54
		c-1.85,4.79-2.77,9.91-2.77,15.37v0.25c0,5.46,0.95,10.61,2.83,15.44c1.89,4.83,4.49,9.03,7.81,12.6c3.32,3.57,7.29,6.41,11.91,8.5
		C844.63,751.54,849.67,752.59,855.13,752.59z"/>
	<path d="M920.4,668.8h6.17l60.86,76.73V668.8h6.3V757h-4.91l-62.12-78.37V757h-6.3V668.8z"/>
</g>
</svg>
