<?xml version="1.0" encoding="utf-8"?>
<!-- Generator: Adobe Illustrator 26.5.0, SVG Export Plug-In . SVG Version: 6.00 Build 0)  -->
<svg version="1.1" id="Layer_1" xmlns="http://www.w3.org/2000/svg" xmlns:xlink="http://www.w3.org/1999/xlink" x="0px" y="0px"
	 viewBox="0 0 1380 68" style="enable-background:new 0 0 1380 68;" xml:space="preserve">
<style type="text/css">
	.st0{fill:#B0C1ED;}
	.st1{fill:#FFFFFF;}
	.st2{fill:none;}
</style>
<g id="about">
	<path class="st0" d="M143.73,29.31h4.5l-0.49-9.66h-13.96h-1.75h-15.04v2.94c-0.03-0.04-0.05-0.07-0.07-0.11
		c-0.24-0.3-0.54-0.63-0.9-0.97c-0.39-0.39-0.73-0.69-1.03-0.92c-0.36-0.27-0.73-0.48-1.09-0.63c-0.39-0.16-0.8-0.25-1.22-0.28
		c-0.26-0.02-0.56-0.03-0.92-0.03h-2.83c-0.4,0-0.74,0.01-1.04,0.03c-0.45,0.03-0.88,0.12-1.28,0.27c-0.39,0.14-0.77,0.35-1.15,0.63
		c-0.31,0.22-0.65,0.52-1.09,0.94c-0.37,0.37-0.66,0.67-0.86,0.91c-0.34,0.38-0.58,0.76-0.74,1.15c-0.1,0.24-0.17,0.49-0.22,0.76
		c-0.05-0.31-0.14-0.61-0.28-0.92c-0.17-0.36-0.4-0.71-0.7-1.08c-0.24-0.29-0.55-0.59-0.98-0.98c-0.4-0.34-0.74-0.6-1.02-0.8
		c-0.38-0.27-0.78-0.48-1.17-0.62c-0.4-0.14-0.81-0.23-1.24-0.26c-0.28-0.02-0.6-0.03-0.97-0.03h-9.44v6.86h0.82v7.23h-0.03
		L84.5,19.64h-9.37l-3.05,14.09h-1.3v6.86h7.92l0.77-4.01h0.63l0.77,4.01h5.87h2.03h7.72c0.39,0,0.74-0.02,1.04-0.04
		c0.43-0.04,0.87-0.15,1.28-0.31c0.4-0.16,0.8-0.39,1.21-0.69c0.29-0.22,0.65-0.52,1.05-0.88c0.39-0.35,0.68-0.64,0.9-0.89
		c0.31-0.35,0.55-0.73,0.71-1.12c0.02-0.04,0.03-0.09,0.04-0.14c0.13,0.35,0.31,0.7,0.54,1.03c0.21,0.32,0.48,0.64,0.85,1.04
		c0.37,0.37,0.7,0.67,1,0.92c0.38,0.3,0.74,0.53,1.12,0.7c0.41,0.18,0.82,0.29,1.23,0.34c0.28,0.03,0.6,0.05,0.95,0.05h3.26
		c0.41,0,0.77-0.02,1.06-0.04c0.46-0.04,0.9-0.16,1.32-0.34c0.39-0.17,0.77-0.42,1.13-0.72c0.25-0.21,0.54-0.48,0.88-0.82
		c0.38-0.38,0.68-0.71,0.89-0.99c0.28-0.36,0.5-0.74,0.65-1.11c0.13-0.33,0.21-0.69,0.26-1.06c0.05,0.33,0.11,0.65,0.22,0.94
		c0.16,0.44,0.41,0.88,0.74,1.29c0.26,0.33,0.6,0.67,1,1.04c0.33,0.32,0.62,0.57,0.86,0.76c0.35,0.29,0.72,0.51,1.1,0.67
		c0.37,0.16,0.79,0.27,1.23,0.32c0.34,0.04,0.74,0.06,1.21,0.06h2.4c0.34,0,0.64-0.01,0.9-0.03c0.43-0.03,0.87-0.14,1.31-0.33
		c0.38-0.16,0.75-0.39,1.15-0.69c0.34-0.26,0.72-0.6,1.16-1.03c0.33-0.33,0.6-0.63,0.82-0.92c0.3-0.39,0.53-0.81,0.68-1.25
		c0.14-0.39,0.22-0.83,0.26-1.3c0.03-0.35,0.04-0.77,0.04-1.29v-4.46h2.96v4.42h-0.82v6.86h9.45v-6.86h-0.82V29.31z M101.86,29.49
		c0.05-0.06,0.09-0.13,0.14-0.19c0.19-0.27,0.31-0.56,0.41-0.85v1.77c-0.06-0.09-0.1-0.19-0.16-0.28
		C102.13,29.79,102,29.64,101.86,29.49z"/>
	<path class="st1" d="M141.72,27.3h4.5l-0.49-9.66h-13.96h-1.75h-15.04v2.94c-0.03-0.04-0.05-0.07-0.07-0.11
		c-0.24-0.3-0.54-0.63-0.9-0.97c-0.39-0.39-0.73-0.69-1.03-0.92c-0.36-0.27-0.73-0.48-1.09-0.63c-0.39-0.16-0.8-0.25-1.22-0.28
		c-0.26-0.02-0.56-0.03-0.92-0.03h-2.83c-0.4,0-0.74,0.01-1.04,0.03c-0.45,0.03-0.88,0.12-1.28,0.27c-0.39,0.14-0.77,0.35-1.15,0.63
		c-0.31,0.22-0.65,0.52-1.09,0.94c-0.37,0.37-0.66,0.67-0.86,0.91c-0.34,0.38-0.58,0.76-0.74,1.15c-0.1,0.24-0.17,0.49-0.22,0.76
		c-0.05-0.31-0.14-0.61-0.28-0.92c-0.17-0.36-0.4-0.71-0.7-1.08c-0.24-0.29-0.55-0.59-0.98-0.98c-0.4-0.34-0.74-0.6-1.02-0.8
		c-0.38-0.27-0.78-0.48-1.17-0.62c-0.4-0.14-0.81-0.23-1.24-0.26c-0.28-0.02-0.6-0.03-0.97-0.03h-9.44v6.86h0.82v7.23h-0.03
		l-3.02-14.09h-9.37l-3.05,14.09h-1.3v6.86h7.93l0.77-4.01h0.63l0.77,4.01h5.87h2.03h7.72c0.39,0,0.74-0.02,1.05-0.05
		c0.43-0.04,0.86-0.15,1.28-0.31c0.4-0.16,0.8-0.39,1.2-0.69c0.3-0.22,0.65-0.52,1.05-0.88c0.39-0.35,0.68-0.64,0.9-0.89
		c0.31-0.35,0.55-0.73,0.71-1.12c0.02-0.04,0.03-0.09,0.04-0.13c0.13,0.35,0.31,0.7,0.54,1.03c0.21,0.32,0.48,0.64,0.85,1.04
		c0.37,0.38,0.7,0.68,1,0.92c0.37,0.3,0.74,0.53,1.12,0.7c0.4,0.18,0.81,0.29,1.24,0.34c0.28,0.03,0.59,0.05,0.95,0.05h3.26
		c0.41,0,0.76-0.02,1.07-0.05c0.46-0.04,0.9-0.16,1.32-0.34c0.39-0.17,0.77-0.42,1.13-0.72c0.25-0.21,0.54-0.48,0.87-0.82
		c0.38-0.38,0.68-0.71,0.9-0.99c0.28-0.36,0.5-0.74,0.65-1.11c0.13-0.34,0.21-0.69,0.26-1.06c0.05,0.33,0.11,0.65,0.22,0.94
		c0.16,0.44,0.41,0.87,0.74,1.29c0.26,0.33,0.6,0.68,1,1.04c0.33,0.32,0.62,0.57,0.86,0.76c0.35,0.29,0.72,0.51,1.1,0.67
		c0.38,0.16,0.79,0.27,1.23,0.33c0.34,0.04,0.74,0.06,1.21,0.06h2.4c0.35,0,0.65-0.01,0.9-0.03c0.43-0.03,0.87-0.14,1.3-0.32
		c0.38-0.16,0.76-0.39,1.15-0.69c0.34-0.26,0.72-0.59,1.16-1.03c0.33-0.33,0.6-0.63,0.83-0.92c0.3-0.39,0.53-0.81,0.68-1.25
		c0.14-0.39,0.22-0.83,0.26-1.3c0.03-0.35,0.04-0.77,0.04-1.29V27.3h2.96v4.42h-0.82v6.86h9.45v-6.86h-0.82V27.3z M99.85,27.49
		c0.05-0.06,0.09-0.13,0.14-0.19c0.19-0.27,0.31-0.56,0.41-0.85v1.77c-0.06-0.09-0.1-0.19-0.16-0.28
		C100.13,27.79,100,27.64,99.85,27.49z"/>
	<g>
		<path d="M80.88,19.64l3.02,14.09h0.86v2.86h-4.25l-0.77-4.01h-3.94l-0.77,4.01h-4.27v-2.86h0.91l3.05-14.09H80.88z M79.32,29.96
			l-1.56-7.99l-1.54,7.99H79.32z"/>
		<path d="M86.73,36.58v-2.86h0.82V22.5h-0.82v-2.86h7.44c0.32,0,0.6,0.01,0.84,0.02c0.24,0.02,0.47,0.06,0.7,0.14
			c0.22,0.08,0.46,0.2,0.7,0.37c0.24,0.17,0.53,0.4,0.86,0.68c0.32,0.29,0.57,0.54,0.76,0.76c0.18,0.22,0.32,0.42,0.41,0.61
			s0.14,0.38,0.16,0.55c0.02,0.18,0.02,0.35,0.02,0.53v1.7c0,0.19-0.01,0.38-0.04,0.58c-0.02,0.19-0.1,0.39-0.24,0.59
			c-0.14,0.2-0.35,0.42-0.64,0.67c-0.29,0.25-0.7,0.53-1.22,0.85c0.61,0.27,1.08,0.52,1.42,0.76c0.34,0.23,0.58,0.46,0.74,0.67
			c0.16,0.22,0.26,0.44,0.3,0.68c0.04,0.24,0.06,0.51,0.06,0.82v1.87c0,0.3-0.01,0.56-0.02,0.77c-0.02,0.21-0.06,0.41-0.14,0.6
			s-0.2,0.38-0.37,0.58c-0.17,0.19-0.41,0.43-0.73,0.72c-0.35,0.32-0.66,0.58-0.91,0.77c-0.26,0.19-0.5,0.34-0.74,0.43
			c-0.24,0.1-0.48,0.16-0.73,0.18c-0.25,0.02-0.53,0.04-0.85,0.04H86.73z M91.36,26.53h1.58c0.43,0,0.76-0.05,1-0.14
			c0.23-0.1,0.41-0.23,0.53-0.41c0.12-0.18,0.19-0.38,0.22-0.62c0.02-0.24,0.04-0.51,0.04-0.82c0-0.42-0.02-0.76-0.05-1.03
			c-0.03-0.27-0.11-0.49-0.23-0.65c-0.12-0.16-0.3-0.27-0.53-0.34c-0.23-0.06-0.56-0.1-0.97-0.1h-1.58V26.53z M91.36,33.75h1.82
			c0.75,0,1.27-0.12,1.55-0.35c0.28-0.23,0.43-0.68,0.44-1.36v-1.03c0-0.64-0.14-1.12-0.41-1.44C94.5,29.26,94,29.1,93.28,29.1
			h-1.92V33.75z"/>
		<path d="M109.73,19.64c0.3,0,0.56,0.01,0.78,0.02c0.21,0.02,0.42,0.06,0.62,0.14c0.2,0.08,0.41,0.2,0.63,0.37
			c0.22,0.17,0.49,0.41,0.81,0.73c0.32,0.3,0.57,0.57,0.74,0.79c0.18,0.22,0.31,0.44,0.4,0.66c0.09,0.22,0.14,0.44,0.17,0.68
			c0.02,0.24,0.04,0.54,0.04,0.89v8.4c0,0.34-0.01,0.62-0.02,0.84c-0.02,0.22-0.06,0.44-0.14,0.64c-0.08,0.2-0.2,0.41-0.37,0.62
			s-0.41,0.48-0.73,0.8c-0.29,0.29-0.54,0.52-0.76,0.71c-0.22,0.18-0.43,0.32-0.65,0.42c-0.22,0.1-0.45,0.16-0.7,0.18
			c-0.25,0.02-0.54,0.04-0.88,0.04h-3.26c-0.27,0-0.51-0.01-0.73-0.04c-0.21-0.02-0.43-0.08-0.64-0.18
			c-0.21-0.1-0.44-0.24-0.68-0.43c-0.24-0.19-0.52-0.45-0.83-0.77c-0.25-0.27-0.46-0.52-0.61-0.74c-0.15-0.22-0.27-0.44-0.35-0.66
			c-0.08-0.22-0.13-0.44-0.14-0.68c-0.02-0.24-0.02-0.51-0.02-0.82v-8.47c0-0.34,0.01-0.62,0.04-0.84s0.08-0.43,0.16-0.62
			c0.08-0.19,0.21-0.39,0.39-0.6c0.18-0.21,0.44-0.48,0.78-0.82c0.33-0.32,0.62-0.56,0.85-0.73c0.23-0.17,0.45-0.29,0.67-0.37
			c0.22-0.08,0.45-0.13,0.71-0.14c0.26-0.02,0.56-0.02,0.91-0.02H109.73z M106.22,24.91v6.36c0,0.45,0.02,0.83,0.06,1.15
			c0.04,0.31,0.13,0.57,0.28,0.76c0.15,0.19,0.35,0.33,0.62,0.42c0.27,0.09,0.62,0.13,1.05,0.13c0.47,0,0.83-0.06,1.07-0.18
			s0.44-0.28,0.56-0.48s0.19-0.43,0.22-0.7c0.02-0.27,0.04-0.55,0.04-0.86v-6.56c0-0.61-0.02-1.05-0.07-1.31
			c-0.05-0.27-0.17-0.49-0.36-0.69c-0.19-0.19-0.41-0.32-0.65-0.37c-0.24-0.06-0.58-0.08-1.01-0.08c-0.08,0-0.19,0-0.34,0.01
			c-0.15,0.01-0.29,0.04-0.45,0.08c-0.15,0.05-0.31,0.13-0.46,0.24s-0.28,0.27-0.37,0.48c-0.08,0.16-0.13,0.34-0.14,0.53
			C106.23,24.04,106.22,24.39,106.22,24.91z"/>
		<path d="M129.76,19.64v2.86h-0.82v9.26c0,0.45-0.01,0.82-0.04,1.13s-0.08,0.57-0.16,0.8c-0.08,0.23-0.2,0.46-0.37,0.67
			c-0.17,0.22-0.39,0.46-0.66,0.73c-0.37,0.37-0.68,0.65-0.95,0.85c-0.26,0.2-0.51,0.35-0.73,0.44s-0.44,0.15-0.66,0.17
			c-0.22,0.02-0.47,0.02-0.76,0.02h-2.4c-0.38,0-0.7-0.02-0.96-0.05c-0.26-0.03-0.49-0.09-0.7-0.18c-0.21-0.09-0.42-0.22-0.62-0.38
			c-0.21-0.17-0.46-0.39-0.74-0.66c-0.35-0.32-0.62-0.6-0.82-0.84c-0.19-0.24-0.33-0.48-0.42-0.72c-0.09-0.24-0.14-0.5-0.16-0.79
			c-0.02-0.29-0.02-0.63-0.02-1.03V22.5h-0.82v-2.86h4.63v11.81c0,0.46,0.02,0.81,0.05,1.03c0.03,0.22,0.09,0.42,0.17,0.6
			c0.13,0.26,0.32,0.43,0.58,0.52c0.26,0.09,0.62,0.13,1.09,0.13c0.21,0,0.43-0.02,0.65-0.05s0.41-0.14,0.56-0.31
			c0.16-0.16,0.27-0.36,0.34-0.6c0.06-0.24,0.1-0.68,0.1-1.32V19.64H129.76z"/>
		<path d="M143.83,19.64l0.29,5.66h-2.45l-0.29-1.9c-0.03-0.24-0.06-0.42-0.08-0.54c-0.02-0.12-0.08-0.21-0.16-0.28
			c-0.08-0.08-0.2-0.12-0.37-0.13c-0.17-0.01-0.52-0.01-1.04-0.01v11.28h0.82v2.86h-5.45v-2.86h0.82V22.45h-1.06
			c-0.21,0.03-0.34,0.1-0.4,0.22s-0.11,0.33-0.16,0.65l-0.36,1.99h-2.38l0.34-5.66H143.83z"/>
	</g>
</g>
<rect x="0.15" y="-0.26" class="st2" width="1380" height="68"/>
</svg>
