<?xml version="1.0" encoding="utf-8"?>
<!-- Generator: Adobe Illustrator 26.5.0, SVG Export Plug-In . SVG Version: 6.00 Build 0)  -->
<svg version="1.1" id="Layer_1" xmlns="http://www.w3.org/2000/svg" xmlns:xlink="http://www.w3.org/1999/xlink" x="0px" y="0px"
	 viewBox="0 0 1380 68" style="enable-background:new 0 0 1380 68;" xml:space="preserve">
<style type="text/css">
	.nav02a0{fill:#B0C1ED;}
	.nav02a1{fill:#FFFFFF;}
	.nav02a2{fill:none;}
</style>
<g id="attractions">
	<path class="nav02a0" d="M347.69,31.07c-0.05-0.56-0.18-1.07-0.41-1.51c-0.12-0.23-0.27-0.45-0.44-0.64h0.7l-0.72-9.28h-7.85
		c-0.31,0-0.59,0.01-0.86,0.03c-0.4,0.03-0.81,0.12-1.2,0.26c-0.38,0.13-0.76,0.33-1.13,0.58c-0.34,0.23-0.69,0.52-1.05,0.85
		c-0.42,0.38-0.75,0.72-1,1.04c-0.05,0.06-0.08,0.11-0.12,0.17v-2.93h-8.03l0.01,1.55l-0.5-1.55h-10.06v3.18
		c-0.08-0.12-0.15-0.24-0.24-0.35c-0.24-0.3-0.54-0.63-0.9-0.97c-0.39-0.39-0.73-0.69-1.03-0.92c-0.36-0.27-0.73-0.48-1.09-0.63
		c-0.39-0.16-0.8-0.25-1.22-0.28c-0.26-0.02-0.56-0.03-0.92-0.03h-2.83c-0.4,0-0.74,0.01-1.04,0.03c-0.45,0.03-0.88,0.12-1.28,0.27
		c-0.39,0.14-0.77,0.35-1.15,0.63c-0.31,0.22-0.65,0.52-1.09,0.94c-0.37,0.37-0.66,0.67-0.86,0.91c-0.12,0.13-0.21,0.26-0.3,0.4
		v-3.16h-7.8h-1.65h-13.16l0-0.02h-7.73c-0.39,0-0.72,0.01-1,0.03c-0.47,0.03-0.93,0.15-1.36,0.34c-0.36,0.16-0.72,0.38-1.09,0.66
		c-0.31,0.24-0.66,0.55-1.06,0.95c-0.36,0.36-0.63,0.65-0.83,0.88c-0.3,0.35-0.53,0.73-0.69,1.1c-0.16,0.39-0.26,0.8-0.29,1.23
		c-0.02,0.25-0.03,0.58-0.03,0.98v5.29l-2.46-11.44h-9.37l-3.05,14.09h-0.01v-0.64c0-0.81-0.06-1.38-0.21-1.84
		c-0.16-0.51-0.42-0.97-0.78-1.36c0.07-0.09,0.14-0.18,0.2-0.27c0.28-0.42,0.46-0.86,0.54-1.31c0.05-0.3,0.08-0.69,0.08-1.26v-1.42
		c0-0.41-0.02-0.75-0.05-1.03c-0.05-0.4-0.15-0.79-0.3-1.16c-0.16-0.38-0.39-0.75-0.68-1.1c-0.23-0.28-0.54-0.58-0.92-0.92
		c-0.42-0.39-0.79-0.68-1.12-0.91c-0.41-0.28-0.83-0.48-1.25-0.62c-0.38-0.12-0.78-0.19-1.18-0.22c-0.28-0.02-0.63-0.03-1.05-0.03
		h-7.85h-1.67h-12.3h-1.75h-13.97l-0.15,2.46l-0.53-2.46h-9.37l-3.05,14.09h-1.3v6.86h7.92l0.77-4.01h0.63l0.77,4.01h7.38h0.52h8.93
		v-6.86h-0.82v-4.42h1.69h2.81h1.66v4.42h-0.82v6.86h9.45v-6.86h-0.82v-4.42h3.15v4.42h-0.82v6.86h14.95h2.1h5.82l0.77-4.01h0.63
		l0.77,4.01h7.9v-2.07c0.04,0.04,0.07,0.08,0.11,0.11c0.43,0.43,0.79,0.75,1.13,1c0.39,0.29,0.76,0.5,1.13,0.65
		c0.43,0.18,0.88,0.27,1.33,0.29c0.24,0.01,0.52,0.01,0.85,0.01h7.85l0.78-10.31h-6.84l-0.35,2.01V28.7l0.14,0.78h6.77l-0.01-0.17
		h2.36v4.42h-0.82v6.86h9.45v-6.86h-0.82v-4.42h3.18v4.42h-0.82v6.86h9.45v-3.16c0.02,0.04,0.04,0.08,0.07,0.12
		c0.21,0.32,0.48,0.64,0.85,1.04c0.37,0.37,0.7,0.67,1,0.92c0.38,0.3,0.74,0.53,1.12,0.7c0.41,0.18,0.82,0.29,1.23,0.34
		c0.28,0.03,0.6,0.05,0.95,0.05h3.26c0.41,0,0.77-0.02,1.06-0.04c0.46-0.04,0.9-0.16,1.32-0.34c0.39-0.17,0.77-0.42,1.13-0.72
		c0.25-0.21,0.54-0.48,0.88-0.82c0.38-0.38,0.68-0.71,0.89-0.99c0.07-0.09,0.12-0.17,0.18-0.26v3.18h8.18l-0.04-3.13l1.03,3.13h8.58
		v-6.47l0.46,6.47h8.15c0.44,0,0.82-0.02,1.17-0.06c0.44-0.05,0.86-0.16,1.25-0.32c0.42-0.17,0.84-0.41,1.23-0.73
		c0.33-0.26,0.67-0.59,1-0.96c0.29-0.31,0.52-0.57,0.69-0.78c0.26-0.32,0.47-0.65,0.63-0.99c0.17-0.37,0.28-0.79,0.32-1.23
		c0.03-0.29,0.05-0.65,0.05-1.1v-2.06C347.73,31.83,347.72,31.41,347.69,31.07z M209.14,33.73h-0.3h-0.52h-0.73l-0.95-4.42h2.49
		V33.73z M300.26,26.5h0.03v7.23h-0.03V26.5z M315.85,33.73h-0.03V26.5h0.03V33.73z M332.78,31.14v-1.9
		c0.07,0.62,0.26,1.17,0.56,1.62c0.06,0.1,0.13,0.19,0.21,0.27H332.78z"/>
	<path class="nav02a1" d="M345.69,29.07c-0.05-0.56-0.18-1.07-0.41-1.51c-0.12-0.23-0.27-0.45-0.44-0.64h0.7l-0.72-9.28h-7.85
		c-0.31,0-0.59,0.01-0.86,0.03c-0.4,0.03-0.81,0.12-1.2,0.26c-0.38,0.13-0.76,0.33-1.13,0.58c-0.34,0.23-0.69,0.52-1.05,0.85
		c-0.42,0.38-0.75,0.72-1,1.04c-0.05,0.06-0.08,0.11-0.12,0.17v-2.93h-8.03l0.01,1.55l-0.5-1.55h-10.06v3.18
		c-0.08-0.12-0.15-0.24-0.24-0.35c-0.24-0.3-0.54-0.63-0.9-0.97c-0.39-0.39-0.73-0.69-1.03-0.92c-0.36-0.27-0.73-0.48-1.09-0.63
		c-0.39-0.16-0.8-0.25-1.22-0.28c-0.26-0.02-0.56-0.03-0.92-0.03h-2.83c-0.4,0-0.74,0.01-1.04,0.03c-0.45,0.03-0.88,0.12-1.28,0.27
		c-0.39,0.14-0.77,0.35-1.15,0.63c-0.31,0.22-0.65,0.52-1.09,0.94c-0.37,0.37-0.66,0.67-0.86,0.91c-0.12,0.13-0.21,0.26-0.3,0.4
		v-3.16h-7.8h-1.65h-13.16l0-0.02h-7.73c-0.39,0-0.72,0.01-1,0.03c-0.47,0.03-0.93,0.15-1.36,0.34c-0.36,0.16-0.72,0.38-1.09,0.66
		c-0.31,0.24-0.66,0.55-1.06,0.95c-0.36,0.36-0.63,0.65-0.83,0.88c-0.3,0.35-0.53,0.73-0.69,1.1c-0.16,0.39-0.26,0.8-0.29,1.23
		c-0.02,0.25-0.03,0.58-0.03,0.98v5.29l-2.46-11.44h-9.37l-3.05,14.09h-0.01v-0.64c0-0.81-0.06-1.38-0.21-1.84
		c-0.16-0.51-0.42-0.97-0.78-1.36c0.07-0.09,0.14-0.18,0.2-0.27c0.28-0.42,0.46-0.86,0.54-1.31c0.05-0.3,0.08-0.69,0.08-1.26v-1.42
		c0-0.41-0.02-0.75-0.05-1.03c-0.05-0.4-0.15-0.79-0.3-1.16c-0.16-0.38-0.39-0.75-0.68-1.1c-0.23-0.28-0.54-0.58-0.92-0.92
		c-0.42-0.39-0.79-0.68-1.12-0.91c-0.41-0.28-0.83-0.48-1.25-0.62c-0.38-0.12-0.78-0.19-1.18-0.22c-0.28-0.02-0.63-0.03-1.05-0.03
		h-7.85h-1.67h-12.3h-1.75h-13.97l-0.15,2.46l-0.53-2.46h-9.37l-3.05,14.09h-1.3v6.86h7.93l0.77-4.01h0.63l0.77,4.01h7.38h0.52h8.93
		v-6.86h-0.82V27.3h1.69h2.81h1.66v4.42h-0.82v6.86h9.45v-6.86h-0.82V27.3h3.15v4.42h-0.82v6.86h14.95h2.1h5.82l0.77-4.01h0.63
		l0.77,4.01h7.9v-2.07c0.04,0.04,0.07,0.08,0.11,0.12c0.43,0.43,0.79,0.75,1.12,0.99c0.39,0.29,0.76,0.5,1.14,0.66
		c0.43,0.18,0.88,0.27,1.32,0.29c0.24,0.01,0.53,0.01,0.86,0.01h7.85l0.78-10.31h-6.84l-0.35,2.01V26.7l0.14,0.78h6.77l-0.01-0.17
		h2.36v4.42h-0.82v6.86h9.45v-6.86h-0.82V27.3h3.18v4.42h-0.82v6.86h9.45v-3.16c0.02,0.04,0.04,0.08,0.07,0.12
		c0.21,0.32,0.48,0.64,0.85,1.04c0.37,0.38,0.7,0.68,1,0.92c0.37,0.3,0.74,0.53,1.12,0.7c0.4,0.18,0.81,0.29,1.24,0.34
		c0.28,0.03,0.59,0.05,0.95,0.05h3.26c0.41,0,0.76-0.02,1.07-0.05c0.46-0.04,0.9-0.16,1.32-0.34c0.39-0.17,0.77-0.42,1.13-0.72
		c0.25-0.21,0.54-0.48,0.87-0.82c0.38-0.38,0.68-0.71,0.9-0.99c0.07-0.09,0.12-0.17,0.18-0.26v3.18h8.18l-0.04-3.13l1.03,3.13h8.58
		v-6.47l0.46,6.47h8.15c0.44,0,0.82-0.02,1.17-0.06c0.43-0.05,0.85-0.16,1.25-0.32c0.42-0.17,0.83-0.41,1.23-0.73
		c0.33-0.26,0.66-0.59,1-0.96c0.29-0.31,0.52-0.57,0.7-0.78c0.26-0.32,0.47-0.65,0.63-0.99c0.17-0.37,0.28-0.79,0.32-1.23
		c0.03-0.28,0.05-0.65,0.05-1.1v-2.06C345.73,29.83,345.72,29.41,345.69,29.07z M207.14,31.73h-0.3h-0.52h-0.73l-0.95-4.42h2.49
		V31.73z M298.26,24.5h0.03v7.23h-0.03V24.5z M313.85,31.73h-0.03V24.5h0.03V31.73z M330.78,29.14v-1.9
		c0.07,0.62,0.26,1.17,0.56,1.62c0.06,0.1,0.13,0.19,0.21,0.27H330.78z M337.92,31.81l0.03,0.01h-0.03L337.92,31.81z"/>
	<g>
		<path d="M200.96,19.64l3.02,14.09h0.86v2.86h-4.25l-0.77-4.01h-3.94l-0.77,4.01h-4.27v-2.86h0.91l3.05-14.09H200.96z M199.4,29.96
			l-1.56-7.99l-1.54,7.99H199.4z"/>
		<path d="M217.06,19.64l0.29,5.66h-2.45l-0.29-1.9c-0.03-0.24-0.06-0.42-0.08-0.54c-0.02-0.12-0.08-0.21-0.16-0.28
			c-0.08-0.08-0.2-0.12-0.37-0.13c-0.17-0.01-0.52-0.01-1.04-0.01v11.28h0.82v2.86h-5.45v-2.86h0.82V22.45h-1.06
			c-0.21,0.03-0.34,0.1-0.4,0.22s-0.11,0.33-0.16,0.65l-0.36,1.99h-2.38l0.34-5.66H217.06z"/>
		<path d="M231.03,19.64l0.29,5.66h-2.45l-0.29-1.9c-0.03-0.24-0.06-0.42-0.08-0.54c-0.02-0.12-0.08-0.21-0.16-0.28
			c-0.08-0.08-0.2-0.12-0.37-0.13c-0.17-0.01-0.52-0.01-1.04-0.01v11.28h0.82v2.86h-5.45v-2.86h0.82V22.45h-1.06
			c-0.21,0.03-0.34,0.1-0.4,0.22s-0.11,0.33-0.16,0.65l-0.36,1.99h-2.38l0.34-5.66H231.03z"/>
		<path d="M233.26,36.58v-2.86h0.82V22.5h-0.82v-2.86h7.52c0.37,0,0.67,0.01,0.92,0.02c0.25,0.02,0.49,0.06,0.72,0.13
			c0.23,0.07,0.47,0.19,0.72,0.36c0.25,0.17,0.55,0.41,0.9,0.73c0.32,0.29,0.56,0.53,0.73,0.73c0.17,0.2,0.29,0.4,0.37,0.59
			c0.08,0.19,0.13,0.4,0.16,0.61c0.02,0.22,0.04,0.48,0.04,0.8v1.42c0,0.43-0.02,0.74-0.05,0.91c-0.03,0.18-0.11,0.36-0.24,0.55
			c-0.13,0.19-0.33,0.4-0.62,0.64s-0.78,0.53-1.48,0.9c0.43,0.18,0.83,0.36,1.19,0.55c0.37,0.19,0.64,0.38,0.83,0.58
			c0.19,0.19,0.33,0.42,0.41,0.67c0.08,0.26,0.12,0.67,0.12,1.25v2.64h0.82v2.86h-4.63v-4.92c0-0.38-0.01-0.68-0.02-0.89
			c-0.02-0.21-0.06-0.4-0.14-0.58c-0.19-0.38-0.47-0.61-0.83-0.67c-0.36-0.06-0.72-0.1-1.09-0.1h-1.7v7.15H233.26z M237.89,26.79
			h1.7c0.3,0,0.58-0.02,0.82-0.07c0.24-0.05,0.44-0.14,0.61-0.29c0.17-0.14,0.3-0.36,0.4-0.64c0.1-0.28,0.14-0.65,0.14-1.12
			c0-0.9-0.14-1.48-0.43-1.76c-0.29-0.28-0.8-0.42-1.54-0.42h-1.7V26.79z"/>
		<path d="M258.32,19.64l3.02,14.09h0.86v2.86h-4.25l-0.77-4.01h-3.94l-0.77,4.01h-4.27v-2.86h0.91l3.05-14.09H258.32z
			 M256.76,29.96l-1.56-7.99l-1.54,7.99H256.76z"/>
		<path d="M271.66,23.41c-0.03-0.24-0.08-0.42-0.13-0.54c-0.06-0.12-0.14-0.21-0.26-0.28c-0.12-0.06-0.28-0.1-0.49-0.11
			c-0.21-0.01-0.49-0.01-0.84-0.01c-0.42,0-0.74,0.04-0.97,0.12c-0.23,0.08-0.4,0.2-0.52,0.35c-0.11,0.15-0.18,0.34-0.2,0.58
			s-0.04,0.5-0.04,0.8v7.37c0,0.75,0.12,1.28,0.36,1.58c0.14,0.18,0.36,0.3,0.64,0.36c0.28,0.06,0.72,0.1,1.33,0.1
			c0.26,0,0.46-0.01,0.61-0.04c0.15-0.02,0.27-0.08,0.36-0.16c0.09-0.08,0.16-0.21,0.2-0.38c0.05-0.18,0.1-0.41,0.14-0.7l0.38-2.18
			h3l-0.48,6.31h-6c-0.3,0-0.56,0-0.78-0.01c-0.22-0.01-0.43-0.06-0.65-0.14c-0.22-0.09-0.45-0.22-0.7-0.41
			c-0.25-0.18-0.55-0.45-0.9-0.8c-0.34-0.32-0.59-0.6-0.77-0.84c-0.18-0.24-0.31-0.47-0.4-0.68c-0.09-0.22-0.14-0.45-0.16-0.7
			s-0.02-0.54-0.02-0.88v-8.33c0-0.34,0.01-0.61,0.02-0.83c0.02-0.22,0.06-0.42,0.14-0.61s0.2-0.39,0.37-0.59s0.4-0.45,0.71-0.76
			c0.34-0.34,0.62-0.6,0.86-0.78c0.24-0.18,0.47-0.32,0.68-0.42c0.22-0.1,0.44-0.15,0.68-0.17c0.24-0.02,0.53-0.02,0.86-0.02h5.86
			l0.38,5.86h-2.95L271.66,23.41z"/>
		<path d="M289.37,19.64l0.29,5.66h-2.45l-0.29-1.9c-0.03-0.24-0.06-0.42-0.08-0.54c-0.02-0.12-0.08-0.21-0.16-0.28
			c-0.08-0.08-0.2-0.12-0.37-0.13c-0.17-0.01-0.52-0.01-1.04-0.01v11.28h0.82v2.86h-5.45v-2.86h0.82V22.45h-1.06
			c-0.21,0.03-0.34,0.1-0.4,0.22s-0.11,0.33-0.16,0.65l-0.36,1.99h-2.38l0.34-5.66H289.37z"/>
		<path d="M297.08,19.64v2.86h-0.82v11.23h0.82v2.86h-5.45v-2.86h0.82V22.5h-0.82v-2.86H297.08z"/>
		<path d="M307.62,19.64c0.3,0,0.56,0.01,0.78,0.02c0.21,0.02,0.42,0.06,0.62,0.14c0.2,0.08,0.41,0.2,0.63,0.37
			c0.22,0.17,0.49,0.41,0.81,0.73c0.32,0.3,0.57,0.57,0.74,0.79c0.18,0.22,0.31,0.44,0.4,0.66c0.09,0.22,0.14,0.44,0.17,0.68
			c0.02,0.24,0.04,0.54,0.04,0.89v8.4c0,0.34-0.01,0.62-0.02,0.84c-0.02,0.22-0.06,0.44-0.14,0.64c-0.08,0.2-0.2,0.41-0.37,0.62
			s-0.41,0.48-0.73,0.8c-0.29,0.29-0.54,0.52-0.76,0.71c-0.22,0.18-0.43,0.32-0.65,0.42c-0.22,0.1-0.45,0.16-0.7,0.18
			c-0.25,0.02-0.54,0.04-0.88,0.04h-3.26c-0.27,0-0.51-0.01-0.73-0.04c-0.21-0.02-0.43-0.08-0.64-0.18
			c-0.21-0.1-0.44-0.24-0.68-0.43c-0.24-0.19-0.52-0.45-0.83-0.77c-0.25-0.27-0.46-0.52-0.61-0.74c-0.15-0.22-0.27-0.44-0.35-0.66
			c-0.08-0.22-0.13-0.44-0.14-0.68c-0.02-0.24-0.02-0.51-0.02-0.82v-8.47c0-0.34,0.01-0.62,0.04-0.84s0.08-0.43,0.16-0.62
			c0.08-0.19,0.21-0.39,0.39-0.6c0.18-0.21,0.44-0.48,0.78-0.82c0.33-0.32,0.62-0.56,0.85-0.73c0.23-0.17,0.45-0.29,0.67-0.37
			c0.22-0.08,0.45-0.13,0.71-0.14c0.26-0.02,0.56-0.02,0.91-0.02H307.62z M304.11,24.91v6.36c0,0.45,0.02,0.83,0.06,1.15
			c0.04,0.31,0.13,0.57,0.28,0.76c0.15,0.19,0.35,0.33,0.62,0.42c0.27,0.09,0.62,0.13,1.05,0.13c0.47,0,0.83-0.06,1.07-0.18
			s0.44-0.28,0.56-0.48s0.19-0.43,0.22-0.7c0.02-0.27,0.04-0.55,0.04-0.86v-6.56c0-0.61-0.02-1.05-0.07-1.31
			c-0.05-0.27-0.17-0.49-0.36-0.69c-0.19-0.19-0.41-0.32-0.65-0.37c-0.24-0.06-0.58-0.08-1.01-0.08c-0.08,0-0.19,0-0.34,0.01
			c-0.15,0.01-0.29,0.04-0.45,0.08c-0.15,0.05-0.31,0.13-0.46,0.24s-0.28,0.27-0.37,0.48c-0.08,0.16-0.13,0.34-0.14,0.53
			C304.12,24.04,304.11,24.39,304.11,24.91z"/>
		<path d="M329.6,19.64v2.86h-0.82v14.09h-5.14l-4.66-14.09l0.19,14.09h-4.15v-2.86h0.82V22.5h-0.82v-2.86h6.6l4.08,12.65
			l-0.12-12.65H329.6z"/>
		<path d="M340.18,23.19c-0.08-0.3-0.18-0.5-0.3-0.6c-0.12-0.1-0.39-0.15-0.8-0.17h-1.15c-0.16,0-0.34,0.01-0.53,0.04
			s-0.38,0.12-0.55,0.28c-0.1,0.1-0.17,0.2-0.23,0.3s-0.1,0.24-0.12,0.41s-0.04,0.38-0.05,0.64c-0.01,0.26-0.01,0.59-0.01,1.01
			c0.03,0.34,0.11,0.56,0.23,0.67c0.12,0.11,0.39,0.23,0.8,0.36l4.54,1.46c0.43,0.13,0.76,0.26,1,0.4c0.23,0.14,0.4,0.3,0.5,0.5
			c0.1,0.2,0.17,0.45,0.19,0.74c0.02,0.3,0.04,0.67,0.04,1.12v2.06c0,0.37-0.01,0.67-0.04,0.9s-0.08,0.44-0.16,0.61
			c-0.08,0.18-0.2,0.36-0.35,0.54c-0.15,0.18-0.36,0.41-0.61,0.68c-0.29,0.32-0.55,0.58-0.79,0.77c-0.24,0.19-0.48,0.34-0.72,0.43
			c-0.24,0.1-0.49,0.16-0.76,0.19s-0.57,0.05-0.92,0.05h-6.29l-0.38-5.45h3l0.46,1.99c0.06,0.26,0.15,0.43,0.25,0.52
			s0.28,0.15,0.54,0.18h1.46c0.22,0,0.4-0.01,0.54-0.04s0.28-0.08,0.42-0.16c0.14-0.08,0.26-0.17,0.35-0.28
			c0.09-0.1,0.15-0.25,0.18-0.43c0.03-0.18,0.05-0.42,0.06-0.71c0.01-0.29,0.01-0.66,0.01-1.13c0-0.27-0.06-0.48-0.19-0.61
			c-0.13-0.14-0.38-0.27-0.74-0.4l-4.37-1.44c-0.46-0.16-0.83-0.3-1.09-0.42c-0.26-0.12-0.46-0.28-0.59-0.47
			c-0.13-0.19-0.21-0.44-0.24-0.74c-0.03-0.3-0.05-0.71-0.05-1.22v-2.38c0-0.24,0.01-0.45,0.02-0.62s0.07-0.36,0.16-0.54
			c0.09-0.18,0.22-0.39,0.4-0.61c0.18-0.22,0.43-0.49,0.77-0.79c0.3-0.29,0.58-0.51,0.82-0.67c0.24-0.16,0.47-0.28,0.7-0.36
			s0.45-0.13,0.67-0.14c0.22-0.02,0.46-0.02,0.72-0.02h6l0.41,5.28h-2.93L340.18,23.19z"/>
	</g>
</g>
<rect x="0.15" y="-0.26" class="nav02a2" width="1380" height="68"/>
</svg>
