<?xml version="1.0" encoding="utf-8"?>
<!-- Generator: Adobe Illustrator 26.5.0, SVG Export Plug-In . SVG Version: 6.00 Build 0)  -->
<svg version="1.1" id="Layer_1" xmlns="http://www.w3.org/2000/svg" xmlns:xlink="http://www.w3.org/1999/xlink" x="0px" y="0px"
	 viewBox="0 0 1380 68" style="enable-background:new 0 0 1380 68;" xml:space="preserve">
<style type="text/css">
	.st0{fill:#B0C1ED;}
	.st1{fill:#FFFFFF;}
	.st2{fill:none;}
</style>
<g id="news__x26__events_00000170992293511451127400000017601679512535135156_">
	<g>
		<path class="st0" d="M895.76,29.56c-0.12-0.23-0.27-0.44-0.44-0.64h0.7l-0.72-9.28h-7.85c-0.31,0-0.59,0.01-0.86,0.03
			c-0.4,0.03-0.81,0.12-1.2,0.26c-0.38,0.13-0.76,0.33-1.13,0.58c-0.34,0.23-0.7,0.52-1.05,0.85c-0.09,0.08-0.15,0.15-0.23,0.22
			v-1.94h-8.05l-0.04,0.35l-0.06-0.35h-7.53l-0.11,0.64l-0.07-0.64h-6.78l0-0.02h-14.77v0.02h-6.93l0.02,1.55l-0.5-1.55h-10.06v6.86
			h0.82v7.23h-0.82v6.86h8.18l-0.04-3.13l1.03,3.13h8.3h0.28h14.93l0.41-6.74l0.87,6.74h8.52l0.49-2.92l0.5,2.92h8.46l1.1-8.53
			l0.6,8.53h8.15c0.44,0,0.82-0.02,1.17-0.06c0.44-0.05,0.86-0.16,1.25-0.32c0.42-0.17,0.84-0.41,1.23-0.73
			c0.33-0.26,0.67-0.59,1-0.96c0.29-0.31,0.52-0.57,0.69-0.77c0.26-0.32,0.47-0.65,0.63-1c0.17-0.37,0.28-0.79,0.32-1.22
			c0.03-0.29,0.05-0.66,0.05-1.11v-2.06c0-0.51-0.01-0.94-0.04-1.27C896.13,30.51,895.99,30.01,895.76,29.56z M888.41,33.81
			l0.03,0.01h-0.03L888.41,33.81z M846.38,33.73h-0.54V26.5h0.54V33.73z M858.3,30.99v-2h2.25l0.26,2H858.3z M881.24,31.14
			l0.16-1.26c0.1,0.36,0.23,0.7,0.42,0.99c0.06,0.1,0.13,0.19,0.21,0.27H881.24z"/>
		<path class="st0" d="M916.07,23.47l-0.43,0.24l-0.54-4.06h-7.03c-0.33,0-0.6,0.01-0.83,0.03c-0.33,0.03-0.65,0.1-0.96,0.21
			c-0.35,0.12-0.7,0.31-1.05,0.57c-0.21,0.15-0.47,0.36-0.81,0.65c-0.37,0.32-0.66,0.58-0.88,0.8c-0.31,0.31-0.55,0.61-0.72,0.91
			c-0.23,0.4-0.37,0.83-0.41,1.26c-0.02,0.22-0.04,0.47-0.04,0.76v2.97c0,0.36,0.02,0.67,0.05,0.92c0.05,0.37,0.17,0.72,0.34,1.04
			c0,0,0,0.01-0.01,0.01c-0.38,0.44-0.62,0.94-0.72,1.49c-0.05,0.3-0.08,0.64-0.08,1.03v2.86c0,0.31,0.01,0.57,0.04,0.77
			c0.04,0.41,0.16,0.8,0.36,1.18c0.16,0.31,0.39,0.62,0.69,0.95c0.21,0.23,0.52,0.53,0.92,0.9c0.36,0.32,0.67,0.58,0.92,0.76
			c0.34,0.25,0.67,0.44,1.01,0.58c0.36,0.15,0.73,0.24,1.1,0.27c0.22,0.02,0.5,0.03,0.82,0.03h9.99v-6.45h-1.75v-0.99h1.75v-6.33
			h-1.75V23.47z"/>
		<path class="st0" d="M1012.36,31.07c-0.04-0.56-0.18-1.07-0.41-1.51c-0.12-0.23-0.27-0.44-0.44-0.64h0.7l-0.72-9.28h-7.85
			c-0.31,0-0.59,0.01-0.86,0.03c-0.4,0.03-0.81,0.12-1.2,0.26c-0.38,0.13-0.76,0.33-1.13,0.58c-0.34,0.23-0.7,0.52-1.05,0.85
			c-0.16,0.15-0.3,0.29-0.44,0.42l-0.11-2.14H984.8h-1.68h-6.35l0.02,1.55l-0.5-1.55h-9.75l0-0.02h-14.77v0.02h-5.88l-0.82,4.52
			l-0.8-4.52h-6.64l0-0.02h-14.77v6.88h0.82v7.23h-0.82v6.86h15.21l0.55-9.15l1.95,9.15h8.81l3.14-14.09h0.07v7.23h-0.82v6.86h14.47
			h0.74h7.44l-0.04-3.13l1.03,3.13h8.58V29.31h3.03v4.42h-0.82v6.86h9.45v-6.86h-0.82v-4.42h2.63c0.08,0.59,0.25,1.12,0.55,1.56
			c0.06,0.1,0.13,0.19,0.21,0.27h-0.98l0.67,9.45h8.15c0.44,0,0.82-0.02,1.17-0.06c0.44-0.05,0.86-0.16,1.25-0.32
			c0.42-0.17,0.84-0.41,1.23-0.73c0.33-0.26,0.67-0.59,1-0.96c0.29-0.31,0.52-0.57,0.69-0.77c0.26-0.32,0.47-0.65,0.63-1
			c0.17-0.37,0.28-0.79,0.32-1.22c0.03-0.29,0.05-0.66,0.05-1.11v-2.06C1012.4,31.83,1012.38,31.41,1012.36,31.07z M1004.59,33.81
			l0.03,0.01h-0.03L1004.59,33.81z M935.58,30.99v-2h2.5l0.43,2H935.58z M964.5,30.99v-2h2.55v2H964.5z"/>
	</g>
	<g>
		<path class="st1" d="M893.76,27.56c-0.12-0.23-0.27-0.44-0.44-0.64h0.7l-0.72-9.28h-7.85c-0.31,0-0.59,0.01-0.86,0.03
			c-0.4,0.03-0.81,0.12-1.2,0.26c-0.37,0.13-0.75,0.33-1.13,0.58c-0.34,0.22-0.69,0.51-1.05,0.85c-0.09,0.08-0.15,0.15-0.23,0.22
			v-1.94h-8.05l-0.04,0.35l-0.06-0.35h-7.53l-0.1,0.64l-0.07-0.64h-6.78l0-0.02h-14.77v0.02h-6.93l0.02,1.55l-0.5-1.55h-10.06v6.86
			h0.82v7.23h-0.82v6.86h8.18l-0.04-3.13l1.03,3.13h8.3h0.28h14.93l0.4-6.74l0.87,6.74h8.52l0.49-2.93l0.5,2.93h8.46l1.1-8.53
			l0.6,8.53h8.15c0.44,0,0.82-0.02,1.17-0.06c0.43-0.05,0.86-0.16,1.25-0.32c0.42-0.17,0.83-0.41,1.23-0.73
			c0.33-0.26,0.67-0.59,1-0.96c0.29-0.31,0.52-0.57,0.7-0.78c0.26-0.32,0.47-0.65,0.62-0.98c0.17-0.37,0.28-0.78,0.33-1.24
			c0.03-0.28,0.04-0.65,0.04-1.1v-2.06c0-0.51-0.01-0.94-0.04-1.28C894.13,28.5,893.99,27.99,893.76,27.56z M886.41,31.81l0.03,0.01
			h-0.03L886.41,31.81z M844.38,31.73h-0.54V24.5h0.54V31.73z M856.3,28.99v-2h2.25l0.26,2H856.3z M879.24,29.14l0.16-1.26
			c0.1,0.36,0.23,0.7,0.42,0.99c0.06,0.1,0.13,0.19,0.21,0.27H879.24z"/>
		<path class="st1" d="M914.06,21.46l-0.43,0.24l-0.54-4.06h-7.03c-0.33,0-0.6,0.01-0.83,0.03c-0.32,0.03-0.65,0.1-0.96,0.21
			c-0.36,0.12-0.7,0.31-1.04,0.56c-0.21,0.15-0.47,0.36-0.82,0.65c-0.37,0.32-0.66,0.58-0.88,0.8c-0.31,0.31-0.55,0.61-0.72,0.91
			c-0.23,0.4-0.37,0.83-0.41,1.26c-0.02,0.22-0.04,0.47-0.04,0.76v2.97c0,0.36,0.02,0.67,0.05,0.92c0.05,0.36,0.17,0.71,0.34,1.04
			c0,0-0.01,0.01-0.01,0.01c-0.38,0.45-0.62,0.95-0.71,1.48c-0.05,0.3-0.08,0.64-0.08,1.04v2.86c0,0.31,0.01,0.57,0.04,0.78
			c0.04,0.41,0.17,0.8,0.36,1.17c0.16,0.31,0.39,0.62,0.69,0.95c0.21,0.23,0.52,0.53,0.92,0.89c0.37,0.33,0.67,0.58,0.92,0.76
			c0.34,0.25,0.67,0.44,1,0.58c0.36,0.15,0.74,0.24,1.1,0.27c0.23,0.02,0.51,0.03,0.84,0.03h9.99v-6.45h-1.75v-0.99h1.75v-6.33
			h-1.75V21.46z"/>
		<path class="st1" d="M1010.36,29.07c-0.04-0.56-0.18-1.07-0.41-1.51c-0.12-0.23-0.27-0.45-0.45-0.64h0.7l-0.72-9.28h-7.85
			c-0.31,0-0.59,0.01-0.86,0.03c-0.4,0.03-0.81,0.12-1.2,0.26c-0.38,0.13-0.76,0.33-1.13,0.58c-0.34,0.23-0.7,0.52-1.05,0.85
			c-0.17,0.15-0.3,0.29-0.44,0.42l-0.11-2.14H982.8h-1.68h-6.35l0.01,1.55l-0.5-1.55h-9.75l0-0.02h-14.77v0.02h-5.88l-0.82,4.52
			l-0.8-4.52h-6.64l0-0.02h-14.77v6.88h0.82v7.23h-0.82v6.86h15.21l0.55-9.14l1.95,9.14h8.81l3.14-14.09h0.07v7.23h-0.82v6.86h14.47
			h0.74h7.44l-0.04-3.12l1.03,3.12h8.58V27.3h3.03v4.42h-0.82v6.86h9.45v-6.86h-0.82V27.3h2.63c0.08,0.59,0.25,1.12,0.55,1.56
			c0.06,0.1,0.13,0.19,0.21,0.27h-0.98l0.67,9.45h8.15c0.44,0,0.82-0.02,1.17-0.06c0.43-0.05,0.85-0.16,1.25-0.32
			c0.42-0.17,0.83-0.41,1.23-0.73c0.33-0.26,0.67-0.59,0.99-0.96c0.29-0.31,0.52-0.57,0.7-0.78c0.26-0.31,0.47-0.64,0.63-1
			c0.17-0.37,0.28-0.79,0.32-1.22c0.03-0.29,0.05-0.66,0.05-1.11v-2.06C1010.4,29.83,1010.38,29.4,1010.36,29.07z M1002.59,31.81
			l0.03,0.01h-0.03L1002.59,31.81z M933.58,28.99v-2h2.5l0.43,2H933.58z M962.49,28.99v-2h2.55v2H962.49z"/>
	</g>
	<g>
		<path d="M842.66,19.64v2.86h-0.82v14.09h-5.14l-4.66-14.09l0.19,14.09h-4.15v-2.86h0.82V22.5h-0.82v-2.86h6.6l4.08,12.65
			l-0.12-12.65H842.66z"/>
		<path d="M856.48,19.62l0.41,5.38h-3l-0.26-1.63c-0.08-0.37-0.17-0.6-0.26-0.71c-0.1-0.1-0.34-0.16-0.74-0.18h-2.42v4.08h4.1v2.57
			h-4.1v4.66h2.57c0.42,0.02,0.69-0.03,0.82-0.14c0.13-0.11,0.23-0.37,0.31-0.77l0.34-1.87h3l-0.34,5.59h-11.33v-2.86h0.82V22.5
			h-0.82v-2.88H856.48z"/>
		<path d="M878.97,19.64v2.86h-0.89l-1.82,14.09h-5.02l-2.21-12.96l-2.16,12.96h-5.06l-1.82-14.09h-0.94v-2.86h4.27l1.44,13.63
			l2.23-13.63h4.13l2.21,13.63l1.39-13.63H878.97z"/>
		<path d="M888.66,23.19c-0.08-0.3-0.18-0.5-0.3-0.6c-0.12-0.1-0.39-0.15-0.8-0.17h-1.15c-0.16,0-0.34,0.01-0.53,0.04
			c-0.19,0.02-0.38,0.12-0.55,0.28c-0.1,0.1-0.17,0.2-0.23,0.3c-0.06,0.1-0.1,0.24-0.12,0.41s-0.04,0.38-0.05,0.64
			c-0.01,0.26-0.01,0.59-0.01,1.01c0.03,0.34,0.11,0.56,0.23,0.67c0.12,0.11,0.39,0.23,0.8,0.36l4.54,1.46
			c0.43,0.13,0.76,0.26,1,0.4c0.23,0.14,0.4,0.3,0.5,0.5c0.1,0.2,0.17,0.45,0.19,0.74c0.02,0.3,0.04,0.67,0.04,1.12v2.06
			c0,0.37-0.01,0.67-0.04,0.9c-0.02,0.23-0.08,0.44-0.16,0.61c-0.08,0.18-0.2,0.36-0.35,0.54c-0.15,0.18-0.36,0.41-0.61,0.68
			c-0.29,0.32-0.55,0.58-0.79,0.77c-0.24,0.19-0.48,0.34-0.72,0.43c-0.24,0.1-0.49,0.16-0.76,0.19c-0.26,0.03-0.57,0.05-0.92,0.05
			h-6.29l-0.38-5.45h3l0.46,1.99c0.06,0.26,0.15,0.43,0.25,0.52s0.28,0.15,0.54,0.18h1.46c0.22,0,0.4-0.01,0.54-0.04
			s0.28-0.08,0.42-0.16c0.14-0.08,0.26-0.17,0.35-0.28c0.09-0.1,0.15-0.25,0.18-0.43c0.03-0.18,0.05-0.42,0.06-0.71
			c0.01-0.29,0.01-0.66,0.01-1.13c0-0.27-0.06-0.48-0.19-0.61c-0.13-0.14-0.38-0.27-0.74-0.4l-4.37-1.44
			c-0.46-0.16-0.83-0.3-1.09-0.42c-0.26-0.12-0.46-0.28-0.59-0.47s-0.21-0.44-0.24-0.74c-0.03-0.3-0.05-0.71-0.05-1.22v-2.38
			c0-0.24,0.01-0.45,0.02-0.62c0.02-0.18,0.07-0.36,0.16-0.54s0.22-0.39,0.4-0.61c0.18-0.22,0.43-0.49,0.77-0.79
			c0.3-0.29,0.58-0.51,0.82-0.67c0.24-0.16,0.47-0.28,0.7-0.36c0.22-0.08,0.45-0.13,0.67-0.14c0.22-0.02,0.46-0.02,0.72-0.02h6
			l0.41,5.28h-2.93L888.66,23.19z"/>
		<path d="M911.34,19.64l0.55,4.15h-2.78l-0.29-1.3c-0.05-0.19-0.11-0.32-0.19-0.38c-0.08-0.06-0.21-0.11-0.38-0.14h-1.27
			c-0.27,0.02-0.48,0.06-0.64,0.14c-0.15,0.08-0.26,0.18-0.34,0.31s-0.12,0.27-0.13,0.43s-0.03,0.33-0.05,0.53v2.15
			c0,0.32,0.06,0.6,0.18,0.85c0.12,0.25,0.44,0.39,0.97,0.44h1.61l3.48-1.94v1.94h1.75v2.33h-1.75v3.55c0,0.34,0.02,0.6,0.05,0.79
			c0.03,0.19,0.11,0.34,0.23,0.43c0.12,0.1,0.29,0.16,0.53,0.18s0.55,0.04,0.95,0.04v2.45h-7.99c-0.26,0-0.47-0.01-0.65-0.02
			c-0.18-0.02-0.35-0.06-0.53-0.13c-0.18-0.07-0.37-0.18-0.58-0.34c-0.21-0.15-0.46-0.36-0.77-0.64c-0.34-0.3-0.6-0.56-0.78-0.76
			s-0.32-0.38-0.4-0.53c-0.08-0.15-0.13-0.3-0.14-0.46s-0.02-0.34-0.02-0.56v-2.86c0-0.27,0.02-0.5,0.05-0.68
			c0.03-0.18,0.12-0.36,0.26-0.53c0.14-0.17,0.36-0.34,0.65-0.52c0.29-0.18,0.69-0.39,1.2-0.65c-0.43-0.19-0.76-0.36-1-0.5
			c-0.23-0.14-0.4-0.3-0.52-0.46s-0.18-0.33-0.2-0.5c-0.02-0.18-0.04-0.39-0.04-0.65v-2.97c0-0.21,0.01-0.39,0.02-0.55
			c0.02-0.16,0.07-0.32,0.16-0.47c0.09-0.15,0.22-0.32,0.41-0.5c0.18-0.18,0.44-0.41,0.76-0.68c0.29-0.24,0.52-0.43,0.71-0.56
			c0.18-0.14,0.36-0.23,0.52-0.29s0.32-0.09,0.49-0.11c0.17-0.02,0.38-0.02,0.64-0.02H911.34z M908.68,34.14v-4.99h-1.7
			c-0.35,0-0.63,0.04-0.83,0.12s-0.35,0.19-0.44,0.32c-0.1,0.14-0.16,0.29-0.18,0.46s-0.04,0.35-0.04,0.54v2.09
			c0.03,0.5,0.14,0.86,0.34,1.09c0.19,0.23,0.63,0.36,1.32,0.37H908.68z"/>
		<path d="M933.76,19.62l0.41,5.38h-3l-0.26-1.63c-0.08-0.37-0.17-0.6-0.26-0.71c-0.1-0.1-0.34-0.16-0.74-0.18h-2.42v4.08h4.1v2.57
			h-4.1v4.66h2.57c0.42,0.02,0.69-0.03,0.82-0.14c0.13-0.11,0.23-0.37,0.31-0.77l0.34-1.87h3l-0.34,5.59h-11.33v-2.86h0.82V22.5
			h-0.82v-2.88H933.76z"/>
		<path d="M949.74,19.64v2.86h-0.84l-3.14,14.09h-5.59l-3-14.09h-0.84v-2.86h4.25l2.45,13.85l2.52-13.85H949.74z"/>
		<path d="M962.68,19.62l0.41,5.38h-3l-0.26-1.63c-0.08-0.37-0.17-0.6-0.26-0.71c-0.1-0.1-0.34-0.16-0.74-0.18h-2.42v4.08h4.1v2.57
			h-4.1v4.66h2.57c0.42,0.02,0.69-0.03,0.82-0.14c0.13-0.11,0.23-0.37,0.31-0.77l0.34-1.87h3l-0.34,5.59h-11.33v-2.86h0.82V22.5
			h-0.82v-2.88H962.68z"/>
		<path d="M980.8,19.64v2.86h-0.82v14.09h-5.14l-4.66-14.09l0.19,14.09h-4.15v-2.86h0.82V22.5h-0.82v-2.86h6.6l4.08,12.65
			l-0.12-12.65H980.8z"/>
		<path d="M994.93,19.64l0.29,5.66h-2.45l-0.29-1.9c-0.03-0.24-0.06-0.42-0.08-0.54c-0.02-0.12-0.08-0.21-0.16-0.28
			c-0.08-0.08-0.2-0.12-0.37-0.13c-0.17-0.01-0.52-0.01-1.04-0.01v11.28h0.82v2.86h-5.45v-2.86h0.82V22.45h-1.06
			c-0.21,0.03-0.34,0.1-0.4,0.22c-0.06,0.11-0.11,0.33-0.16,0.65l-0.36,1.99h-2.38l0.34-5.66H994.93z"/>
		<path d="M1004.85,23.19c-0.08-0.3-0.18-0.5-0.3-0.6c-0.12-0.1-0.39-0.15-0.8-0.17h-1.15c-0.16,0-0.34,0.01-0.53,0.04
			c-0.19,0.02-0.38,0.12-0.55,0.28c-0.1,0.1-0.17,0.2-0.23,0.3c-0.06,0.1-0.1,0.24-0.12,0.41s-0.04,0.38-0.05,0.64
			s-0.01,0.59-0.01,1.01c0.03,0.34,0.11,0.56,0.23,0.67c0.12,0.11,0.39,0.23,0.8,0.36l4.54,1.46c0.43,0.13,0.76,0.26,1,0.4
			c0.23,0.14,0.4,0.3,0.5,0.5c0.1,0.2,0.17,0.45,0.19,0.74c0.02,0.3,0.04,0.67,0.04,1.12v2.06c0,0.37-0.01,0.67-0.04,0.9
			c-0.02,0.23-0.08,0.44-0.16,0.61c-0.08,0.18-0.2,0.36-0.35,0.54c-0.15,0.18-0.36,0.41-0.61,0.68c-0.29,0.32-0.55,0.58-0.79,0.77
			c-0.24,0.19-0.48,0.34-0.72,0.43s-0.49,0.16-0.76,0.19c-0.26,0.03-0.57,0.05-0.92,0.05h-6.29l-0.38-5.45h3l0.46,1.99
			c0.06,0.26,0.15,0.43,0.25,0.52s0.28,0.15,0.54,0.18h1.46c0.22,0,0.4-0.01,0.54-0.04s0.28-0.08,0.42-0.16
			c0.14-0.08,0.26-0.17,0.35-0.28c0.09-0.1,0.15-0.25,0.18-0.43c0.03-0.18,0.05-0.42,0.06-0.71c0.01-0.29,0.01-0.66,0.01-1.13
			c0-0.27-0.06-0.48-0.19-0.61c-0.13-0.14-0.38-0.27-0.74-0.4l-4.37-1.44c-0.46-0.16-0.83-0.3-1.09-0.42
			c-0.26-0.12-0.46-0.28-0.59-0.47c-0.13-0.19-0.21-0.44-0.24-0.74c-0.03-0.3-0.05-0.71-0.05-1.22v-2.38c0-0.24,0.01-0.45,0.02-0.62
			c0.02-0.18,0.07-0.36,0.16-0.54c0.09-0.18,0.22-0.39,0.4-0.61c0.18-0.22,0.43-0.49,0.77-0.79c0.3-0.29,0.58-0.51,0.82-0.67
			c0.24-0.16,0.47-0.28,0.7-0.36c0.22-0.08,0.45-0.13,0.67-0.14c0.22-0.02,0.46-0.02,0.72-0.02h6l0.41,5.28h-2.93L1004.85,23.19z"/>
	</g>
</g>
<rect x="0.15" y="-0.26" class="st2" width="1380" height="68"/>
</svg>
