<?xml version="1.0" encoding="utf-8"?>
<!-- Generator: Adobe Illustrator 26.5.0, SVG Export Plug-In . SVG Version: 6.00 Build 0)  -->
<svg version="1.1" id="Layer_1" xmlns="http://www.w3.org/2000/svg" xmlns:xlink="http://www.w3.org/1999/xlink" x="0px" y="0px"
	 viewBox="0 0 1380 68" style="enable-background:new 0 0 1380 68;" xml:space="preserve">
<style type="text/css">
	.nav05a0{fill:#B0C1ED;}
	.nav05a1{fill:#FFFFFF;}
	.nav05a2{fill:none;}
</style>
<g id="support_the_museum_00000109726034875249836450000018310250177548793735_">
	<g>
		<g>
			<g>
				<path class="nav05a0" d="M1071.4,25.19c-0.08-0.3-0.18-0.5-0.3-0.6c-0.12-0.1-0.39-0.15-0.8-0.17h-1.15c-0.16,0-0.34,0.01-0.53,0.04
					c-0.19,0.02-0.38,0.12-0.55,0.28c-0.1,0.1-0.17,0.2-0.23,0.3c-0.06,0.1-0.1,0.24-0.12,0.41c-0.02,0.17-0.04,0.38-0.05,0.64
					s-0.01,0.59-0.01,1.01c0.03,0.34,0.11,0.56,0.23,0.67c0.12,0.11,0.39,0.23,0.8,0.36l4.54,1.46c0.43,0.13,0.76,0.26,1,0.4
					c0.23,0.14,0.4,0.3,0.5,0.5c0.1,0.2,0.17,0.45,0.19,0.74c0.02,0.3,0.04,0.67,0.04,1.12v2.06c0,0.37-0.01,0.67-0.04,0.9
					c-0.02,0.23-0.08,0.44-0.16,0.61c-0.08,0.18-0.2,0.36-0.35,0.54c-0.15,0.18-0.36,0.41-0.61,0.68c-0.29,0.32-0.55,0.58-0.79,0.77
					c-0.24,0.19-0.48,0.34-0.72,0.43c-0.24,0.1-0.49,0.16-0.76,0.19c-0.26,0.03-0.57,0.05-0.92,0.05h-6.29l-0.38-5.45h3l0.46,1.99
					c0.06,0.26,0.15,0.43,0.25,0.52c0.1,0.09,0.28,0.15,0.54,0.18h1.46c0.22,0,0.4-0.01,0.54-0.04c0.14-0.02,0.28-0.08,0.42-0.16
					c0.14-0.08,0.26-0.17,0.35-0.28s0.15-0.25,0.18-0.43c0.03-0.18,0.05-0.42,0.06-0.71c0.01-0.29,0.01-0.66,0.01-1.13
					c0-0.27-0.06-0.48-0.19-0.61c-0.13-0.14-0.38-0.27-0.74-0.4l-4.37-1.44c-0.46-0.16-0.83-0.3-1.09-0.42
					c-0.26-0.12-0.46-0.28-0.59-0.47c-0.13-0.19-0.21-0.44-0.24-0.74c-0.03-0.3-0.05-0.71-0.05-1.22v-2.38
					c0-0.24,0.01-0.45,0.02-0.62c0.02-0.18,0.07-0.36,0.16-0.54s0.22-0.39,0.4-0.61c0.18-0.22,0.43-0.49,0.77-0.79
					c0.3-0.29,0.58-0.51,0.82-0.67c0.24-0.16,0.47-0.28,0.7-0.36c0.22-0.08,0.45-0.13,0.67-0.14c0.22-0.02,0.46-0.02,0.72-0.02h6
					l0.41,5.28h-2.93L1071.4,25.19z"/>
				<path class="nav05a0" d="M1070.61,40.58h-8.15l-0.67-9.45h0.98c-0.07-0.09-0.14-0.18-0.21-0.27c-0.31-0.46-0.5-1.01-0.57-1.64
					c-0.04-0.37-0.06-0.84-0.06-1.43v-2.38c0-0.31,0.01-0.57,0.03-0.8c0.04-0.42,0.16-0.83,0.34-1.23c0.15-0.32,0.36-0.64,0.63-0.99
					c0.25-0.31,0.57-0.65,1-1.04c0.35-0.34,0.71-0.63,1.05-0.85c0.37-0.25,0.75-0.44,1.13-0.58c0.4-0.14,0.8-0.23,1.2-0.26
					c0.27-0.02,0.56-0.03,0.86-0.03h7.85l0.72,9.28h-0.7c0.17,0.19,0.32,0.41,0.44,0.64c0.23,0.45,0.37,0.95,0.41,1.51
					c0.03,0.33,0.04,0.76,0.04,1.27v2.06c0,0.45-0.02,0.82-0.05,1.11c-0.04,0.43-0.15,0.85-0.32,1.22c-0.16,0.35-0.37,0.68-0.63,1
					c-0.17,0.21-0.4,0.46-0.69,0.77c-0.34,0.38-0.67,0.7-1,0.96c-0.39,0.31-0.81,0.56-1.23,0.73c-0.39,0.16-0.81,0.27-1.25,0.32
					C1071.43,40.56,1071.05,40.58,1070.61,40.58z M1069.14,33.83h0.03l-0.03-0.01L1069.14,33.83z M1072.81,31.55
					c0.05,0.08,0.09,0.17,0.14,0.26c0-0.08-0.01-0.15-0.01-0.22C1072.9,31.58,1072.85,31.56,1072.81,31.55z M1065.95,28.53
					c0.02,0.01,0.04,0.02,0.06,0.02c-0.02-0.04-0.04-0.09-0.07-0.13C1065.95,28.46,1065.95,28.5,1065.95,28.53z"/>
			</g>
			<g>
				<path class="nav05a0" d="M1090.82,21.64v2.86H1090v9.26c0,0.45-0.01,0.82-0.04,1.13c-0.02,0.3-0.08,0.57-0.16,0.8
					c-0.08,0.23-0.2,0.46-0.37,0.67s-0.39,0.46-0.66,0.73c-0.37,0.37-0.68,0.65-0.95,0.85s-0.51,0.35-0.73,0.44
					c-0.22,0.1-0.44,0.15-0.66,0.17c-0.22,0.02-0.47,0.02-0.76,0.02h-2.4c-0.38,0-0.7-0.02-0.96-0.05c-0.26-0.03-0.49-0.09-0.7-0.18
					s-0.42-0.22-0.62-0.38s-0.46-0.39-0.74-0.66c-0.35-0.32-0.62-0.6-0.82-0.84c-0.19-0.24-0.33-0.48-0.42-0.72
					c-0.09-0.24-0.14-0.5-0.16-0.79c-0.02-0.29-0.02-0.63-0.02-1.03V24.5h-0.82v-2.86h4.63v11.81c0,0.46,0.02,0.81,0.05,1.03
					c0.03,0.22,0.09,0.42,0.17,0.6c0.13,0.26,0.32,0.43,0.58,0.52s0.62,0.13,1.09,0.13c0.21,0,0.43-0.02,0.65-0.05
					s0.41-0.14,0.56-0.31c0.16-0.16,0.27-0.36,0.34-0.6c0.06-0.24,0.1-0.68,0.1-1.32V21.64H1090.82z"/>
				<path class="nav05a0" d="M1085.68,40.58h-2.4c-0.47,0-0.87-0.02-1.21-0.06c-0.44-0.05-0.85-0.16-1.22-0.32
					c-0.38-0.16-0.75-0.39-1.1-0.67c-0.24-0.19-0.53-0.45-0.86-0.76c-0.41-0.37-0.74-0.72-1-1.04c-0.33-0.41-0.58-0.84-0.74-1.29
					c-0.15-0.41-0.25-0.87-0.27-1.36c-0.02-0.31-0.03-0.7-0.03-1.14V26.5h-0.82v-6.86h16.79v6.86H1092v7.26
					c0,0.51-0.01,0.94-0.04,1.29c-0.04,0.46-0.12,0.9-0.26,1.3c-0.15,0.44-0.38,0.86-0.68,1.25c-0.22,0.28-0.49,0.58-0.82,0.92
					c-0.44,0.43-0.81,0.77-1.16,1.03c-0.39,0.3-0.77,0.53-1.15,0.69c-0.43,0.19-0.87,0.29-1.31,0.33
					C1086.32,40.58,1086.02,40.58,1085.68,40.58z"/>
			</g>
			<g>
				<path class="nav05a0" d="M1093.65,38.58v-2.86h0.82V24.5h-0.82v-2.86h7.73c0.37,0,0.68,0.01,0.92,0.02
					c0.25,0.02,0.48,0.06,0.71,0.14c0.22,0.08,0.46,0.21,0.72,0.38c0.26,0.18,0.57,0.43,0.94,0.77c0.27,0.24,0.49,0.46,0.66,0.66
					s0.3,0.4,0.38,0.61c0.09,0.21,0.15,0.44,0.18,0.68s0.05,0.55,0.05,0.9v1.7c0,0.29-0.01,0.54-0.02,0.74
					c-0.02,0.21-0.06,0.4-0.14,0.59c-0.08,0.18-0.2,0.38-0.37,0.59c-0.17,0.21-0.4,0.46-0.71,0.77c-0.34,0.34-0.62,0.6-0.86,0.79
					c-0.24,0.19-0.48,0.34-0.71,0.43c-0.23,0.1-0.49,0.16-0.77,0.19c-0.28,0.03-0.62,0.05-1.02,0.05h-3.05v4.06h0.91v2.86H1093.65z
					 M1098.28,28.82h1.61c0.35,0,0.67-0.02,0.95-0.05c0.28-0.03,0.52-0.12,0.72-0.25c0.2-0.14,0.35-0.34,0.46-0.62
					c0.1-0.28,0.16-0.67,0.16-1.16c0-0.42-0.02-0.77-0.06-1.07s-0.13-0.54-0.28-0.72c-0.14-0.18-0.36-0.32-0.65-0.4
					s-0.68-0.12-1.18-0.12h-1.73V28.82z"/>
				<path class="nav05a0" d="M1101.19,40.58h-9.54v-6.86h0.82V26.5h-0.82v-6.86h9.73c0.42,0,0.77,0.01,1.05,0.03
					c0.44,0.03,0.86,0.11,1.25,0.26c0.39,0.14,0.78,0.35,1.18,0.62c0.33,0.23,0.71,0.54,1.15,0.94c0.33,0.29,0.61,0.58,0.85,0.85
					c0.29,0.35,0.53,0.72,0.69,1.11c0.16,0.39,0.27,0.79,0.32,1.21c0.04,0.33,0.06,0.71,0.06,1.16v1.7c0,0.35-0.01,0.64-0.03,0.89
					c-0.04,0.44-0.14,0.85-0.31,1.24c-0.15,0.35-0.37,0.7-0.65,1.05c-0.2,0.25-0.48,0.56-0.85,0.92c-0.39,0.39-0.73,0.7-1.03,0.94
					c-0.38,0.31-0.78,0.55-1.19,0.72c-0.4,0.17-0.84,0.28-1.31,0.33c-0.35,0.04-0.76,0.06-1.25,0.06h-1.05v0.06h0.91V40.58z"/>
			</g>
			<g>
				<path class="nav05a0" d="M1108.09,38.58v-2.86h0.82V24.5h-0.82v-2.86h7.73c0.37,0,0.68,0.01,0.92,0.02
					c0.25,0.02,0.48,0.06,0.71,0.14c0.22,0.08,0.46,0.21,0.72,0.38c0.26,0.18,0.57,0.43,0.94,0.77c0.27,0.24,0.49,0.46,0.66,0.66
					s0.3,0.4,0.38,0.61c0.09,0.21,0.15,0.44,0.18,0.68s0.05,0.55,0.05,0.9v1.7c0,0.29-0.01,0.54-0.02,0.74
					c-0.02,0.21-0.06,0.4-0.14,0.59c-0.08,0.18-0.2,0.38-0.37,0.59c-0.17,0.21-0.4,0.46-0.71,0.77c-0.34,0.34-0.62,0.6-0.86,0.79
					c-0.24,0.19-0.48,0.34-0.71,0.43c-0.23,0.1-0.49,0.16-0.77,0.19c-0.28,0.03-0.62,0.05-1.02,0.05h-3.05v4.06h0.91v2.86H1108.09z
					 M1112.73,28.82h1.61c0.35,0,0.67-0.02,0.95-0.05c0.28-0.03,0.52-0.12,0.72-0.25c0.2-0.14,0.35-0.34,0.46-0.62
					c0.1-0.28,0.16-0.67,0.16-1.16c0-0.42-0.02-0.77-0.06-1.07s-0.13-0.54-0.28-0.72c-0.14-0.18-0.36-0.32-0.65-0.4
					s-0.68-0.12-1.18-0.12h-1.73V28.82z"/>
				<path class="nav05a0" d="M1115.64,40.58h-9.54v-6.86h0.82V26.5h-0.82v-6.86h9.73c0.42,0,0.77,0.01,1.05,0.03
					c0.44,0.03,0.86,0.11,1.25,0.26c0.39,0.14,0.78,0.35,1.18,0.62c0.33,0.23,0.71,0.54,1.15,0.94c0.33,0.29,0.61,0.58,0.85,0.85
					c0.29,0.35,0.53,0.72,0.69,1.11c0.16,0.39,0.27,0.79,0.32,1.21c0.04,0.33,0.06,0.71,0.06,1.16v1.7c0,0.35-0.01,0.64-0.03,0.89
					c-0.04,0.44-0.14,0.85-0.31,1.24c-0.15,0.35-0.37,0.7-0.65,1.05c-0.2,0.25-0.48,0.56-0.85,0.92c-0.39,0.39-0.73,0.7-1.03,0.94
					c-0.38,0.31-0.78,0.55-1.19,0.72c-0.4,0.17-0.84,0.28-1.31,0.33c-0.35,0.04-0.76,0.06-1.25,0.06h-1.05v0.06h0.91V40.58z"/>
			</g>
			<g>
				<path class="nav05a0" d="M1130.09,21.64c0.3,0,0.56,0.01,0.78,0.02c0.21,0.02,0.42,0.06,0.62,0.14s0.41,0.2,0.63,0.37
					s0.5,0.41,0.81,0.73c0.32,0.3,0.57,0.57,0.74,0.79s0.31,0.44,0.4,0.66c0.09,0.22,0.14,0.44,0.17,0.68
					c0.02,0.24,0.04,0.54,0.04,0.89v8.4c0,0.34-0.01,0.62-0.02,0.84c-0.02,0.22-0.06,0.44-0.14,0.64s-0.2,0.41-0.37,0.62
					s-0.41,0.48-0.73,0.8c-0.29,0.29-0.54,0.52-0.76,0.71c-0.22,0.18-0.43,0.32-0.65,0.42s-0.45,0.16-0.7,0.18
					c-0.25,0.02-0.54,0.04-0.88,0.04h-3.26c-0.27,0-0.51-0.01-0.73-0.04c-0.21-0.02-0.43-0.08-0.64-0.18s-0.44-0.24-0.68-0.43
					c-0.24-0.19-0.52-0.45-0.83-0.77c-0.25-0.27-0.46-0.52-0.61-0.74c-0.15-0.22-0.27-0.44-0.35-0.66
					c-0.08-0.22-0.13-0.44-0.14-0.68c-0.02-0.24-0.02-0.51-0.02-0.82v-8.47c0-0.34,0.01-0.62,0.04-0.84
					c0.02-0.22,0.08-0.43,0.16-0.62c0.08-0.19,0.21-0.39,0.39-0.6c0.18-0.21,0.44-0.48,0.78-0.82c0.33-0.32,0.62-0.56,0.85-0.73
					c0.23-0.17,0.45-0.29,0.67-0.37s0.45-0.13,0.71-0.14c0.25-0.02,0.56-0.02,0.91-0.02H1130.09z M1126.57,26.91v6.36
					c0,0.45,0.02,0.83,0.06,1.15s0.13,0.57,0.28,0.76c0.15,0.19,0.35,0.33,0.62,0.42c0.27,0.09,0.62,0.13,1.05,0.13
					c0.47,0,0.83-0.06,1.07-0.18c0.25-0.12,0.44-0.28,0.56-0.48c0.12-0.2,0.19-0.43,0.22-0.7c0.02-0.27,0.04-0.55,0.04-0.86v-6.56
					c0-0.61-0.02-1.05-0.07-1.31c-0.05-0.27-0.17-0.49-0.36-0.69c-0.19-0.19-0.41-0.32-0.65-0.37c-0.24-0.06-0.58-0.08-1.01-0.08
					c-0.08,0-0.19,0-0.34,0.01c-0.14,0.01-0.29,0.04-0.45,0.08c-0.15,0.05-0.31,0.13-0.46,0.24c-0.15,0.11-0.28,0.27-0.38,0.48
					c-0.08,0.16-0.13,0.34-0.14,0.53C1126.58,26.04,1126.57,26.39,1126.57,26.91z"/>
				<path class="nav05a0" d="M1130.03,40.58h-3.26c-0.35,0-0.67-0.02-0.95-0.05c-0.41-0.04-0.83-0.16-1.23-0.34
					c-0.38-0.17-0.74-0.4-1.12-0.7c-0.3-0.25-0.63-0.54-1-0.92c-0.37-0.39-0.63-0.72-0.85-1.04c-0.24-0.35-0.43-0.72-0.57-1.09
					c-0.14-0.39-0.23-0.81-0.26-1.24c-0.02-0.28-0.03-0.59-0.03-0.95v-8.47c0-0.42,0.02-0.77,0.05-1.06
					c0.04-0.41,0.14-0.81,0.3-1.18c0.16-0.39,0.41-0.77,0.74-1.15c0.21-0.23,0.49-0.54,0.86-0.91c0.44-0.42,0.79-0.72,1.09-0.94
					c0.37-0.27,0.76-0.48,1.15-0.63c0.4-0.15,0.83-0.24,1.28-0.27c0.29-0.02,0.64-0.03,1.04-0.03h2.83c0.36,0,0.67,0.01,0.92,0.03
					c0.42,0.03,0.83,0.13,1.22,0.28c0.36,0.15,0.73,0.36,1.09,0.63c0.3,0.23,0.64,0.53,1.03,0.92c0.36,0.34,0.66,0.67,0.9,0.97
					c0.29,0.37,0.52,0.75,0.67,1.14c0.16,0.4,0.26,0.81,0.3,1.24c0.03,0.29,0.05,0.65,0.05,1.08v8.4c0,0.39-0.01,0.72-0.03,0.98
					c-0.03,0.44-0.13,0.85-0.28,1.24c-0.15,0.37-0.37,0.75-0.65,1.11c-0.22,0.28-0.51,0.6-0.89,0.99c-0.33,0.33-0.63,0.61-0.88,0.82
					c-0.36,0.31-0.74,0.55-1.13,0.72c-0.41,0.18-0.86,0.3-1.32,0.34C1130.8,40.57,1130.44,40.58,1130.03,40.58z"/>
			</g>
			<g>
				<path class="nav05a0" d="M1137.49,38.58v-2.86h0.82V24.5h-0.82v-2.86h7.52c0.37,0,0.67,0.01,0.92,0.02
					c0.25,0.02,0.49,0.06,0.72,0.13c0.23,0.07,0.47,0.19,0.72,0.36c0.25,0.17,0.55,0.41,0.9,0.73c0.32,0.29,0.56,0.53,0.73,0.73
					c0.17,0.2,0.29,0.4,0.37,0.59c0.08,0.19,0.13,0.4,0.16,0.61c0.02,0.22,0.04,0.48,0.04,0.8v1.42c0,0.43-0.02,0.74-0.05,0.91
					s-0.11,0.36-0.24,0.55s-0.33,0.4-0.62,0.64s-0.78,0.53-1.48,0.9c0.43,0.18,0.83,0.36,1.19,0.55c0.37,0.19,0.64,0.38,0.83,0.58
					c0.19,0.19,0.33,0.42,0.41,0.67c0.08,0.26,0.12,0.67,0.12,1.25v2.64h0.82v2.86h-4.63v-4.92c0-0.38-0.01-0.68-0.02-0.89
					c-0.02-0.21-0.06-0.4-0.14-0.58c-0.19-0.38-0.47-0.61-0.83-0.67c-0.36-0.06-0.72-0.1-1.09-0.1h-1.7v7.15H1137.49z
					 M1142.13,28.79h1.7c0.3,0,0.58-0.02,0.82-0.07c0.24-0.05,0.44-0.14,0.61-0.29c0.17-0.14,0.3-0.36,0.4-0.64
					c0.1-0.28,0.14-0.65,0.14-1.12c0-0.9-0.14-1.48-0.43-1.76c-0.29-0.28-0.8-0.42-1.54-0.42h-1.7V28.79z"/>
				<path class="nav05a0" d="M1152.55,40.58h-17.06v-6.86h0.82V26.5h-0.82v-6.86h9.52c0.42,0,0.77,0.01,1.05,0.03
					c0.41,0.03,0.8,0.1,1.18,0.22c0.42,0.13,0.84,0.34,1.25,0.61c0.34,0.23,0.71,0.53,1.12,0.91c0.38,0.34,0.68,0.65,0.92,0.92
					c0.3,0.36,0.53,0.73,0.68,1.1c0.15,0.37,0.25,0.76,0.3,1.16c0.03,0.28,0.05,0.62,0.05,1.03v1.42c0,0.57-0.02,0.95-0.08,1.26
					c-0.08,0.44-0.26,0.88-0.54,1.31c-0.06,0.09-0.13,0.18-0.2,0.28c0.36,0.4,0.62,0.85,0.78,1.36c0.14,0.47,0.21,1.05,0.21,1.85
					v0.64h0.82V40.58z"/>
			</g>
			<g>
				<path class="nav05a0" d="M1163.7,21.64l0.29,5.66h-2.45l-0.29-1.9c-0.03-0.24-0.06-0.42-0.08-0.54c-0.02-0.12-0.08-0.21-0.16-0.28
					c-0.08-0.08-0.2-0.12-0.37-0.13c-0.17-0.01-0.52-0.01-1.04-0.01v11.28h0.82v2.86h-5.45v-2.86h0.82V24.45h-1.06
					c-0.21,0.03-0.34,0.1-0.4,0.22c-0.06,0.11-0.11,0.33-0.16,0.65l-0.36,1.99h-2.38l0.34-5.66H1163.7z"/>
				<polygon class="nav05a0" points="1162.41,40.58 1152.97,40.58 1152.97,33.73 1153.78,33.73 1153.78,29.31 1149.32,29.31 
					1149.89,19.64 1165.6,19.64 1166.09,29.31 1161.6,29.31 1161.6,33.73 1162.41,33.73 				"/>
			</g>
			<g>
				<path class="nav05a0" d="M1184.63,21.64l0.29,5.66h-2.45l-0.29-1.9c-0.03-0.24-0.06-0.42-0.08-0.54c-0.02-0.12-0.08-0.21-0.16-0.28
					c-0.08-0.08-0.2-0.12-0.37-0.13c-0.17-0.01-0.52-0.01-1.04-0.01v11.28h0.82v2.86h-5.45v-2.86h0.82V24.45h-1.06
					c-0.21,0.03-0.34,0.1-0.4,0.22c-0.06,0.11-0.11,0.33-0.16,0.65l-0.36,1.99h-2.38l0.34-5.66H1184.63z"/>
				<polygon class="nav05a0" points="1183.34,40.58 1173.89,40.58 1173.89,33.73 1174.71,33.73 1174.71,29.31 1170.24,29.31 
					1170.82,19.64 1186.53,19.64 1187.02,29.31 1182.53,29.31 1182.53,33.73 1183.34,33.73 				"/>
			</g>
			<g>
				<path class="nav05a0" d="M1199.85,21.64v2.86h-0.82v11.23h0.82v2.86h-4.63v-7.34h-3.72v7.34h-4.63v-2.86h0.82V24.5h-0.82v-2.86h4.63
					v6.74h3.72v-6.74H1199.85z"/>
				<polygon class="nav05a0" points="1201.85,40.58 1184.86,40.58 1184.86,33.73 1185.68,33.73 1185.68,26.5 1184.86,26.5 
					1184.86,19.64 1201.85,19.64 1201.85,26.5 1201.03,26.5 1201.03,33.73 1201.85,33.73 				"/>
			</g>
			<g>
				<path class="nav05a0" d="M1213.74,21.62l0.41,5.38h-3l-0.26-1.63c-0.08-0.37-0.17-0.6-0.26-0.71c-0.1-0.1-0.34-0.16-0.74-0.18h-2.42
					v4.08h4.1v2.57h-4.1v4.66h2.57c0.42,0.02,0.69-0.03,0.82-0.14c0.13-0.11,0.23-0.37,0.31-0.77l0.34-1.87h3l-0.34,5.59h-11.33
					v-2.86h0.82V24.5h-0.82v-2.88H1213.74z"/>
				<polygon class="nav05a0" points="1216.03,40.58 1200.82,40.58 1200.82,33.73 1201.64,33.73 1201.64,26.5 1200.82,26.5 
					1200.82,19.62 1215.6,19.62 1216.31,28.99 1213.56,28.99 1213.56,30.99 1216.61,30.99 				"/>
			</g>
			<g>
				<path class="nav05a0" d="M1242.21,21.64v2.86h-0.82v11.23h0.82v2.86h-4.39l0.1-14.09l-3.79,14.09h-2.3L1228,24.5l0.12,14.09h-4.37
					v-2.86h0.82V24.5h-0.82v-2.86h6.82l2.45,11.14l2.47-11.14H1242.21z"/>
				<polygon class="nav05a0" points="1230.28,40.58 1230.13,40.02 1230.14,40.58 1221.75,40.58 1221.75,33.73 1222.57,33.73 
					1222.57,26.5 1221.75,26.5 1221.75,19.64 1232.17,19.64 1233.02,23.51 1233.88,19.64 1244.21,19.64 1244.21,26.5 1243.39,26.5 
					1243.39,33.73 1244.21,33.73 1244.21,40.58 1235.8,40.58 1235.8,40.02 1235.65,40.58 				"/>
			</g>
			<g>
				<path class="nav05a0" d="M1257.83,21.64v2.86h-0.82v9.26c0,0.45-0.01,0.82-0.04,1.13c-0.02,0.3-0.08,0.57-0.16,0.8
					c-0.08,0.23-0.2,0.46-0.37,0.67s-0.39,0.46-0.66,0.73c-0.37,0.37-0.68,0.65-0.95,0.85c-0.26,0.2-0.51,0.35-0.73,0.44
					c-0.22,0.1-0.44,0.15-0.66,0.17s-0.47,0.02-0.76,0.02h-2.4c-0.38,0-0.7-0.02-0.96-0.05s-0.49-0.09-0.7-0.18
					c-0.21-0.09-0.42-0.22-0.62-0.38c-0.21-0.17-0.46-0.39-0.74-0.66c-0.35-0.32-0.62-0.6-0.82-0.84c-0.19-0.24-0.33-0.48-0.42-0.72
					c-0.09-0.24-0.14-0.5-0.16-0.79c-0.02-0.29-0.02-0.63-0.02-1.03V24.5h-0.82v-2.86h4.63v11.81c0,0.46,0.02,0.81,0.05,1.03
					c0.03,0.22,0.09,0.42,0.17,0.6c0.13,0.26,0.32,0.43,0.58,0.52c0.26,0.09,0.62,0.13,1.09,0.13c0.21,0,0.43-0.02,0.65-0.05
					s0.41-0.14,0.56-0.31c0.16-0.16,0.27-0.36,0.34-0.6c0.06-0.24,0.1-0.68,0.1-1.32V21.64H1257.83z"/>
				<path class="nav05a0" d="M1252.69,40.58h-2.4c-0.47,0-0.87-0.02-1.21-0.06c-0.44-0.06-0.85-0.16-1.23-0.32
					c-0.38-0.16-0.75-0.38-1.1-0.67c-0.24-0.19-0.52-0.44-0.86-0.76c-0.4-0.36-0.74-0.71-1-1.04c-0.33-0.42-0.58-0.85-0.74-1.29
					c-0.16-0.42-0.25-0.89-0.28-1.37c-0.02-0.32-0.03-0.7-0.03-1.14V26.5h-0.82v-6.86h16.79v6.86h-0.82v7.26
					c0,0.51-0.02,0.94-0.04,1.28c-0.04,0.48-0.13,0.92-0.26,1.3c-0.15,0.44-0.38,0.86-0.68,1.25c-0.22,0.29-0.49,0.59-0.82,0.92
					c-0.44,0.44-0.81,0.77-1.16,1.03c-0.39,0.3-0.77,0.52-1.14,0.69c-0.44,0.19-0.88,0.3-1.31,0.33
					C1253.34,40.58,1253.04,40.58,1252.69,40.58z"/>
			</g>
			<g>
				<path class="nav05a0" d="M1268.34,25.19c-0.08-0.3-0.18-0.5-0.3-0.6c-0.12-0.1-0.39-0.15-0.8-0.17h-1.15
					c-0.16,0-0.34,0.01-0.53,0.04c-0.19,0.02-0.38,0.12-0.55,0.28c-0.1,0.1-0.17,0.2-0.23,0.3c-0.06,0.1-0.1,0.24-0.12,0.41
					c-0.02,0.17-0.04,0.38-0.05,0.64c-0.01,0.26-0.01,0.59-0.01,1.01c0.03,0.34,0.11,0.56,0.23,0.67c0.12,0.11,0.39,0.23,0.8,0.36
					l4.54,1.46c0.43,0.13,0.76,0.26,1,0.4c0.23,0.14,0.4,0.3,0.5,0.5c0.1,0.2,0.17,0.45,0.19,0.74c0.02,0.3,0.04,0.67,0.04,1.12
					v2.06c0,0.37-0.01,0.67-0.04,0.9c-0.02,0.23-0.08,0.44-0.16,0.61c-0.08,0.18-0.2,0.36-0.35,0.54c-0.15,0.18-0.36,0.41-0.61,0.68
					c-0.29,0.32-0.55,0.58-0.79,0.77c-0.24,0.19-0.48,0.34-0.72,0.43c-0.24,0.1-0.49,0.16-0.76,0.19c-0.26,0.03-0.57,0.05-0.92,0.05
					h-6.29l-0.38-5.45h3l0.46,1.99c0.06,0.26,0.15,0.43,0.25,0.52c0.1,0.09,0.28,0.15,0.54,0.18h1.46c0.22,0,0.4-0.01,0.54-0.04
					c0.14-0.02,0.28-0.08,0.42-0.16c0.14-0.08,0.26-0.17,0.35-0.28s0.15-0.25,0.18-0.43c0.03-0.18,0.05-0.42,0.06-0.71
					c0.01-0.29,0.01-0.66,0.01-1.13c0-0.27-0.06-0.48-0.19-0.61c-0.13-0.14-0.38-0.27-0.74-0.4l-4.37-1.44
					c-0.46-0.16-0.83-0.3-1.09-0.42c-0.26-0.12-0.46-0.28-0.59-0.47s-0.21-0.44-0.24-0.74c-0.03-0.3-0.05-0.71-0.05-1.22v-2.38
					c0-0.24,0.01-0.45,0.02-0.62c0.02-0.18,0.07-0.36,0.16-0.54c0.09-0.18,0.22-0.39,0.4-0.61c0.18-0.22,0.43-0.49,0.77-0.79
					c0.3-0.29,0.58-0.51,0.82-0.67c0.24-0.16,0.47-0.28,0.7-0.36c0.22-0.08,0.45-0.13,0.67-0.14c0.22-0.02,0.46-0.02,0.72-0.02h6
					l0.41,5.28h-2.93L1268.34,25.19z"/>
				<path class="nav05a0" d="M1267.55,40.58h-8.15l-0.67-9.45h0.98c-0.07-0.09-0.14-0.18-0.21-0.27c-0.31-0.46-0.5-1.02-0.56-1.65
					c-0.04-0.36-0.06-0.83-0.06-1.43v-2.38c0-0.31,0.01-0.58,0.03-0.81c0.04-0.41,0.15-0.82,0.35-1.22
					c0.15-0.31,0.35-0.63,0.62-0.98c0.25-0.32,0.58-0.66,1-1.04c0.36-0.34,0.71-0.63,1.05-0.85c0.38-0.25,0.76-0.45,1.13-0.58
					c0.39-0.14,0.8-0.23,1.2-0.26c0.27-0.02,0.56-0.03,0.86-0.03h7.85l0.72,9.28h-0.7c0.18,0.2,0.33,0.41,0.45,0.64
					c0.22,0.43,0.36,0.94,0.41,1.5c0.03,0.35,0.04,0.77,0.04,1.28v2.06c0,0.45-0.02,0.82-0.05,1.1c-0.05,0.46-0.16,0.87-0.33,1.24
					c-0.15,0.33-0.36,0.66-0.62,0.98c-0.17,0.21-0.41,0.47-0.7,0.78c-0.34,0.38-0.67,0.7-1,0.96c-0.39,0.31-0.8,0.56-1.23,0.73
					c-0.39,0.16-0.82,0.27-1.25,0.32C1268.37,40.56,1267.99,40.58,1267.55,40.58z M1266.09,33.83h0.03l-0.03-0.01L1266.09,33.83z
					 M1269.75,31.55c0.05,0.08,0.09,0.17,0.14,0.26c0-0.08,0-0.15-0.01-0.22C1269.84,31.58,1269.8,31.57,1269.75,31.55z
					 M1262.89,28.53c0.02,0.01,0.04,0.02,0.06,0.02c-0.02-0.04-0.04-0.09-0.07-0.14C1262.89,28.46,1262.89,28.5,1262.89,28.53z
					 M1267.35,26.44L1267.35,26.44L1267.35,26.44z"/>
			</g>
			<g>
				<path class="nav05a0" d="M1286.05,21.62l0.41,5.38h-3l-0.26-1.63c-0.08-0.37-0.17-0.6-0.26-0.71c-0.1-0.1-0.34-0.16-0.74-0.18h-2.42
					v4.08h4.1v2.57h-4.1v4.66h2.57c0.42,0.02,0.69-0.03,0.82-0.14c0.13-0.11,0.23-0.37,0.31-0.77l0.34-1.87h3l-0.34,5.59h-11.33
					v-2.86h0.82V24.5h-0.82v-2.88H1286.05z"/>
				<path class="nav05a0" d="M1288.34,40.58h-15.21v-6.86h0.82V26.5h-0.82v-6.88h14.77l0.71,9.38h-2.75v2h3.05L1288.34,40.58z
					 M1282.53,33.78L1282.53,33.78L1282.53,33.78z"/>
			</g>
			<g>
				<path class="nav05a0" d="M1302.23,21.64v2.86h-0.81v9.26c0,0.45-0.01,0.82-0.04,1.13c-0.02,0.3-0.08,0.57-0.16,0.8
					c-0.08,0.23-0.2,0.46-0.37,0.67s-0.39,0.46-0.66,0.73c-0.37,0.37-0.68,0.65-0.95,0.85c-0.27,0.2-0.51,0.35-0.73,0.44
					c-0.22,0.1-0.45,0.15-0.66,0.17c-0.22,0.02-0.47,0.02-0.76,0.02h-2.4c-0.38,0-0.71-0.02-0.96-0.05
					c-0.26-0.03-0.49-0.09-0.7-0.18c-0.21-0.09-0.42-0.22-0.62-0.38c-0.21-0.17-0.46-0.39-0.74-0.66c-0.35-0.32-0.62-0.6-0.82-0.84
					c-0.19-0.24-0.33-0.48-0.42-0.72c-0.09-0.24-0.14-0.5-0.16-0.79c-0.02-0.29-0.02-0.63-0.02-1.03V24.5h-0.82v-2.86h4.63v11.81
					c0,0.46,0.02,0.81,0.05,1.03c0.03,0.22,0.09,0.42,0.17,0.6c0.13,0.26,0.32,0.43,0.58,0.52s0.62,0.13,1.09,0.13
					c0.21,0,0.43-0.02,0.65-0.05c0.23-0.03,0.41-0.14,0.56-0.31c0.16-0.16,0.27-0.36,0.34-0.6c0.06-0.24,0.1-0.68,0.1-1.32V21.64
					H1302.23z"/>
				<path class="nav05a0" d="M1297.09,40.58h-2.4c-0.48,0-0.87-0.02-1.21-0.06c-0.43-0.05-0.84-0.16-1.22-0.32
					c-0.39-0.16-0.76-0.39-1.11-0.67c-0.24-0.19-0.53-0.44-0.86-0.76c-0.4-0.36-0.74-0.71-1-1.04c-0.33-0.41-0.58-0.84-0.74-1.28
					c-0.16-0.42-0.25-0.89-0.28-1.37c-0.02-0.32-0.03-0.7-0.03-1.14V26.5h-0.82v-6.86h16.79v6.86h-0.81v7.26
					c0,0.51-0.01,0.95-0.04,1.3c-0.04,0.46-0.12,0.9-0.26,1.29c-0.15,0.44-0.38,0.86-0.68,1.25c-0.22,0.28-0.49,0.58-0.82,0.92
					c-0.44,0.44-0.82,0.78-1.16,1.03c-0.4,0.3-0.77,0.52-1.14,0.69c-0.44,0.19-0.88,0.3-1.31,0.33
					C1297.73,40.58,1297.43,40.58,1297.09,40.58z"/>
			</g>
			<g>
				<path class="nav05a0" d="M1323.52,21.64v2.86h-0.82v11.23h0.82v2.86h-4.39l0.1-14.09l-3.79,14.09h-2.3l-3.82-14.09l0.12,14.09h-4.37
					v-2.86h0.82V24.5h-0.82v-2.86h6.82l2.45,11.14l2.47-11.14H1323.52z"/>
				<polygon class="nav05a0" points="1311.59,40.58 1311.44,40.02 1311.45,40.58 1303.06,40.58 1303.06,33.73 1303.88,33.73 
					1303.88,26.5 1303.06,26.5 1303.06,19.64 1313.48,19.64 1314.33,23.51 1315.19,19.64 1325.52,19.64 1325.52,26.5 1324.7,26.5 
					1324.7,33.73 1325.52,33.73 1325.52,40.58 1317.11,40.58 1317.11,40.01 1316.96,40.58 				"/>
			</g>
		</g>
	</g>
	<g>
		<path class="nav05a1" d="M1164.09,27.3l-0.49-9.66h-15.71l-0.11,1.92c-0.05-0.05-0.1-0.1-0.16-0.15c-0.42-0.39-0.79-0.68-1.12-0.91
			c-0.41-0.28-0.83-0.48-1.25-0.62c-0.38-0.12-0.78-0.19-1.19-0.22c-0.28-0.02-0.63-0.03-1.05-0.03h-9.52v3.18
			c-0.08-0.12-0.15-0.24-0.24-0.35c-0.24-0.3-0.54-0.63-0.9-0.97c-0.39-0.39-0.72-0.69-1.03-0.92c-0.36-0.27-0.73-0.48-1.09-0.63
			c-0.39-0.16-0.8-0.25-1.22-0.28c-0.26-0.02-0.56-0.03-0.92-0.03h-2.83c-0.4,0-0.74,0.01-1.04,0.03c-0.45,0.03-0.88,0.12-1.28,0.27
			c-0.39,0.14-0.77,0.35-1.15,0.63c-0.31,0.22-0.65,0.52-1.09,0.94c-0.37,0.37-0.66,0.67-0.86,0.9c-0.1,0.11-0.17,0.22-0.25,0.33
			c-0.09-0.14-0.18-0.27-0.29-0.4c-0.23-0.27-0.51-0.56-0.84-0.85c-0.44-0.4-0.81-0.7-1.15-0.94c-0.4-0.28-0.79-0.48-1.18-0.62
			c-0.4-0.14-0.82-0.23-1.26-0.26c-0.28-0.02-0.63-0.03-1.05-0.03h-9.73v1.92c-0.03-0.03-0.05-0.05-0.08-0.08
			c-0.44-0.4-0.81-0.7-1.15-0.94c-0.4-0.28-0.79-0.48-1.18-0.62c-0.4-0.14-0.82-0.23-1.26-0.26c-0.28-0.02-0.63-0.03-1.05-0.03
			h-8.56h-1.17h-15.61h-0.01h-7.84c-0.31,0-0.59,0.01-0.86,0.03c-0.4,0.03-0.81,0.12-1.2,0.26c-0.38,0.13-0.76,0.33-1.13,0.58
			c-0.34,0.23-0.69,0.52-1.05,0.85c-0.42,0.39-0.75,0.72-1,1.04c-0.27,0.34-0.47,0.67-0.62,0.98c-0.19,0.4-0.31,0.82-0.35,1.22
			c-0.02,0.23-0.03,0.5-0.03,0.81v2.38c0,0.6,0.02,1.07,0.06,1.43c0.06,0.63,0.25,1.18,0.56,1.65c0.06,0.1,0.13,0.19,0.21,0.27
			h-0.98l0.67,9.45h8.15c0.44,0,0.82-0.02,1.17-0.06c0.43-0.05,0.85-0.16,1.25-0.32c0.42-0.17,0.83-0.41,1.23-0.73
			c0.33-0.26,0.67-0.59,1-0.96c0.29-0.31,0.52-0.57,0.7-0.78c0.26-0.32,0.47-0.65,0.62-0.98c0.17-0.37,0.28-0.78,0.33-1.24
			c0-0.02,0-0.06,0.01-0.08c0.04,0.35,0.11,0.69,0.23,1.01c0.16,0.44,0.41,0.87,0.74,1.28c0.26,0.33,0.6,0.68,1,1.04
			c0.33,0.32,0.62,0.57,0.86,0.76c0.35,0.29,0.73,0.51,1.09,0.67c0.38,0.16,0.79,0.27,1.23,0.33c0.34,0.04,0.74,0.06,1.21,0.06h2.4
			c0.35,0,0.65-0.01,0.9-0.03c0.43-0.03,0.87-0.14,1.3-0.32c0.38-0.16,0.76-0.39,1.15-0.69c0.34-0.25,0.72-0.59,1.16-1.03
			c0.33-0.33,0.6-0.63,0.83-0.92c0.28-0.35,0.48-0.74,0.63-1.13v4.13h9.54v-6.86h-0.91v-0.06h1.05c0.48,0,0.89-0.02,1.24-0.06
			c0.46-0.05,0.9-0.16,1.31-0.33c0.4-0.17,0.8-0.41,1.19-0.72c0.3-0.24,0.64-0.55,1.03-0.94c0.35-0.35,0.61-0.64,0.81-0.88v2.98
			h-0.82v6.86h9.54v-6.86h-0.91v-0.06h1.05c0.48,0,0.89-0.02,1.24-0.06c0.46-0.05,0.9-0.16,1.31-0.33c0.4-0.17,0.8-0.41,1.19-0.72
			c0.3-0.24,0.64-0.55,1.03-0.94c0.08-0.08,0.14-0.14,0.21-0.22v2.86c0,0.35,0.01,0.67,0.03,0.95c0.03,0.43,0.12,0.85,0.26,1.25
			c0.13,0.36,0.32,0.73,0.56,1.08c0.21,0.31,0.48,0.64,0.85,1.03c0.37,0.38,0.7,0.68,1,0.92c0.37,0.3,0.74,0.53,1.12,0.7
			c0.4,0.18,0.81,0.29,1.24,0.34c0.28,0.03,0.59,0.05,0.95,0.05h3.26c0.41,0,0.76-0.02,1.07-0.05c0.46-0.04,0.9-0.16,1.32-0.34
			c0.39-0.17,0.77-0.42,1.13-0.72c0.25-0.21,0.54-0.48,0.87-0.82c0.38-0.38,0.68-0.71,0.9-0.99c0.07-0.09,0.12-0.17,0.18-0.26v3.18
			h17.06v-6.86h-0.82v-0.64c0-0.81-0.06-1.38-0.21-1.84c-0.16-0.51-0.42-0.97-0.78-1.37c0.07-0.09,0.14-0.18,0.2-0.27
			c0.07-0.1,0.11-0.21,0.17-0.31h2.67v4.42h-0.82v6.86h9.45v-6.86h-0.82V27.3H1164.09z M1067.14,31.81l0.03,0.01h-0.03
			L1067.14,31.81z M1074.5,27.56c-0.12-0.23-0.27-0.45-0.45-0.64h0.7l-0.19-2.42h0.28v4.17
			C1074.77,28.26,1074.67,27.89,1074.5,27.56z M1090.46,31.73H1090V24.5h0.46V31.73z M1134.31,31.73h-0.03V24.5h0.03V31.73z"/>
		<path class="nav05a1" d="M1211.56,26.99h2.75l-0.71-9.38h-14.77v0.02h-14.29h-1.67h-14.04l-0.57,9.66h4.47v4.42h-0.82v6.86h9.45v-6.86
			h-0.82V27.3h3.15v4.42h-0.82v6.86h15.96h1.02h14.19l0.58-9.59h-3.05V26.99z M1199.03,31.73V24.5h0.61v7.23H1199.03z"/>
		<path class="nav05a1" d="M1323.51,24.5v-6.86h-10.32l-0.86,3.86l-0.85-3.86h-9.26h-1.17h-15.15l0-0.02h-14.77v2.05l-0.16-2.02h-7.85
			c-0.31,0-0.59,0.01-0.86,0.03c-0.4,0.03-0.81,0.12-1.2,0.26c-0.38,0.13-0.76,0.33-1.13,0.58c-0.34,0.23-0.7,0.52-1.05,0.85
			c-0.42,0.38-0.75,0.72-1,1.04c-0.02,0.03-0.03,0.05-0.05,0.07v-2.83h-15.62h-1.17h-9.16l-0.86,3.86l-0.85-3.86h-10.42v6.86h0.82
			v7.23h-0.82v6.86h8.39l0-0.57l0.15,0.57h2.4l0.32,1.46l0.33-1.46h2.32l0.15-0.57l0,0.57h8.41v-4.04c0.16,0.4,0.38,0.8,0.69,1.17
			c0.26,0.33,0.6,0.68,1,1.04c0.33,0.32,0.62,0.57,0.86,0.76c0.35,0.29,0.72,0.51,1.09,0.67c0.38,0.16,0.79,0.27,1.23,0.33
			c0.34,0.04,0.74,0.06,1.21,0.06h2.4c0.35,0,0.65-0.01,0.9-0.03c0.43-0.03,0.87-0.14,1.3-0.32c0.38-0.16,0.76-0.39,1.15-0.69
			c0.34-0.26,0.72-0.59,1.16-1.03c0.34-0.34,0.61-0.64,0.82-0.92c0.3-0.39,0.53-0.81,0.68-1.25c0.14-0.39,0.22-0.83,0.26-1.3
			c0.01-0.09,0.01-0.2,0.02-0.3l0.41,5.83h8.15c0.44,0,0.82-0.02,1.17-0.06c0.43-0.05,0.86-0.16,1.25-0.32
			c0.42-0.17,0.83-0.41,1.23-0.73c0.33-0.26,0.67-0.59,1-0.96c0.29-0.31,0.52-0.57,0.69-0.78c0.09-0.11,0.16-0.22,0.24-0.33v3.18
			h15.21l0.24-4.07c0.16,0.42,0.39,0.82,0.7,1.21c0.26,0.33,0.6,0.68,1,1.04c0.33,0.32,0.62,0.57,0.86,0.76
			c0.35,0.28,0.72,0.51,1.1,0.67c0.38,0.16,0.79,0.27,1.23,0.32c0.34,0.04,0.73,0.06,1.21,0.06h2.4c0.34,0,0.65-0.01,0.9-0.03
			c0.43-0.03,0.87-0.14,1.3-0.33c0.38-0.16,0.75-0.39,1.15-0.69c0.33-0.25,0.71-0.59,1.16-1.03c0.34-0.34,0.61-0.64,0.82-0.92
			c0.28-0.35,0.48-0.74,0.63-1.13v4.13h8.39l0-0.57l0.15,0.57h5.37l0.15-0.57l0,0.57h8.41v-6.86h-0.82V24.5H1323.51z M1241.39,24.5
			h0.46v7.23h-0.46V24.5z M1257.01,29.14v-1.56c0.09,0.48,0.24,0.92,0.49,1.29c0.06,0.1,0.13,0.19,0.21,0.27H1257.01z
			 M1264.08,31.81l0.03,0.01h-0.03L1264.08,31.81z M1283.87,26.99h2.38v2h-2.38V26.99z M1271.95,31.73h-0.06v-1.38
			c0-0.51-0.01-0.94-0.04-1.27c-0.04-0.56-0.18-1.07-0.41-1.51c-0.12-0.23-0.27-0.44-0.44-0.64h0.7l-0.19-2.42h0.44V31.73z
			 M1301.88,31.73h-0.46V24.5h0.46V31.73z"/>
	</g>
	<g>
		<path d="M1069.4,23.19c-0.08-0.3-0.18-0.5-0.3-0.6c-0.12-0.1-0.39-0.15-0.8-0.17h-1.15c-0.16,0-0.34,0.01-0.53,0.04
			c-0.19,0.02-0.38,0.12-0.55,0.28c-0.1,0.1-0.17,0.2-0.23,0.3c-0.06,0.1-0.1,0.24-0.12,0.41c-0.02,0.17-0.04,0.38-0.05,0.64
			c-0.01,0.26-0.01,0.59-0.01,1.01c0.03,0.34,0.11,0.56,0.23,0.67c0.12,0.11,0.39,0.23,0.8,0.36l4.54,1.46
			c0.43,0.13,0.76,0.26,1,0.4c0.23,0.14,0.4,0.3,0.5,0.5c0.1,0.2,0.17,0.45,0.19,0.74c0.02,0.3,0.04,0.67,0.04,1.12v2.06
			c0,0.37-0.01,0.67-0.04,0.9c-0.02,0.23-0.08,0.44-0.16,0.61c-0.08,0.18-0.2,0.36-0.35,0.54c-0.15,0.18-0.36,0.41-0.61,0.68
			c-0.29,0.32-0.55,0.58-0.79,0.77c-0.24,0.19-0.48,0.34-0.72,0.43s-0.49,0.16-0.76,0.19c-0.26,0.03-0.57,0.05-0.92,0.05h-6.29
			l-0.38-5.45h3l0.46,1.99c0.06,0.26,0.15,0.43,0.25,0.52c0.1,0.09,0.28,0.15,0.54,0.18h1.46c0.22,0,0.4-0.01,0.54-0.04
			s0.28-0.08,0.42-0.16c0.14-0.08,0.26-0.17,0.35-0.28c0.09-0.1,0.15-0.25,0.18-0.43c0.03-0.18,0.05-0.42,0.06-0.71
			c0.01-0.29,0.01-0.66,0.01-1.13c0-0.27-0.06-0.48-0.19-0.61c-0.13-0.14-0.38-0.27-0.74-0.4l-4.37-1.44
			c-0.46-0.16-0.83-0.3-1.09-0.42c-0.26-0.12-0.46-0.28-0.59-0.47s-0.21-0.44-0.24-0.74c-0.03-0.3-0.05-0.71-0.05-1.22v-2.38
			c0-0.24,0.01-0.45,0.02-0.62c0.02-0.18,0.07-0.36,0.16-0.54c0.09-0.18,0.22-0.39,0.4-0.61c0.18-0.22,0.43-0.49,0.77-0.79
			c0.3-0.29,0.58-0.51,0.82-0.67c0.24-0.16,0.47-0.28,0.7-0.36c0.22-0.08,0.45-0.13,0.67-0.14c0.22-0.02,0.46-0.02,0.72-0.02h6
			l0.41,5.28h-2.93L1069.4,23.19z"/>
		<path d="M1088.81,19.64v2.86H1088v9.26c0,0.45-0.01,0.82-0.04,1.13c-0.02,0.3-0.08,0.57-0.16,0.8c-0.08,0.23-0.2,0.46-0.37,0.67
			c-0.17,0.22-0.39,0.46-0.66,0.73c-0.37,0.37-0.68,0.65-0.95,0.85c-0.26,0.2-0.51,0.35-0.73,0.44c-0.22,0.1-0.44,0.15-0.66,0.17
			c-0.22,0.02-0.47,0.02-0.76,0.02h-2.4c-0.38,0-0.7-0.02-0.96-0.05s-0.49-0.09-0.7-0.18c-0.21-0.09-0.42-0.22-0.62-0.38
			c-0.21-0.17-0.46-0.39-0.74-0.66c-0.35-0.32-0.62-0.6-0.82-0.84c-0.19-0.24-0.33-0.48-0.42-0.72c-0.09-0.24-0.14-0.5-0.16-0.79
			s-0.02-0.63-0.02-1.03V22.5h-0.82v-2.86h4.63v11.81c0,0.46,0.02,0.81,0.05,1.03c0.03,0.22,0.09,0.42,0.17,0.6
			c0.13,0.26,0.32,0.43,0.58,0.52c0.26,0.09,0.62,0.13,1.09,0.13c0.21,0,0.43-0.02,0.65-0.05s0.41-0.14,0.56-0.31
			c0.16-0.16,0.27-0.36,0.34-0.6c0.06-0.24,0.1-0.68,0.1-1.32V19.64H1088.81z"/>
		<path d="M1091.65,36.58v-2.86h0.82V22.5h-0.82v-2.86h7.73c0.37,0,0.68,0.01,0.92,0.02c0.25,0.02,0.48,0.06,0.71,0.14
			c0.22,0.08,0.46,0.21,0.72,0.38c0.25,0.18,0.57,0.43,0.94,0.77c0.27,0.24,0.49,0.46,0.66,0.66s0.3,0.4,0.38,0.61
			c0.09,0.21,0.15,0.44,0.18,0.68s0.05,0.55,0.05,0.9v1.7c0,0.29-0.01,0.54-0.02,0.74s-0.06,0.4-0.14,0.59
			c-0.08,0.18-0.2,0.38-0.37,0.59c-0.17,0.21-0.4,0.46-0.71,0.77c-0.34,0.34-0.62,0.6-0.86,0.79s-0.48,0.34-0.71,0.43
			c-0.23,0.1-0.49,0.16-0.77,0.19c-0.28,0.03-0.62,0.05-1.02,0.05h-3.05v4.06h0.91v2.86H1091.65z M1096.28,26.82h1.61
			c0.35,0,0.67-0.02,0.95-0.05c0.28-0.03,0.52-0.12,0.72-0.25c0.2-0.14,0.35-0.34,0.46-0.62c0.1-0.28,0.16-0.67,0.16-1.16
			c0-0.42-0.02-0.77-0.06-1.07c-0.04-0.3-0.13-0.54-0.28-0.72c-0.14-0.18-0.36-0.32-0.65-0.4c-0.29-0.08-0.68-0.12-1.18-0.12h-1.73
			V26.82z"/>
		<path d="M1106.09,36.58v-2.86h0.82V22.5h-0.82v-2.86h7.73c0.37,0,0.68,0.01,0.92,0.02c0.25,0.02,0.48,0.06,0.71,0.14
			c0.22,0.08,0.46,0.21,0.72,0.38c0.25,0.18,0.57,0.43,0.94,0.77c0.27,0.24,0.49,0.46,0.66,0.66s0.3,0.4,0.38,0.61
			c0.09,0.21,0.15,0.44,0.18,0.68s0.05,0.55,0.05,0.9v1.7c0,0.29-0.01,0.54-0.02,0.74s-0.06,0.4-0.14,0.59
			c-0.08,0.18-0.2,0.38-0.37,0.59c-0.17,0.21-0.4,0.46-0.71,0.77c-0.34,0.34-0.62,0.6-0.86,0.79s-0.48,0.34-0.71,0.43
			c-0.23,0.1-0.49,0.16-0.77,0.19c-0.28,0.03-0.62,0.05-1.02,0.05h-3.05v4.06h0.91v2.86H1106.09z M1110.73,26.82h1.61
			c0.35,0,0.67-0.02,0.95-0.05c0.28-0.03,0.52-0.12,0.72-0.25c0.2-0.14,0.35-0.34,0.46-0.62c0.1-0.28,0.16-0.67,0.16-1.16
			c0-0.42-0.02-0.77-0.06-1.07c-0.04-0.3-0.13-0.54-0.28-0.72c-0.14-0.18-0.36-0.32-0.65-0.4c-0.29-0.08-0.68-0.12-1.18-0.12h-1.73
			V26.82z"/>
		<path d="M1128.09,19.64c0.3,0,0.56,0.01,0.78,0.02c0.21,0.02,0.42,0.06,0.62,0.14c0.2,0.08,0.41,0.2,0.63,0.37
			c0.22,0.17,0.49,0.41,0.81,0.73c0.32,0.3,0.57,0.57,0.74,0.79c0.17,0.22,0.31,0.44,0.39,0.66c0.09,0.22,0.14,0.44,0.17,0.68
			c0.02,0.24,0.04,0.54,0.04,0.89v8.4c0,0.34-0.01,0.62-0.02,0.84c-0.02,0.22-0.06,0.44-0.14,0.64c-0.08,0.2-0.2,0.41-0.37,0.62
			s-0.41,0.48-0.73,0.8c-0.29,0.29-0.54,0.52-0.76,0.71c-0.22,0.18-0.43,0.32-0.65,0.42c-0.22,0.1-0.45,0.16-0.7,0.18
			c-0.25,0.02-0.54,0.04-0.88,0.04h-3.26c-0.27,0-0.51-0.01-0.73-0.04c-0.21-0.02-0.43-0.08-0.64-0.18
			c-0.21-0.1-0.44-0.24-0.68-0.43c-0.24-0.19-0.52-0.45-0.83-0.77c-0.25-0.27-0.46-0.52-0.61-0.74c-0.15-0.22-0.27-0.44-0.35-0.66
			c-0.08-0.22-0.13-0.44-0.14-0.68c-0.02-0.24-0.02-0.51-0.02-0.82v-8.47c0-0.34,0.01-0.62,0.04-0.84c0.02-0.22,0.08-0.43,0.16-0.62
			c0.08-0.19,0.21-0.39,0.39-0.6s0.44-0.48,0.78-0.82c0.33-0.32,0.62-0.56,0.85-0.73s0.46-0.29,0.67-0.37
			c0.21-0.08,0.45-0.13,0.71-0.14c0.26-0.02,0.56-0.02,0.91-0.02H1128.09z M1124.57,24.91v6.36c0,0.45,0.02,0.83,0.06,1.15
			c0.04,0.31,0.13,0.57,0.28,0.76s0.35,0.33,0.62,0.42c0.27,0.09,0.62,0.13,1.05,0.13c0.47,0,0.83-0.06,1.08-0.18
			c0.25-0.12,0.43-0.28,0.56-0.48c0.12-0.2,0.19-0.43,0.22-0.7s0.04-0.55,0.04-0.86v-6.56c0-0.61-0.02-1.05-0.07-1.31
			s-0.17-0.49-0.36-0.69s-0.41-0.32-0.65-0.37c-0.24-0.06-0.58-0.08-1.01-0.08c-0.08,0-0.19,0-0.34,0.01
			c-0.15,0.01-0.29,0.04-0.45,0.08c-0.15,0.05-0.31,0.13-0.46,0.24c-0.15,0.11-0.28,0.27-0.37,0.48c-0.08,0.16-0.13,0.34-0.14,0.53
			C1124.58,24.04,1124.57,24.39,1124.57,24.91z"/>
		<path d="M1135.49,36.58v-2.86h0.82V22.5h-0.82v-2.86h7.52c0.37,0,0.67,0.01,0.92,0.02c0.25,0.02,0.49,0.06,0.72,0.13
			c0.23,0.07,0.47,0.19,0.72,0.36c0.25,0.17,0.55,0.41,0.9,0.73c0.32,0.29,0.56,0.53,0.73,0.73s0.29,0.4,0.37,0.59
			s0.13,0.4,0.16,0.61c0.02,0.22,0.04,0.48,0.04,0.8v1.42c0,0.43-0.02,0.74-0.05,0.91c-0.03,0.18-0.11,0.36-0.24,0.55
			c-0.13,0.19-0.33,0.4-0.62,0.64s-0.78,0.53-1.48,0.9c0.43,0.18,0.83,0.36,1.19,0.55c0.37,0.19,0.64,0.38,0.83,0.58
			s0.33,0.42,0.41,0.67c0.08,0.26,0.12,0.67,0.12,1.25v2.64h0.82v2.86h-4.63v-4.92c0-0.38-0.01-0.68-0.02-0.89
			c-0.02-0.21-0.06-0.4-0.14-0.58c-0.19-0.38-0.47-0.61-0.83-0.67c-0.36-0.06-0.72-0.1-1.09-0.1h-1.7v7.15H1135.49z M1140.13,26.79
			h1.7c0.3,0,0.58-0.02,0.82-0.07c0.24-0.05,0.44-0.14,0.61-0.29s0.3-0.36,0.4-0.64c0.1-0.28,0.14-0.65,0.14-1.12
			c0-0.9-0.14-1.48-0.43-1.76c-0.29-0.28-0.8-0.42-1.54-0.42h-1.7V26.79z"/>
		<path d="M1161.7,19.64l0.29,5.66h-2.45l-0.29-1.9c-0.03-0.24-0.06-0.42-0.08-0.54c-0.02-0.12-0.08-0.21-0.16-0.28
			c-0.08-0.08-0.2-0.12-0.37-0.13c-0.17-0.01-0.52-0.01-1.04-0.01v11.28h0.82v2.86h-5.45v-2.86h0.82V22.45h-1.06
			c-0.21,0.03-0.34,0.1-0.4,0.22c-0.06,0.11-0.11,0.33-0.16,0.65l-0.36,1.99h-2.38l0.34-5.66H1161.7z"/>
		<path d="M1182.63,19.64l0.29,5.66h-2.45l-0.29-1.9c-0.03-0.24-0.06-0.42-0.08-0.54c-0.02-0.12-0.08-0.21-0.16-0.28
			c-0.08-0.08-0.2-0.12-0.37-0.13c-0.17-0.01-0.52-0.01-1.04-0.01v11.28h0.82v2.86h-5.45v-2.86h0.82V22.45h-1.06
			c-0.21,0.03-0.34,0.1-0.4,0.22c-0.06,0.11-0.11,0.33-0.16,0.65l-0.36,1.99h-2.38l0.34-5.66H1182.63z"/>
		<path d="M1197.84,19.64v2.86h-0.82v11.23h0.82v2.86h-4.63v-7.34h-3.72v7.34h-4.63v-2.86h0.82V22.5h-0.82v-2.86h4.63v6.74h3.72
			v-6.74H1197.84z"/>
		<path d="M1211.74,19.62l0.41,5.38h-3l-0.26-1.63c-0.08-0.37-0.17-0.6-0.26-0.71c-0.1-0.1-0.34-0.16-0.74-0.18h-2.42v4.08h4.1v2.57
			h-4.1v4.66h2.57c0.42,0.02,0.69-0.03,0.82-0.14c0.13-0.11,0.23-0.37,0.31-0.77l0.34-1.87h3l-0.34,5.59h-11.33v-2.86h0.82V22.5
			h-0.82v-2.88H1211.74z"/>
		<path d="M1240.2,19.64v2.86h-0.82v11.23h0.82v2.86h-4.39l0.1-14.09l-3.79,14.09h-2.3L1226,22.5l0.12,14.09h-4.37v-2.86h0.82V22.5
			h-0.82v-2.86h6.82l2.45,11.14l2.47-11.14H1240.2z"/>
		<path d="M1255.83,19.64v2.86h-0.82v9.26c0,0.45-0.01,0.82-0.04,1.13c-0.02,0.3-0.08,0.57-0.16,0.8c-0.08,0.23-0.2,0.46-0.37,0.67
			c-0.17,0.22-0.39,0.46-0.66,0.73c-0.37,0.37-0.68,0.65-0.95,0.85c-0.26,0.2-0.51,0.35-0.73,0.44c-0.22,0.1-0.44,0.15-0.66,0.17
			c-0.22,0.02-0.47,0.02-0.76,0.02h-2.4c-0.38,0-0.7-0.02-0.96-0.05c-0.26-0.03-0.49-0.09-0.7-0.18c-0.21-0.09-0.42-0.22-0.62-0.38
			s-0.46-0.39-0.74-0.66c-0.35-0.32-0.62-0.6-0.82-0.84c-0.19-0.24-0.33-0.48-0.42-0.72c-0.09-0.24-0.14-0.5-0.16-0.79
			c-0.02-0.29-0.02-0.63-0.02-1.03V22.5h-0.82v-2.86h4.63v11.81c0,0.46,0.02,0.81,0.05,1.03c0.03,0.22,0.09,0.42,0.17,0.6
			c0.13,0.26,0.32,0.43,0.58,0.52c0.26,0.09,0.62,0.13,1.09,0.13c0.21,0,0.43-0.02,0.65-0.05s0.41-0.14,0.56-0.31
			c0.16-0.16,0.27-0.36,0.34-0.6c0.06-0.24,0.1-0.68,0.1-1.32V19.64H1255.83z"/>
		<path d="M1266.34,23.19c-0.08-0.3-0.18-0.5-0.3-0.6c-0.12-0.1-0.39-0.15-0.8-0.17h-1.15c-0.16,0-0.34,0.01-0.53,0.04
			c-0.19,0.02-0.38,0.12-0.55,0.28c-0.1,0.1-0.17,0.2-0.23,0.3c-0.06,0.1-0.1,0.24-0.12,0.41c-0.02,0.17-0.04,0.38-0.05,0.64
			s-0.01,0.59-0.01,1.01c0.03,0.34,0.11,0.56,0.23,0.67c0.12,0.11,0.39,0.23,0.8,0.36l4.54,1.46c0.43,0.13,0.76,0.26,1,0.4
			c0.23,0.14,0.4,0.3,0.5,0.5c0.1,0.2,0.17,0.45,0.19,0.74c0.02,0.3,0.04,0.67,0.04,1.12v2.06c0,0.37-0.01,0.67-0.04,0.9
			c-0.02,0.23-0.08,0.44-0.16,0.61c-0.08,0.18-0.2,0.36-0.35,0.54c-0.15,0.18-0.36,0.41-0.61,0.68c-0.29,0.32-0.55,0.58-0.79,0.77
			c-0.24,0.19-0.48,0.34-0.72,0.43c-0.24,0.1-0.49,0.16-0.76,0.19c-0.26,0.03-0.57,0.05-0.92,0.05h-6.29l-0.38-5.45h3l0.46,1.99
			c0.06,0.26,0.15,0.43,0.25,0.52c0.1,0.09,0.28,0.15,0.54,0.18h1.46c0.22,0,0.4-0.01,0.54-0.04s0.28-0.08,0.42-0.16
			c0.14-0.08,0.26-0.17,0.35-0.28c0.09-0.1,0.15-0.25,0.18-0.43c0.03-0.18,0.05-0.42,0.06-0.71c0.01-0.29,0.01-0.66,0.01-1.13
			c0-0.27-0.06-0.48-0.19-0.61c-0.13-0.14-0.38-0.27-0.74-0.4l-4.37-1.44c-0.46-0.16-0.83-0.3-1.09-0.42
			c-0.26-0.12-0.46-0.28-0.59-0.47c-0.13-0.19-0.21-0.44-0.24-0.74c-0.03-0.3-0.05-0.71-0.05-1.22v-2.38c0-0.24,0.01-0.45,0.02-0.62
			c0.02-0.18,0.07-0.36,0.16-0.54s0.22-0.39,0.4-0.61c0.18-0.22,0.43-0.49,0.77-0.79c0.3-0.29,0.58-0.51,0.82-0.67
			c0.24-0.16,0.47-0.28,0.7-0.36c0.22-0.08,0.45-0.13,0.67-0.14c0.22-0.02,0.46-0.02,0.72-0.02h6l0.41,5.28h-2.93L1266.34,23.19z"/>
		<path d="M1284.05,19.62l0.41,5.38h-3l-0.26-1.63c-0.08-0.37-0.17-0.6-0.26-0.71c-0.1-0.1-0.34-0.16-0.74-0.18h-2.42v4.08h4.1v2.57
			h-4.1v4.66h2.57c0.42,0.02,0.69-0.03,0.82-0.14c0.13-0.11,0.23-0.37,0.31-0.77l0.34-1.87h3l-0.34,5.59h-11.33v-2.86h0.82V22.5
			h-0.82v-2.88H1284.05z"/>
		<path d="M1300.23,19.64v2.86h-0.81v9.26c0,0.45-0.01,0.82-0.04,1.13c-0.02,0.3-0.08,0.57-0.16,0.8c-0.08,0.23-0.2,0.46-0.37,0.67
			c-0.17,0.22-0.39,0.46-0.66,0.73c-0.37,0.37-0.68,0.65-0.95,0.85c-0.27,0.2-0.51,0.35-0.73,0.44c-0.22,0.1-0.45,0.15-0.66,0.17
			c-0.22,0.02-0.47,0.02-0.76,0.02h-2.4c-0.38,0-0.71-0.02-0.96-0.05c-0.26-0.03-0.49-0.09-0.7-0.18c-0.21-0.09-0.42-0.22-0.62-0.38
			c-0.21-0.17-0.46-0.39-0.74-0.66c-0.35-0.32-0.62-0.6-0.82-0.84c-0.19-0.24-0.33-0.48-0.42-0.72c-0.09-0.24-0.14-0.5-0.16-0.79
			c-0.02-0.29-0.02-0.63-0.02-1.03V22.5h-0.82v-2.86h4.63v11.81c0,0.46,0.02,0.81,0.05,1.03c0.03,0.22,0.09,0.42,0.17,0.6
			c0.13,0.26,0.32,0.43,0.58,0.52c0.26,0.09,0.62,0.13,1.09,0.13c0.21,0,0.43-0.02,0.65-0.05c0.23-0.03,0.41-0.14,0.56-0.31
			c0.16-0.16,0.27-0.36,0.34-0.6c0.06-0.24,0.1-0.68,0.1-1.32V19.64H1300.23z"/>
		<path d="M1321.51,19.64v2.86h-0.82v11.23h0.82v2.86h-4.39l0.1-14.09l-3.79,14.09h-2.3l-3.82-14.09l0.12,14.09h-4.37v-2.86h0.82
			V22.5h-0.82v-2.86h6.82l2.45,11.14l2.47-11.14H1321.51z"/>
	</g>
</g>
<rect x="0.15" y="-0.26" class="nav05a2" width="1380" height="68"/>
</svg>
