<?xml version="1.0" encoding="utf-8"?>
<!-- Generator: Adobe Illustrator 26.5.0, SVG Export Plug-In . SVG Version: 6.00 Build 0)  -->
<svg version="1.1" id="Layer_1" xmlns="http://www.w3.org/2000/svg" xmlns:xlink="http://www.w3.org/1999/xlink" x="0px" y="0px"
	 viewBox="0 0 1380 68" style="enable-background:new 0 0 1380 68;" xml:space="preserve">
<style type="text/css">
	.st0{fill:#B0C1ED;}
	.st1{fill:#FFFFFF;}
	.st2{fill:none;}
</style>
<g id="get_involved">
	<g>
		<path class="st0" d="M436.31,29.31l-0.49-9.66h-14.61l0-0.02h-14.77v5.49l-0.35-5.46h-8.05c-0.45,0-0.84,0.02-1.19,0.06
			c-0.45,0.06-0.88,0.17-1.28,0.34c-0.4,0.17-0.78,0.41-1.15,0.71c-0.26,0.22-0.58,0.51-0.96,0.89c-0.34,0.34-0.6,0.63-0.79,0.85
			c-0.29,0.35-0.51,0.71-0.66,1.08c-0.15,0.37-0.24,0.77-0.28,1.2c-0.02,0.26-0.03,0.57-0.03,0.95v8.5c0,0.52,0.03,0.95,0.08,1.32
			c0.07,0.47,0.2,0.91,0.39,1.31c0.2,0.42,0.49,0.81,0.84,1.17c0.21,0.21,0.48,0.47,0.83,0.8c0.37,0.34,0.69,0.6,0.95,0.8
			c0.35,0.26,0.69,0.47,1.03,0.62c0.42,0.18,0.86,0.29,1.33,0.32c0.27,0.02,0.62,0.03,1.04,0.03h8.22h0.54h14.67l0.58-9.59h-3.05v-2
			h0.39l-0.02,0.31H424v4.42h-0.82v6.86h9.45v-6.86h-0.82v-4.42H436.31z M407.25,33.73h-0.27V26.6h-0.45l-0.01-0.1h0.73V33.73z"/>
		<path class="st0" d="M553.59,24.9c-0.03-0.46-0.14-0.9-0.32-1.32c-0.18-0.4-0.43-0.78-0.77-1.16c-0.25-0.28-0.58-0.6-0.96-0.95
			c-0.41-0.39-0.77-0.69-1.1-0.92c-0.39-0.27-0.79-0.48-1.2-0.62c-0.4-0.14-0.82-0.22-1.26-0.25c-0.29-0.02-0.64-0.03-1.06-0.03
			h-9.74l0-0.02H522.4v0.02h-5.89l-0.82,4.52l-0.8-4.52h-7.93v6.86h1.22l0.89,4.18h-3.99V26.5h0.82v-6.86h-9.45v3.18
			c-0.08-0.12-0.15-0.24-0.24-0.35c-0.24-0.3-0.54-0.63-0.9-0.97c-0.39-0.39-0.73-0.69-1.03-0.92c-0.36-0.27-0.73-0.48-1.09-0.63
			c-0.39-0.16-0.8-0.25-1.22-0.28c-0.26-0.02-0.56-0.03-0.92-0.03h-2.83c-0.4,0-0.74,0.01-1.04,0.03c-0.45,0.03-0.88,0.12-1.28,0.27
			c-0.39,0.14-0.77,0.35-1.15,0.63c-0.31,0.22-0.65,0.52-1.09,0.94c-0.07,0.07-0.12,0.12-0.18,0.19v-2.04h-7.87l-0.82,4.52
			l-0.8-4.52h-5.85h-2.08h-5.95l0.01,1.55l-0.5-1.55h-9.06h-1h-8.45v6.86h0.82v7.23h-0.82v6.86h8.45h1h7.18l-0.04-3.13l1.03,3.13
			h8.58V26.7l2.96,13.88h8.81l2.61-11.71v5.39c0,0.35,0.01,0.67,0.03,0.95c0.03,0.43,0.12,0.85,0.26,1.25
			c0.13,0.36,0.32,0.73,0.56,1.08c0.21,0.32,0.48,0.64,0.85,1.04c0.37,0.37,0.7,0.67,1,0.92c0.38,0.3,0.74,0.53,1.12,0.7
			c0.41,0.18,0.82,0.29,1.23,0.34c0.28,0.03,0.6,0.05,0.95,0.05h3.26c0.41,0,0.77-0.02,1.06-0.04c0.46-0.04,0.9-0.16,1.32-0.34
			c0.39-0.17,0.77-0.42,1.13-0.72c0.25-0.21,0.54-0.48,0.88-0.82c0.38-0.38,0.68-0.71,0.89-0.99c0.07-0.09,0.12-0.17,0.18-0.26v3.18
			h14.7l0.01-0.12l0.03,0.12H520l3.14-14.09h0.07v7.23h-0.82v6.86h14.47h0.74h9.16c0.44,0,0.83-0.01,1.16-0.03
			c0.49-0.03,0.97-0.12,1.43-0.28c0.46-0.16,0.9-0.4,1.33-0.72c0.38-0.28,0.78-0.65,1.21-1.12c0.38-0.42,0.67-0.79,0.89-1.13
			c0.25-0.39,0.45-0.79,0.57-1.18c0.12-0.38,0.2-0.76,0.22-1.16c0.02-0.27,0.03-0.59,0.03-0.94v-8.09
			C553.62,25.51,553.61,25.17,553.59,24.9z M449.77,33.73V26.5h0.63v7.23H449.77z M545.5,26.55h0.27c0.01,0,0.02,0,0.03,0v7.12
			c0,0.02,0,0.04,0,0.06c-0.01,0-0.02,0-0.03,0h-0.27V26.55z M497.27,33.73h-0.03V26.5h0.03V33.73z M535.14,30.99v-2h2.55v2H535.14z
			"/>
	</g>
	<g>
		<path class="st1" d="M434.31,27.3l-0.49-9.66h-14.61l0-0.02h-14.77v5.49l-0.35-5.46h-8.05c-0.45,0-0.84,0.02-1.19,0.06
			c-0.45,0.06-0.88,0.17-1.28,0.34c-0.4,0.17-0.78,0.41-1.15,0.71c-0.26,0.22-0.58,0.51-0.96,0.89c-0.34,0.34-0.6,0.63-0.79,0.85
			c-0.29,0.35-0.51,0.71-0.66,1.08c-0.15,0.37-0.24,0.77-0.28,1.2c-0.02,0.26-0.03,0.57-0.03,0.95v8.5c0,0.52,0.03,0.95,0.08,1.32
			c0.07,0.47,0.2,0.91,0.39,1.31c0.2,0.42,0.49,0.81,0.84,1.17c0.21,0.21,0.48,0.47,0.83,0.8c0.37,0.34,0.69,0.6,0.95,0.8
			c0.36,0.27,0.7,0.47,1.03,0.61c0.41,0.18,0.87,0.29,1.33,0.32c0.28,0.02,0.63,0.03,1.05,0.03h8.22h0.54h14.67l0.58-9.59h-3.05v-2
			h0.39l-0.02,0.31H422v4.42h-0.82v6.86h9.45v-6.86h-0.82V27.3H434.31z M405.25,31.73h-0.27V24.6h-0.45l-0.01-0.1h0.73V31.73z"/>
		<path class="st1" d="M551.59,22.9c-0.03-0.46-0.14-0.9-0.32-1.32c-0.18-0.4-0.43-0.78-0.77-1.16c-0.25-0.28-0.58-0.6-0.96-0.95
			c-0.41-0.39-0.77-0.69-1.1-0.92c-0.39-0.27-0.79-0.48-1.2-0.62c-0.4-0.14-0.82-0.22-1.26-0.25c-0.29-0.02-0.64-0.03-1.06-0.03
			h-9.74l0-0.02H520.4v0.02h-5.89l-0.82,4.52l-0.8-4.52h-7.93v6.86h1.22l0.89,4.18h-3.99V24.5h0.82v-6.86h-9.45v3.18
			c-0.08-0.12-0.15-0.24-0.24-0.35c-0.24-0.3-0.54-0.63-0.9-0.97c-0.39-0.39-0.73-0.69-1.03-0.92c-0.36-0.27-0.73-0.48-1.09-0.63
			c-0.39-0.16-0.8-0.25-1.22-0.28c-0.26-0.02-0.56-0.03-0.92-0.03h-2.83c-0.4,0-0.74,0.01-1.04,0.03c-0.45,0.03-0.88,0.12-1.28,0.27
			c-0.39,0.14-0.77,0.35-1.15,0.63c-0.31,0.22-0.65,0.52-1.09,0.94c-0.07,0.07-0.12,0.12-0.18,0.19v-2.04h-7.87l-0.82,4.52
			l-0.8-4.52h-5.85h-2.08h-5.95l0.01,1.55l-0.5-1.55h-9.06h-1h-8.45v6.86h0.82v7.23h-0.82v6.86h8.45h1h7.18l-0.04-3.13l1.03,3.13
			h8.58V24.7l2.96,13.88h8.81l2.61-11.71v5.39c0,0.35,0.01,0.67,0.03,0.95c0.03,0.43,0.12,0.85,0.26,1.25
			c0.13,0.37,0.32,0.73,0.56,1.09c0.21,0.32,0.48,0.64,0.85,1.04c0.37,0.38,0.7,0.68,1,0.92c0.37,0.3,0.74,0.53,1.12,0.7
			c0.4,0.18,0.81,0.29,1.24,0.34c0.28,0.03,0.59,0.05,0.95,0.05h3.26c0.41,0,0.76-0.02,1.07-0.05c0.46-0.04,0.9-0.16,1.32-0.34
			c0.39-0.17,0.77-0.42,1.13-0.72c0.25-0.21,0.54-0.48,0.87-0.82c0.38-0.38,0.68-0.71,0.9-0.99c0.07-0.09,0.12-0.17,0.18-0.26v3.18
			h14.7l0.01-0.12l0.03,0.12H518l3.14-14.09h0.07v7.23h-0.82v6.86h14.47h0.74h9.16c0.44,0,0.83-0.01,1.16-0.03
			c0.49-0.03,0.97-0.12,1.43-0.28c0.46-0.16,0.91-0.41,1.33-0.72c0.38-0.28,0.78-0.65,1.21-1.12c0.38-0.42,0.67-0.79,0.89-1.13
			c0.26-0.4,0.45-0.79,0.57-1.18c0.12-0.38,0.2-0.77,0.22-1.16c0.02-0.27,0.03-0.59,0.03-0.94v-8.09
			C551.62,23.51,551.6,23.17,551.59,22.9z M447.77,31.73V24.5h0.63v7.23H447.77z M543.5,24.54h0.27c0.01,0,0.02,0,0.03,0v7.12
			c0,0.02,0,0.04,0,0.06c-0.01,0-0.02,0-0.03,0h-0.27V24.54z M495.27,31.73h-0.03V24.5h0.03V31.73z M533.14,28.99v-2h2.55v2H533.14z
			"/>
	</g>
	<g>
		<path d="M402.21,19.64l0.34,5.3h-3.1l-0.24-1.75c-0.06-0.32-0.17-0.52-0.32-0.59c-0.15-0.07-0.39-0.11-0.71-0.11H397
			c-0.59,0-0.99,0.15-1.19,0.46c-0.2,0.3-0.3,0.8-0.3,1.48v7.62c0,0.21,0.02,0.42,0.05,0.62c0.03,0.21,0.11,0.39,0.23,0.55
			c0.12,0.16,0.3,0.29,0.55,0.4c0.25,0.1,0.58,0.16,1,0.16h1.99v-4.61h-2.09V26.6h5.74v9.98h-6.77c-0.37,0-0.67-0.01-0.91-0.02
			c-0.24-0.02-0.46-0.07-0.66-0.16c-0.2-0.09-0.41-0.22-0.64-0.38c-0.22-0.17-0.5-0.4-0.82-0.68c-0.3-0.29-0.56-0.53-0.76-0.73
			c-0.2-0.2-0.35-0.41-0.46-0.62s-0.18-0.46-0.22-0.73s-0.06-0.62-0.06-1.03v-8.5c0-0.32,0.01-0.59,0.02-0.8s0.06-0.41,0.13-0.59
			c0.07-0.18,0.19-0.36,0.35-0.55s0.38-0.43,0.67-0.72c0.32-0.32,0.59-0.57,0.82-0.76c0.22-0.18,0.45-0.32,0.67-0.42
			c0.22-0.1,0.47-0.16,0.73-0.19c0.26-0.03,0.58-0.05,0.95-0.05H402.21z"/>
		<path d="M417.35,19.62l0.41,5.38h-3l-0.26-1.63c-0.08-0.37-0.17-0.6-0.26-0.71c-0.1-0.1-0.34-0.16-0.74-0.18h-2.42v4.08h4.1v2.57
			h-4.1v4.66h2.57c0.42,0.02,0.69-0.03,0.82-0.14c0.13-0.11,0.23-0.37,0.31-0.77l0.34-1.87h3l-0.34,5.59h-11.33v-2.86h0.82V22.5
			h-0.82v-2.88H417.35z"/>
		<path d="M431.92,19.64l0.29,5.66h-2.45l-0.29-1.9c-0.03-0.24-0.06-0.42-0.08-0.54c-0.02-0.12-0.08-0.21-0.16-0.28
			c-0.08-0.08-0.2-0.12-0.37-0.13c-0.17-0.01-0.52-0.01-1.04-0.01v11.28h0.82v2.86h-5.45v-2.86H424V22.45h-1.06
			c-0.21,0.03-0.34,0.1-0.4,0.22s-0.11,0.33-0.16,0.65l-0.36,1.99h-2.38l0.34-5.66H431.92z"/>
		<path d="M446.58,19.64v2.86h-0.82v11.23h0.82v2.86h-5.45v-2.86h0.82V22.5h-0.82v-2.86H446.58z"/>
		<path d="M464.15,19.64v2.86h-0.82v14.09h-5.14l-4.66-14.09l0.19,14.09h-4.15v-2.86h0.82V22.5h-0.82v-2.86h6.6l4.08,12.65
			l-0.12-12.65H464.15z"/>
		<path d="M479.49,19.64v2.86h-0.84l-3.14,14.09h-5.59l-3-14.09h-0.84v-2.86h4.25l2.45,13.85l2.52-13.85H479.49z"/>
		<path d="M489.05,19.64c0.3,0,0.56,0.01,0.78,0.02c0.21,0.02,0.42,0.06,0.62,0.14c0.2,0.08,0.41,0.2,0.63,0.37
			c0.22,0.17,0.49,0.41,0.81,0.73c0.32,0.3,0.57,0.57,0.74,0.79c0.18,0.22,0.31,0.44,0.4,0.66c0.09,0.22,0.14,0.44,0.17,0.68
			c0.02,0.24,0.04,0.54,0.04,0.89v8.4c0,0.34-0.01,0.62-0.02,0.84c-0.02,0.22-0.06,0.44-0.14,0.64c-0.08,0.2-0.2,0.41-0.37,0.62
			s-0.41,0.48-0.73,0.8c-0.29,0.29-0.54,0.52-0.76,0.71c-0.22,0.18-0.43,0.32-0.65,0.42c-0.22,0.1-0.45,0.16-0.7,0.18
			c-0.25,0.02-0.54,0.04-0.88,0.04h-3.26c-0.27,0-0.51-0.01-0.73-0.04c-0.21-0.02-0.43-0.08-0.64-0.18
			c-0.21-0.1-0.44-0.24-0.68-0.43c-0.24-0.19-0.52-0.45-0.83-0.77c-0.25-0.27-0.46-0.52-0.61-0.74c-0.15-0.22-0.27-0.44-0.35-0.66
			c-0.08-0.22-0.13-0.44-0.14-0.68c-0.02-0.24-0.02-0.51-0.02-0.82v-8.47c0-0.34,0.01-0.62,0.04-0.84s0.08-0.43,0.16-0.62
			c0.08-0.19,0.21-0.39,0.39-0.6c0.18-0.21,0.44-0.48,0.78-0.82c0.33-0.32,0.62-0.56,0.85-0.73c0.23-0.17,0.45-0.29,0.67-0.37
			c0.22-0.08,0.45-0.13,0.71-0.14c0.26-0.02,0.56-0.02,0.91-0.02H489.05z M485.54,24.91v6.36c0,0.45,0.02,0.83,0.06,1.15
			c0.04,0.31,0.13,0.57,0.28,0.76c0.15,0.19,0.35,0.33,0.62,0.42c0.27,0.09,0.62,0.13,1.05,0.13c0.47,0,0.83-0.06,1.07-0.18
			s0.44-0.28,0.56-0.48s0.19-0.43,0.22-0.7c0.02-0.27,0.04-0.55,0.04-0.86v-6.56c0-0.61-0.02-1.05-0.07-1.31
			c-0.05-0.27-0.17-0.49-0.36-0.69c-0.19-0.19-0.41-0.32-0.65-0.37c-0.24-0.06-0.58-0.08-1.01-0.08c-0.08,0-0.19,0-0.34,0.01
			c-0.15,0.01-0.29,0.04-0.45,0.08c-0.15,0.05-0.31,0.13-0.46,0.24s-0.28,0.27-0.37,0.48c-0.08,0.16-0.13,0.34-0.14,0.53
			C485.54,24.04,485.54,24.39,485.54,24.91z"/>
		<path d="M507.66,30.68l-0.38,5.9h-10.82v-2.86h0.82V22.5h-0.82v-2.86h5.45v2.86h-0.82v11.23h2.33c0.45,0.02,0.72-0.05,0.83-0.19
			c0.1-0.14,0.19-0.44,0.25-0.89l0.29-1.97H507.66z"/>
		<path d="M520.38,19.64v2.86h-0.84l-3.14,14.09h-5.59l-3-14.09h-0.84v-2.86h4.25l2.45,13.85l2.52-13.85H520.38z"/>
		<path d="M533.32,19.62l0.41,5.38h-3l-0.26-1.63c-0.08-0.37-0.17-0.6-0.26-0.71c-0.1-0.1-0.34-0.16-0.74-0.18h-2.42v4.08h4.1v2.57
			h-4.1v4.66h2.57c0.42,0.02,0.69-0.03,0.82-0.14c0.13-0.11,0.23-0.37,0.31-0.77l0.34-1.87h3l-0.34,5.59H522.4v-2.86h0.82V22.5
			h-0.82v-2.88H533.32z"/>
		<path d="M536.87,36.58v-2.86h0.82V22.5h-0.82v-2.86h8.04c0.37,0,0.68,0.01,0.94,0.02c0.26,0.02,0.5,0.06,0.73,0.14
			c0.23,0.08,0.47,0.2,0.71,0.37c0.24,0.17,0.53,0.41,0.86,0.73c0.37,0.34,0.65,0.62,0.85,0.84c0.2,0.22,0.34,0.44,0.43,0.64
			c0.09,0.2,0.14,0.42,0.16,0.65s0.02,0.53,0.02,0.9v8.09c0,0.3-0.01,0.57-0.02,0.8s-0.06,0.46-0.13,0.68
			c-0.07,0.22-0.19,0.46-0.35,0.71s-0.39,0.54-0.7,0.88c-0.34,0.37-0.64,0.65-0.91,0.85c-0.27,0.2-0.54,0.35-0.82,0.44
			c-0.27,0.1-0.56,0.15-0.86,0.17c-0.3,0.02-0.66,0.02-1.06,0.02H536.87z M541.5,33.73h2.27c0.47,0,0.83-0.04,1.1-0.12
			c0.27-0.08,0.47-0.2,0.6-0.37s0.23-0.38,0.27-0.65c0.04-0.26,0.06-0.57,0.06-0.92v-7.22c0-0.42-0.04-0.75-0.12-1
			c-0.08-0.25-0.2-0.44-0.35-0.58c-0.15-0.14-0.36-0.22-0.62-0.26c-0.26-0.04-0.57-0.06-0.94-0.06h-2.27V33.73z"/>
	</g>
</g>
<rect x="0.15" y="-0.26" class="st2" width="1380" height="68"/>
</svg>
